<svg width="30" height="30" viewBox="0 0 30 30" fill="none" xmlns="http://www.w3.org/2000/svg">
<path d="M8.75 27.5C8.0625 27.5 7.47417 27.2554 6.985 26.7663C6.495 26.2763 6.25 25.6875 6.25 25C6.25 24.3125 6.495 23.7237 6.985 23.2337C7.47417 22.7446 8.0625 22.5 8.75 22.5C9.4375 22.5 10.0258 22.7446 10.515 23.2337C11.005 23.7237 11.25 24.3125 11.25 25C11.25 25.6875 11.005 26.2763 10.515 26.7663C10.0258 27.2554 9.4375 27.5 8.75 27.5ZM21.25 27.5C20.5625 27.5 19.9742 27.2554 19.485 26.7663C18.995 26.2763 18.75 25.6875 18.75 25C18.75 24.3125 18.995 23.7237 19.485 23.2337C19.9742 22.7446 20.5625 22.5 21.25 22.5C21.9375 22.5 22.5263 22.7446 23.0163 23.2337C23.5054 23.7237 23.75 24.3125 23.75 25C23.75 25.6875 23.5054 26.2763 23.0163 26.7663C22.5263 27.2554 21.9375 27.5 21.25 27.5ZM8.75 21.25C7.8125 21.25 7.10417 20.8383 6.625 20.015C6.14583 19.1925 6.125 18.375 6.5625 17.5625L8.25 14.5L3.75 5H2.46875C2.11458 5 1.82292 4.88 1.59375 4.64C1.36458 4.40083 1.25 4.10417 1.25 3.75C1.25 3.39583 1.37 3.09875 1.61 2.85875C1.84917 2.61958 2.14583 2.5 2.5 2.5H4.53125C4.76042 2.5 4.97917 2.5625 5.1875 2.6875C5.39583 2.8125 5.55208 2.98958 5.65625 3.21875L6.5 5H24.9375C25.5 5 25.8854 5.20833 26.0938 5.625C26.3021 6.04167 26.2917 6.47917 26.0625 6.9375L21.625 14.9375C21.3958 15.3542 21.0938 15.6771 20.7188 15.9062C20.3438 16.1354 19.9167 16.25 19.4375 16.25H10.125L8.75 18.75H22.5312C22.8854 18.75 23.1771 18.8696 23.4062 19.1087C23.6354 19.3487 23.75 19.6458 23.75 20C23.75 20.3542 23.63 20.6508 23.39 20.89C23.1508 21.13 22.8542 21.25 22.5 21.25H8.75Z" fill="black"/>
</svg>
