<svg width="32" height="32" viewBox="0 0 32 32" fill="none" xmlns="http://www.w3.org/2000/svg">
<path d="M3.86712 20.1664L15.0671 8.93307C15.2005 8.79974 15.3449 8.70552 15.5005 8.65041C15.656 8.59441 15.8227 8.56641 16.0005 8.56641C16.1782 8.56641 16.3449 8.59441 16.5005 8.65041C16.656 8.70552 16.8005 8.79974 16.9338 8.93307L28.1671 20.1664C28.4782 20.4775 28.6338 20.8664 28.6338 21.3331C28.6338 21.7997 28.4671 22.1997 28.1338 22.5331C27.8005 22.8664 27.4116 23.0331 26.9671 23.0331C26.5227 23.0331 26.1338 22.8664 25.8005 22.5331L16.0005 12.7331L6.20045 22.5331C5.88934 22.8442 5.50623 22.9997 5.05112 22.9997C4.59512 22.9997 4.20045 22.8331 3.86712 22.4997C3.53379 22.1664 3.36712 21.7775 3.36712 21.3331C3.36712 20.8886 3.53379 20.4997 3.86712 20.1664Z" fill="#FF8080"/>
</svg>
