<svg width="32" height="32" viewBox="0 0 32 32" fill="none" xmlns="http://www.w3.org/2000/svg">
<path d="M28.1329 11.8336L16.9329 23.0669C16.7995 23.2003 16.6551 23.2945 16.4995 23.3496C16.344 23.4056 16.1773 23.4336 15.9995 23.4336C15.8218 23.4336 15.6551 23.4056 15.4995 23.3496C15.344 23.2945 15.1995 23.2003 15.0662 23.0669L3.83288 11.8336C3.52177 11.5225 3.36621 11.1336 3.36621 10.6669C3.36621 10.2003 3.53288 9.80026 3.86621 9.46693C4.19954 9.13359 4.58843 8.96693 5.03288 8.96693C5.47732 8.96693 5.86621 9.13359 6.19954 9.46693L15.9995 19.2669L25.7995 9.46693C26.1107 9.15582 26.4938 9.00026 26.9489 9.00026C27.4049 9.00026 27.7995 9.16693 28.1329 9.50026C28.4662 9.83359 28.6329 10.2225 28.6329 10.6669C28.6329 11.1114 28.4662 11.5003 28.1329 11.8336Z" fill="#FF8080"/>
</svg>
