<svg width="48" height="44" viewBox="0 0 48 44" fill="none" xmlns="http://www.w3.org/2000/svg">
<mask id="mask0_205_789" style="mask-type:alpha" maskUnits="userSpaceOnUse" x="1" y="0" width="46" height="44">
<path d="M2.30104 20.0343C2.27523 19.7372 2.31148 19.4379 2.40748 19.1555C2.50348 18.8731 2.65713 18.6137 2.85869 18.3939C3.06024 18.174 3.3053 17.9984 3.57831 17.8783C3.85132 17.7581 4.14633 17.6961 4.4446 17.696H8.55418C9.12497 17.696 9.67238 17.9227 10.076 18.3263C10.4796 18.73 10.7063 19.2774 10.7063 19.8482V40.2938C10.7063 40.8646 10.4796 41.412 10.076 41.8156C9.67238 42.2192 9.12497 42.446 8.55418 42.446H6.22337C5.68472 42.4461 5.16559 42.2443 4.76852 41.8803C4.37146 41.5163 4.12532 41.0166 4.07873 40.48L2.30104 20.0343ZM17.1629 19.1756C17.1629 18.276 17.7224 17.4711 18.5349 17.088C20.3093 16.2508 23.3321 14.5689 24.6955 12.2951C26.4527 9.36384 26.7842 4.06842 26.838 2.85567C26.8455 2.68565 26.8412 2.51563 26.8638 2.34776C27.1554 0.24616 31.2112 2.70071 32.7661 5.29624C33.6109 6.70376 33.7185 8.55355 33.6302 9.99874C33.5345 11.544 33.0814 13.0365 32.637 14.5194L31.69 17.6798H43.3731C43.7056 17.6798 44.0336 17.7569 44.3314 17.9049C44.6291 18.0529 44.8885 18.2679 45.0892 18.5331C45.2899 18.7982 45.4264 19.1062 45.4881 19.433C45.5498 19.7597 45.5349 20.0963 45.4446 20.4163L39.666 40.8792C39.5384 41.3305 39.2669 41.7278 38.8928 42.0106C38.5187 42.2934 38.0624 42.4463 37.5935 42.446H19.315C18.7443 42.446 18.1968 42.2192 17.7932 41.8156C17.3896 41.412 17.1629 40.8646 17.1629 40.2938V19.1756Z" fill="white" stroke="white" stroke-width="2.24575" stroke-linecap="round" stroke-linejoin="round"/>
</mask>
<g mask="url(#mask0_205_789)">
<path d="M-2.20703 -3.82617H49.4451V47.826H-2.20703V-3.82617Z" fill="black"/>
</g>
</svg>
