<svg width="339" height="121" viewBox="0 0 339 121" fill="none" xmlns="http://www.w3.org/2000/svg">
<g clip-path="url(#clip0_261_3967)">
<path d="M282.141 2.25098L272.837 5.62651L273.526 34.7946C273.526 34.7946 307.814 116.673 308.158 116.673C308.503 116.673 314.533 119.01 319.444 118.491C324.268 117.971 331.419 115.375 332.97 111.913C334.606 108.451 336.502 105.162 336.502 105.162L304.971 32.8905L300.836 23.7159L282.141 2.25098Z" fill="white"/>
<path d="M330.127 103.949L329.696 104.469C327.628 107.152 325.216 109.056 322.545 110.268C321.942 110.527 321.253 110.527 320.478 110.268L320.305 110.181L320.133 110.268C318.669 111.047 317.29 111.566 316.343 111.825C314.189 112.431 306.521 111.652 306.435 111.652L305.66 111.566L308.158 117.365L308.244 117.451C308.244 117.451 308.934 118.057 309.881 118.663C311.518 119.615 314.103 120.654 316.515 119.788C317.721 119.356 319.013 119.096 320.219 118.75C322.89 118.144 325.302 117.451 326.939 115.98C329.265 113.816 331.763 108.017 331.936 107.758L332.022 107.584L330.127 103.949Z" fill="#FFEBA4"/>
<path d="M270.769 6.57816L273.957 33.3228H274.301C274.301 33.3228 277.231 33.5824 280.763 33.3228C284.467 33.1497 287.138 31.938 289.378 29.601C291.531 27.3507 294.891 25.5331 294.977 25.5331L295.15 25.4465L295.494 23.8886L277.747 3.54883L270.769 6.57816Z" fill="#FFEBA4"/>
<path d="M338.914 103.776C338.742 103.17 338.569 102.478 338.225 101.786C327.284 76.5124 316.256 51.2391 305.229 26.0524C304.368 24.1483 303.592 22.4173 302.3 20.9459L301.18 19.6476C296.959 14.8007 292.651 9.69408 287.913 5.19336C287.052 4.41439 286.362 3.63542 285.759 3.02956C284.639 1.90438 283.864 1.03885 283.003 0.606094C281.021 -0.605637 278.954 0.259885 273.268 2.943C271.028 3.98163 270.08 5.71267 270.08 8.39579C270.166 15.7527 270.511 23.2828 271.372 31.5052C271.631 34.0153 271.975 36.6984 273.095 39.2084C278.092 51.1526 283.175 63.1834 288.172 75.1276C293.944 88.8028 299.63 102.565 305.402 116.24C305.832 117.365 306.435 118.663 307.383 119.269C308.072 119.702 308.848 119.702 309.795 119.356C312.38 118.317 311.604 116.153 311.001 114.509L310.915 114.163C319.961 115.115 327.284 111.912 332.883 104.728C332.883 104.815 332.97 104.815 332.97 104.902C333.228 105.421 333.486 105.854 333.831 106.286C334.176 106.806 334.606 107.152 335.037 107.412C335.726 107.844 336.502 107.844 337.277 107.585C338.225 106.979 339.345 106.027 338.914 103.776ZM275.077 14.541C275.077 13.9351 274.991 13.2427 274.904 12.5503C274.732 10.8193 274.56 9.08821 275.249 8.04958C275.852 7.09751 277.317 6.49164 278.867 5.88578C279.47 5.62612 280.16 5.36647 280.763 5.10681C287.224 10.9924 292.738 17.2241 297.303 22.5038C290.67 28.1297 283.864 30.9859 276.283 31.3321C275.68 26.139 275.249 20.5131 275.077 14.541ZM277.661 37.0446C277.144 36.6984 276.8 36.1791 276.627 35.3135C285.932 35.4001 293.513 32.1111 299.716 25.36C300.146 25.9659 300.319 26.4852 300.319 27.0911C300.233 27.7835 299.802 28.4759 298.94 29.0818C293.254 33.4959 286.879 36.2656 279.815 37.3042C278.867 37.4773 278.178 37.3908 277.661 37.0446ZM329.437 101.526C324.527 107.412 318.324 110.008 310.657 109.402C309.968 109.316 309.451 109.229 309.106 108.969C308.589 108.71 308.244 108.191 307.9 107.412C303.42 96.7656 299.371 87.418 295.58 78.7627C292.134 70.8865 288.602 62.9237 285.242 55.2205C283.692 51.5854 282.055 48.0367 280.504 44.4015C280.246 43.7957 279.987 43.1032 279.643 42.4108L279.384 41.805C287.999 40.5067 295.58 37.2177 302.472 31.8514C302.817 32.6304 303.162 33.4094 303.506 34.1884C304.368 36.2656 305.229 38.1698 306.005 40.1605C311.863 55.0474 318.238 70.021 324.441 84.4752C326.336 88.8028 328.145 93.1304 330.04 97.458C330.816 99.1891 330.643 100.141 329.437 101.526Z" fill="#4B4B4B"/>
<path d="M334.606 108.45C334.434 108.364 334.348 108.277 334.262 108.19C332.97 107.411 332.022 108.364 331.333 109.143C331.247 109.229 331.16 109.316 331.074 109.489C327.025 113.557 322.028 115.807 316.17 116.067C315.912 116.067 315.653 116.067 315.481 116.067C314.447 116.067 312.81 115.98 312.724 117.971C312.638 119.009 313.069 119.788 313.844 120.221C314.533 120.567 315.309 120.741 315.998 120.827C319.358 121.26 322.545 120.308 325.647 119.442L326.336 119.269L327.025 118.836C329.868 117.105 332.883 115.374 334.865 112.431C336.071 110.354 335.468 109.143 334.606 108.45Z" fill="#4B4B4B"/>
<path d="M176.78 23.7158L170.318 31.3324L185.05 57.2981L250.869 110.181C250.869 110.181 252.419 113.384 253.625 112.951C254.831 112.605 258.105 111.739 261.034 110.095C263.963 108.45 270.339 104.036 271.028 102.046C271.803 100.055 272.923 97.8045 272.751 95.9004C272.665 93.9097 272.32 89.3224 272.32 89.3224L262.499 80.4941L206.76 35.5735L201.505 31.8517L176.78 23.7158Z" fill="white"/>
<path d="M269.822 93.3033V93.0437L266.376 90.8799L266.289 91.4857C265.686 94.8613 264.48 97.631 262.585 99.9679C262.154 100.487 261.551 100.833 260.776 100.92H260.604L260.517 101.093C259.57 102.478 258.622 103.603 257.847 104.295C256.21 105.853 249.059 108.71 249.059 108.71L248.37 108.969L253.195 112.951H253.281C253.281 112.951 254.142 113.124 255.348 113.21C257.33 113.297 260.001 113.037 261.81 111.133C262.671 110.181 263.705 109.316 264.653 108.45C266.72 106.632 268.616 104.901 269.305 102.824C270.339 99.8813 269.822 93.563 269.822 93.3033Z" fill="#FF8080"/>
<path d="M198.576 36.2651L173.506 26.5713L168.682 32.5434L183.93 54.7008L184.275 54.5277C184.275 54.5277 186.945 53.4025 189.961 51.4983C193.148 49.5942 194.957 47.3438 195.905 44.1414C196.766 41.1986 198.92 37.9096 198.92 37.9096L199.006 37.7365L198.576 36.2651Z" fill="#FF8080"/>
<path d="M163.599 32.37C162.737 31.2448 161.445 30.4658 160.153 30.4658C158.774 30.4658 157.741 31.2448 157.224 32.7162C152.055 46.9107 138.184 62.1439 119.835 62.1439C119.318 62.1439 118.801 62.1439 118.284 62.1439C117.509 62.1439 116.733 62.0574 115.872 61.8843L114.579 61.7112L115.355 60.586C116.302 59.2012 117.078 57.8163 117.767 56.4315C120.438 51.1518 121.299 42.41 118.112 37.1303C116.302 34.1876 113.546 32.7162 109.841 32.7162C109.066 32.7162 108.204 32.8027 107.343 32.8893C101.915 33.7548 98.9001 37.3034 97.4356 40.1597C94.6788 45.2662 94.5065 52.1039 96.9187 57.4701C97.9525 59.7205 99.3309 61.7112 101.14 63.4422L101.829 64.1346L101.14 64.7405C91.4912 72.963 77.9657 78.5023 66.3354 78.762H65.9909C62.9756 78.762 59.7019 78.0695 56.7728 76.9444L55.2221 76.3385L56.6005 75.473C62.7172 71.405 66.2493 66.385 67.0247 60.7591C67.5415 56.6911 66.5939 53.1425 64.1817 50.4594C61.7695 47.7763 58.2374 46.2183 54.4468 46.2183C50.8285 46.2183 47.3825 47.6032 44.6257 50.1997C38.4229 55.9987 37.0445 65.0867 41.0074 73.2226L41.4381 74.1747L40.4043 74.4343C37.6475 75.2133 34.7184 75.7326 31.9616 75.9923C30.5832 76.0788 29.2048 76.1654 27.9126 76.1654C19.556 76.1654 11.2856 73.8285 3.9629 69.3278C3.6183 69.0681 3.18755 68.9816 2.7568 68.9816C1.63685 68.9816 0.5169 70.0202 0.0861502 71.3185C-0.0861496 71.9243 -0.344599 73.3092 0.94765 74.2612C9.39034 80.3199 19.2976 83.5223 29.4633 83.5223C32.3924 83.5223 35.3215 83.2627 38.1644 82.7434C40.8351 82.224 43.5919 81.5316 46.1764 80.5796L46.6071 80.4064L46.9517 80.6661C52.0346 84.7341 58.3235 86.8113 65.6462 86.8113C72.0213 86.8113 78.9995 85.2534 86.5807 82.224C95.4541 78.6754 102.777 74.0881 108.549 68.6353L108.894 68.2891L109.41 68.4622C112.512 69.5009 115.872 69.9336 119.576 69.9336C124.228 69.9336 129.311 69.0681 133.705 67.5102C148.092 62.4036 159.722 50.4594 164.202 36.1783C164.633 34.7934 164.46 33.4951 163.599 32.37ZM49.5362 70.5395L48.847 70.9723L48.4163 70.2798C47.2102 68.2026 46.6071 65.9522 46.7794 63.4422C47.0379 59.8936 48.7609 56.6046 51.2592 55.0466C52.4653 54.3542 53.4991 53.9215 54.5329 53.9215C55.9975 53.9215 57.2036 54.6139 57.8928 55.9122C59.0127 57.7298 58.9266 60.4994 57.7205 62.7498C56.1698 65.7791 53.413 68.3757 49.5362 70.5395ZM110.961 51.6711C110.1 53.6618 108.98 55.566 107.601 57.4701L106.998 58.2491L106.309 57.5567C103.552 54.9601 102.346 51.498 102.777 47.6897C103.208 44.3142 105.275 40.679 108.807 40.679C108.894 40.679 109.066 40.679 109.238 40.679C110.875 40.7655 111.65 41.6311 112.081 42.3235C113.718 45.1797 111.478 50.6325 110.961 51.6711Z" fill="#FF8080"/>
<path d="M254.315 108.969L254.056 108.71C262.499 105.334 267.496 99.0158 269.132 90.0143C269.219 90.0143 269.219 90.1009 269.305 90.1009C269.735 90.4471 270.166 90.7068 270.683 90.9664C271.2 91.2261 271.717 91.3992 272.234 91.3992C273.009 91.3992 273.785 91.1395 274.301 90.4471C274.991 89.6681 275.594 88.2833 274.129 86.5523C273.698 86.0329 273.268 85.6002 272.578 85.0809C251.127 67.857 229.676 50.7196 208.224 33.4957C206.588 32.1975 205.123 31.0723 203.314 30.3799L201.763 29.774C195.819 27.4371 189.616 25.0136 183.327 23.196C182.207 22.8498 181.259 22.5902 180.398 22.3305C178.847 21.8112 177.813 21.465 176.866 21.465C174.54 21.3784 173.075 23.1095 169.285 28.1295C167.82 30.1202 167.734 32.0244 168.94 34.4478C172.386 40.9392 176.263 47.4307 180.829 54.2683C182.207 56.3455 183.758 58.5959 185.912 60.3269C195.905 68.5494 205.898 76.7719 215.892 85.0809C227.35 94.5151 238.808 103.949 250.179 113.383C251.127 114.162 252.161 115.028 253.367 115.114C254.142 115.114 254.918 114.768 255.521 114.076C257.244 111.826 255.521 110.181 254.315 108.969ZM185.136 51.8448C182.207 47.6038 179.192 42.7568 176.263 37.5637C175.918 37.0444 175.574 36.4385 175.229 35.9192C174.281 34.5344 173.334 33.063 173.42 31.7647C173.506 30.6395 174.54 29.4278 175.574 28.2161C176.004 27.6967 176.435 27.1774 176.866 26.6581C185.309 28.8219 193.062 31.7647 199.609 34.2747C196.336 42.2375 191.597 48.0365 185.136 51.8448ZM188.927 56.3455C188.324 56.3455 187.721 55.9993 187.204 55.3069C195.474 51.0658 200.643 44.5744 203.055 35.6596C203.745 36.0058 204.175 36.352 204.348 36.8713C204.606 37.4771 204.52 38.3427 204.089 39.2947C201.16 45.7862 196.766 51.3255 190.994 55.5666C190.219 56.0859 189.53 56.3455 188.927 56.3455ZM251.816 104.815C251.213 105.074 250.696 105.161 250.266 105.161C249.663 105.161 249.146 104.901 248.456 104.295C239.583 97.0251 231.657 90.6202 224.248 84.7347C217.529 79.3684 210.723 74.0022 204.175 68.7225C201.074 66.299 198.059 63.8756 194.957 61.4521C194.44 61.0193 193.837 60.5866 193.32 60.0673L192.804 59.6345C199.782 54.4414 204.951 47.95 208.569 39.9872C209.258 40.5065 209.861 41.0258 210.55 41.5451C212.273 42.9299 213.91 44.2282 215.547 45.6131C227.608 56.0859 240.272 66.299 252.419 76.166C256.038 79.1088 259.742 82.0515 263.36 84.9943C264.825 86.206 265.17 87.1581 264.739 88.8892C263.102 96.5923 258.881 101.699 251.816 104.815Z" fill="#4B4B4B"/>
<path d="M272.492 92.6971C272.32 92.6971 272.148 92.6106 272.061 92.6106C270.511 92.524 270.166 93.8223 269.908 94.8609C269.908 95.034 269.822 95.1206 269.822 95.2937C268.185 100.833 264.739 105.074 259.656 108.103C259.484 108.19 259.225 108.363 259.053 108.45C258.105 108.882 256.641 109.661 257.502 111.479C257.933 112.431 258.622 112.95 259.57 112.95C260.345 112.95 261.12 112.691 261.81 112.431C264.997 111.219 267.323 108.882 269.649 106.719L270.166 106.199L270.597 105.507C272.32 102.651 274.215 99.7078 274.56 96.1592C274.732 93.7357 273.526 92.9568 272.492 92.6971Z" fill="#4B4B4B"/>
</g>
<defs>
<clipPath id="clip0_261_3967">
<rect width="339" height="121" fill="white"/>
</clipPath>
</defs>
</svg>
