<?xml version="1.0" encoding="utf-8"?>
<!-- Generator: Adobe Illustrator 27.2.0, SVG Export Plug-In . SVG Version: 6.00 Build 0)  -->
<svg version="1.1" xmlns="http://www.w3.org/2000/svg" xmlns:xlink="http://www.w3.org/1999/xlink" x="0px" y="0px"
	 viewBox="0 0 335 281" style="enable-background:new 0 0 335 281;" xml:space="preserve">
<style type="text/css">
	.st0{fill:#FFC656;}
	.st1{clip-path:url(#SVGID_00000115488102374483949930000003265553422725048456_);}
	.st2{fill:#FFFFFF;}
	.st3{fill:#FFB3B3;}
	.st4{fill:#4F4F4F;}
</style>
<g id="主圖">
	<circle class="st0" cx="167.5" cy="156.5" r="124.5"/>
	<g>
		<defs>
			<rect id="SVGID_1_" y="0" width="335" height="280.6"/>
		</defs>
		<clipPath id="SVGID_00000105406903377958256110000011515679300526864795_">
			<use xlink:href="#SVGID_1_"  style="overflow:visible;"/>
		</clipPath>
		<g style="clip-path:url(#SVGID_00000105406903377958256110000011515679300526864795_);">
			<path class="st2" d="M34.8,67.4c0,0-2.7,0.9-2.6,1.1c0.1,0.2,3.6,20.1,3.6,20.1s-6.7-6.9-9.7-12.1c-3.1-5.2-6.6-7.6-6.6-7.6
				l-2.1,1.3c0,0,4.1,16.2,4.7,19.3c0.6,3.1,0.2,4.7,0.2,4.7L7.5,82.5l-3.4,2.9l1.7,6.9l9.1,14.2l-2.4,1.9l-9.8-0.7l-0.2,4.6
				c0,0,1.6,4.5,4.7,5.6c3.1,1.1,5.2,0.4,9.7,3.2c4.5,2.8,6.2,5.4,10,7.2c3.7,1.9,8.4,3.6,8.7,5c0.3,1.4-0.6,2.6-1.6,3.7
				c-0.9,1.1-1.1,1.4,1.1,5c2.2,3.7,21.6,33.2,23.6,37.3s25.1,43.9,26.7,47.2c1.6,3.3,5.7,19.6,6.9,26.9c1.2,7.3,2.4,26.4,2.4,26.4
				h145.1c0,0,1.3-36.8,5.9-45.6c4.6-8.9,11.8-23,15.4-28.7c3.6-5.7,12.3-24.4,18.3-33.7c6-9.4,13.7-20.7,17.1-25.9
				c3.5-5.2,5.1-5.1,4.1-7.5s-3.2-1.7-2.1-3.9c1.1-2.1,1.5-2.7,4.1-4c2.6-1.3,12.3-5.5,14.3-8.2c2.1-2.7-0.1-3.1,4.7-3.9
				c4.9-0.8,6.3-0.6,7.9-3.2c1.6-2.7,2.9-3.1,1.9-5.8c-1-2.7,0.4-3.3-3.4-2.2c-3.9,1.1-7.2,2.6-7.8,0.9c-0.6-1.7,0.3-6.2,3.8-10.3
				c3.5-4.2,6.3-6.7,6.1-10.5c-0.2-3.8-0.9-6-2.1-5.5c-1.2,0.4-3.7,2.6-6.5,5.6c-2.8,3.1-4.6,6.6-6.9,6.7c-2.3,0.1-4.3,0.6-3.3-2.1
				c1-2.7,4.9-11.1,5.7-15.2c0.7-4.2,1.6-7.2-0.1-7.9c-1.7-0.7-2.9-1.5-5.5,3.3c-2.6,4.8-5.5,9.6-7.7,12.2s-4.3,3.1-4.3,2.3
				c0-0.7,3.4-17.8,3.4-17.8l-2.7-1.9c0,0-4.4,5.7-6,9.4c-1.6,3.7-3.1,9.7-5.3,12.4c-2.2,2.7-2.6,5.3-3.7,3
				c-1.2-2.3-1.2-6.7-3.1-7.5c-1.8-0.9-4.3-1.3-5.1-0.7s-3.6,2.2-3.3,5.1c0.3,2.9,0.5,5.7,1,11.5c0.5,5.8,0.2,9.2,0.6,12
				s1.3,4.6,0.1,6.4c-1.2,1.8-2.4-0.5-4.4,1.9c-2.1,2.4-27.8,34.8-27.8,34.8s-0.7-2.2-4.4-5.6c-3.7-3.4-8.7-3.6-11.1-2.7
				c-2.4,0.9-5.1,4.2-5.1,4.1c0-0.2-0.1-18-0.1-18l-14-29.4l-78-1.7l-18.9,17.8l0.9,30.2c0,0-5.4-3.6-7-3.6c-1.6,0-5.5-0.1-7.3,1.6
				c-1.8,1.7-4.3,3.8-4.6,5.4c-0.2,1.6-0.6,3.2-0.6,3.2L63,120l-3.9,0.2c0,0,0.7-10.3,0-16.1c-0.7-5.8,0.4-9.7,0.7-14.1
				c0.3-4.4,0.9-6.4-1.5-6.3c-2.4,0.1-5.7,3.3-7.4,5.5c-1.7,2.2-3.7-0.1-3.7-0.1L36.3,67.4H34.8z"/>
			<path class="st3" d="M287.1,134c-6.2-3.7-12.2-7.7-18.1-11.6c-2.6,3.6-5.2,7.2-7.9,10.7c-2.6,3.6-5.2,7.1-8.1,10.5
				c-2.6,3.1-4.9,6.5-7.9,9.3c-0.7,0.6-1.6,0.9-2.4,0.9c1.1,6.8-1.9,13-7.5,17.1c-3.9,2.9-8.5,4.6-13.2,4.5
				c-0.7,1.4-1.2,2.9-1.7,4.4c-0.8,3.8-2.7,7-5.2,10.2c-3,3.9-6,7.9-9.4,11.5c-2.8,3.1-6.2,6.6-10,8.7c-0.8,6-5.5,11.3-10.6,14.8
				c-5.9,2.5-12.1,4.1-18.5,4.6c-4.4-0.3-8.8-1-13-2.4c-7.9-2.6-13.2-10.4-15.2-18.1c-0.2-0.7-0.7-1.2-1.2-1.6c0,0-0.1,0-0.1-0.1
				c-5.6-3.7-10.2-9-14.3-14.4c-3.9-5.2-7.1-10.8-9-17.1c-0.6-1.9-2.6-2.1-3.9-1.3h-0.1c-1.1-0.9-2.3-1.1-3.7-1.2
				c-6.5-2.9-11.2-8.9-12.1-16.2c-0.2-1.9-2.1-2.6-3.4-2.3c-3.6-4.6-25.2-32.2-26.2-33.2c-1.1-1.1-1.5-1.4-3.2-1.7
				c-1.7-0.3-11.8,7.6-17,10.5c-5.2,2.9-8.8,4.6-9.9,6c-1.1,1.5-0.4,2.3-0.4,2.9l18.3,28.1c0,0,19,38.2,22.8,42.2
				c3.8,4,11.7,19.4,12.8,22.9c1.1,3.5,5.7,22.2,6.4,26.2c0.7,4.1,0.1,20.9,0.1,20.9h138.9c0,0,0.3-20.2,1.7-29.2
				c1.4-9,3.1-9.8,4.9-16.3c1.8-6.6,29.2-55.7,32.9-62.6c1-1.9,2.1-3.7,3.2-5.5c3.1-4.9,6.3-9.8,9.4-14.7c1.4-2.2,2.9-4.6,4.3-6.9
				c1.1-1.8,2.7-3.7,3.1-5.9C293,135.4,289.2,135.3,287.1,134z"/>
			<path class="st4" d="M97.1,263.9c-1.4-16.8-5-32.9-13.8-47.6c-5.9-9.8-11.5-19.9-17-30c-6.5-12.2-13-24.3-21.6-35.3
				c-3.1-3.9-5.5-8.4-8.4-12.9c9.3-4.4,17.6-9.8,25.6-15.2c1.3,0.4,1.7,1.3,2.2,2.1c6.9,11.1,15.6,20.8,24.1,30.6
				c1.4,1.7,2.9,3.2,4.5,4.7c0.1,0.1,0.2,0.2,0.4,0.3c-0.3-2.3,0.1-4.8,1.2-6.9c-9.9-11.2-19.6-22.6-28.2-34.8
				c-1.4-1.9-2.3-2.6-3.7-2.3c0.6-3.5,0.4-7,0.1-10.6c0-0.2-0.1-0.3-0.1-0.5c-0.1-4.5-0.1-9,0.7-13.4c0.8-5-0.4-9.5-3.1-11
				c-3.1-1.7-6.6-0.3-9.5,3.9c-0.3,0.4-0.6,0.8-1.1,1.4c-2.3-2.5-3-5.7-4.4-8.5c-1.8-3.7-3.6-7.4-5.8-10.7c-1.6-2.4-3.6-3.3-6-2.2
				c-2.5,1.1-3.7,3.2-3.1,6.2c0.5,2.9,1.4,5.7,2.3,9.7c-3.1-3.1-4.6-6-6.2-8.8c-3.1-5.2-5.9-7-8.8-5.6c-2.9,1.4-3.7,4.7-2,10.7
				c1.1,3.8,2.6,7.4,4.1,11.5c-3.1-1.5-5.1-4.1-7.4-6.2c-2.4-2.2-4.9-3.7-7.6-2c-2.9,1.7-3,5.1-2.4,8.5c0.6,3.4,2.6,5.9,4.4,8.5
				c1.6,2.3,3.1,4.6,4.8,7.1c-1.4,0.9-2.8,0.3-4.1,0.1c-3.1-0.7-5.5,0.4-6.7,3.6c-1.2,3.2-0.2,6.2,2.2,8.4c2.7,2.4,5.7,4.9,9.1,5.4
				c4.1,0.6,6.5,3.4,9.5,5.9c3.1,2.6,6.7,4.4,10.6,5.5c0.2,0.1,0.5,0.1,0.7,0.2c0.2,0.2,0.4,0.5,0.6,0.7c-3.6,2.7-2.5,4.9,1.4,11.3
				c6.2,10.3,14.2,19.6,19.5,30.5c7.2,14.7,15.8,28.6,23.9,42.8c5.9,10.3,8.9,21.4,11.5,32.7c1.8,8.1,1.5,16.5,2,24.7
				c0.1,2.1,0.7,4.1,3.2,4.1c2.6-0.1,2.9-2.2,2.7-4.3C97.4,272.2,97.4,268.1,97.1,263.9z M36.4,130.1c-0.2-0.2-0.4-0.3-0.6-0.4
				c-0.6-0.6-1.5-1-2.4-1.3c-4-1.4-7-3.7-10.2-6.4c-2.9-2.4-5.9-4.8-9.7-5.4c-3.3-0.5-6.4-2.4-8.6-5.3c0.2-0.4,0.3-0.7,0.5-1.1
				c2,0.4,3.9,1,5.9,1.3c2.4,0.4,5.9,2.1,6.7-1c0.8-2.9,0.6-6.7-2-9.7c-2.7-3.1-5-6.6-7.4-10c-0.9-1.3-2.1-2.8-0.9-4.7
				c3.6,3.6,7,7.2,10.5,10.8c1.9,2,3.9,3.3,6.3,1.1c2.4-2.2,3.4-4.8,1.8-8.4c-2.2-4.7-4.2-9.5-6.3-14.3c-0.3-0.7-0.7-1.5-0.2-2.6
				c1.6,0.9,2.1,2.7,3.1,4.2c3,4.6,5.9,9.1,8.9,13.6c1.6,2.4,3.4,3.1,5.8,1.5c2.4-1.6,2.2-3.4,1.4-6c-1.6-4.9-3-9.9-4.2-15.1
				c2.9,2.9,4.2,6.9,5.9,10.7c2,4.5,3.6,9.2,6.4,13.3c0.2,0.3,0.4,0.7,0.7,1.1c-0.2,0.5-0.5,1-0.7,1.5c-0.6,1.6-1.4,3.7-0.9,5.4
				c0.6,2.2,3.4,3.1,4.5,0.9c0.6-1.2,0.5-2.6,0.9-4c0.2-0.8,0.7-1.6,1.1-2.4c0.9-0.9,1.1-2.6,1.2-4c0.3-2.5,0.9-4.7,3.8-6.6
				c-1.3,7.2-1.9,13.5-0.9,19.9c0,0.1,0,0.2,0,0.3c0.4,4.2,0.6,8.2-0.9,12.2c-0.1,0.2-0.1,0.6-0.2,0.8c-0.1,0.2-0.1,0.4-0.1,0.7
				c0,0.1,0,0.2,0,0.3c-5.6,3.9-11.3,7.5-17.4,10.7c-0.2,0.1-0.4,0.2-0.5,0.2C37.5,131.2,37,130.7,36.4,130.1z"/>
			<path class="st4" d="M196.4,209.2c-2.4-1-3.1,1.8-3.9,3.4c-1.3,2.7-3.1,5.1-5.4,7.1c-8.5,7.4-25,8.8-34.8,3.2
				c-5-2.8-8.7-6.7-11-12c-0.6-1.3-1.6-2.6-3.2-1.9c-1.7,0.7-1.2,2.2-0.9,3.6c0.7,2.7,1.7,5.2,3.6,7.4c6.9,8.4,15.9,11.8,26.6,11.7
				c2.9-0.3,5.8-0.3,8.5-0.9c9.4-2.2,17.1-6.8,20.8-16.3C197.4,212.9,199.1,210.3,196.4,209.2z"/>
			<path class="st4" d="M334.5,107.9c-1.2-3.2-3.6-4.3-6.7-3.6c-1.2,0.2-2.6,0.8-4.1-0.1c1.7-2.6,3.2-4.9,4.8-7.1
				c1.8-2.6,3.9-5.1,4.4-8.5c0.6-3.4,0.4-6.7-2.4-8.5c-2.7-1.6-5.2-0.2-7.6,2c-2.2,2.1-4.2,4.7-7.4,6.2c1.5-4.1,3.1-7.8,4.1-11.5
				c1.7-5.9,0.9-9.3-2-10.7c-2.9-1.4-5.7,0.4-8.8,5.6c-1.6,2.8-3.1,5.7-6.2,8.8c1-4,1.8-6.9,2.3-9.7c0.5-3-0.6-5.1-3.1-6.2
				c-2.4-1.1-4.4-0.1-6,2.2c-2.2,3.4-4,7-5.8,10.7c-1.4,2.8-2.1,6-4.4,8.5c-0.4-0.6-0.7-1-1.1-1.4c-2.9-4.2-6.5-5.7-9.5-3.9
				c-2.6,1.6-3.9,6-3.1,11c0.7,4.4,0.7,8.9,0.7,13.4c-0.1,0.1-0.1,0.3-0.1,0.5c-0.4,3.9-0.5,7.6,0.2,11.3c-1.6-0.5-2.9,0.2-4.2,1.9
				c-6.9,9-13.1,18.6-21.2,26.7c-2.4,2.4-4.6,5.1-6.8,7.8c0.7,1.2,1.1,2.6,1.3,4c0.2,0.9,0.3,1.8,0.2,2.7l0.1-0.1
				c7.1-8.3,15-16,21.1-25c2.8-4.1,5.7-8.2,8.7-12.4c4.5,2.9,8.5,5.7,12.6,8.1c4.2,2.6,8.6,4.9,13.1,7.4c-0.3,1.6-1.3,2.6-2.1,3.8
				c-6.7,10.9-15.3,20.6-21,32c-7.5,15-16.5,29-24.4,43.6c-3.5,6.4-6,13.1-8.3,20c-4.1,12.7-4.7,25.7-5.2,38.8
				c-0.1,2,0.2,3.9,2.6,4.1c2.6,0.2,3.3-1.7,3.4-3.9c0.2-3.3,0.3-6.7,0.4-10c0.9-16.9,4.6-32.9,13.2-47.7
				c7.3-12.5,14.4-25.2,21.2-38c4.1-7.6,8.2-15.1,13.3-22.1c4-5.4,7.3-11.2,10.8-16.8c2.3-3.7,2.2-5.6-0.8-7.6
				c0.3-0.4,0.7-0.9,1.1-1.2c0.2-0.1,0.5-0.1,0.7-0.2c3.9-1.1,7.5-3,10.6-5.5c3.1-2.5,5.4-5.2,9.5-5.9c3.4-0.5,6.4-3,9.1-5.4
				C334.7,114.1,335.7,111.1,334.5,107.9z M321.5,115.9c-3.8,0.6-6.8,3-9.7,5.4c-3.2,2.6-6.2,5-10.2,6.4c-0.9,0.3-1.8,0.7-2.4,1.3
				c-0.2,0.1-0.4,0.2-0.6,0.4c-0.7,0.7-1.4,1.6-1.9,2.4c-6-3.4-12-7-17.7-10.8c0.1-0.3,0.2-0.6,0.2-1c0-0.2-0.1-0.4-0.1-0.7
				c0-0.2-0.1-0.5-0.2-0.8c-1.4-4.1-1.2-8-0.9-12.2c0-0.1,0-0.2,0-0.3c0.9-6.4,0.4-12.7-0.9-19.9c2.9,1.9,3.5,4.1,3.8,6.6
				c0.2,1.5,0.3,3.1,1.2,4c0.4,0.8,0.8,1.6,1.1,2.4c0.5,1.4,0.3,2.7,0.9,3.9c1.1,2.1,3.9,1.3,4.5-0.9c0.5-1.7-0.2-3.9-0.9-5.4
				c-0.2-0.5-0.4-1-0.7-1.5c0.2-0.4,0.4-0.7,0.7-1.1c2.7-4.1,4.4-8.8,6.4-13.3c1.6-3.7,2.9-7.7,5.9-10.7c-1.1,5.1-2.6,10.2-4.2,15.1
				c-0.8,2.6-0.9,4.5,1.4,6c2.5,1.6,4.2,0.9,5.8-1.5c3-4.6,6-9,8.9-13.6c0.9-1.4,1.4-3.3,3.1-4.2c0.5,1.1,0.1,1.9-0.2,2.6
				c-2.1,4.8-4.1,9.6-6.3,14.3c-1.6,3.6-0.6,6.2,1.8,8.4c2.4,2.2,4.4,0.9,6.3-1.1c3.5-3.6,7-7.2,10.5-10.8c1.2,1.9,0,3.4-0.9,4.7
				c-2.4,3.4-4.7,6.9-7.4,10c-2.6,3-2.8,6.9-2,9.7c0.9,3.2,4.3,1.4,6.7,1c2-0.3,3.9-0.9,5.9-1.3c0.2,0.4,0.3,0.7,0.5,1.1
				C327.8,113.6,324.7,115.4,321.5,115.9z"/>
			<path class="st4" d="M181.5,181.8c-4.3-0.6-8.7-0.6-12.5-0.6h-4.2c-4.5,0-7.9,0.2-11.1,0.6c-1.7,0.2-2.7,0.7-3.1,1.6
				c-0.4,0.8-0.3,1.9,0.5,3.4c3.4,6.8,9.1,11.2,16.3,12.7l0.2,0.1l0.2-0.1c7.2-1.6,12.8-5.9,16.3-12.7c0.7-1.5,0.9-2.6,0.5-3.4
				C184.2,182.5,183.1,182,181.5,181.8z M178.9,186.3c-2.8,4.7-6.8,7.4-11.3,7.7c-4.5-0.2-8.5-3-11.3-7.7l-0.1-0.2h0.2
				c4-0.4,7.6-0.7,11.2-0.7c3.6,0,7.2,0.2,11.2,0.7h0.2L178.9,186.3z"/>
			<path class="st4" d="M166.6,171.9c0.5,0.1,1.1-0.1,1.4-0.4c0.4-0.3,0.7-0.8,0.7-1.3c0.1-1.1-0.7-1.9-1.7-2.1
				c-0.1,0-0.1,0-0.2-0.1c-0.5-0.1-0.9-0.3-1.4-0.5l-0.1-0.1c0.1-0.2,0.3-0.4,0.4-0.6c0.4-0.4,0.7-0.7,1.1-1.1
				c0.4-0.4,0.6-0.7,0.7-1.3c0.1-0.5-0.1-1.1-0.4-1.4c-0.7-0.7-1.9-1-2.7-0.2c-1.5,1.4-3.6,3.2-3.1,5.5
				C162,170.6,164.5,171.5,166.6,171.9z"/>
			<path class="st4" d="M136.9,141.4c1.6-0.8,3.2-1.3,5-0.6c1.9,0.7,3.9,1.2,4.6-1.2c0.8-2.5-1.4-3.4-3.2-4.1
				c-0.8-0.3-1.8-0.4-2-0.4c-3.1-0.1-5.2,0.6-7,2.3c-0.9,1-1.4,2.2-0.5,3.4C134.6,142,135.7,142,136.9,141.4z"/>
			<path class="st4" d="M193,141.1c2-0.8,3.8-0.5,5.6,0.4c1.2,0.6,2.3,0.4,3.1-0.7c0.7-1.1,0.4-2.2-0.4-3.2
				c-1.6-1.9-3.7-2.6-6.5-2.6c-1.1-0.1-2.4,0.2-3.7,0.9c-1.5,0.8-2.9,1.9-2.2,3.8C189.7,141.7,191.4,141.7,193,141.1z"/>
			<path class="st4" d="M141.3,152.4c-3.8-0.1-6.6,1.5-8.7,4.2c-0.8,1.1-1.2,2.3-0.2,3.4c1,1.1,2.4,1,3.4,0.1
				c2.8-2.7,5.5-3.2,8.8-0.8c1.1,0.8,2.4,0.4,3.3-0.8c0.8-1.2,0.6-2.4-0.4-3.4C145.6,153.4,143.6,152.2,141.3,152.4z"/>
			<path class="st4" d="M194.5,152.4c-2.1-0.2-4.1,0.7-5.8,2.3c-1.2,1.1-1.9,2.4-0.8,3.9c0.9,1.3,2.4,1.5,3.6,0.6
				c3.1-2.2,5.6-1.6,8.2,0.7c1.1,1,2.5,1.4,3.6,0.1c1.1-1.2,0.5-2.6-0.5-3.7C200.7,153.8,198.1,152.4,194.5,152.4z"/>
			<path class="st4" d="M237.3,145.3c0.2-0.4,0.4-0.7,0.6-1.2c0.4-0.7,0.6-1.4,0.5-2.2v-0.1c0-0.1,0.1-0.3,0.1-0.4
				c0.5-7.9,1.6-15.8,0.7-23.9c-1.5-14.5-6-27.6-16-38.6c-2.8-3.1-5.7-5.5-8.9-7.5c-8.2-6.2-18.3-9.5-28.6-8.9
				c-6.3-4.7-14.3-7-22.2-6.9c-7.7,0.1-17.3,2.1-24.7,6.3c-6.5,2.2-12.7,5.7-18.6,10.3c-2.9,2.2-6.1,3.5-9.5,4.4
				c-1.2,0.3-2.6,0.4-3.8,0.6c-1.2,0.2-2.4,0.5-2.6,2c-0.1,1.3,1,1.6,1.9,2.2c1.6,0.9,3.4,0.9,5.8,1.1c-9.2,9.4-14.5,19.8-15.6,32.7
				c-0.8,8.7-0.1,17.1,0.4,25.6c0,0.6,0.1,1.1,0.2,1.6c0.1,0.4,0.2,0.9,0.4,1.2c0.2,0.6,0.6,1.2,1,1.7c-5.2,2.2-8.7,7.8-7.9,14.1
				c1.2,9.7,8.6,17,18.5,18c2,0.2,2.7,0.9,3.4,2.7c2.6,7.6,6.6,14.5,12,20.4c7.4,8.2,17.1,12.4,27.1,16.1
				c18.3,6.7,14.2,6.4,32.7,0.1c19-6.4,32.9-17.8,39.3-37.3c0.6-1.8,1.8-1.6,3.2-1.9c10-1.9,18.6-8.1,18.5-19.8
				C245.2,152.1,241.7,147.4,237.3,145.3z M224.2,172.1c-2.4-0.2-3.4,0.7-4.2,2.5c-1.1,2.6-2.1,5.1-3.3,7.6c-4,8.4-9,16.1-17.1,21.2
				c-8.9,5.5-18.8,8.9-28.6,12.2c-2.2,0.7-4.3,0.7-6.4-0.1c-6.2-2.3-12.5-4.3-18.5-7c-8.4-3.7-16.1-8.4-21.4-16.3
				c-3.6-5.4-6.2-11.2-8.8-17.1c-0.7-1.6-1.4-3.3-3.9-3.2c-8.2,0.5-15-5.2-16.2-13.2c-1-6.7,4.7-11.7,11.1-10
				c1.3,1.6,2.2,3.4,2.3,4.9c0.1,2.1,0.2,4.1,2.7,4.1c2.6,0,3.1-2.1,3.2-4.2c0.1-8.4,0.4-16.9,0.3-25.3c0-1.9,0.4-3.1,1.8-4.2
				c5.7-4.5,10.1-10.1,14.4-15.8c1-1.4,1.7-3.1,3.7-4.2c-0.9,5.7-2.6,10.8-5,15.6c-0.8,1.6-1.8,3.2-0.4,4.9c1.5,1.7,3.4,1.1,5.2,0.4
				c8.3-2.9,14.5-8.5,19.8-15.3c0.7-0.9,1.1-2.2,2.6-2.7c0.7,3.8-0.2,7.2-0.9,10.7c-0.4,1.8-0.9,3.9,0.9,5.2
				c1.9,1.4,3.8,0.5,5.6-0.4c0.7-0.4,1.4-0.8,2.2-1.2c5.7-3.1,10.5-7.3,15.1-12.4c0.2,1.1,0.3,1.6,0.3,2.1c-0.2,2.2-0.3,4.4-0.6,6.7
				c-0.5,3.7,1.5,5.6,5.2,4.5c3.8-1.1,7-3.2,10-5.7c3.9-3.2,7.5-6.7,10.6-10.7c1.4,5.8,3.3,11.5,5.7,17c1.9,4.4,4.4,8.5,7.9,11.7
				c0.6,5.3,0.7,10.7,0.6,16.1c-0.1,1.7-0.2,3.6,0.4,5.2c0.6,1.3,1.6,2.1,3,2c0.1,0,0.2,0,0.3-0.1c0.1-0.1,0.1-0.1,0.2-0.1
				c0.2-0.2,0.4-0.4,0.6-0.6c0.6-2.7,1.9-5.4,3.5-7.5c0.2-0.2,0.4-0.4,0.6-0.6c5.2-1.4,10.7,2.1,11.3,7.3
				C240.8,164.1,232.4,172.8,224.2,172.1z"/>
		</g>
	</g>
</g>
<g id="線條">
	<path class="st3" d="M164.9,0h-0.1c-1.3,0-2.4,1-2.4,2.3L161,30.8c-0.1,1.1,0.7,2.2,1.8,2.5c0.2,0.1,0.3,0.1,0.5,0.1h0.1
		c1.3,0,2.4-1,2.4-2.3l1.3-28.5C167.3,1.2,166.2,0.1,164.9,0z"/>
	<path class="st3" d="M233.3,3c-0.1-0.6-0.5-1.2-1.1-1.5c-0.3-0.2-0.7-0.3-1.1-0.4c-0.9-0.1-1.8,0.3-2.3,1.1l-24.9,39.2
		c-0.7,1.1-0.4,2.6,0.7,3.4c0.3,0.2,0.7,0.3,1.1,0.4c0.9,0.1,1.8-0.3,2.3-1.1L233,4.9C233.3,4.2,233.4,3.6,233.3,3z"/>
	<path class="st3" d="M105.6,4.9c-0.4-0.6-0.9-0.9-1.6-1c-0.6-0.1-1.3,0-1.8,0.4c-1.1,0.7-1.4,2.3-0.6,3.4l25.6,36.8
		c0.4,0.7,1.2,1.1,2,1.1c0.3,0,0.6-0.1,0.9-0.2l-0.3-0.7l0.3-0.2l0.4,0.7c0.6-0.4,0.9-0.9,1-1.6c0.1-0.6,0-1.3-0.4-1.8L105.6,4.9z"
		/>
</g>
</svg>
