<svg width="287" height="202" viewBox="0 0 287 202" fill="none" xmlns="http://www.w3.org/2000/svg">
<g clip-path="url(#clip0_261_3887)">
<path d="M57.8594 26.9365L42.5149 43.644V58.8902C42.5149 58.8902 38.3123 57.7699 36.0155 58.4518C31.3242 59.8157 29.4184 66.489 32.0083 70.7754C34.1096 75.8413 40.6579 76.8642 43.8343 77.4974C48.5256 87.8239 51.2622 93.2307 61.671 98.8323C62.062 104.921 47.3528 110.084 44.4696 112.179L41.2932 107.21L46.2288 93.523L44.323 90.4542L41.6353 91.7207L34.5006 105.847L32.888 105.311L32.3015 90.3081L30.0048 87.7752L27.6102 90.0646L25.6555 105.311C24.0918 104.726 19.938 105.262 18.8629 108.136C17.8367 110.182 18.4231 110.279 17.2503 111.448C16.0775 112.617 15.0024 113.397 15.8331 115.199C16.6639 117.001 16.0286 120.216 16.7616 122.067C17.4458 123.918 17.5435 125.866 16.5661 126.597C15.5399 127.376 14.758 127.669 13.8295 130.689C11.8748 139.067 -1.41717 162.594 5.76638 171.313C7.72109 173.846 7.62335 175.697 12.4124 177.207C17.2014 178.717 16.2729 180.178 20.9642 179.058C28.7831 178.522 34.3051 168.877 35.9666 164.737L36.1132 202H121.583L122.609 164.055C125.395 170.533 130.77 180.227 140.544 178.814C142.303 178.522 145.723 177.742 148.02 175.697C150.317 173.699 153.591 173.066 154.178 168.244C157.061 158.94 143.964 132.637 142.596 126.597L139.908 126.5C141.13 125.087 140.934 118.706 140.886 117.488C142.058 116.417 143.378 111.302 140.348 110.036C138.931 109.013 138.1 106.382 136.585 105.652C135.07 104.921 133.702 106.041 132.871 105.019C132.041 103.996 131.356 98.0043 131.21 96.543C131.063 95.0817 131.943 90.7952 129.695 89.3339C127.398 87.9213 127.545 86.7523 126.518 88.311C125.492 89.9184 125.248 87.97 125.297 93.8639C125.346 101.024 127.007 103.265 122.902 104.775L115.67 91.1362H113.178L111.858 92.9384L116.207 107.308L113.764 112.081C107.362 109.5 100.179 106.772 96.4648 98.8323C101.84 96.3968 108.193 91.1362 111.418 84.5603C112.689 81.7839 113.715 77.741 115.132 77.059C118.797 76.2797 125.395 73.9903 126.714 69.1193C127.74 66.1967 128.669 64.5406 126.665 61.9589C124.662 59.3773 125.248 58.0134 121.729 58.1596C118.211 58.3057 117.722 58.598 117.722 58.598L114.497 63.469L114.35 49.8789L104.088 29.5181L57.8594 26.9365Z" fill="white"/>
<path d="M72.3731 124.064C62.4529 123.577 52.5328 124.259 42.6126 123.723C42.2706 124.405 41.8796 125.087 41.4398 125.672C41.1466 126.061 40.8534 126.5 40.5113 126.889C43.9809 127.23 47.4994 127.328 50.969 127.376C59.3254 127.474 67.6818 127.425 75.9893 127.425C83.7592 127.425 91.5781 127.425 101.156 127.425C105.456 127.62 111.565 127.279 117.625 126.987C118.211 126.938 118.749 126.938 119.335 126.841C118.358 125.818 117.38 124.746 116.452 123.675C101.743 123.577 87.0334 124.795 72.3731 124.064Z" fill="#FF8080"/>
<path d="M118.895 171.312C112.738 171.556 106.58 171.897 100.423 171.994C91.9201 172.092 83.466 173.261 74.9631 172.774C65.9225 172.238 56.882 171.946 47.8415 171.751C45.056 171.702 42.2217 171.459 39.4362 171.312C38.41 171.264 37.1883 171.312 37.0417 172.579C36.8462 173.991 38.0679 173.991 39.0942 174.235C41.0977 174.673 43.1502 174.576 45.1538 174.722C56.5399 175.307 67.8772 175.891 78.2372 176.378C84.7855 176.086 90.3075 175.842 95.8296 175.648C103.6 175.307 111.418 175.161 119.188 174.235C120.263 174.089 121.387 174.04 121.241 172.628C121.143 171.312 119.97 171.264 118.895 171.312Z" fill="#FF8080"/>
<path d="M36.7485 155.385C36.5042 156.554 37.5304 156.944 38.41 157.285C38.7032 157.382 39.0453 157.382 39.3385 157.431C44.5185 158.064 49.7473 158.259 54.9762 158.308C62.9416 158.405 70.907 158.308 78.8725 158.308C87.3266 158.308 95.7318 158.405 104.186 158.259C109.268 158.161 114.35 158.064 119.335 157.333C120.459 157.187 121.681 156.749 121.485 155.385C121.29 154.167 120.117 154.119 119.042 154.167C113.911 154.46 108.779 154.8 103.648 154.898C95.5852 155.044 87.5709 155.093 79.5077 154.947C69.5387 154.8 59.5209 155.336 49.5518 154.557C46.0334 154.265 42.5149 154.752 39.0453 154.167C38.0191 154.021 36.9928 154.265 36.7485 155.385Z" fill="#FF8080"/>
<path d="M119.286 188.118C118.211 188.167 117.087 188.215 116.012 188.361C108.633 189.482 101.254 190.651 93.6794 190.456C88.2062 190.31 82.733 190.505 77.2598 190.456C68.2193 190.31 59.1299 190.992 50.1383 189.579C46.6198 189.043 43.0524 188.556 39.4851 188.167C38.4589 188.021 37.2372 188.069 37.1394 189.433C37.0417 190.553 38.1168 190.846 39.0942 191.041C45.6913 192.258 52.2396 193.768 58.9833 193.817C65.6293 193.866 72.2753 193.817 78.9213 193.817C84.9321 193.817 90.9428 193.768 96.9535 193.817C101.01 193.866 105.066 193.525 109.073 192.843C112.591 192.258 116.11 191.576 119.628 190.894C120.459 190.748 121.192 190.31 121.143 189.384C121.094 188.361 120.215 188.069 119.286 188.118Z" fill="#FF8080"/>
<path d="M57.1263 142.427C64.4076 142.525 71.64 142.427 78.9213 142.427V142.379C80.876 142.379 82.8308 142.379 84.7855 142.379C95.6341 142.427 106.483 142.525 117.331 141.843C118.504 141.794 120.019 141.794 120.117 140.333C120.215 138.628 118.553 138.774 117.331 138.628C116.892 138.579 116.403 138.579 115.914 138.579C112.005 138.531 108.095 138.92 104.235 138.92C87.5221 139.067 70.8093 139.115 54.0965 138.92C49.6496 138.872 45.2026 138.433 40.7557 138.628C39.6317 138.677 38.1168 138.726 38.1657 140.333C38.2145 141.697 39.6317 141.794 40.7068 141.843C46.18 142.087 51.6532 142.379 57.1263 142.427Z" fill="#FF8080"/>
<path d="M34.7938 146.325C31.2265 146.082 27.8057 145.935 24.3361 145.01C20.8665 144.084 17.7878 142.574 14.6114 140.918C12.9011 140.042 11.5816 142.38 13.1454 143.451C18.9607 147.592 27.6591 150.124 34.8427 149.345C36.7485 149.15 36.7974 146.471 34.7938 146.325Z" fill="#FF8080"/>
<path d="M31.8129 161.523C27.9035 161.426 23.8963 161.669 20.0358 160.938C16.2729 160.208 13.3897 158.211 10.2622 156.165C8.89392 155.288 7.28129 157.334 8.50298 158.454C15.1979 164.494 23.261 164.786 31.8129 164.738C33.8653 164.689 33.8653 161.572 31.8129 161.523Z" fill="#FF8080"/>
<path d="M123.538 145.107C127.105 144.864 130.526 144.718 133.995 143.792C137.465 142.867 140.544 141.357 143.72 139.701C145.43 138.824 146.75 141.162 145.186 142.233C139.371 146.374 130.672 148.907 123.489 148.127C121.583 147.981 121.534 145.253 123.538 145.107Z" fill="#FF8080"/>
<path d="M126.518 160.354C130.428 160.257 134.435 160.5 138.296 159.769C142.058 159.039 144.942 157.042 148.069 154.996C149.437 154.119 151.05 156.165 149.828 157.285C143.134 163.325 135.07 163.618 126.518 163.569C124.466 163.52 124.466 160.403 126.518 160.354Z" fill="#FF8080"/>
<path d="M103.062 104.97C103.013 104.97 103.013 104.922 103.013 104.922C101.01 103.168 99.2503 101.22 98.1263 98.833C97.2956 99.5149 96.3182 100.051 95.3409 100.489C96.2205 103.46 98.3707 105.75 101.107 107.601C101.4 107.796 101.694 107.893 101.987 107.893C103.6 109.111 105.408 110.085 107.313 110.913C109.268 111.79 111.125 112.715 112.982 113.738C113.08 113.251 113.178 112.764 113.324 112.277C113.471 111.839 113.617 111.449 113.813 111.059C113.617 110.67 113.422 110.329 113.226 109.988C109.855 108.331 106.385 106.821 103.062 104.97Z" fill="#4B4B4B"/>
<path d="M122.316 163.179C121.778 160.646 121.143 158.113 120.312 155.58C120.312 156.067 120.263 156.603 120.263 157.09C120.117 161.815 120.019 166.54 119.872 171.313C119.824 172.239 119.824 173.164 119.824 174.139C119.775 175.113 119.775 176.087 119.726 177.11C119.628 180.763 119.579 184.465 119.53 188.118C119.53 189.044 119.53 189.969 119.53 190.943C119.482 194.645 119.482 198.299 119.482 202.001H123.586V173.895C123.635 172.629 123.684 171.313 123.733 169.95C123 167.806 122.756 165.419 122.316 163.179Z" fill="#4B4B4B"/>
<path d="M38.5566 188.069C38.4589 183.393 38.41 178.717 38.2634 174.041C38.2634 173.164 38.2145 172.238 38.2145 171.362C38.1168 167.757 38.0191 164.201 37.9213 160.597C37.4815 161.863 36.944 163.081 36.4064 164.347C35.7223 165.955 35.1847 167.708 34.3051 169.218C34.354 171.8 34.4517 174.333 34.5495 176.914V197.421C34.5495 198.98 34.5495 200.49 34.5495 202.049H38.6543C38.6543 198.347 38.6055 194.645 38.5566 190.943C38.5566 189.969 38.5566 188.995 38.5566 188.069Z" fill="#4B4B4B"/>
<path d="M100.325 109.841C99.1037 110.766 97.7354 111.546 96.2694 112.033C83.1239 116.563 70.174 116.904 57.7127 109.792C57.0286 109.402 56.2467 109.013 55.6603 109.792C55.0739 110.571 55.6114 111.253 56.149 111.838C57.4684 113.299 59.081 114.322 60.8891 115.102C66.6555 117.732 72.8129 118.706 79.7032 118.609C83.8081 118.803 88.4017 118.122 92.8486 116.806C96.2694 115.783 99.5924 114.468 102.085 111.789C102.622 111.205 103.16 110.523 102.476 109.743C101.791 109.013 101.01 109.354 100.325 109.841Z" fill="#4B4B4B"/>
<path d="M57.1263 107.698C59.4231 106.87 62.5995 102.632 63.2837 99.7582C62.3063 99.3685 61.4267 98.8814 60.5959 98.2969C59.472 100.635 57.9571 102.632 56.0512 104.386C52.5328 106.334 48.8188 107.99 45.2026 109.744C44.9583 109.744 44.7628 109.792 44.5673 109.939C44.4696 110.036 44.3719 110.085 44.2741 110.182C44.0787 110.377 43.9809 110.572 43.8832 110.815C43.8832 110.961 43.8343 111.059 43.8343 111.205C43.8343 111.449 43.8832 111.692 44.0298 111.936C44.0787 112.033 44.1764 112.179 44.2741 112.228C44.5185 112.812 44.7139 113.446 44.7628 114.079C46.8153 113.007 48.8677 111.887 50.969 110.913C52.826 110.036 54.6341 109.11 56.2467 107.844C56.4911 107.844 56.7843 107.795 57.1263 107.698Z" fill="#4B4B4B"/>
<path d="M44.8117 89.4314C44.6651 89.3827 44.5185 89.334 44.4207 89.2853C42.5149 88.8469 40.8534 90.0647 39.4851 92.9385C38.41 95.1305 37.3838 97.3711 36.3576 99.5144C35.9178 100.489 34.8427 102.681 34.8427 102.681L34.6961 102.34C34.2562 101.219 34.2562 100.196 34.3051 99.2708V98.8324C34.4517 96.0073 34.5983 93.0847 34.2074 90.2108C33.963 88.3111 32.9368 87.0934 31.3731 86.7037C31.1287 86.655 30.8355 86.6063 30.5423 86.6063C28.5876 86.5088 27.1704 87.483 26.3885 89.4801C25.6067 91.5747 25.1669 93.5718 25.0691 95.5202C25.0203 97.2737 24.9225 99.0273 24.8248 100.781C24.7759 101.56 24.727 102.34 24.6782 103.07V103.216H24.5316C20.9642 103.411 18.7652 105.116 17.8367 108.477C17.6901 109.062 17.2992 109.354 16.9082 109.646C16.8105 109.695 16.7616 109.743 16.6639 109.841C14.3182 111.692 13.7807 114.371 15.1978 117.001C16.0775 118.609 17.7878 119.875 19.8403 120.362C21.3063 120.703 22.7723 120.654 24.0429 120.167C24.1895 120.119 24.3361 120.021 24.5316 119.924C24.8736 119.729 25.2157 119.485 25.6067 119.583C25.7533 119.632 25.8999 119.68 25.9976 119.826C26.9261 120.801 28.0501 121.142 29.174 121.434C29.5161 121.531 29.8093 121.58 30.1514 121.629C30.4934 121.677 30.8355 121.775 31.1287 121.872C31.8129 122.018 32.6925 122.311 33.5232 122.798C33.6698 122.895 33.8653 122.993 34.0119 122.993C34.6472 123.139 35.2336 122.895 35.5757 122.262C36.0644 121.483 35.82 120.752 34.8427 120.07C34.0608 119.534 33.1323 119.144 31.9595 118.852C31.6174 118.755 31.2753 118.706 30.8355 118.609C30.6889 118.56 30.5423 118.56 30.3957 118.56C30.2002 118.56 29.9559 118.511 29.7604 118.463C29.2717 118.316 28.9297 118.073 28.7831 117.537V117.488V117.44C29.174 116.271 30.2002 115.93 31.0798 115.637L31.2265 115.589C32.888 115.053 34.5495 114.955 36.1132 115.345C36.7485 115.491 37.4326 115.735 38.0679 116.076C38.2634 116.173 38.4589 116.222 38.6055 116.271C39.143 116.417 39.534 116.271 39.8272 115.832C40.267 115.199 40.0715 114.566 39.3385 113.933C38.4589 113.202 37.5304 112.471 36.553 112.228C36.1621 112.13 35.7711 112.13 35.4291 112.179C34.5006 112.374 33.621 112.374 32.888 112.179C30.8355 111.692 29.7116 109.89 28.8808 108.233C28.7342 107.99 28.5387 107.746 28.2944 107.503C28.1478 107.357 28.0501 107.259 27.9523 107.113L27.9034 107.064C27.6591 106.772 27.3659 106.382 27.5614 105.847C28.3921 103.557 28.4899 101.122 28.5876 98.735C28.6365 97.5173 28.6853 96.2021 28.8319 94.9356L28.8808 94.546C29.0274 93.1334 29.2229 91.6721 30.2491 90.2595L30.3957 90.0647L30.5423 90.2595C31.1776 91.1363 31.1287 91.9156 31.1287 92.5976V92.8411C31.1287 93.9615 31.0798 95.0331 31.0798 96.1534C31.031 98.4915 30.9821 100.878 31.031 103.216C31.0798 104.921 31.3731 106.967 33.4744 107.454C33.5232 107.454 33.5721 107.454 33.621 107.503C35.82 107.941 36.8951 106.285 37.9213 104.678L37.9702 104.58C38.0679 104.434 38.1657 104.239 38.2145 104.044C38.2634 103.947 38.2634 103.898 38.3123 103.801L39.4362 101.317C40.4136 99.1247 41.4398 96.9328 42.466 94.7408C42.5149 94.6434 42.5638 94.546 42.6126 94.4485C42.857 93.9127 43.1013 93.2795 43.9321 93.1334H44.0298L44.0787 93.2308C44.5185 93.9127 44.2741 94.5947 44.0787 95.1305L44.0298 95.2279C43.0036 98.1018 41.7819 101.511 40.5113 105.019C40.0226 106.382 40.0715 107.454 40.7068 108.769C41 109.354 41.3421 109.938 41.6841 110.474C42.6126 111.935 43.5411 113.494 43.2968 115.54C42.5638 121.531 40.5113 125.379 36.6508 128.01C35.4779 128.789 35.0381 129.52 35.3313 130.299C33.3278 130.25 31.3242 130.055 29.3206 129.617C26.9261 129.13 24.5804 128.351 22.3325 127.376C22.3325 127.376 22.3325 127.328 22.2837 127.328C21.9905 126.938 21.7461 126.548 21.4529 126.159C20.329 124.6 19.205 122.944 18.472 121.093C18.4231 120.898 18.2276 120.752 18.081 120.606C18.0322 120.557 17.9344 120.46 17.8856 120.411C17.2503 120.314 16.8105 120.46 16.5173 120.703C16.2241 120.995 16.0775 121.483 16.0775 122.116C16.1263 123.041 16.3218 123.918 16.6639 124.746C16.3707 124.746 16.1263 124.844 15.882 124.99C14.8069 124.941 14.6603 126.11 14.2694 126.889C10.5554 134.391 8.4541 142.379 5.71751 150.221C4.34921 154.118 2.63884 157.966 2.29677 162.155C1.56375 170.728 6.74373 177.548 16.0286 179.934C16.4195 180.032 16.8105 180.227 17.1526 180.373C18.1299 180.47 19.1073 180.568 20.0846 180.665C28.1478 179.399 33.1812 174.771 35.9177 168.341C38.1168 163.178 39.1919 157.625 39.6317 152.024C39.876 149.15 40.4136 146.325 41.0489 143.499C41.7819 140.138 42.3683 136.729 42.9547 133.319C43.1013 132.394 43.1502 131.419 42.2217 130.981C42.0262 130.591 41.6353 130.299 41.0489 130.299C40.5113 130.299 39.9738 130.299 39.4851 130.348C42.8081 127.961 44.9583 124.405 46.0334 119.534C46.8152 115.978 47.2062 111.984 43.8832 108.818C43.199 108.185 43.4434 107.552 43.6877 107.016C43.7366 106.918 43.7854 106.821 43.8343 106.723C44.2741 105.506 44.6651 104.288 45.1049 103.07C45.9356 100.781 46.7664 98.4428 47.4994 96.1047C48.1347 93.036 47.1085 90.2595 44.8117 89.4314ZM23.5054 116.855C22.2837 117.44 21.062 117.586 20.0357 117.342C19.1561 117.147 18.4231 116.612 17.8856 115.881C16.9082 114.517 17.1037 113.251 18.5208 111.935L18.6186 111.838L18.7163 111.935C19.3516 112.52 19.8891 113.153 20.4267 113.738C21.3552 114.809 22.2837 115.832 23.5542 116.612L23.7986 116.758L23.5054 116.855ZM28.1478 112.958L28.1967 113.056L28.1478 113.153C27.4636 114.225 26.7795 114.614 25.9976 114.42C25.6555 114.322 25.2646 114.127 24.8248 113.786C23.9452 113.056 23.1633 112.228 22.4303 111.448C22.1859 111.156 21.8927 110.864 21.6484 110.572C20.329 109.159 21.1108 108.039 21.9905 107.211C22.528 106.723 23.0167 106.529 23.5054 106.626C24.0429 106.772 24.5316 107.259 24.8736 107.649C25.851 108.721 26.5352 109.987 27.1704 111.205C27.4636 111.789 27.8057 112.423 28.1478 112.958ZM34.5494 160.402C33.2789 165.37 31.8617 170.29 27.5125 173.943C24.1895 176.72 20.4756 178.278 15.6377 176.72C9.04051 174.576 5.1311 169.267 5.57091 162.983C5.91298 157.674 8.25863 152.9 9.92013 147.932C12.1192 141.307 13.9762 134.586 16.7616 128.107C23.261 132.053 31.5685 134.342 39.2408 133.563C38.6055 136.924 38.0679 140.333 37.286 143.694C35.9178 149.198 35.9177 154.898 34.5494 160.402Z" fill="#4B4B4B"/>
<path d="M156.132 162.106C155.79 157.917 154.08 154.069 152.712 150.173C149.975 142.379 147.874 134.342 144.16 126.841C143.769 126.061 143.622 124.892 142.547 124.941C142.303 124.795 142.058 124.697 141.765 124.697C142.058 123.869 142.254 123.041 142.352 122.067C142.4 121.434 142.254 120.947 141.912 120.654C141.619 120.362 141.13 120.265 140.544 120.362C140.495 120.411 140.446 120.508 140.348 120.557C140.201 120.703 140.006 120.898 139.957 121.044C139.224 122.895 138.051 124.551 136.976 126.11C136.683 126.5 136.439 126.889 136.145 127.279C136.145 127.279 136.145 127.328 136.097 127.328C133.849 128.302 131.552 129.081 129.108 129.568C127.105 130.007 125.101 130.202 123.098 130.25C123.342 129.471 122.951 128.74 121.778 127.961C117.918 125.331 115.865 121.482 115.132 115.491C114.888 113.445 115.865 111.935 116.745 110.425C117.087 109.889 117.478 109.305 117.722 108.72C118.358 107.405 118.406 106.334 117.918 104.97C116.598 101.463 115.377 98.053 114.399 95.1791L114.35 95.0817C114.155 94.4971 113.911 93.8639 114.35 93.182L114.399 93.0846H114.497C115.328 93.2307 115.572 93.8152 115.816 94.3997C115.865 94.4971 115.914 94.5946 115.963 94.692C116.989 96.8839 117.967 99.0759 118.993 101.268L120.117 103.752C120.166 103.849 120.166 103.898 120.215 103.996C120.312 104.19 120.361 104.385 120.459 104.531L120.508 104.629C121.534 106.236 122.609 107.892 124.808 107.454C124.857 107.454 124.906 107.454 124.955 107.405C127.056 106.918 127.349 104.872 127.398 103.168C127.447 100.829 127.398 98.4426 127.349 96.1046C127.3 94.9842 127.3 93.9126 127.3 92.7923V92.5487C127.3 91.8668 127.251 91.0874 127.887 90.2107L128.033 90.0158L128.18 90.2107C129.206 91.6233 129.353 93.0846 129.548 94.4971L129.597 94.8868C129.744 96.1533 129.793 97.4197 129.841 98.6862C129.939 101.024 130.037 103.508 130.868 105.798C131.063 106.382 130.77 106.723 130.526 107.016L130.477 107.064C130.379 107.21 130.232 107.308 130.135 107.454C129.89 107.698 129.695 107.941 129.548 108.185C128.718 109.841 127.594 111.643 125.541 112.13C124.759 112.325 123.928 112.325 123 112.13C122.658 112.081 122.267 112.081 121.876 112.179C120.899 112.422 119.97 113.153 119.091 113.884C118.358 114.517 118.162 115.15 118.602 115.783C118.895 116.222 119.286 116.368 119.824 116.222C119.97 116.173 120.166 116.124 120.361 116.027C120.996 115.686 121.632 115.491 122.316 115.296C123.88 114.907 125.541 115.004 127.203 115.54L127.349 115.589C128.229 115.881 129.255 116.222 129.646 117.391V117.44V117.488C129.499 117.975 129.157 118.268 128.669 118.414C128.473 118.462 128.229 118.462 128.033 118.511C127.887 118.511 127.74 118.56 127.594 118.56C127.203 118.609 126.812 118.706 126.47 118.803C125.297 119.096 124.368 119.485 123.586 120.021C122.609 120.703 122.365 121.434 122.853 122.213C123.244 122.798 123.831 123.09 124.417 122.944C124.564 122.895 124.759 122.846 124.906 122.749C125.688 122.262 126.567 121.97 127.3 121.823C127.642 121.726 127.936 121.677 128.278 121.58C128.62 121.531 128.913 121.434 129.255 121.385C130.33 121.141 131.503 120.752 132.431 119.778C132.529 119.68 132.676 119.583 132.822 119.534C133.213 119.437 133.555 119.68 133.897 119.875C134.044 119.972 134.24 120.07 134.386 120.119C135.657 120.606 137.123 120.654 138.589 120.313C140.641 119.826 142.352 118.56 143.231 116.952C144.648 114.322 144.062 111.643 141.765 109.792C141.667 109.743 141.619 109.695 141.521 109.597C141.13 109.305 140.739 109.013 140.592 108.428C139.664 105.067 137.465 103.362 133.897 103.168H133.751V103.021C133.702 102.242 133.653 101.463 133.604 100.732C133.507 99.0272 133.409 97.2249 133.36 95.4713C133.311 93.5229 132.871 91.5258 132.041 89.4313C131.259 87.4342 129.89 86.46 127.887 86.5574C127.594 86.5574 127.3 86.6061 127.056 86.6548C125.492 87.0445 124.515 88.2623 124.222 90.162C123.831 92.9871 123.977 95.9584 124.124 98.7836V99.222C124.173 100.147 124.173 101.17 123.733 102.291L123.586 102.632C123.586 102.632 122.511 100.391 122.072 99.4656C121.045 97.3223 120.019 95.0817 118.944 92.8897C117.527 90.0158 115.865 88.7494 114.008 89.2365C113.862 89.2852 113.715 89.3339 113.617 89.3826C111.272 90.2107 110.246 92.9871 111.223 96.0072C111.956 98.3452 112.787 100.732 113.617 102.973C114.057 104.19 114.497 105.408 114.888 106.626C114.937 106.723 114.986 106.821 115.035 106.918C115.279 107.454 115.523 108.087 114.839 108.72C111.516 111.887 111.858 115.93 112.689 119.437C113.764 124.308 115.914 127.815 119.237 130.25C118.7 130.25 118.211 130.25 117.673 130.202C117.087 130.202 116.745 130.494 116.501 130.883C115.572 131.322 115.621 132.296 115.768 133.222C116.354 136.631 116.94 140.041 117.673 143.402C118.309 146.227 118.846 149.052 119.091 151.926C119.53 157.528 120.654 163.081 122.805 168.244C125.541 174.674 130.574 179.301 138.638 180.568C139.615 180.47 140.592 180.373 141.57 180.275C141.961 180.129 142.303 179.934 142.694 179.837C151.685 177.548 156.865 170.679 156.132 162.106ZM139.468 111.887L139.566 111.789L139.664 111.887C141.081 113.202 141.277 114.468 140.299 115.832C139.762 116.611 139.029 117.099 138.149 117.293C137.123 117.537 135.901 117.391 134.679 116.806L134.435 116.709L134.679 116.563C135.95 115.832 136.83 114.809 137.807 113.689C138.296 113.104 138.833 112.471 139.468 111.887ZM133.311 107.6C133.702 107.21 134.142 106.723 134.679 106.577C135.168 106.48 135.657 106.626 136.194 107.162C137.025 107.99 137.856 109.11 136.536 110.523C136.292 110.815 135.999 111.107 135.754 111.399C135.021 112.228 134.288 113.056 133.36 113.738C132.92 114.079 132.529 114.322 132.187 114.371C131.405 114.566 130.77 114.176 130.037 113.104L129.988 113.007L130.037 112.909C130.379 112.325 130.721 111.692 131.014 111.107C131.65 109.938 132.334 108.672 133.311 107.6ZM142.547 176.719C137.709 178.278 133.995 176.719 130.672 173.943C126.323 170.29 124.906 165.37 123.635 160.402C122.218 154.897 122.267 149.198 120.899 143.694C120.117 140.333 119.579 136.972 118.944 133.562C126.616 134.342 134.875 132.052 141.423 128.107C144.209 134.585 146.066 141.307 148.265 147.932C149.926 152.9 152.223 157.674 152.614 162.983C153.054 169.218 149.144 174.576 142.547 176.719Z" fill="#4B4B4B"/>
<path d="M88.7438 81.6379C88.4506 81.3943 88.1573 81.2969 87.8153 81.2969C87.3755 81.2969 86.9845 81.4917 86.6424 81.6379C86.3981 81.7353 86.2026 81.8814 85.9583 82.0275L85.9094 82.0762C84.59 82.7582 83.2706 83.4888 81.8045 83.9759C80.9249 84.2682 80.0453 84.4143 79.1657 84.4143C78.2861 84.4143 77.4065 84.2682 76.5268 83.9759C75.1097 83.5375 73.7414 82.8069 72.4219 82.0762C72.1776 81.9301 71.9333 81.8327 71.6889 81.6866C71.3469 81.4917 70.9559 81.3456 70.5161 81.3456C70.174 81.3456 69.8808 81.443 69.5876 81.6866C69.3433 81.8814 69.2455 82.1249 69.2455 82.3685C69.2455 82.8556 69.6365 83.2453 69.8808 83.4401C71.7378 85.145 73.9857 86.2653 76.6734 86.8498C77.3576 86.9959 78.0906 87.0934 78.7747 87.1421H79.068H79.1168H79.1657H79.3123H79.4589C80.1919 87.0934 80.8761 86.9959 81.5602 86.8498C84.1991 86.314 86.4958 85.145 88.3528 83.4401C88.5972 83.2453 88.9881 82.8556 88.9881 82.3685C89.0858 82.0762 88.9881 81.8327 88.7438 81.6379Z" fill="#4B4B4B"/>
<path d="M79.3611 88.9443H79.1657C79.0679 88.9443 78.9213 88.9443 78.7747 88.9443C78.2372 88.9443 77.6508 88.9443 77.3087 89.2853C77.1132 89.4801 77.0155 89.7724 77.0155 90.1134C77.0644 91.1363 78.0906 91.1363 78.5793 91.1363C78.6281 91.1363 78.7259 91.1363 78.7747 91.1363H78.9702C79.0679 91.1363 79.1657 91.1363 79.2634 91.1363C79.3611 91.1363 79.4589 91.1363 79.6055 91.1363C80.0453 91.1363 81.1204 91.1363 81.2181 90.1621C81.267 89.8211 81.1693 89.5776 80.9738 89.334C80.6317 88.9443 79.9476 88.9443 79.3611 88.9443Z" fill="#4B4B4B"/>
<path d="M78.4327 74.8183C78.7259 74.867 79.1168 74.7209 79.3611 74.526C79.6055 74.3312 79.801 73.9902 79.801 73.698C79.8498 72.9673 79.3611 72.4315 78.677 72.3341C78.6281 72.3341 78.5793 72.3341 78.5793 72.3341C78.2861 72.2367 77.944 72.1392 77.6508 71.9931C77.6508 71.9931 77.6019 71.9931 77.6019 71.9444C77.6996 71.7983 77.7974 71.7008 77.8951 71.5547C78.1395 71.3112 78.3838 71.0676 78.6281 70.8241C78.8725 70.5805 79.0191 70.337 79.0679 69.996C79.1168 69.7037 79.0191 69.3141 78.7747 69.0705C78.3349 68.5834 77.5042 68.4373 77.0155 68.9244C76.0381 69.8499 74.7187 71.0189 75.0608 72.5289C75.4517 73.9902 77.1132 74.5747 78.4327 74.8183Z" fill="#4B4B4B"/>
<path d="M66.3623 64.2483C66.2646 64.0048 66.1669 63.7612 65.9714 63.5177C64.9452 62.4948 63.6258 61.959 62.062 61.959C61.5733 61.959 60.9869 62.0077 60.4494 62.1051C58.4458 62.4948 56.9798 63.5664 56.1979 65.2713C55.8558 66.0019 56.0513 66.6838 56.6865 67.0735C56.9309 67.2197 57.1752 67.3171 57.4684 67.3171C57.8594 67.3171 58.2992 67.1222 58.5924 66.7813C59.5697 65.7097 60.5471 65.2225 61.5733 65.2225C62.3063 65.2225 63.0882 65.4661 63.9678 66.0019C64.3099 66.1967 64.652 66.2942 64.9452 66.2942C65.7271 66.2942 66.3135 65.7096 66.509 64.7354V64.638L66.4601 64.5406C66.4112 64.3945 66.4112 64.3458 66.3623 64.2483Z" fill="#4B4B4B"/>
<path d="M96.4648 61.959H96.3671C96.2694 61.959 96.1228 61.959 96.025 61.959C94.8522 61.959 93.7282 62.3974 92.702 63.2254C91.8224 63.9074 91.6758 64.7355 92.2133 65.5148C92.5554 65.9532 92.9952 66.2455 93.5328 66.2455C93.8748 66.2455 94.2658 66.148 94.6567 65.9045C95.4386 65.4174 96.1716 65.1738 96.8558 65.1738C97.7843 65.1738 98.6639 65.6122 99.5435 66.5377C99.8856 66.9274 100.374 67.3171 100.961 67.3171C101.303 67.3171 101.596 67.1709 101.889 66.9274C102.866 66.0506 102.085 64.9303 101.84 64.5893C100.619 62.8358 98.8105 61.959 96.4648 61.959Z" fill="#4B4B4B"/>
<path d="M59.2765 55.2369C60.3027 54.7498 61.3778 54.4088 62.5018 54.8472C63.7235 55.2856 64.994 55.5778 65.4827 54.0678C66.0202 52.4604 64.6031 51.9246 63.4303 51.4375C62.8927 51.2426 62.2574 51.1939 62.1108 51.1452C60.1073 51.0965 58.739 51.5349 57.615 52.6552C56.9797 53.2885 56.7354 54.0678 57.2729 54.8959C57.7616 55.5778 58.4946 55.6265 59.2765 55.2369Z" fill="#4B4B4B"/>
<path d="M95.5363 54.9453C96.8558 54.4095 97.9797 54.653 99.1526 55.2375C99.8856 55.6272 100.619 55.5298 101.107 54.7992C101.596 54.1172 101.4 53.3866 100.863 52.7533C99.7878 51.5356 98.4195 51.0972 96.6603 51.0972C95.9762 51.0485 95.0965 51.2433 94.2658 51.633C93.2884 52.1688 92.4088 52.802 92.8486 54.0685C93.3862 55.3837 94.4613 55.3837 95.5363 54.9453Z" fill="#4B4B4B"/>
<path d="M124.124 57.7214C124.271 57.4779 124.417 57.2343 124.515 56.942C124.759 56.5037 124.857 56.0166 124.857 55.4808C124.857 55.4808 124.857 55.4808 124.857 55.432C124.857 55.3346 124.906 55.2372 124.906 55.1398C125.199 50.0252 125.883 44.9594 125.395 39.7962C124.466 30.4439 121.485 22.0658 115.083 14.9541C113.275 12.957 111.369 11.3496 109.366 10.1318C104.088 6.18632 97.5888 3.99438 90.8939 4.43277C86.7402 1.46146 81.5602 -0.0485445 76.4779 0.000165448C71.4934 0.0488754 65.2873 1.31533 60.4982 4.04309C56.2956 5.50438 52.3373 7.69633 48.4768 10.6676C46.6198 12.1289 44.5185 12.9083 42.3194 13.4928C41.5375 13.6876 40.6579 13.7364 39.8272 13.8825C39.0453 14.0286 38.2634 14.1747 38.1657 15.1489C38.1168 15.977 38.8498 16.2206 39.4362 16.5615C40.4625 17.1461 41.6353 17.0973 43.1502 17.2922C37.3349 23.3809 33.8653 30.0542 33.1323 38.3349C32.6436 43.8878 33.0346 49.3433 33.3766 54.7988C33.3766 55.1398 33.4255 55.4808 33.5232 55.773C33.5721 56.0653 33.6698 56.3088 33.8164 56.5524C33.9631 56.942 34.1585 57.3317 34.4517 57.624C31.031 59.134 28.8319 62.6898 29.3206 66.7327C30.1025 72.9676 34.8427 77.6438 41.2443 78.277C42.5149 78.4231 43.0036 78.8615 43.3945 79.9818C45.1049 84.8528 47.646 89.2854 51.1156 93.1335C55.8558 98.3942 62.1597 101.122 68.6102 103.46C80.4362 107.746 77.7974 107.552 89.7211 103.509C101.938 99.3684 110.979 92.0132 115.083 79.4947C115.474 78.3257 116.256 78.4231 117.136 78.277C123.586 77.0592 129.157 73.065 129.108 65.515C129.206 62.0566 126.958 59.0853 124.124 57.7214ZM115.67 74.916C114.106 74.7699 113.471 75.3544 112.933 76.5234C112.2 78.1309 111.565 79.8357 110.832 81.3944C108.242 86.8012 105.066 91.7696 99.739 95.0332C93.9726 98.589 87.6198 100.732 81.267 102.924C79.8498 103.411 78.4815 103.411 77.1132 102.924C73.1549 101.463 69.0501 100.148 65.1895 98.4429C59.7652 96.0561 54.7807 93.0848 51.36 87.9216C49.0143 84.4144 47.3528 80.6638 45.6913 76.8644C45.2515 75.7928 44.8117 74.7212 43.1502 74.8186C37.8725 75.1596 33.4255 71.4576 32.6925 66.2944C32.0572 61.9592 35.7223 58.7443 39.8272 59.8646C40.6579 60.8876 41.2932 62.0079 41.3421 63.0308C41.3909 64.346 41.4887 65.6124 43.1502 65.6611C44.8606 65.6611 45.1538 64.346 45.2026 62.9334C45.3004 57.4779 45.447 52.0711 45.3981 46.6155C45.3981 45.4465 45.6424 44.6184 46.5709 43.8878C50.236 41.0139 53.1192 37.4094 55.8558 33.6587C56.4911 32.7819 56.9309 31.6616 58.2992 30.931C57.7128 34.6329 56.6377 37.8965 55.0739 40.9652C54.5364 41.9881 53.9011 43.0597 54.7807 44.1313C55.758 45.2517 56.9797 44.8133 58.1526 44.4236C63.4791 42.5239 67.5352 38.9681 70.907 34.5355C71.3468 33.951 71.64 33.0742 72.5685 32.8306C73.0083 35.2661 72.3731 37.4581 71.9821 39.6987C71.7378 40.8678 71.3468 42.1829 72.5197 43.0597C73.7414 43.9852 74.9631 43.352 76.1359 42.8162C76.6246 42.5726 77.0644 42.3291 77.553 42.0368C81.2181 40.0397 84.3456 37.3607 87.3266 34.0484C87.4243 34.7303 87.5221 35.0713 87.5221 35.4123C87.4243 36.8249 87.3266 38.2862 87.1311 39.6987C86.789 42.1342 88.1085 43.3033 90.4541 42.6213C92.8975 41.9394 94.9988 40.5268 96.9535 38.9681C99.4946 36.9223 101.791 34.6816 103.795 32.0513C104.675 35.8019 105.945 39.4552 107.509 42.9623C108.779 45.7875 110.392 48.4178 112.591 50.5123C112.933 53.922 113.08 57.4291 112.982 60.8876C112.982 62.0079 112.787 63.1769 113.275 64.2485C113.666 65.0766 114.253 65.5637 115.23 65.5637C115.279 65.5637 115.377 65.5637 115.474 65.515C115.523 65.4663 115.572 65.4663 115.572 65.4176C115.719 65.2714 115.816 65.174 115.963 65.0279C116.403 63.2256 117.185 61.5208 118.211 60.1569C118.309 60.0108 118.455 59.8646 118.602 59.7672C121.974 58.8904 125.541 61.1311 125.883 64.4921C126.372 69.8015 120.948 75.4031 115.67 74.916Z" fill="#4B4B4B"/>
<path d="M7.81882 77.1084C7.76995 77.2058 4.34921 80.5181 4.34921 80.5181L8.06316 84.4636L11.6794 80.372L7.81882 77.1084Z" fill="white"/>
<path d="M16.0775 80.4206C16.0286 80.031 15.7843 79.3977 14.758 79.3977H14.6114C14.1716 79.3977 13.7807 79.3003 13.292 79.2516C13.0965 79.2029 12.9011 79.1542 12.7056 79.1542C11.2884 78.9106 10.36 78.0338 9.72467 76.3777C9.28486 75.2574 9.18713 73.9909 9.13826 72.7732V72.6758C9.13826 72.3835 9.04052 71.5067 8.11204 71.458H8.06317C7.13468 71.458 7.03695 72.3348 6.98808 72.5783V72.6758C6.93921 72.9193 6.93921 73.1141 6.93921 73.3577C6.89035 73.7961 6.84148 74.1858 6.79261 74.6242C6.64601 75.4522 6.4994 76.3777 6.05959 77.1571C5.27771 78.5697 4.00715 79.2516 1.75924 79.349C1.71037 79.349 1.6615 79.349 1.56377 79.349C1.31943 79.349 1.02622 79.349 0.684148 79.4951C0.293206 79.6413 0 79.9822 0 80.4206C0 80.9077 0.244338 81.2974 0.733015 81.4435C0.879619 81.4923 1.12396 81.5897 1.3683 81.5897H1.41716C1.46603 81.5897 1.5149 81.5897 1.61263 81.5897C2.10131 81.5897 2.54112 81.6871 3.07867 81.7845C3.323 81.8332 3.51847 81.8819 3.76281 81.9306C4.25149 82.0281 4.6913 82.2716 5.13111 82.6613C6.05959 83.5381 6.59714 84.6584 6.79261 86.3145C6.84148 86.6555 6.89035 86.9965 6.89035 87.3374C6.93921 87.7271 6.98808 88.1168 7.03695 88.4578C7.13468 89.091 7.52563 89.432 8.11204 89.432C8.40524 89.432 8.94279 89.2858 9.13826 88.5065C9.18713 88.3603 9.18713 88.2142 9.18713 88.0681C9.18713 88.0194 9.18713 87.9707 9.18713 87.922V87.6784C9.28486 86.5581 9.3826 85.389 9.82241 84.4148C10.5066 82.8074 11.3862 82.0281 12.7056 81.7845C12.9011 81.7358 13.0965 81.7358 13.292 81.6871C13.7807 81.5897 14.2205 81.4923 14.7092 81.4923H14.8069C15.882 81.4923 16.0775 80.7616 16.1263 80.4693V80.3719L16.0775 80.4206ZM10.2622 80.5181C9.33373 81.2 8.60071 82.0281 8.0143 83.051C7.76996 82.6126 7.52563 82.1742 7.18355 81.7845C6.79261 81.2974 6.30393 80.859 5.76639 80.5181C6.69487 79.8361 7.42789 79.008 8.0143 77.9851C8.60071 79.0568 9.33373 79.8848 10.2622 80.5181Z" fill="#4B4B4B"/>
<path d="M266.72 169.852C264.228 153.534 253.868 140.139 239.892 131.809C247.368 132.053 255.48 133.563 263.006 132.101C257.924 127.815 256.018 119.68 256.507 113.251C257.24 109.208 260.269 110.669 261.1 105.311C263.055 96.2023 257.435 98.9787 259.243 94.059C273.806 28.7878 158.185 31.8565 173.969 95.6665C171.428 100.294 170.206 107.065 175.533 110.767C178.318 117.781 173.431 128.546 169.815 132.491C176.803 132.101 186.577 131.517 193.614 131.127C185.942 138.629 175.826 144.182 170.988 154.167C166.395 163.812 163.023 176.963 169.278 186.413C176.07 192.697 178.709 191.479 175.582 202H256.507C256.36 198.98 256.067 195.911 255.725 192.891C265.01 188.654 268.43 179.642 266.72 169.852Z" fill="white"/>
<path d="M183.205 161.084C184.133 160.158 185.111 159.428 186.088 158.6C186.723 158.112 187.359 157.625 187.994 157.138C187.701 155.921 187.994 154.703 187.994 153.388C188.043 151.878 187.799 150.368 188.092 148.906C188.336 147.689 188.971 146.714 189.9 145.984L189.558 138.726L189.46 136.924L189.362 135.17L189.313 134.05L181.153 140.674C181.153 140.626 181.153 140.626 181.104 140.723L181.153 140.674C181.153 140.869 181.104 141.697 181.006 143.061C180.713 146.861 179.931 154.8 179.002 164.834C179.54 164.542 179.98 164.153 180.42 163.763C181.446 162.935 182.325 162.009 183.205 161.084Z" fill="#FFEBA4"/>
<path d="M244.632 149.929C244.876 150.952 245.023 151.975 245.023 152.998C245.023 153.972 244.974 154.995 244.827 155.969C245.756 156.554 246.538 157.333 247.271 158.113C247.368 158.21 247.515 158.356 247.613 158.502C247.026 151.488 246.586 146.081 246.342 143.207C246.831 142.72 245.071 139.213 243.117 137.46C242.628 136.973 242.091 136.632 241.602 136.534C241.358 137.995 241.651 141.649 241.748 145.253C243.361 146.081 244.241 148.322 244.632 149.929Z" fill="#FFEBA4"/>
<path d="M246.147 193.232C243.312 192.745 240.869 191.138 239.11 188.848C237.448 186.705 236.471 184.124 235.689 181.542C234.614 178.181 233.979 174.723 233.099 171.362C232.561 169.364 231.34 166.588 232.317 164.64C231.389 164.104 230.607 163.276 229.776 162.594C228.408 161.425 227.039 160.402 226.111 158.843C225.329 157.528 225.036 156.018 224.498 154.557C219.514 154.605 213.992 154.703 208.812 154.703C208.616 155.872 208.372 157.09 207.981 158.21C207.688 158.989 207.346 159.817 206.759 160.402C206.075 161.084 205.195 161.522 204.365 162.009C203.534 162.496 202.85 163.081 202.215 163.812C201.824 164.299 201.433 164.737 200.944 165.078C200.895 169.413 200.015 173.748 198.843 177.937C197.914 181.25 196.986 184.611 195.031 187.436C193.321 189.92 190.926 192.063 188.092 193.184C184.427 194.645 179.882 194.499 176.461 192.453C176.168 195.619 175.875 198.785 175.582 201.951H251.278C251.033 198.931 250.789 195.911 250.545 192.891C249.128 193.33 247.661 193.476 246.147 193.232Z" fill="#FFEBA4"/>
<path d="M258.461 146.714C253.135 140.381 247.222 134.682 239.647 131.029C238.719 131.516 237.79 132.003 236.813 132.442C236.862 132.442 236.862 132.49 236.911 132.49C238.23 133.026 239.452 133.708 240.625 134.487C240.625 134.536 240.625 134.536 240.625 134.585C240.478 135.705 240.38 136.826 240.331 137.995C240.136 139.505 240.087 140.966 240.087 142.476C236.324 140.235 232.61 140.82 228.945 142.719C225.085 144.717 222.69 147.785 222.153 152.218C222.104 152.413 222.104 152.656 222.104 152.851C218.439 152.851 214.774 152.851 211.108 152.851C211.255 150.708 210.375 148.662 209.007 146.616C205.342 141.209 198.843 139.748 193.369 142.427C193.369 142.184 193.369 141.989 193.369 141.745C193.321 141.063 193.321 140.333 193.272 139.651C193.174 138.53 193.027 137.41 192.93 136.29C192.881 135.851 192.783 135.462 192.685 135.023C192.636 134.877 192.588 134.78 192.539 134.634C193.663 133.952 194.787 133.27 195.959 132.637C196.302 132.442 196.546 132.296 196.741 132.149C195.911 131.662 195.08 131.127 194.249 130.542C191.659 131.614 189.216 133.026 187.017 134.877C184.329 137.167 181.543 139.358 178.954 141.794C175.973 144.619 173.041 147.639 171.135 151.244C166.883 159.183 164.44 167.659 164.88 176.816C165.075 180.908 166.101 184.561 168.691 187.874C170.402 190.065 172.845 191.819 175.533 192.988C175.288 195.959 175.044 198.931 174.751 201.902H178.709C178.954 199.369 179.149 196.787 179.393 194.255C182.228 194.888 185.111 194.839 187.603 193.962C193.076 192.014 196.497 187.971 198.305 182.662C199.722 178.57 200.797 174.332 201.921 170.143C202.263 168.877 202.41 167.562 202.557 166.246C202.703 165.126 202.166 164.542 201.091 164.006C198.843 162.837 196.253 162.691 194.054 161.375C192.246 160.304 191.415 158.209 189.46 157.235C189.558 155.14 189.509 153.046 189.607 150.951C189.802 147.737 194.689 143.694 197.816 144.083C196.888 144.522 196.008 144.96 195.178 145.447C194.64 145.739 194.493 146.324 194.689 146.909C194.884 147.59 195.471 147.737 196.008 147.639C196.644 147.542 197.23 147.347 197.865 147.201C200.015 146.665 202.166 146.129 204.365 145.934C204.365 146.129 204.414 146.324 204.414 146.519C203.143 146.811 201.824 147.006 200.602 147.444C199.478 147.834 197.719 148.029 198.207 149.734C198.647 151.341 200.162 150.61 201.286 150.416C203.241 150.123 205.147 149.685 207.101 149.344C207.541 149.977 208.03 150.464 207.688 151.244C206.222 151.341 204.805 151.39 203.436 151.585C202.654 151.731 201.97 152.315 202.068 153.192C202.166 154.118 202.899 154.361 203.778 154.41C204.902 154.459 206.026 154.166 207.199 154.605C206.222 157.235 205.147 159.671 202.459 160.986C201.579 161.424 200.651 162.106 201.335 163.275C201.97 164.347 203.045 164.054 203.974 163.567C204.707 163.178 205.391 162.642 206.075 162.203C207.932 160.937 208.323 158.696 209.496 157.04C209.887 156.504 210.18 155.969 210.473 155.481C214.676 155.53 218.83 155.481 223.032 155.481C223.57 156.504 224.254 157.43 224.596 158.501C225.378 160.888 227.137 162.35 229.141 163.519C230.118 164.103 231.34 164.639 232.073 163.275C232.757 161.96 231.584 161.375 230.656 160.888C228.066 159.524 227.088 157.138 226.16 154.459C227.235 154.459 228.163 154.459 229.092 154.459C230.02 154.459 231.144 154.556 231.242 153.338C231.389 151.974 230.265 151.585 229.141 151.487C227.968 151.39 226.795 151.341 225.524 151.292C225.622 150.026 225.818 149.247 227.284 149.588C229.043 150.026 230.851 150.318 232.659 150.562C233.588 150.708 234.809 151.049 235.2 149.782C235.591 148.419 234.369 147.98 233.392 147.688C231.926 147.249 230.411 146.909 228.799 146.47C229.385 145.788 229.874 146.032 230.313 146.129C232.415 146.616 234.614 146.909 236.666 147.639C237.399 147.883 238.279 147.931 238.621 146.957C238.963 146.032 238.328 145.545 237.595 145.106C236.959 144.717 236.08 144.717 235.542 143.937C236.715 143.742 237.595 144.132 238.425 144.668C242.042 146.86 244.241 149.588 243.85 154.215C243.752 155.335 243.605 156.31 243.361 157.235C242.97 157.332 242.677 157.527 242.433 157.917C240.576 161.034 237.448 162.009 234.223 163.178C230.558 164.493 229.971 163.86 230.998 168.438C232.024 173.114 233.294 177.742 234.809 182.272C237.546 190.358 244.583 196.69 254.21 194.206C254.21 194.401 254.259 194.596 254.259 194.79C254.503 197.128 254.698 199.515 254.894 201.853H258.754C258.51 198.833 258.217 195.813 257.973 192.793C258.754 192.452 259.536 192.014 260.318 191.527C264.521 188.994 267.453 185.194 267.99 180.129C269.261 167.854 266.671 156.407 258.461 146.714ZM199.429 166.295C199.38 166.88 199.478 167.464 199.331 168C198.012 172.773 196.937 177.693 195.178 182.321C193.272 187.24 189.802 191.186 184.182 191.575C178.416 192.014 173.627 189.627 170.206 184.756C168.105 181.785 167.958 178.424 167.812 175.014C167.421 166.539 169.718 158.55 174.36 151.682C176.266 148.857 178.416 146.275 180.81 143.84C180.713 144.181 180.664 144.57 180.615 144.96C180.517 145.545 180.468 146.129 180.371 146.762C180.224 148.126 179.931 149.441 179.882 150.805C179.247 155.043 178.758 159.281 178.269 163.519C175.875 165.711 173.627 168 171.232 170.143C170.597 170.679 170.206 171.361 170.793 172.14C171.428 172.968 172.259 172.773 172.992 172.286C173.676 171.848 174.311 171.263 174.897 170.728C179.296 166.782 183.743 162.837 188.238 158.794C190.242 163.908 194.493 165.564 199.429 166.295ZM186.821 153.825C186.919 154.848 186.87 155.774 186.381 156.602C186.088 156.65 185.746 156.845 185.453 157.186C184.476 158.161 183.498 159.086 182.472 159.963C182.472 159.817 182.521 159.622 182.521 159.476C182.619 158.599 182.765 157.771 182.863 156.894C183.058 155.189 183.254 153.484 183.449 151.78C183.596 150.075 183.743 148.37 183.791 146.616C183.84 145.058 183.791 143.45 183.889 141.891C183.889 141.794 183.889 141.697 183.889 141.55C183.889 141.356 183.938 141.161 183.889 140.966C185.648 139.456 187.456 137.995 189.362 136.679C189.411 136.923 189.411 137.215 189.46 137.459C189.607 138.336 189.607 139.164 189.607 140.04C189.607 140.43 189.607 143.158 189.607 145.058C187.163 147.493 186.43 150.367 186.821 153.825ZM243.654 145.301C243.605 144.229 243.557 143.158 243.459 142.038C243.459 141.356 243.41 140.674 243.361 139.992C243.459 138.92 243.605 137.751 243.605 136.631C245.658 138.238 247.564 140.04 249.567 141.697C249.421 142.232 249.518 142.914 249.518 143.255C249.47 148.662 250.154 154.069 250.936 159.427C250.984 159.671 251.033 159.963 251.033 160.206C250.154 159.476 249.323 158.696 248.443 157.966C247.906 157.527 247.319 156.699 246.733 156.358C246.342 155.628 246.244 154.8 246.391 153.825C246.928 150.221 245.805 147.493 243.654 145.301ZM265.303 176.524C265.107 179.983 264.277 183.051 262.175 185.828C259.097 189.919 252.011 192.647 247.271 191.283C242.188 189.822 239.305 186.12 237.546 181.444C236.08 177.596 235.542 173.504 234.125 169.656C233.734 168.633 233.441 167.513 233.734 166.295C236.08 165.954 238.377 165.418 240.38 164.201C242.384 162.983 243.899 161.229 244.925 158.94C244.974 158.94 245.072 158.94 245.12 158.94C248.15 162.301 251.864 164.59 254.845 167.708C256.311 169.266 258.021 170.582 259.683 171.994C260.465 172.627 261.491 173.309 262.322 172.189C263.104 171.166 262.175 170.484 261.491 169.802C259.39 167.805 257.288 165.808 255.138 163.86C254.552 158.55 253.819 153.29 253.086 148.029C252.89 146.714 252.744 145.447 252.499 144.181C255.236 146.665 257.631 149.49 259.39 152.656C263.543 160.011 265.84 167.951 265.303 176.524Z" fill="#4B4B4B"/>
<path d="M224.938 120.849C225.133 120.654 225.524 120.313 225.524 119.875C225.524 119.631 225.427 119.436 225.182 119.29C224.938 119.095 224.645 118.949 224.352 118.949C223.961 118.949 223.619 119.095 223.276 119.29C223.081 119.388 222.886 119.534 222.641 119.631L222.592 119.68C221.42 120.313 220.198 120.995 218.878 121.385C218.097 121.628 217.266 121.774 216.484 121.774C215.702 121.774 214.871 121.628 214.089 121.385C212.77 120.995 211.548 120.313 210.375 119.68C210.131 119.582 209.936 119.436 209.691 119.339C209.398 119.193 209.007 118.998 208.616 118.998C208.323 118.998 208.03 119.095 207.785 119.339C207.59 119.534 207.443 119.729 207.443 119.923C207.443 120.362 207.834 120.703 208.03 120.898C209.691 122.456 211.793 123.479 214.187 123.966C214.822 124.112 215.458 124.161 216.093 124.21H216.386H216.435H216.484H216.63H216.777C217.412 124.161 218.048 124.112 218.683 123.966C221.175 123.431 223.228 122.408 224.938 120.849Z" fill="#4B4B4B"/>
<path d="M216.533 125.866C216.435 125.866 216.288 125.866 216.191 125.866C215.702 125.866 215.164 125.866 214.871 126.207C214.676 126.402 214.627 126.646 214.627 126.938C214.627 127.863 215.604 127.863 216.044 127.863C216.093 127.863 216.191 127.863 216.24 127.863H216.435C216.533 127.863 216.63 127.863 216.679 127.863C216.777 127.863 216.875 127.863 216.973 127.863C217.364 127.863 218.341 127.863 218.439 126.987C218.487 126.694 218.39 126.451 218.243 126.256C217.901 125.866 217.266 125.866 216.728 125.866H216.533Z" fill="#4B4B4B"/>
<path d="M216.533 109.792C216.582 109.451 216.435 109.11 216.24 108.866C215.995 108.623 215.653 108.477 215.262 108.477C214.969 108.477 214.676 108.574 214.48 108.818C213.894 109.353 213.014 110.23 213.259 111.35C213.405 111.984 213.943 112.763 215.604 113.055C215.653 113.055 215.702 113.055 215.751 113.055C215.995 113.055 216.288 112.958 216.533 112.763C216.777 112.568 216.924 112.227 216.973 111.935C217.021 111.35 216.63 110.863 216.093 110.669L216.142 110.62C216.337 110.328 216.484 110.084 216.533 109.792Z" fill="#4B4B4B"/>
<path d="M203.29 102.193C202.263 101.171 200.944 100.635 199.38 100.635C198.892 100.635 198.305 100.683 197.768 100.781C195.764 101.171 194.298 102.242 193.516 103.947C193.174 104.678 193.369 105.36 194.005 105.749C194.249 105.895 194.493 105.993 194.787 105.993C195.178 105.993 195.617 105.798 195.911 105.457C196.888 104.385 197.865 103.898 198.892 103.898C199.625 103.898 200.406 104.142 201.286 104.678C201.628 104.873 201.97 104.97 202.263 104.97C203.045 104.97 203.632 104.385 203.827 103.411V103.314L203.778 103.216C203.729 103.119 203.729 103.07 203.681 102.973C203.583 102.681 203.485 102.437 203.29 102.193Z" fill="#4B4B4B"/>
<path d="M230.851 104.921C231.193 104.921 231.584 104.824 231.975 104.58C232.757 104.093 233.49 103.85 234.174 103.85C235.102 103.85 235.982 104.288 236.862 105.214C237.204 105.603 237.692 105.993 238.279 105.993C238.621 105.993 238.914 105.847 239.207 105.603C240.185 104.727 239.403 103.606 239.159 103.265C237.937 101.56 236.129 100.684 233.783 100.684H233.685C233.588 100.684 233.441 100.684 233.343 100.684C232.17 100.684 231.046 101.122 230.02 101.95C229.141 102.632 228.994 103.46 229.532 104.239C229.874 104.678 230.313 104.921 230.851 104.921Z" fill="#4B4B4B"/>
<path d="M180.077 125.867C179.735 126.89 179.344 127.815 178.807 128.741C178.269 129.617 177.536 130.397 176.95 131.273C176.217 132.345 177.585 133.319 178.563 132.881C180.859 131.809 182.521 129.081 183.156 126.695C183.645 124.698 180.713 123.918 180.077 125.867Z" fill="#4B4B4B"/>
<path d="M254.307 128.741C253.721 127.815 253.379 126.89 253.037 125.867C252.402 123.967 249.421 124.746 249.958 126.695C250.594 129.033 252.255 131.809 254.552 132.881C255.529 133.319 256.897 132.345 256.164 131.273C255.578 130.397 254.845 129.617 254.307 128.741Z" fill="#4B4B4B"/>
<path d="M264.667 131.468C262.517 128.497 260.318 126.012 259.194 122.408C258.119 118.998 258.217 115.783 258.266 112.276C263.69 108.574 264.863 100.147 260.807 95.8123C261.98 92.6948 262.468 89.3826 262.468 86.0216C262.42 74.9157 257.973 65.4173 250.789 56.9418C248.443 54.1653 245.511 52.2169 242.188 50.8043C241.309 50.4146 240.38 49.8788 239.452 50.8043C239.94 52.0708 239.892 52.1682 240.82 52.6553C246.049 55.4805 249.665 59.7669 252.499 64.6866C257.875 73.9902 260.953 83.6348 257.63 94.0587C256.897 93.9613 256.164 94.1074 255.383 94.3997C255.334 94.0587 255.236 93.669 255.138 93.2794C254.698 91.5258 253.77 89.2852 252.353 89.2852C252.255 88.9442 252.011 88.6032 251.571 88.3597C243.019 83.6348 236.471 76.9615 235.933 66.7325C235.835 65.1737 233.685 65.2225 233.49 66.7325C232.415 77.3999 240.722 86.8984 249.909 91.1848C250.349 91.3797 250.789 91.3797 251.18 91.2823C251.424 92.0616 251.766 92.7923 251.913 93.5716C252.108 94.5458 252.06 95.52 251.962 96.4455C251.962 96.5916 251.962 96.7378 251.962 96.8352C251.815 98.2478 251.717 99.6604 251.717 101.024C251.717 102.583 253.379 103.898 254.601 102.486C255.431 101.511 255.578 99.1246 255.578 97.1762C257.679 96.7378 258.706 97.9068 259.439 99.5142C261.296 103.557 258.901 109.159 254.405 110.425C251.229 111.302 249.372 112.861 248.346 116.076C246.928 120.557 244.778 124.649 240.869 127.815C235.591 132.101 229.141 133.465 223.081 135.852C218.634 137.605 214.334 137.557 209.887 135.852C204.756 133.855 199.331 132.588 194.591 129.617C189.069 126.159 186.137 120.947 184.28 115.053C183.498 112.617 182.032 111.448 179.687 110.815C175.191 109.5 173.334 107.016 173.089 102.486C172.894 99.0758 174.555 97.3223 177.976 97.2736C178.22 97.2736 178.514 97.2736 178.758 97.2249C178.807 98.7349 178.953 100.245 179.198 101.609C179.589 103.947 182.423 103.411 182.423 101.024C182.423 98.881 182.179 96.5916 181.934 94.4484C182.13 92.5487 182.374 90.8439 183.254 88.9929C183.987 87.4829 181.983 86.3138 181.006 87.6777C179.98 89.139 179.247 90.9413 178.953 92.7923C178.905 92.9384 178.905 93.0845 178.905 93.2307C178.905 93.2794 178.905 93.3281 178.905 93.3281C178.856 93.7665 178.856 94.2049 178.856 94.6432C178.856 94.7407 178.856 94.7894 178.856 94.8868C178.025 94.2536 176.852 93.9613 175.728 94.0587C173.871 88.9929 174.604 83.3913 175.582 78.228C176.657 72.7238 178.758 67.2683 182.13 62.6895C187.212 55.724 195.324 50.6095 203.729 48.2714C212.623 45.7872 222.104 46.4204 230.851 49.2943C231.34 49.4404 231.877 49.5379 232.415 49.5866C232.903 49.6353 233.294 49.3917 233.539 48.9533C233.832 48.4175 233.685 47.8817 233.245 47.5408C232.757 47.1024 232.122 46.7127 231.535 46.4691C222.983 43.6927 214.48 42.4749 205.586 44.4233C194.933 46.7614 185.502 52.8989 179.296 61.6179C172.503 71.1164 168.545 84.3654 172.65 95.6661C170.548 97.8581 169.669 100.488 170.011 103.703C170.402 107.551 172.21 110.425 174.897 112.228C174.946 115.735 175.044 118.949 173.969 122.408C172.845 126.012 170.646 128.497 168.496 131.468C167.518 132.783 169.473 134.829 170.841 133.806C176.168 129.714 179.296 120.557 177.83 113.689C178.905 114.03 180.077 114.322 181.348 114.419C183.694 124.892 187.603 130.494 198.354 135.219C202.752 137.118 207.297 138.677 211.939 140.041C214.822 140.869 217.657 141.064 220.54 140.236C226.551 138.531 232.61 136.68 238.083 133.709C243.899 130.591 248.639 126.256 250.398 119.485C250.838 117.732 251.473 116.076 252.011 114.273C253.184 114.273 254.307 114.03 255.383 113.689C253.917 120.557 257.093 129.666 262.371 133.757C263.641 134.829 265.596 132.783 264.667 131.468Z" fill="#4B4B4B"/>
<path d="M229.58 66.3916C230.558 65.1252 228.554 63.9074 227.528 64.8329C222.446 69.1194 217.461 73.1136 211.451 76.0849C205.44 79.0562 198.989 80.9559 192.343 81.6378C190.242 81.8814 190.193 85.1449 192.343 84.9501C206.124 83.8298 221.029 77.6923 229.58 66.3916Z" fill="#4B4B4B"/>
<path d="M183.547 73.5036C183.156 73.6497 182.863 73.8445 182.716 74.1368C178.367 75.6955 179.051 88.6524 185.99 87.6782C193.369 86.6065 190.291 71.409 183.547 73.5036ZM185.697 84.512C184.036 84.9017 183.4 82.4662 183.254 81.3459C183.205 80.8588 183.107 76.7184 183.84 76.7671C184.182 76.8158 184.427 76.6697 184.671 76.5236C186.723 76.5236 188.434 83.8788 185.697 84.512Z" fill="#4B4B4B"/>
<path d="M278.692 126.646C278.644 126.743 275.223 130.055 275.223 130.055L278.937 134.001L282.553 129.909L278.692 126.646Z" fill="white"/>
<path d="M286.951 129.958C286.902 129.568 286.658 128.935 285.632 128.935H285.485C285.045 128.935 284.654 128.837 284.166 128.789C283.97 128.74 283.775 128.691 283.579 128.691C282.162 128.448 281.234 127.571 280.598 125.915C280.159 124.794 280.061 123.528 280.012 122.31V122.213C280.012 121.921 279.914 121.044 278.986 120.995H278.937C278.008 120.995 277.911 121.872 277.862 122.115V122.213C277.813 122.456 277.813 122.651 277.813 122.895C277.764 123.333 277.715 123.723 277.666 124.161C277.52 124.989 277.373 125.915 276.933 126.694C276.151 128.107 274.881 128.789 272.633 128.886C272.584 128.886 272.535 128.886 272.437 128.886C272.193 128.886 271.9 128.886 271.558 129.032C271.167 129.178 270.874 129.519 270.874 129.958C270.874 130.445 271.118 130.835 271.607 130.981C271.753 131.029 271.998 131.127 272.242 131.127H272.291C272.34 131.127 272.389 131.127 272.486 131.127C272.975 131.127 273.415 131.224 273.952 131.322C274.197 131.37 274.392 131.419 274.636 131.468C275.125 131.565 275.565 131.809 276.005 132.198C276.933 133.075 277.471 134.196 277.666 135.852C277.715 136.193 277.764 136.534 277.764 136.875C277.813 137.264 277.862 137.654 277.911 137.995C278.008 138.628 278.399 138.969 278.986 138.969C279.279 138.969 279.816 138.823 280.012 138.044C280.061 137.897 280.061 137.751 280.061 137.605C280.061 137.556 280.061 137.508 280.061 137.459V137.216C280.159 136.095 280.256 134.926 280.696 133.952C281.38 132.345 282.26 131.565 283.579 131.322C283.775 131.273 283.97 131.273 284.166 131.224C284.654 131.127 285.094 131.029 285.583 131.029H285.681C286.756 131.029 286.951 130.299 287 130.006V129.909L286.951 129.958ZM281.136 130.006C280.207 130.688 279.474 131.516 278.888 132.539C278.644 132.101 278.399 131.663 278.057 131.273C277.666 130.786 277.178 130.347 276.64 130.006C277.569 129.325 278.302 128.496 278.888 127.474C279.474 128.545 280.207 129.373 281.136 130.006Z" fill="#4B4B4B"/>
</g>
<defs>
<clipPath id="clip0_261_3887">
<rect width="287" height="202" fill="white"/>
</clipPath>
</defs>
</svg>
