<svg width="335" height="281" viewBox="0 0 335 281" fill="none" xmlns="http://www.w3.org/2000/svg">
<circle cx="167.5" cy="156.5" r="124.5" fill="#FFC656"/>
<g clip-path="url(#clip0_398_24400)">
<path d="M34.7841 67.3861C34.7841 67.3861 32.1036 68.3211 32.166 68.5081C32.2283 68.6951 35.7815 88.5807 35.7815 88.5807C35.7815 88.5807 29.1115 81.7236 26.0569 76.4873C23.0024 71.251 19.4492 68.8822 19.4492 68.8822L17.3297 70.1912C17.3297 70.1912 21.3817 86.3989 22.005 89.5158C22.6284 92.6326 22.192 94.2534 22.192 94.2534L7.48046 82.534L4.11426 85.4015L5.8597 92.2586L14.9609 106.409L12.5921 108.279L2.80518 107.594L2.61816 112.206C2.61816 112.206 4.17659 116.695 7.29345 117.817C10.4103 118.939 12.5298 118.191 17.0181 120.996C21.5063 123.801 23.2518 126.357 26.992 128.227C30.7322 130.097 35.3452 131.843 35.6569 133.276C35.9686 134.71 35.0335 135.895 34.0984 137.017C33.1634 138.139 32.9764 138.388 35.1582 142.066C37.34 145.744 56.7268 175.292 58.7216 179.406C60.7164 183.52 83.7812 223.354 85.4019 226.595C87.0227 229.899 91.137 246.169 92.3214 253.463C93.5058 260.756 94.7525 279.831 94.7525 279.831H239.873C239.873 279.831 241.183 243.052 245.795 234.2C250.408 225.348 257.64 211.198 261.193 205.525C264.808 199.853 273.473 181.151 279.458 171.801C285.504 162.45 293.109 151.105 296.538 145.931C300.029 140.757 301.65 140.819 300.59 138.388C299.53 135.957 297.411 136.643 298.47 134.523C299.53 132.404 299.966 131.843 302.522 130.534C305.078 129.225 314.803 124.986 316.86 122.305C318.917 119.625 316.735 119.251 321.597 118.44C326.46 117.63 327.894 117.879 329.452 115.199C331.01 112.518 332.319 112.082 331.322 109.401C330.325 106.721 331.758 106.097 327.894 107.157C324.029 108.217 320.725 109.775 320.101 108.03C319.478 106.284 320.413 101.859 323.904 97.6819C327.395 93.5053 330.2 90.9495 330.013 87.147C329.826 83.3444 329.078 81.1626 327.894 81.5989C326.709 82.0353 324.153 84.1548 321.348 87.2093C318.543 90.2638 316.735 93.817 314.429 93.9417C312.122 94.0664 310.127 94.5651 311.125 91.8846C312.122 89.2041 316.049 80.7886 316.798 76.6743C317.546 72.4977 318.418 69.4432 316.735 68.7575C315.052 68.0718 313.868 67.2614 311.249 72.0614C308.631 76.8613 305.764 81.6613 303.582 84.2171C301.4 86.7729 299.281 87.2716 299.281 86.5236C299.281 85.7755 302.709 68.6951 302.709 68.6951L299.966 66.7627C299.966 66.7627 295.541 72.4354 293.982 76.1756C292.424 79.9158 290.865 85.8379 288.683 88.5807C286.502 91.3235 286.128 93.8794 284.943 91.5729C283.759 89.2664 283.696 84.9028 281.889 84.0301C280.081 83.1574 277.587 82.721 276.777 83.3444C275.967 83.9678 273.161 85.5262 273.473 88.456C273.785 91.3859 273.972 94.1287 274.471 99.9261C274.969 105.723 274.658 109.09 275.094 111.895C275.53 114.7 276.403 116.445 275.156 118.253C273.91 120.061 272.787 117.755 270.73 120.186C268.673 122.617 242.928 154.97 242.928 154.97C242.928 154.97 242.242 152.726 238.502 149.359C234.762 145.993 229.775 145.744 227.406 146.617C225.037 147.489 222.294 150.856 222.294 150.669C222.294 150.482 222.232 132.653 222.232 132.653L208.206 103.292L130.222 101.609L111.272 119.438L112.145 149.671C112.145 149.671 106.721 146.056 105.163 146.056C103.604 146.056 99.6771 145.931 97.8694 147.614C96.0616 149.297 93.5681 151.417 93.3187 152.975C93.0694 154.533 92.6954 156.217 92.6954 156.217L63.0229 119.999L59.158 120.248C59.158 120.248 59.906 109.9 59.158 104.165C58.4099 98.3676 59.532 94.4404 59.8437 90.0768C60.1554 85.7132 60.7787 83.7184 58.3476 83.7807C55.9164 83.8431 52.6126 87.0846 50.9295 89.3288C49.2464 91.5729 47.2516 89.2664 47.2516 89.2664L36.3426 67.3861H34.7841Z" fill="white"/>
<path d="M287.063 133.963C280.891 130.222 274.907 126.295 268.923 122.368C266.304 125.984 263.686 129.537 261.068 133.09C258.45 136.643 255.832 140.196 252.964 143.625C250.408 146.679 248.04 150.17 245.11 152.913C244.424 153.537 243.551 153.848 242.679 153.848C243.801 160.643 240.746 166.814 235.136 170.929C231.209 173.859 226.596 175.479 221.983 175.417C221.297 176.788 220.798 178.347 220.3 179.843C219.489 183.645 217.557 186.887 215.126 190.066C212.133 193.993 209.079 197.921 205.775 201.536C202.97 204.653 199.541 208.144 195.739 210.201C194.928 216.185 190.191 221.484 185.141 225.037C179.282 227.531 173.048 229.089 166.627 229.588C162.201 229.276 157.838 228.591 153.599 227.157C145.744 224.601 140.446 216.746 138.389 209.079C138.202 208.331 137.703 207.832 137.204 207.521C137.204 207.521 137.142 207.521 137.142 207.458C131.531 203.718 126.919 198.419 122.867 193.058C118.939 187.884 115.76 182.212 113.828 175.978C113.267 174.108 111.21 173.859 109.963 174.669H109.9C108.841 173.796 107.594 173.547 106.16 173.422C99.6772 170.492 94.9395 164.57 94.0668 157.214C93.8175 155.344 92.0097 154.596 90.6383 154.908C87.085 150.357 65.3917 122.68 64.4567 121.682C63.3969 120.623 62.9606 120.311 61.2151 119.999C59.4697 119.687 49.4334 127.604 44.2594 130.534C39.0854 133.464 35.4699 135.085 34.3478 136.581C33.2257 138.077 33.9114 138.887 33.9114 139.448L52.2386 167.562C52.2386 167.562 71.1891 205.775 74.9916 209.765C78.7942 213.754 86.711 229.152 87.8331 232.642C88.8928 236.133 93.5058 254.835 94.1915 258.824C94.9395 262.876 94.2538 279.707 94.2538 279.707H233.141C233.141 279.707 233.453 259.51 234.886 250.471C236.32 241.432 237.941 240.684 239.749 234.139C241.557 227.531 268.985 178.409 272.6 171.552C273.598 169.682 274.72 167.874 275.842 166.066C278.897 161.142 282.138 156.279 285.255 151.355C286.689 149.111 288.122 146.804 289.556 144.498C290.616 142.69 292.299 140.757 292.673 138.638C293.047 135.396 289.182 135.272 287.063 133.963Z" fill="#FFB3B3"/>
<path d="M164.882 0.000976562H164.757C163.448 0.000976562 162.388 0.998371 162.326 2.30745L161.017 30.7955C160.955 31.9176 161.765 32.9773 162.825 33.289C163.012 33.3514 163.136 33.3514 163.323 33.3514H163.448C164.757 33.3514 165.817 32.354 165.879 31.0449L167.188 2.5568C167.251 1.18538 166.191 0.0633137 164.882 0.000976562Z" fill="#FFB3B3"/>
<path d="M233.266 2.9937C233.141 2.37033 232.767 1.80929 232.206 1.49761C231.894 1.31059 231.52 1.18592 231.146 1.12358C230.211 0.998908 229.338 1.43527 228.84 2.24565L203.905 41.4557C203.157 42.5778 203.531 44.0739 204.653 44.8219C204.965 45.009 205.339 45.1336 205.713 45.196C206.648 45.3206 207.52 44.8843 208.019 44.0739L232.954 4.86381C233.266 4.24044 233.39 3.61707 233.266 2.9937Z" fill="#FFB3B3"/>
<path d="M105.599 4.92598C105.225 4.36495 104.664 4.05326 104.041 3.92859C103.417 3.80391 102.732 3.92859 102.233 4.30261C101.111 5.05066 100.862 6.60909 101.61 7.66882L127.23 44.5101C127.667 45.1958 128.477 45.5698 129.225 45.5698C129.537 45.5698 129.848 45.5075 130.16 45.3828L129.848 44.6348L130.16 44.4478L130.596 45.1335C131.157 44.7594 131.469 44.1984 131.594 43.575C131.718 42.9517 131.594 42.266 131.22 41.7673L105.599 4.92598Z" fill="#FFB3B3"/>
<path d="M97.1214 263.875C95.6877 247.106 92.0721 230.961 83.3449 216.249C77.4229 206.4 71.8125 196.364 66.3268 186.265C59.7814 174.109 53.2984 161.953 44.7582 150.982C41.7037 147.055 39.2102 142.567 36.3427 138.078C45.6309 133.652 53.9217 128.291 61.9632 122.868C63.2723 123.304 63.7087 124.177 64.2074 124.925C71.0645 136.021 79.854 145.683 88.2695 155.533C89.7033 157.216 91.1994 158.774 92.7578 160.27C92.8825 160.395 93.0071 160.457 93.1318 160.582C92.8201 158.276 93.2565 155.782 94.3162 153.725C84.4046 142.567 74.7424 131.159 66.1398 118.941C64.7684 117.008 63.8333 116.323 62.4619 116.634C63.023 113.143 62.8983 109.653 62.5243 106.037C62.5243 105.85 62.4619 105.725 62.3996 105.538C62.2749 101.05 62.3373 96.5618 63.0853 92.1358C63.8957 87.1489 62.6489 82.6606 60.0308 81.1022C56.9763 79.3567 53.423 80.7905 50.4932 85.0294C50.1815 85.4658 49.8698 85.8398 49.4335 86.4632C47.127 83.9697 46.4413 80.7281 45.0075 77.923C43.1997 74.2451 41.4543 70.5672 39.2102 67.201C37.6517 64.8322 35.6569 63.8971 33.2258 64.9568C30.7323 66.0166 29.5479 68.136 30.1089 71.1905C30.6076 74.0581 31.4804 76.9256 32.4154 80.9151C29.2986 77.8606 27.8648 74.9308 26.244 72.1256C23.1895 66.8893 20.322 65.0815 17.4545 66.5153C14.5246 67.949 13.7766 71.2529 15.4597 77.2373C16.5818 81.0398 18.0779 84.6554 19.574 88.7696C16.4571 87.2735 14.4623 84.6554 12.2182 82.5359C9.84935 80.3541 7.35587 78.858 4.61303 80.5411C1.74552 82.2866 1.62084 85.6528 2.18188 89.019C2.74291 92.3852 4.80004 94.8787 6.60782 97.5592C8.16625 99.8656 9.72468 102.172 11.4078 104.666C9.97403 105.538 8.60261 104.977 7.35587 104.728C4.23901 104.042 1.87019 105.164 0.685787 108.344C-0.560957 111.523 0.436438 114.515 2.92993 116.697C5.67276 119.128 8.66494 121.559 12.0312 122.12C16.1454 122.743 18.5142 125.486 21.5687 127.98C24.6856 130.536 28.3012 132.406 32.1661 133.528C32.4154 133.59 32.6648 133.652 32.9141 133.715C33.1635 133.964 33.3505 134.213 33.5375 134.463C29.9843 137.143 31.044 139.325 34.9712 145.746C41.205 156.094 49.1218 165.382 54.4828 176.291C61.6515 191.003 70.2541 204.904 78.3579 219.054C84.2799 229.34 87.2721 240.436 89.828 251.781C91.6357 259.885 91.3241 268.238 91.8227 276.529C91.9474 278.649 92.5085 280.643 95.0643 280.581C97.6824 280.456 97.9318 278.399 97.8071 276.28C97.4331 272.166 97.4331 268.051 97.1214 263.875ZM36.405 130.099C36.218 129.912 36.031 129.787 35.844 129.663C35.2206 129.039 34.3479 128.665 33.4751 128.354C29.4856 126.982 26.4934 124.614 23.3142 121.933C20.4467 119.564 17.4545 117.133 13.6519 116.51C10.348 116.011 7.29353 114.141 5.04939 111.211C5.2364 110.837 5.36107 110.463 5.54809 110.089C7.54288 110.525 9.47533 111.086 11.4701 111.398C13.9013 111.772 17.3298 113.517 18.2025 110.401C19.0129 107.471 18.7636 103.668 16.2077 100.676C13.5272 97.5592 11.1584 94.0683 8.78962 90.6397C7.9169 89.3307 6.73249 87.8346 7.9169 85.9645C11.4701 89.58 14.961 93.1956 18.4519 96.8111C20.3843 98.8059 22.3791 100.115 24.7479 97.9332C27.1791 95.6891 28.1765 93.1332 26.5557 89.5177C24.3739 84.7801 22.3168 79.9801 20.2597 75.1801C19.948 74.4944 19.5116 73.684 20.0103 72.6243C21.6311 73.497 22.1298 75.3671 23.0648 76.8632C26.057 81.4138 28.9869 85.9645 31.979 90.4527C33.5998 92.8839 35.3453 93.5696 37.7764 91.9488C40.1452 90.3904 40.0205 88.5203 39.2102 85.9021C37.6517 80.9775 36.218 75.9905 35.0336 70.8165C37.9634 73.7464 39.2725 77.7359 40.8933 81.4762C42.8881 85.9645 44.5088 90.7021 47.2517 94.754C47.501 95.0657 47.688 95.4397 47.9374 95.8137C47.688 96.3124 47.4387 96.8111 47.1893 97.3098C46.5659 98.8683 45.8179 100.988 46.3166 102.733C46.94 104.977 49.7451 105.788 50.8049 103.668C51.4282 102.421 51.3036 101.05 51.7399 99.6786C51.9893 98.8682 52.488 98.1202 52.862 97.3098C53.7347 96.3748 53.9217 94.754 54.1087 93.3202C54.4204 90.8268 55.0438 88.5826 57.9113 86.7125C56.6022 93.8813 56.0412 100.177 56.9763 106.598C56.9763 106.723 56.9763 106.847 56.9763 106.91C57.4126 111.086 57.5996 115.076 56.1035 119.128C55.9789 119.377 55.9789 119.689 55.9165 119.938C55.8542 120.188 55.7919 120.375 55.7919 120.624C55.7919 120.749 55.7919 120.811 55.7919 120.936C50.1815 124.801 44.4465 128.478 38.3998 131.595C38.2128 131.658 38.0258 131.782 37.9011 131.845C37.4647 131.221 36.966 130.66 36.405 130.099Z" fill="#4F4F4F"/>
<path d="M196.362 209.205C193.931 208.207 193.308 211.013 192.497 212.633C191.188 215.376 189.443 217.745 187.136 219.74C178.658 227.096 162.139 228.529 152.29 222.981C147.241 220.176 143.563 216.311 141.318 211.013C140.757 209.703 139.76 208.394 138.139 209.08C136.456 209.766 136.893 211.324 137.267 212.696C138.015 215.376 139.012 217.932 140.82 220.114C147.677 228.529 156.716 231.896 167.375 231.833C170.243 231.521 173.173 231.521 175.916 230.898C185.329 228.716 192.996 224.103 196.674 214.628C197.422 212.883 199.105 210.327 196.362 209.205Z" fill="#4F4F4F"/>
<path d="M334.501 107.907C333.317 104.728 330.948 103.606 327.831 104.291C326.585 104.541 325.275 105.102 323.779 104.229C325.525 101.673 327.021 99.3668 328.579 97.1227C330.387 94.5045 332.444 92.011 333.005 88.5825C333.566 85.2162 333.442 81.85 330.574 80.1046C327.831 78.4838 325.338 79.9176 322.969 82.0994C320.725 84.2188 318.73 86.837 315.613 88.3331C317.109 84.2188 318.668 80.541 319.727 76.8007C321.473 70.8787 320.663 67.5125 317.733 66.0787C314.803 64.645 311.998 66.4528 308.943 71.6891C307.322 74.4943 305.889 77.4241 302.772 80.4786C303.769 76.489 304.58 73.6215 305.078 70.754C305.577 67.7618 304.455 65.6424 301.961 64.5203C299.53 63.4606 297.535 64.3956 295.977 66.7644C293.733 70.1306 291.987 73.8085 290.18 77.4864C288.808 80.2916 288.06 83.5331 285.754 86.0266C285.317 85.4656 285.006 85.0292 284.694 84.5929C281.764 80.3539 278.211 78.8579 275.156 80.6656C272.538 82.2241 271.229 86.7123 272.102 91.6993C272.85 96.1253 272.85 100.614 272.788 105.102C272.725 105.226 272.725 105.413 272.663 105.601C272.289 109.465 272.164 113.206 272.912 116.946C271.354 116.447 270.045 117.133 268.736 118.878C261.816 127.917 255.645 137.517 247.541 145.621C245.11 148.052 242.928 150.733 240.746 153.413C241.432 154.66 241.868 156.031 242.055 157.403C242.242 158.275 242.367 159.21 242.305 160.083L242.367 160.021C249.473 151.73 257.328 144.063 263.499 135.024C266.305 130.909 269.234 126.857 272.227 122.619C276.715 125.548 280.704 128.291 284.819 130.722C289.058 133.278 293.421 135.585 297.909 138.078C297.598 139.699 296.6 140.696 295.852 141.881C289.182 152.79 280.58 162.452 274.845 173.922C267.364 188.883 258.388 202.909 250.409 217.558C246.918 223.979 244.362 230.649 242.118 237.568C238.066 250.285 237.38 263.314 236.881 276.404C236.819 278.399 237.131 280.332 239.5 280.519C242.055 280.768 242.803 278.836 242.866 276.654C243.053 273.35 243.177 269.984 243.302 266.68C244.175 249.786 247.915 233.766 256.518 218.992C263.811 206.462 270.917 193.808 277.712 181.028C281.764 173.423 285.941 165.881 291.052 158.899C295.042 153.538 298.346 147.74 301.837 142.068C304.143 138.328 304.018 136.457 301.026 134.463C301.338 134.026 301.712 133.59 302.086 133.216C302.335 133.154 302.585 133.091 302.834 133.029C306.699 131.907 310.315 130.037 313.431 127.481C316.486 124.987 318.855 122.245 322.969 121.621C326.335 121.122 329.327 118.629 332.07 116.198C334.688 114.078 335.686 111.086 334.501 107.907ZM321.473 115.948C317.67 116.51 314.678 118.941 311.811 121.372C308.631 123.99 305.639 126.421 301.65 127.793C300.777 128.104 299.842 128.478 299.281 129.102C299.094 129.226 298.907 129.351 298.72 129.538C297.972 130.286 297.348 131.096 296.787 131.907C290.741 128.541 284.819 124.925 279.084 121.06C279.208 120.748 279.271 120.437 279.271 120.063C279.271 119.876 279.208 119.626 279.146 119.377C279.146 119.128 279.084 118.878 278.959 118.567C277.525 114.515 277.712 110.587 278.086 106.349C278.086 106.224 278.086 106.099 278.086 106.037C279.021 99.6161 278.523 93.3201 277.151 86.1513C280.019 88.0214 280.642 90.2656 280.954 92.759C281.141 94.2551 281.265 95.8136 282.2 96.7486C282.575 97.559 283.011 98.3071 283.323 99.1174C283.821 100.489 283.634 101.798 284.258 103.045C285.317 105.164 288.123 104.354 288.746 102.11C289.245 100.364 288.497 98.1824 287.873 96.6863C287.686 96.1876 287.437 95.6889 287.125 95.1902C287.374 94.8162 287.561 94.5045 287.811 94.1305C290.554 90.0785 292.174 85.3409 294.169 80.8526C295.79 77.1124 297.099 73.1228 300.029 70.193C298.907 75.3046 297.473 80.3539 295.852 85.2786C295.042 87.8344 294.917 89.7669 297.286 91.3253C299.78 92.9461 301.463 92.2604 303.083 89.8292C306.076 85.2786 309.068 80.7903 311.998 76.2397C312.933 74.8059 313.431 72.9358 315.052 72.0008C315.551 73.0605 315.115 73.8709 314.803 74.5566C312.746 79.3566 310.689 84.1565 308.507 88.8941C306.886 92.5097 307.883 95.0655 310.315 97.3097C312.683 99.5538 314.678 98.1824 316.611 96.1876C320.101 92.572 323.592 88.9565 327.146 85.3409C328.33 87.2734 327.146 88.7695 326.273 90.0162C323.904 93.4447 321.535 96.9356 318.855 100.052C316.299 103.045 316.05 106.91 316.86 109.777C317.733 112.956 321.161 111.149 323.592 110.774C325.587 110.463 327.52 109.902 329.514 109.465C329.701 109.839 329.826 110.213 330.013 110.587C327.769 113.58 324.714 115.45 321.473 115.948Z" fill="#4F4F4F"/>
<path d="M181.464 181.837C177.162 181.276 172.736 181.214 168.934 181.214H164.757C160.269 181.214 156.84 181.401 153.661 181.837C151.978 182.087 150.981 182.585 150.544 183.396C150.108 184.206 150.233 185.328 151.043 186.824C154.472 193.619 160.144 198.045 167.313 199.541L167.562 199.603L167.812 199.541C175.043 197.983 180.653 193.619 184.144 186.824C184.892 185.328 185.079 184.206 184.643 183.396C184.206 182.523 183.147 182.024 181.464 181.837ZM178.908 186.263C176.103 190.938 172.113 193.681 167.562 193.931C163.074 193.681 159.022 190.938 156.279 186.263L156.155 186.014H156.404C160.394 185.577 164.009 185.328 167.625 185.328C171.178 185.328 174.856 185.577 178.845 186.014H179.095L178.908 186.263Z" fill="#4F4F4F"/>
<path d="M166.565 171.865C167.064 171.928 167.625 171.741 167.999 171.429C168.373 171.117 168.685 170.618 168.685 170.12C168.747 168.998 167.999 168.187 166.939 168C166.877 168 166.814 168 166.752 167.938C166.253 167.813 165.817 167.626 165.318 167.439L165.256 167.377C165.381 167.19 165.568 167.003 165.692 166.816C166.066 166.442 166.44 166.068 166.814 165.694C167.188 165.32 167.438 164.946 167.5 164.385C167.562 163.886 167.375 163.325 167.064 162.951C166.378 162.203 165.131 161.954 164.321 162.702C162.825 164.135 160.768 165.943 161.266 168.25C161.952 170.618 164.508 171.491 166.565 171.865Z" fill="#4F4F4F"/>
<path d="M136.893 141.444C138.513 140.633 140.134 140.135 141.88 140.82C143.75 141.506 145.744 142.005 146.492 139.636C147.303 137.142 145.121 136.27 143.313 135.522C142.503 135.21 141.505 135.148 141.318 135.085C138.202 135.023 136.082 135.646 134.337 137.392C133.402 138.389 132.965 139.636 133.838 140.82C134.586 142.005 135.708 142.005 136.893 141.444Z" fill="#4F4F4F"/>
<path d="M192.996 141.07C194.991 140.259 196.799 140.571 198.606 141.506C199.791 142.067 200.913 141.942 201.661 140.82C202.409 139.761 202.097 138.576 201.287 137.641C199.666 135.771 197.547 135.085 194.804 135.085C193.682 135.023 192.373 135.272 191.126 135.958C189.63 136.769 188.258 137.828 188.944 139.761C189.692 141.693 191.375 141.693 192.996 141.07Z" fill="#4F4F4F"/>
<path d="M141.256 152.354C137.454 152.291 134.648 153.85 132.529 156.592C131.719 157.652 131.345 158.899 132.342 160.021C133.339 161.143 134.773 161.018 135.708 160.083C138.513 157.403 141.256 156.904 144.498 159.273C145.62 160.083 146.929 159.647 147.802 158.463C148.612 157.278 148.425 156.031 147.428 155.096C145.557 153.413 143.563 152.167 141.256 152.354Z" fill="#4F4F4F"/>
<path d="M194.492 152.353C192.373 152.103 190.44 153.101 188.695 154.659C187.51 155.719 186.762 157.028 187.884 158.524C188.819 159.833 190.315 160.02 191.5 159.147C194.554 156.903 197.11 157.527 199.666 159.895C200.726 160.893 202.16 161.267 203.282 159.958C204.341 158.711 203.78 157.34 202.783 156.28C200.663 153.849 198.108 152.353 194.492 152.353Z" fill="#4F4F4F"/>
<path d="M237.255 145.309C237.505 144.935 237.692 144.561 237.879 144.124C238.253 143.439 238.44 142.69 238.377 141.88V141.818C238.377 141.693 238.44 141.506 238.44 141.381C238.938 133.465 239.998 125.548 239.188 117.506C237.692 102.982 233.141 89.9532 223.23 78.9195C220.424 75.8027 217.495 73.3715 214.378 71.4391C206.211 65.2677 196.113 61.9015 185.765 62.5872C179.469 57.9119 171.427 55.5431 163.573 55.6678C155.843 55.7301 146.243 57.7249 138.825 61.9638C132.342 64.208 126.171 67.6365 120.249 72.2495C117.381 74.4936 114.139 75.7403 110.773 76.6131C109.527 76.9247 108.217 76.9871 106.971 77.2364C105.786 77.4234 104.54 77.7351 104.415 79.2312C104.29 80.5403 105.412 80.852 106.347 81.413C107.968 82.3481 109.714 82.2857 112.145 82.5351C102.981 91.948 97.6825 102.358 96.498 115.2C95.6877 123.865 96.3734 132.28 96.8721 140.82C96.8721 141.381 96.9967 141.88 97.1214 142.379C97.1838 142.815 97.3084 143.251 97.5578 143.626C97.7448 144.249 98.1188 144.81 98.5552 145.309C93.3189 147.553 89.828 153.101 90.6383 159.397C91.8228 169.059 99.2409 176.353 109.152 177.35C111.147 177.537 111.895 178.285 112.519 180.03C115.137 187.636 119.126 194.493 124.487 200.477C131.843 208.643 141.568 212.882 151.604 216.56C169.931 223.23 165.817 222.918 184.331 216.622C203.282 210.202 217.245 198.794 223.604 179.345C224.227 177.537 225.411 177.724 226.783 177.412C236.819 175.48 245.359 169.308 245.297 157.589C245.172 152.103 241.744 147.428 237.255 145.309ZM224.165 172.051C221.733 171.802 220.736 172.737 219.926 174.545C218.804 177.101 217.806 179.656 216.622 182.15C212.632 190.565 207.645 198.233 199.479 203.345C190.565 208.893 180.716 212.196 170.929 215.563C168.747 216.311 166.627 216.311 164.508 215.5C158.337 213.194 152.04 211.199 146.056 208.519C137.641 204.778 129.911 200.165 124.612 192.186C120.997 186.763 118.378 180.965 115.823 175.043C115.137 173.423 114.451 171.74 111.895 171.864C103.729 172.363 96.8721 166.69 95.6877 158.649C94.6903 151.916 100.425 146.929 106.784 148.675C108.093 150.233 109.028 152.041 109.09 153.537C109.152 155.594 109.34 157.589 111.833 157.589C114.451 157.589 114.95 155.532 115.012 153.35C115.137 144.935 115.386 136.457 115.324 128.041C115.324 126.171 115.76 124.924 117.132 123.865C122.804 119.376 127.23 113.766 131.532 108.031C132.529 106.66 133.215 104.976 135.272 103.792C134.337 109.527 132.716 114.576 130.285 119.376C129.474 120.997 128.477 122.618 129.848 124.301C131.345 126.046 133.277 125.423 135.085 124.737C143.376 121.808 149.609 116.26 154.846 109.402C155.531 108.467 155.968 107.158 157.464 106.722C158.15 110.524 157.214 113.953 156.529 117.382C156.155 119.189 155.594 121.246 157.401 122.618C159.272 124.052 161.204 123.117 163.012 122.182C163.76 121.808 164.446 121.371 165.194 120.997C170.866 117.88 175.729 113.704 180.342 108.592C180.529 109.652 180.653 110.213 180.653 110.711C180.466 112.956 180.342 115.137 180.03 117.382C179.531 121.122 181.526 122.992 185.204 121.932C189.006 120.872 192.186 118.691 195.24 116.26C199.167 113.08 202.721 109.589 205.837 105.538C207.209 111.335 209.141 117.008 211.572 122.493C213.505 126.857 215.998 130.971 219.427 134.213C219.988 139.511 220.175 144.935 220.05 150.358C219.988 152.103 219.801 153.911 220.487 155.594C221.048 156.903 222.045 157.651 223.479 157.589C223.604 157.589 223.728 157.589 223.791 157.527C223.853 157.464 223.915 157.402 223.978 157.402C224.165 157.215 224.352 156.966 224.539 156.779C225.162 154.036 226.409 151.355 228.029 149.236C228.216 148.987 228.404 148.8 228.653 148.612C233.889 147.241 239.375 150.732 239.936 155.906C240.809 164.134 232.393 172.799 224.165 172.051Z" fill="#4F4F4F"/>
</g>
<defs>
<clipPath id="clip0_398_24400">
<rect width="335" height="280.642" fill="white"/>
</clipPath>
</defs>
</svg>
