<svg width="27" height="27" viewBox="0 0 27 27" fill="none" xmlns="http://www.w3.org/2000/svg">
<path d="M12.6288 1.54558C13.0114 0.866931 13.9886 0.86693 14.3712 1.54557L17.5602 7.20356C17.7029 7.45674 17.9487 7.63531 18.2336 7.69279L24.6001 8.97737C25.3638 9.13144 25.6658 10.0609 25.1385 10.6344L20.7429 15.4158C20.5463 15.6298 20.4524 15.9187 20.4857 16.2074L21.2314 22.6593C21.3208 23.4332 20.5302 24.0076 19.8219 23.6834L13.9162 20.9805C13.6519 20.8595 13.3481 20.8595 13.0838 20.9805L7.17814 23.6834C6.46978 24.0076 5.67915 23.4332 5.76859 22.6593L6.51425 16.2074C6.54762 15.9187 6.45374 15.6297 6.25705 15.4158L1.86147 10.6344C1.33424 10.0609 1.63623 9.13144 2.39987 8.97737L8.76641 7.69279C9.05129 7.63531 9.29707 7.45674 9.43977 7.20356L12.6288 1.54558Z" fill="#FFC328"/>
</svg>
