<svg width="118" height="112" viewBox="0 0 118 112" fill="none" xmlns="http://www.w3.org/2000/svg">
<path d="M87.9169 63.3005L83.1169 75.8005L69.1169 82.3005L83.1169 91.0005L84.3169 107.301L98.1169 97.9006L111.517 101.801L106.517 85.3005L114.517 71.0005L97.3169 73.6006L88.517 61.6006L87.9169 63.3005Z" fill="white"/>
<path d="M105.817 87.7003C106.217 84.5003 108.717 81.6003 110.217 78.9003C110.317 78.7003 110.517 78.5003 110.617 78.3003C110.517 77.7003 109.817 77.2004 109.117 77.1004H108.817C108.617 77.1004 108.417 77.2003 108.217 77.2003C105.217 77.3003 102.317 77.7004 99.4167 78.1004C98.3167 78.3004 97.1168 78.4004 96.0168 78.6004C95.2168 78.7004 94.8167 78.5003 94.4167 77.8003C93.3167 75.8003 91.9168 74.0003 90.5168 72.3003C89.5168 71.1003 88.5168 69.8003 87.6168 68.4003C87.1168 67.6003 86.5168 67.4003 86.2168 67.5003C86.1168 67.5003 85.9168 67.5004 85.7168 67.6004C85.5168 69.7004 84.8168 71.8003 84.1168 73.8003C83.5168 75.5003 83.1167 77.6004 81.9167 79.1004C81.5167 80.2004 80.9168 81.0003 79.5168 81.4003C76.8168 82.2003 74.2168 83.2003 71.6168 84.2003C70.6168 84.6003 69.7168 84.9003 68.7168 85.3003C68.6168 85.3003 68.5167 85.4003 68.4167 85.4003C67.7167 85.6003 66.7168 85.9004 66.6168 87.1004C66.4168 88.2004 67.3167 88.8003 67.9167 89.2003L68.2168 89.4003C69.0168 90.0003 69.7168 90.5004 70.5168 91.1004C72.5168 92.5004 74.5168 94.0003 76.6168 95.3003C78.7168 96.6003 79.5168 98.2003 79.3168 100.9C79.0168 103.8 79.1168 106.8 79.2168 109.3C79.3168 110.6 79.8168 111 80.2168 111.2C80.6168 111.4 81.3168 111.4 82.2168 110.6C83.1168 109.9 84.0167 109.2 84.9167 108.6C86.3167 107.6 87.8168 106.6 89.0168 105.4C91.1168 103.1 93.0167 102.9 95.9167 104.6C98.3167 106 101.017 106.9 103.617 107.8L104.717 108.2C105.117 108.3 105.717 108.5 106.217 108.2C107.017 108 107.317 107.2 107.317 106.5C107.317 105.9 107.217 105.2 107.017 104.7C106.917 104.5 106.917 104.4 106.817 104.2C106.717 104 106.717 103.8 106.617 103.5C106.517 103.3 106.517 103.1 106.417 102.9C106.417 102.8 106.317 102.7 106.317 102.6C106.217 102.4 106.217 102.3 106.217 102.1C105.417 98.8004 104.517 96.0003 103.417 93.5003C103.217 93.0003 103.117 92.6003 103.217 92.2003C103.317 91.8003 103.417 91.4003 103.817 90.9003C104.317 89.9003 105.117 88.8003 105.817 87.7003Z" fill="#D7F4FF"/>
<path d="M117.417 70.2004C117.217 68.8004 115.717 68.0004 114.417 67.9004H114.317L113.717 68.0004C113.517 68.0004 113.417 68.1004 113.217 68.1004C109.817 68.3004 106.517 69.0004 103.317 69.6004C102.117 69.8004 100.817 70.1004 99.6169 70.3004C99.5169 70.3004 99.3169 70.3004 99.3169 70.4004C99.3169 70.4004 99.2169 70.3004 99.1169 70.1004C97.7169 67.8004 96.0169 65.9004 94.3169 64.0004C93.2169 62.7004 92.0169 61.3004 90.9169 59.9004C90.0169 58.7004 89.0169 58.4004 88.3169 58.4004C88.2169 58.4004 88.1169 58.4004 88.1169 58.4004C87.3169 58.5004 86.317 58.9004 85.517 60.5004C85.217 61.1004 85.0169 61.8004 84.8169 62.5004L84.6169 63.2004C84.0169 65.8004 83.4169 68.7004 82.9169 71.5004C82.6169 73.0004 82.2169 73.8004 80.9169 74.3004C77.9169 75.4004 75.0169 76.6004 72.1169 77.8004L71.9169 77.9004C70.9169 78.3004 69.9169 78.7004 68.9169 79.2004L68.6169 79.3004C67.7169 79.6004 66.1169 80.3004 65.8169 82.3004C65.8169 82.6004 65.8169 82.9004 65.8169 83.2004C66.1169 84.6004 67.2169 85.4004 67.9169 85.8004L68.2169 86.0004C69.0169 86.5004 69.9169 87.1004 70.7169 87.6004L70.9169 87.7004C73.2169 89.2004 75.517 90.8004 78.017 92.1004C79.517 93.0004 80.317 93.9004 80.517 95.3004C80.617 95.8004 80.6169 96.4004 80.6169 97.1004C80.4169 100.5 80.7169 103.9 80.9169 106.7C80.9169 106.9 80.917 107.1 81.017 107.2C81.317 108.9 82.2169 109.6 82.9169 109.8C83.2169 109.9 83.5169 110 83.9169 110C84.8169 110 85.617 109.6 86.517 108.8C87.417 108 88.4169 107.2 89.4169 106.5C91.0169 105.3 92.617 104.1 94.017 102.5C95.117 101.2 96.1169 100.6 97.2169 100.6C98.0169 100.6 98.9169 100.9 100.117 101.5C103.017 103 106.117 103.9 109.117 104.8L110.417 105.2C110.717 105.3 111.117 105.4 111.717 105.4C112.617 105.4 113.317 105 113.917 104.3C114.317 103.8 114.517 103.3 114.517 102.8C114.517 102.6 114.517 102.3 114.517 102.1C114.417 101.5 114.117 101.1 113.917 100.8C114.017 100.5 114.117 100.2 114.117 99.9004C114.117 99.5004 114.117 99.1004 114.017 98.7004C113.917 98.2004 113.717 97.7004 113.617 97.2004C113.517 97.1004 113.517 96.9004 113.517 96.7004C112.417 93.0004 111.217 89.8004 109.917 87.0004C109.817 86.8004 109.717 86.6004 109.717 86.5004C109.717 86.4004 109.717 86.4004 109.717 86.3004C109.717 86.1004 109.817 85.8004 110.117 85.4004C112.317 82.2004 114.317 78.9004 116.017 75.5004C116.417 74.7004 116.517 73.9004 116.517 73.4004C116.617 72.6004 116.617 72.4004 116.917 72.1004C117.417 71.6004 117.617 71.0004 117.617 70.7004C117.417 70.6004 117.417 70.4004 117.417 70.2004ZM86.017 99.8004C85.817 97.8004 85.8169 95.6004 85.9169 93.4004C85.9169 93.0004 85.9169 92.6004 85.8169 92.2004C85.6169 91.0004 84.9169 90.0004 83.7169 89.1004C81.2169 87.3004 78.617 85.7004 76.017 84.2004C75.417 83.8004 74.7169 83.4004 74.1169 83.0004L74.517 82.8004C76.917 81.8004 79.2169 80.9004 81.6169 80.2004C85.7169 79.0004 87.8169 76.4004 88.2169 71.9004V71.7004C88.3169 70.5004 88.6169 69.3004 88.8169 68.0004C88.9169 67.6004 89.017 67.2004 89.017 66.8004C89.717 67.6004 90.3169 68.4004 90.9169 69.1004C92.2169 70.6004 93.6169 72.2004 94.6169 74.0004C95.5169 75.6004 97.3169 75.7004 98.1169 75.7004C98.3169 75.7004 98.5169 75.7004 98.7169 75.7004C100.817 75.7004 102.817 75.4004 104.817 75.1004C105.817 74.9004 106.917 74.8004 108.017 74.7004C108.717 74.6004 109.417 74.5004 110.017 74.5004L109.717 75.0004C108.017 77.8004 106.317 80.4004 104.617 82.9004C103.917 83.9004 103.517 84.9004 103.517 85.9004C103.517 86.4004 103.517 86.9004 103.617 87.4004C103.717 87.9004 103.917 88.5004 104.117 89.0004C105.317 91.9004 106.417 94.7004 107.617 97.7004L107.917 98.3004C107.517 98.2004 107.217 98.0004 106.817 97.9004C106.117 97.7004 105.317 97.4004 104.517 97.1004C103.417 96.8004 102.317 96.4004 101.217 96.1004L100.617 95.9004C99.5169 95.6004 98.4169 95.2004 97.3169 94.9004C96.7169 94.7004 96.2169 94.6004 95.7169 94.6004C94.2169 94.6004 92.9169 95.3004 91.8169 96.6004C90.9169 97.8004 89.5169 98.8004 88.2169 99.8004L88.017 100C87.317 100.6 86.6169 101.1 85.9169 101.8C86.0169 101.1 86.017 100.5 86.017 99.8004Z" fill="#4F4F4F"/>
<path d="M35.017 45.1996C34.617 46.1996 24.017 56.8996 24.017 56.8996L9.61694 55.0996L16.4169 69.6996L9.11694 84.1996L26.2169 81.7996L39.2169 92.2996L40.3169 75.3996L53.3169 67.4996C53.3169 67.4996 38.9169 61.2996 38.8169 60.5996C38.7169 59.9996 36.3169 45.0996 36.3169 45.0996H35.017V45.1996Z" fill="white"/>
<path d="M42.017 70.7003C41.617 70.4003 41.1169 70.2003 40.6169 69.9003L40.1169 69.7003C37.8169 68.8003 35.3169 67.8003 32.9169 66.9003C31.4169 66.3003 30.317 65.6003 30.017 63.8003C29.517 61.1003 28.9169 58.3003 28.3169 55.6003C28.1169 54.6003 27.8169 53.6003 27.6169 52.6003C27.6169 52.5003 27.617 52.4003 27.517 52.3003C27.417 51.5003 27.2169 50.6003 26.1169 50.3003C25.0169 50.0003 24.4169 50.7003 23.9169 51.3003L23.7169 51.5003C23.1169 52.2003 22.4169 52.9003 21.7169 53.6003C20.0169 55.4003 18.3169 57.2003 16.7169 59.1003C15.1169 61.1003 13.4169 61.6003 10.8169 61.0003C7.91689 60.3003 5.01696 60.0003 2.51696 59.8003C1.21696 59.7003 0.716965 60.1003 0.516965 60.5003C0.316965 60.9003 0.116892 61.5003 0.816892 62.6003C1.41689 63.5003 1.91687 64.6003 2.41687 65.6003C3.21687 67.1003 4.01694 68.7003 5.11694 70.0003C7.11694 72.4003 7.01696 74.3003 5.01696 77.0003C3.31696 79.2003 2.11689 81.7003 0.816892 84.2003L0.316892 85.3003C0.116892 85.7003 -0.283108 86.5003 0.316892 87.2003C0.416892 87.3003 0.516965 87.4003 0.516965 87.4003C0.516965 87.4003 0.516941 87.5003 0.616941 87.5003C0.716941 87.5003 0.716892 87.6003 0.816892 87.6003C1.01689 87.7003 1.21687 87.9003 1.41687 87.9003C2.21687 88.1003 3.01692 87.9002 3.71692 87.8003C3.91692 87.8003 4.21687 87.7003 4.41687 87.7003C4.81687 87.7003 5.21694 87.7003 5.61694 87.6003C5.81694 87.6003 6.01694 87.5003 6.11694 87.5003C9.51694 87.1003 12.417 86.6003 15.017 85.9003C15.517 85.8003 15.9169 85.7003 16.3169 85.8003C16.7169 85.9002 17.017 86.1003 17.517 86.6003C19.917 89.0003 22.5169 91.2003 25.1169 93.2003C25.3169 93.3003 25.4169 93.4003 25.6169 93.5003C25.8169 93.7003 25.9169 93.8003 26.1169 93.9003C26.3169 94.1003 26.6169 94.2003 26.8169 94.4003C26.9169 94.4003 27.0169 94.5003 27.1169 94.5003C27.5169 94.8003 27.9169 95.0003 28.3169 95.2003C28.6169 95.4003 29.0169 95.4003 29.3169 95.1003C29.8169 94.9003 30.2169 94.4002 30.4169 93.8003V93.5003C30.4169 93.3003 30.4169 93.1003 30.4169 92.9003C30.7169 90.0003 30.7169 87.0003 30.6169 84.1003C30.6169 83.0003 30.6169 81.8003 30.6169 80.7003C30.6169 79.8003 30.8169 79.5003 31.6169 79.2003C33.7169 78.4003 35.7169 77.2003 37.6169 76.0003C39.0169 75.2003 40.4169 74.3003 41.8169 73.6003C42.7169 73.2003 42.9169 72.7003 42.9169 72.3003C43.1169 72.0003 42.917 71.4003 42.017 70.7003Z" fill="#FBF7CD"/>
<path d="M54.7169 65.1998C54.2169 64.7998 53.5169 64.4998 52.9169 64.1998L52.2169 63.8998C49.7169 62.8998 47.0169 61.7998 44.3169 60.6998C42.9169 60.1998 42.1169 59.5998 41.9169 58.1998C41.4169 55.0998 40.717 51.9998 40.017 48.9998C39.717 47.8998 39.5169 46.7998 39.2169 45.5998L39.1169 45.1998C38.9169 44.2998 38.6169 42.4998 36.6169 41.8998C36.3169 41.7998 36.0169 41.7998 35.7169 41.7998C34.2169 41.7998 33.3169 42.7998 32.8169 43.3998L32.6169 43.5998C31.9169 44.2998 31.2169 44.9998 30.6169 45.7998L30.4169 45.9998C28.5169 47.9998 26.6169 49.9998 24.8169 52.1998C23.7169 53.5998 22.7169 54.0998 21.2169 54.0998C20.7169 54.0998 20.1169 53.9998 19.4169 53.8998C16.1169 53.0998 12.7169 52.7998 9.91687 52.5998C9.71687 52.5998 9.51687 52.5998 9.41687 52.5998C7.71687 52.5998 6.91697 53.3998 6.51697 53.9998C6.11697 54.6998 5.81687 55.8998 6.91687 57.6998C7.51687 58.6998 8.11692 59.7998 8.71692 60.8998C9.61692 62.6998 10.5169 64.4998 11.8169 66.0998C13.6169 68.3998 13.6169 69.7998 11.7169 72.2998C9.81692 74.8998 8.31687 77.6998 6.91687 80.5998L6.31689 81.7998C6.01689 82.2998 5.21697 83.8998 6.51697 85.3998C6.91697 85.7998 7.31687 86.0998 7.91687 86.2998C8.11687 86.3998 8.41694 86.3998 8.61694 86.3998C9.21694 86.3998 9.61697 86.1998 10.017 85.9998C10.317 86.0998 10.5169 86.2998 10.8169 86.2998C11.2169 86.3998 11.617 86.4998 12.017 86.4998C12.517 86.4998 13.1169 86.3998 13.6169 86.2998C13.8169 86.2998 13.9169 86.1998 14.1169 86.1998C18.0169 85.6998 21.3169 85.0998 24.2169 84.2998C24.4169 84.1998 24.6169 84.1998 24.7169 84.1998C24.8169 84.1998 24.9169 84.1998 24.9169 84.1998C25.1169 84.2998 25.4169 84.3998 25.7169 84.6998C28.5169 87.3998 31.4169 89.8998 34.4169 92.1998C35.1169 92.6998 35.8169 92.8998 36.4169 93.0998C37.1169 93.2998 37.4169 93.3998 37.6169 93.6998C38.0169 94.2998 38.5169 94.5998 38.9169 94.6998C39.1169 94.7998 39.317 94.7998 39.517 94.7998C40.917 94.7998 41.9169 93.4998 42.3169 92.1998V92.0998V91.4998C42.3169 91.2998 42.3169 91.1998 42.3169 90.9998C42.7169 87.5998 42.6169 84.2998 42.6169 80.9998C42.6169 79.6998 42.6169 78.4998 42.6169 77.1998C42.6169 76.9998 42.6169 76.8998 42.6169 76.8998C42.6169 76.8998 42.7169 76.7998 42.9169 76.7998C45.4169 75.7998 47.6169 74.3998 49.8169 73.0998C51.3169 72.1998 52.8169 71.2998 54.4169 70.4998C55.9169 69.7998 56.3169 68.6998 56.4169 67.9998C56.3169 67.3998 56.1169 66.2998 54.7169 65.1998ZM13.9169 79.7998C14.3169 79.1998 14.7169 78.3998 15.1169 77.6998C15.6169 76.6998 16.1169 75.7998 16.6169 74.8998L17.017 74.0998C17.517 73.0998 18.1169 72.0998 18.6169 70.9998C19.6169 68.9998 19.3169 66.9998 17.8169 65.2998C16.8169 64.1998 16.0169 62.6998 15.3169 61.2998L15.2169 60.9998C14.8169 60.1998 14.3169 59.3998 13.8169 58.5998C14.4169 58.7998 15.0169 58.8998 15.7169 58.8998C17.7169 59.0998 19.8169 59.3998 22.1169 59.9998C22.5169 60.0998 22.9169 60.0998 23.3169 60.0998C24.6169 60.0998 25.7169 59.5998 26.7169 58.5998C28.9169 56.4998 30.9169 54.1998 32.9169 51.8998C33.4169 51.2998 33.9169 50.7998 34.4169 50.1998L34.517 50.5998C35.017 53.1998 35.6169 55.5998 35.8169 58.0998C36.3169 62.3998 38.5169 64.7998 42.9169 66.0998L43.1169 66.1998C44.3169 66.4998 45.4169 66.9998 46.7169 67.4998C47.1169 67.5998 47.4169 67.7998 47.8169 67.8998C46.9169 68.3998 46.0169 68.8998 45.2169 69.3998C43.4169 70.3998 41.6169 71.4998 39.7169 72.1998C37.9169 72.7998 37.6169 74.4998 37.4169 75.3998C36.9169 77.6998 36.9169 79.8998 36.9169 82.0998C36.9169 83.0998 36.9169 84.1998 36.8169 85.2998C36.8169 85.9998 36.7169 86.6998 36.7169 87.3998L36.1169 86.8998C33.7169 84.6998 31.5169 82.6998 29.3169 80.5998C28.4169 79.7998 27.517 79.1998 26.517 78.8998C26.017 78.7998 25.517 78.6998 25.017 78.6998C24.517 78.6998 23.9169 78.7998 23.3169 78.8998C20.2169 79.5998 17.2169 80.1998 14.1169 80.7998L13.4169 80.8998C13.5169 80.4998 13.7169 80.1998 13.9169 79.7998Z" fill="#4F4F4F"/>
<path d="M66.4169 4.19962L63.517 19.6996C63.517 19.6996 49.117 25.1996 49.517 25.3996C49.917 25.5996 62.6169 32.4996 62.6169 32.4996L64.7169 50.1996L78.1169 39.4996L94.517 41.0996L86.9169 26.3996L94.517 12.3996L77.1169 14.8996L67.4169 2.59961L66.4169 4.19962Z" fill="white"/>
<path d="M87.8169 45.3003C87.6169 44.7003 87.2169 44.0003 86.9169 43.5003C86.5169 42.7003 86.1169 41.9003 85.7169 41.2003C84.9169 39.7003 84.0169 38.3003 83.1169 36.8003C82.5169 35.8003 81.9169 34.9003 81.3169 33.9003C80.9169 33.2003 80.9169 32.8003 81.4169 32.1003C82.8169 30.3003 83.8169 28.3003 84.8169 26.3003C85.5169 24.9003 86.3169 23.4003 87.2169 22.1003C87.7169 21.3003 87.617 20.7003 87.517 20.4003C87.317 20.1003 86.9169 19.6003 85.8169 19.5003C85.3169 19.5003 84.8169 19.5003 84.2169 19.6003L83.7169 19.7003C81.2169 20.1003 78.6169 20.5003 76.1169 21.0003C74.5169 21.3003 73.2169 21.2003 72.1169 19.9003C70.3169 17.8003 68.3169 15.7003 66.4169 13.8003C65.7169 13.1003 65.0169 12.3003 64.3169 11.6003C64.2169 11.5003 64.1169 11.4003 64.1169 11.3003C63.6169 10.7003 62.9169 10.0003 61.8169 10.3003C60.7169 10.6003 60.5169 11.6003 60.4169 12.3003L60.3169 12.6003C60.1169 13.5003 59.9169 14.5003 59.7169 15.4003C59.2169 17.8003 58.6169 20.2003 58.3169 22.7003C58.0169 25.2003 56.8169 26.5003 54.2169 27.4003C51.4169 28.3003 48.717 29.6003 46.517 30.7003C45.417 31.3003 45.1169 31.9003 45.1169 32.3003C45.1169 32.7003 45.3169 33.4003 46.4169 33.9003C47.4169 34.4003 48.4169 35.0003 49.3169 35.6003C50.8169 36.5003 52.3169 37.4003 53.9169 38.0003C56.8169 39.1003 57.8169 40.7003 57.4169 44.0003C57.1169 47.2003 57.2169 50.6003 57.7169 53.7003C57.8169 54.2003 58.0169 54.7003 58.4169 55.0003C59.8169 55.9003 61.8169 54.1003 62.8169 53.3003C65.6169 51.2003 68.3169 49.0003 70.6169 46.5003C71.0169 46.1003 71.3169 45.9003 71.7169 45.8003C72.1169 45.7003 72.5169 45.7003 73.1169 45.8003C74.9169 46.2003 76.8169 46.6003 78.7169 46.9003C80.1169 47.1003 81.6169 47.3003 83.1169 47.5003C84.4169 47.7003 86.9169 48.3003 87.8169 47.0003C88.1169 46.6003 88.2169 46.1003 88.1169 45.6003C87.8169 45.4003 87.8169 45.4003 87.8169 45.3003Z" fill="#DCE5EC"/>
<path d="M97.1168 40.2L96.8168 39.6C96.7168 39.5 96.6168 39.3 96.6168 39.2C95.2168 36.1 93.4168 33.2 91.7168 30.5C91.0168 29.4 90.4168 28.3 89.7168 27.3C89.6168 27.1 89.5168 27 89.5168 27C89.5168 27 89.6168 26.9 89.7168 26.7C91.3168 24.6 92.5168 22.3 93.7168 20C94.5168 18.5 95.3168 16.9 96.3168 15.4C97.2168 14 97.0168 12.9 96.7168 12.3C96.4168 11.6 95.6168 10.8 93.8168 10.6C93.6168 10.6 93.4168 10.6 93.1168 10.6C92.6168 10.6 92.2168 10.6 91.7168 10.7L91.0168 10.8C88.4168 11.2 85.4168 11.7 82.6168 12.2C82.1168 12.3 81.7168 12.3 81.3168 12.3C80.4168 12.3 79.8168 12 79.2168 11.3C77.1168 8.90002 74.9168 6.60002 72.8168 4.40002L72.5168 4.10001C71.8168 3.40001 71.1167 2.60002 70.4167 1.90002L70.2168 1.60001C69.7168 1.00001 68.8168 0 67.3168 0C67.0168 0 66.7167 6.10203e-06 66.4167 0.100006C66.1167 0.200006 65.8168 0.300024 65.6168 0.400024C64.4168 1.20002 64.1167 2.50002 63.9167 3.30002L63.8168 3.60001C63.6168 4.60001 63.4168 5.5 63.2168 6.5L63.1168 6.80002C62.5168 9.50002 61.9168 12.2 61.5168 15C61.3168 16.7 60.7167 17.8 59.4167 18.5C59.0167 18.8 58.4168 19 57.8168 19.2C54.6168 20.2 51.5168 21.7 49.0168 23C48.8168 23.1 48.7168 23.2 48.5168 23.3C47.0168 24.2 46.7168 25.3 46.7168 26C46.7168 26.8 47.1167 28 48.9167 28.9C50.0167 29.4 51.0168 30.1 52.1168 30.7C53.8168 31.7 55.5168 32.8 57.5168 33.5C60.2168 34.5 61.0168 35.7 60.6168 38.9C60.3168 42.1 60.5168 45.3 60.8168 48.4L60.9167 49.7C60.9167 50.3 61.1167 52.1 62.9167 52.6C63.2167 52.7 63.5168 52.7 63.8168 52.7C64.0168 52.7 64.3168 52.7 64.5168 52.6C64.7168 52.5 64.9168 52.4 65.1168 52.3C65.6168 52 65.9168 51.6 66.1168 51.2C66.4168 51.2 66.7168 51.1 67.0168 51.1C67.4168 51 67.7168 50.8 68.1168 50.6C68.6168 50.3 69.0167 50 69.4167 49.7C69.5167 49.6 69.7168 49.5 69.8168 49.4C72.9168 47 75.4168 44.8 77.5168 42.6C77.7168 42.4 77.8167 42.3 77.9167 42.2C78.0167 42.2 78.0168 42.1 78.1168 42.1C78.2168 42.1 78.3167 42.1 78.4167 42.1C78.6167 42.1 78.8168 42.1 79.1168 42.2C82.9168 43.1 86.7167 43.7 90.4167 44.1C90.5167 44.1 90.7168 44.1 90.8168 44.1C91.5168 44.1 92.1168 43.9 92.6168 43.8C93.0168 43.7 93.3168 43.6 93.5168 43.6C93.7168 43.6 93.8167 43.6 93.9167 43.7C94.2167 43.9 94.6167 43.9 94.9167 43.9C95.1167 43.9 95.3168 43.9 95.5168 43.8C95.7168 43.7 95.9168 43.7 96.0168 43.6C97.2168 43.1 97.4168 41.5 97.1168 40.2ZM88.9167 38.5C85.8167 37.9 82.8168 37.3 79.8168 36.6C79.2168 36.5 78.7168 36.4 78.1168 36.4C77.6168 36.4 77.0168 36.5 76.5168 36.6C76.0168 36.7 75.5168 36.9 75.1168 37.2C74.6168 37.5 74.2168 37.8 73.8168 38.2C71.6168 40.4 69.3167 42.4 66.9167 44.6L66.4167 45.1C66.4167 44.7 66.4167 44.3 66.4167 43.9C66.4167 43.2 66.4168 42.3 66.3168 41.5C66.2168 40.3 66.1168 39.2 66.1168 38V37.4C66.0168 36.3 66.0167 35.1 65.9167 34C65.7167 31.8 64.5168 30.2 62.3168 29.5C60.9168 29 59.4168 28.2 58.1168 27.3L57.9167 27.1C57.1167 26.6 56.3168 26.2 55.5168 25.8C56.1168 25.6 56.7168 25.4 57.3168 25.1C59.1168 24.2 61.1168 23.4 63.3168 22.7C63.7168 22.6 64.1167 22.4 64.4167 22.2C65.5167 21.6 66.2168 20.6 66.5168 19.2C67.3168 16.2 67.8168 13.2 68.3168 10.3C68.4168 9.60002 68.6168 8.80001 68.7168 8.10001L69.0168 8.40002C70.8168 10.3 72.5168 12.1 74.0168 14.1C75.9168 16.6 78.1168 17.8 80.8168 17.8C81.8168 17.8 82.9168 17.6 84.1168 17.3L84.3168 17.2C85.5168 16.9 86.7168 16.7 88.1168 16.4C88.5168 16.3 88.9168 16.3 89.2168 16.2C88.7168 17.1 88.2168 18 87.7168 18.8C86.7168 20.6 85.7168 22.5 84.5168 24C83.3168 25.4 83.9168 27.1 84.2168 27.9C85.0168 30.1 86.1168 32 87.2168 33.9C87.7168 34.8 88.3168 35.7 88.8168 36.7C89.1168 37.3 89.4168 37.9 89.8168 38.5H88.9167Z" fill="#4F4F4F"/>
</svg>
