<svg width="360" height="215" viewBox="0 0 360 215" fill="none" xmlns="http://www.w3.org/2000/svg">
<path d="M19.418 80.4345C19.418 80.4345 12.918 80.7448 9.01795 85.0896C5.11795 89.4344 4.31795 89.5378 3.51795 93.5723C2.61795 97.6067 0.617953 97.6067 3.51795 102.158C6.41795 106.71 6.81795 108.779 11.518 111.055C16.218 113.331 18.4179 113.434 21.7179 112.4C25.0179 111.365 23.0179 109.813 26.6179 111.675C30.2179 113.538 29.618 113.434 35.418 117.986C41.218 122.537 53.918 133.813 53.918 133.813L46.2179 151.916C46.2179 151.916 44.7179 153.882 47.2179 157.916C49.7179 161.951 53.5179 165.261 58.1179 168.158C62.7179 171.054 67.7179 171.778 69.8179 169.192C71.9179 166.502 70.7179 163.709 70.6179 162.365C70.5179 161.02 65.5179 156.985 65.1179 155.02C64.7179 153.054 68.6179 150.985 68.6179 150.985C68.6179 150.985 70.1179 149.33 73.7179 153.054C77.3179 156.778 76.2179 156.365 77.8179 160.089C79.4179 163.813 79.5179 165.468 83.3179 164.433C87.1179 163.399 90.0179 160.399 89.7179 157.813C89.4179 155.227 90.4179 152.951 88.3179 150.261C86.2179 147.572 82.018 141.261 82.018 141.261L86.418 138.365C86.418 138.365 90.318 145.813 91.018 147.261C91.7179 148.813 92.4179 150.985 95.6179 150.882C98.8179 150.778 104.418 150.158 104.418 146.951C104.418 143.744 102.418 139.089 100.018 134.02C97.618 128.848 92.5179 123.468 88.3179 122.848C84.0179 122.227 78.418 123.158 72.518 123.572C66.7179 123.986 55.3179 112.606 55.3179 112.606C55.3179 112.606 34.9179 95.5377 34.8179 94.917C34.7179 94.3998 34.8179 89.8481 32.2179 86.124C29.6179 82.4 27.418 80.9517 24.518 80.5379C21.718 79.9172 19.418 80.4345 19.418 80.4345Z" fill="white"/>
<path d="M21.7179 87.6761C18.9179 86.8485 14.3179 87.1589 13.0179 89.8485C11.4179 93.1588 12.3179 97.5036 15.1179 99.0553C18.6179 100.917 24.9179 99.4691 26.2179 96.4691C26.9179 94.9174 26.8179 93.3657 26.2179 91.814C25.2179 89.745 23.7179 88.4002 21.7179 87.6761ZM20.0179 94.7105C19.0179 94.7105 17.8179 95.2277 17.2179 93.9864C17.0179 93.4691 17.0179 92.9519 17.5179 92.745C18.6179 92.2278 19.7179 92.0209 20.7179 92.8484C21.1179 93.1588 21.3179 93.5726 21.7179 93.9864C21.1179 94.607 20.5179 94.7105 20.0179 94.7105Z" fill="#4F4F4F"/>
<path d="M105.318 141.261C103.818 136.089 101.818 132.055 99.0179 128.744C95.9179 125.02 92.8178 121.503 88.3178 120.158C86.9178 119.744 85.5179 119.537 84.0179 119.537C82.6179 119.537 81.2178 119.641 79.7178 119.744H79.3178C76.8178 119.641 74.2178 119.848 70.8178 120.365C70.0178 120.468 69.4178 120.468 68.8178 120.262C68.4178 120.158 67.9179 119.848 67.5179 119.537C57.8179 111.262 47.7179 102.676 39.0179 95.3308C38.2179 94.6067 37.9179 94.0895 37.9179 93.1584C37.9179 89.6412 36.4179 86.5378 33.4179 83.7448C30.9179 81.4689 28.2179 79.8138 25.4179 78.8827C21.2179 77.5379 16.6179 77.7448 11.4179 79.4C6.71788 80.9517 2.81785 84.9861 1.01785 90.2619C-0.782148 95.5377 -0.182197 101.124 2.7178 105.365C5.3178 109.193 9.21783 112.193 13.6178 113.537C17.1178 114.572 20.7179 114.675 24.0179 113.537C24.4179 113.434 24.8178 113.434 25.1178 113.434C25.5178 113.538 25.9178 113.848 26.3178 114.262L30.2178 117.675C33.2178 120.262 36.1178 122.848 39.1178 125.434C41.7178 127.71 44.4178 130.089 47.1178 132.468L50.4179 135.365C49.5179 137.02 48.8178 138.572 48.2178 139.813L48.0179 140.227V140.434C46.6179 143.227 45.6178 145.503 44.6178 147.572C42.1178 153.158 43.1178 159.468 47.3178 163.192L48.1178 163.916C51.6178 167.123 55.2178 170.433 59.6178 172.606C60.3178 172.916 61.0178 173.226 61.7178 173.433C65.9178 174.675 69.7178 173.64 72.2178 170.433C75.3178 166.399 75.1179 162.365 71.4179 157.916C70.6179 156.882 69.6178 155.847 68.8178 154.916L68.7178 154.813C68.4178 154.503 68.1178 154.192 67.8178 153.882C68.2178 153.365 68.6178 152.951 69.2178 152.744C73.3178 155.951 73.4179 156.054 75.0179 160.916C76.1179 164.227 77.6178 165.985 80.1178 166.813C80.8178 167.02 81.6179 167.227 82.5179 167.227C87.0179 167.537 89.8178 165.985 91.8178 162.054C93.4178 158.744 92.7178 155.537 91.6178 152.123C92.6178 152.744 93.5179 153.158 94.4179 153.468C97.3179 154.399 100.118 153.675 103.318 151.296C106.218 149.227 106.818 146.227 105.318 141.261ZM87.5179 145.089C86.5179 143.951 85.4178 142.71 84.6178 141.365C84.8178 141.158 85.0178 141.054 85.1178 141.054C85.2178 141.054 85.4178 141.158 85.7178 141.572C86.8178 143.123 87.7179 144.675 88.4179 146.123C88.1179 145.813 87.8179 145.503 87.5179 145.089ZM98.3178 147.158C98.0178 147.261 97.7179 147.365 97.4179 147.572C97.0179 147.778 96.6178 147.882 96.3178 147.778C95.9178 147.675 95.6178 147.261 95.3178 146.434C93.8178 143.123 91.9179 140.02 90.0179 137.123L89.4179 136.192C88.8179 135.261 88.2178 134.744 87.5179 134.537C87.2178 134.434 86.8179 134.434 86.4179 134.434C82.9179 134.951 80.6179 136.089 78.9179 138.158C77.0179 140.434 77.0178 142.296 79.1178 144.572L79.9179 145.503C81.3179 147.158 82.8178 148.813 84.1178 150.572C85.8178 152.847 86.7179 155.123 86.9179 157.606C87.0179 159.054 86.7178 160.916 84.3178 161.33C83.5178 161.433 82.9178 161.433 82.3178 161.227C81.4178 160.916 80.8178 160.192 80.7178 158.951C80.3178 154.709 77.7178 152.02 75.1178 149.744C74.5178 149.227 74.0178 148.813 73.6178 148.399C72.1178 147.054 71.2178 146.227 70.2178 145.916C68.6178 145.399 67.3179 146.537 63.9179 149.537L63.3178 150.054C62.0178 151.192 61.3178 152.434 61.2178 153.675C61.1178 155.02 61.7178 156.365 63.1178 157.813C63.5178 158.33 64.0179 158.744 64.4179 159.261L64.5179 159.468C65.6179 160.606 66.7178 161.847 67.7178 163.089C68.8178 164.433 68.8178 165.778 67.7178 166.916C66.6178 168.054 65.5178 168.468 64.1178 168.054C63.9178 167.951 63.6179 167.847 63.4179 167.744C60.0179 166.192 56.8178 163.916 53.3178 160.502C48.8178 156.261 48.4178 153.882 51.1178 148.399C52.6178 145.399 54.1179 142.399 55.4179 139.399C55.6179 138.985 55.8179 138.572 55.9179 138.261L56.0179 138.158C56.1179 138.054 56.1178 137.951 56.2178 137.848C57.5178 136.089 57.4179 134.33 55.9179 132.468C54.8179 131.123 53.5178 130.089 52.3178 129.158C51.7178 128.641 51.0179 128.227 50.4179 127.71C48.9179 126.365 47.4179 125.124 45.9179 123.779C40.6179 119.227 35.2179 114.572 30.0179 109.71C29.0179 108.779 28.1178 108.262 27.1178 107.951C25.7178 107.538 24.2179 107.641 22.4179 108.158C20.3179 108.882 18.0178 108.882 15.6178 108.158C10.7178 106.607 6.81783 102.365 6.11783 97.7101C5.21783 92.0205 9.81778 85.6068 15.8178 84.4689C18.2178 83.9516 20.7179 84.0551 23.9179 84.6758C24.2179 84.7792 24.6179 84.7792 24.9179 84.8827C28.9179 86.124 32.2179 90.2619 32.4179 94.2964C32.5179 96.5722 33.3179 98.1239 34.9179 99.4687C46.9179 109.607 56.2178 117.365 64.8178 124.71C65.0178 124.813 65.1178 125.02 65.3178 125.124C65.6178 126.158 66.2178 126.882 67.1178 127.089C67.7178 127.296 68.4178 127.296 69.3178 127.193C73.8178 126.675 77.9179 126.158 82.0179 125.744C83.6179 125.641 85.3178 125.434 86.8178 125.951C87.3178 126.158 87.8178 126.365 88.2178 126.572C94.5178 130.71 98.6178 136.917 100.318 144.985C100.418 146.434 99.5178 146.744 98.3178 147.158Z" fill="#4F4F4F"/>
<path d="M198.609 135.871C198.609 135.871 191.209 137.112 189.909 140.733C188.609 144.354 190.009 144.147 185.509 147.664C181.009 151.181 182.909 150.354 174.309 155.009C165.709 159.664 156.209 164.94 156.209 164.94C156.209 164.94 151.509 162.56 146.009 161.319C140.509 160.078 134.109 160.595 128.309 163.905C122.409 167.216 121.609 167.216 116.209 174.767C110.809 182.319 109.609 183.767 108.309 188.733C107.009 193.698 105.509 190.181 108.309 196.284C111.109 202.284 109.009 203.732 115.909 206.422C122.709 209.112 128.109 210.146 135.409 209.732C142.709 209.319 153.609 208.181 157.809 205.388C162.009 202.594 165.509 200.422 167.109 197.112C168.709 193.801 170.009 193.698 169.609 190.077C169.209 186.457 165.509 178.181 166.309 176.629C167.009 175.078 168.509 173.836 170.209 172.905C171.909 171.974 189.609 160.905 190.909 161.112C192.209 161.216 196.309 165.354 202.709 163.078C209.109 160.802 212.009 160.078 213.509 156.043C215.009 152.009 215.809 150.767 213.509 145.492C211.209 140.216 210.209 135.975 207.009 135.975C203.809 135.975 199.209 135.975 199.209 135.975H198.609V135.871Z" fill="white"/>
<path d="M199.609 141.974C197.709 142.181 196.209 143.112 195.109 144.767C194.309 146.008 194.009 147.353 194.309 148.801C194.909 151.594 200.109 153.87 203.409 152.939C206.109 152.112 207.509 148.491 206.709 145.388C206.109 142.905 202.209 141.87 199.609 141.974ZM202.509 148.181C201.709 149.215 200.809 148.491 199.909 148.388C199.409 148.284 198.909 148.077 198.509 147.353C198.909 147.043 199.209 146.629 199.509 146.526C200.509 146.112 201.509 146.422 202.309 147.043C202.909 147.353 202.809 147.87 202.509 148.181Z" fill="#4F4F4F"/>
<path d="M217.609 147.664C216.909 142.595 214.109 138.353 210.109 136.078C206.909 134.319 204.009 133.388 201.009 133.078C199.909 132.974 198.809 132.974 197.709 133.078C195.009 133.388 192.309 134.319 189.809 135.974C186.609 137.94 184.809 140.526 184.209 143.733C184.109 144.353 183.809 144.664 183.209 144.974C174.609 149.733 164.709 155.319 155.109 160.698C154.209 160.388 153.209 160.077 152.409 159.767L151.709 159.56C149.409 158.732 147.109 158.319 144.709 158.112C142.809 157.905 140.909 158.008 139.009 158.215C137.009 158.422 134.809 158.836 132.709 159.457C123.509 162.146 116.909 168.767 110.409 175.905C107.609 179.008 105.709 182.525 104.609 186.767C102.209 196.18 107.109 206.422 115.709 210.146C120.609 212.215 125.309 213.559 129.909 213.87C132.109 214.077 134.209 214.077 136.309 213.87C137.409 213.766 138.609 213.559 139.609 213.353C144.209 212.732 148.109 212.111 151.909 210.87C157.109 209.318 163.109 206.939 167.909 201.973C170.709 199.077 172.309 196.077 172.709 192.663C173.509 186.456 171.409 180.974 169.709 177.456C170.809 176.836 176.809 173.318 178.709 172.181C181.709 170.422 184.609 168.767 187.609 167.008L191.509 164.732C191.909 164.525 192.209 164.319 192.409 164.319H192.509C192.609 164.319 192.809 164.422 193.009 164.525C194.909 165.56 196.909 166.181 199.109 166.388C200.109 166.491 201.209 166.491 202.209 166.388C206.309 165.974 210.409 164.008 213.309 161.008C216.809 157.595 218.309 152.733 217.609 147.664ZM211.109 153.043C209.809 156.664 205.909 159.56 201.709 159.974C201.009 160.077 200.409 160.077 199.709 159.974C198.409 159.87 197.209 159.457 196.209 158.939C195.009 158.319 194.009 157.905 193.009 157.801C192.609 157.801 192.309 157.801 191.909 157.801C190.909 157.905 189.909 158.319 188.809 158.939C183.609 162.146 178.109 165.25 172.809 168.353L172.609 168.456C171.209 169.284 169.709 170.112 168.309 170.939C167.709 171.25 167.109 171.56 166.509 171.87C165.209 172.491 163.909 173.112 162.709 174.146C162.109 174.663 161.709 175.181 161.409 175.801L161.209 176.215L161.509 176.629C162.309 177.767 163.109 179.008 163.909 180.663L164.109 181.18C164.109 181.18 164.709 181.077 164.809 181.077C165.509 182.525 165.909 183.663 166.109 184.905C167.609 191.525 166.909 194.629 163.009 198.146C160.509 200.422 157.509 202.284 154.309 203.422C150.909 204.663 147.309 205.904 143.509 206.422C141.509 206.732 139.409 207.042 137.309 207.249C134.209 207.559 131.509 207.663 129.009 207.456C127.009 207.249 125.109 206.939 123.309 206.422C118.809 205.077 115.309 202.077 112.409 199.284C108.809 195.87 109.109 187.284 113.109 182.215C116.309 178.077 120.009 174.353 124.009 171.146C128.909 167.215 134.009 164.939 139.109 164.422C140.609 164.319 142.009 164.215 143.509 164.422C145.409 164.629 147.409 164.939 149.409 165.56L149.309 165.974L150.509 166.284C151.709 166.594 153.009 167.008 154.309 167.112C154.909 167.112 155.409 167.112 155.909 167.112C156.409 167.008 156.909 166.905 157.409 166.698C165.809 161.939 174.909 156.87 186.709 150.25C188.409 149.319 189.409 147.974 189.909 145.802C190.709 142.595 194.009 139.802 197.409 139.388C197.709 139.388 198.009 139.388 198.209 139.388C198.909 139.388 199.509 139.388 200.209 139.491C202.109 139.698 203.609 140.009 205.109 140.629C209.909 142.698 212.709 148.491 211.109 153.043Z" fill="#4F4F4F"/>
<path d="M147.409 170.008C145.609 168.766 143.809 167.939 141.909 167.422C141.009 167.215 140.109 167.008 139.209 167.008H139.009C136.209 166.904 135.609 168.87 135.509 169.697C135.409 170.525 135.509 172.387 138.109 173.008C138.509 173.111 138.809 173.215 139.209 173.215C139.609 173.318 139.909 173.422 140.309 173.422C141.109 173.628 142.109 173.939 143.009 174.456C150.709 179.215 154.009 185.008 153.609 192.663C153.509 194.421 154.309 195.663 155.709 195.973C155.809 195.973 156.009 196.076 156.109 196.076C156.209 196.076 156.209 196.076 156.309 196.076C157.809 196.18 159.009 195.145 159.409 193.49C159.509 192.87 159.609 192.352 159.709 191.835L159.809 191.008C159.409 182.421 155.409 175.49 147.409 170.008Z" fill="#4F4F4F"/>
<path d="M279.618 4.35655C279.618 4.35655 253.918 8.90822 249.118 13.1495C244.318 17.3909 241.718 20.3908 241.718 22.5632C241.718 24.7356 244.918 69.011 244.918 69.011C244.918 69.011 249.618 106.976 249.718 108.424C249.818 109.769 250.218 114.424 255.718 117.321C261.318 120.217 273.318 122.803 280.618 125.39C287.918 127.976 311.018 128.7 318.718 126.321C326.418 123.941 333.718 123.321 339.518 119.493C345.318 115.666 350.518 108.942 350.518 108.942L355.118 26.7011C355.118 26.7011 357.018 20.5977 354.318 16.7702C351.618 12.9427 341.818 8.39098 337.618 7.45996C333.418 6.63238 314.318 3.42553 309.218 3.32208C304.318 3.21863 279.618 4.35655 279.618 4.35655Z" fill="white"/>
<path d="M330.818 35.4937C324.618 36.6316 318.418 37.7695 312.218 38.4936C311.218 38.7005 310.318 38.804 309.318 39.0109C308.818 39.1143 308.418 39.0109 308.018 38.9074C306.018 39.1143 303.918 39.2178 301.918 39.3212C291.818 39.735 281.518 39.4247 271.518 37.873C264.918 36.8385 257.318 35.5971 251.018 32.3903C246.918 31.0454 241.418 27.4248 241.418 27.4248L246.918 105.114C246.918 105.114 247.318 109.458 249.318 112.045C251.318 114.631 254.318 117.838 257.018 119.7C259.718 121.458 270.318 125.389 273.618 126.113C276.918 126.837 290.818 128.493 295.118 128.906C299.418 129.217 311.618 126.631 314.618 126.217C317.618 125.803 325.518 122.803 329.818 120.217C334.118 117.631 340.318 112.872 341.318 109.562C342.318 106.251 345.818 44.1832 345.818 44.1832L346.218 31.7696C341.118 33.4247 336.018 34.5626 330.818 35.4937Z" fill="#D7F4FF"/>
<path d="M356.318 14.0805C350.818 8.49435 343.718 6.52885 336.718 4.25302C325.218 0.425478 311.418 -0.0917592 298.818 0.0116878C296.518 0.0116878 294.318 0.115137 292.218 0.115137C276.818 0.425478 261.018 3.01165 247.218 10.6667C243.718 12.6322 241.318 14.5977 240.018 16.977C239.018 16.1494 237.618 16.5632 236.518 17.0805C234.018 18.2184 232.218 20.2873 230.318 22.3563C219.318 34.1492 217.518 48.6318 218.618 63.942C218.718 65.1833 219.018 66.3212 220.018 67.0454C224.618 70.7695 229.018 75.0108 235.018 76.1487C237.618 76.6659 240.218 77.7004 242.818 78.1142C243.218 86.9072 243.718 95.5968 245.018 104.286C246.418 113.907 252.618 119.803 260.118 123.631C276.318 131.907 293.618 134.182 311.518 131.596C326.418 129.424 341.118 126.424 351.118 112.872C352.718 110.597 354.018 108.528 354.418 105.735C357.018 85.8727 356.618 65.9075 358.018 45.9422C358.518 38.3905 358.018 30.7355 359.418 23.2873C359.818 19.8735 358.918 16.7701 356.318 14.0805ZM240.818 61.7696C237.818 60.4248 234.518 59.4937 232.118 57.1145C230.418 55.3559 228.618 54.2179 226.218 53.7007C225.618 49.6663 225.918 46.1491 227.018 42.7353C229.618 34.9768 233.218 27.8389 238.718 21.7356C238.718 23.3907 239.018 25.1493 239.618 27.1148C239.818 27.7355 239.918 28.4596 239.918 29.0803C240.518 40.0457 240.918 51.1145 241.618 62.0799C241.418 61.9765 241.118 61.873 240.818 61.7696ZM247.318 49.4594C246.718 44.4939 246.118 39.5285 245.618 34.4596C270.418 41.3905 294.918 43.356 319.518 40.5629C319.018 40.9767 318.518 41.3905 318.018 41.8043C308.318 52.0455 297.318 59.9075 283.818 64.4592C275.018 67.3557 266.418 68.9074 257.318 68.2867C256.318 68.1833 254.918 68.3902 254.418 67.7695C252.918 65.7006 250.918 64.7695 248.818 64.0454C248.318 59.1834 247.818 54.3214 247.318 49.4594ZM351.818 42.8388C350.218 58.3558 349.618 73.9763 348.418 89.5968C347.918 96.114 347.618 102.631 346.318 109.045C345.518 112.872 341.718 115.252 338.318 116.803C312.818 128.183 287.018 128.493 261.318 117.424C256.418 115.355 253.018 112.045 252.218 105.528C251.018 96.114 250.318 86.5969 249.618 77.0797C250.118 76.7694 250.618 76.4591 251.118 76.0453C251.618 75.6315 252.818 75.7349 253.618 75.8384C269.118 78.0108 283.418 73.666 297.218 67.2523C308.218 62.0799 316.718 53.4938 324.818 44.5974C326.018 43.2526 326.018 41.5974 324.818 40.1491C324.718 40.0457 324.618 39.9423 324.518 39.8388C333.818 38.494 343.118 36.425 352.418 33.7354C353.218 36.5285 352.118 39.7354 351.818 42.8388ZM350.618 25.5631C345.718 28.6665 340.218 30.0113 334.618 30.9424C322.018 32.8044 309.318 34.8733 296.618 34.2527C281.818 33.5285 266.918 33.632 252.618 28.6665C252.218 28.5631 251.818 28.4596 251.518 28.3562C248.418 27.3217 245.118 25.9769 245.018 22.1494C244.918 18.9425 247.818 16.8736 250.418 15.4253C257.718 11.184 265.918 10.4598 273.918 8.80469C282.718 7.04609 292.218 7.45988 301.218 7.66677C303.018 7.66677 304.718 7.77022 306.518 7.77022C317.718 7.87366 328.818 8.59779 339.718 11.4943C344.118 12.6322 348.518 14.0805 351.618 18.0115C353.818 21.0114 354.018 23.4942 350.618 25.5631Z" fill="#4F4F4F"/>
</svg>
