<svg width="300" height="300" viewBox="0 0 300 300" fill="none" xmlns="http://www.w3.org/2000/svg">
<rect x="1.41956" y="1.41956" width="297.161" height="297.161" rx="148.58" fill="#FFDFA0"/>
<path d="M127.361 75.6377C126.686 76.0875 100.674 115.443 100.674 115.443V125.713C100.674 125.713 96.3258 122.715 94.0769 123.314C91.828 123.914 89.9539 125.338 88.5296 127.512C87.1053 129.686 85.8309 130.136 86.9554 135.234C88.0798 140.331 87.9299 141.381 91.2283 144.229C94.5267 147.078 101.273 146.628 102.848 148.802C104.422 150.976 106.146 157.573 109.294 162.52C112.443 167.393 111.993 168.442 115.891 171.891C119.789 175.339 122.788 177.513 122.788 177.513C122.788 177.513 121.738 182.236 120.689 183.81C119.714 185.384 120.014 184.409 117.69 184.559C115.366 184.709 116.641 183.06 112.518 188.682C108.395 194.305 97.2254 202.85 97.2254 202.85L57.045 223.315C57.045 223.315 52.9221 229.462 50.7481 237.034C48.5742 244.605 39.6536 298.504 39.6536 298.504H260.196C260.196 298.504 255.398 270.767 254.873 267.019C254.348 263.271 249.326 238.758 247.077 232.611C244.828 226.464 246.777 225.115 238.906 220.317C231.035 215.519 195.802 197.378 195.802 197.378L183.358 184.11L179.835 185.984L176.761 176.613C176.761 176.613 186.582 171.966 190.03 164.694C193.553 157.423 194.003 151.201 197.526 148.877C201.05 146.553 202.699 147.752 206.822 145.429C210.945 143.105 213.718 139.057 213.194 134.634C212.669 130.211 213.269 127.887 210.87 125.638C208.396 123.389 207.946 122.19 204.573 122.79C201.2 123.314 197.451 125.263 197.751 125.113C198.051 124.964 198.951 118.892 198.951 118.892L161.919 85.4579L127.361 75.6377Z" fill="white"/>
<path d="M199.775 126.164V126.089C199.7 125.939 199.7 125.864 199.625 125.714C199.625 125.639 199.55 125.564 199.475 125.489C199.401 125.189 199.251 124.889 198.951 124.739C198.726 124.59 198.576 124.515 198.276 124.515C198.201 124.515 198.126 124.515 198.051 124.515C197.901 124.515 197.826 124.515 197.676 124.515C197.601 124.515 197.451 124.515 197.377 124.515C197.302 124.515 197.302 124.44 197.302 124.44C197.077 124.365 196.777 124.29 196.552 124.29C194.528 124.29 192.504 124.215 190.48 124.14C189.955 124.14 189.43 124.065 188.831 124.065C188.306 124.065 187.781 123.765 187.481 123.24C184.483 117.318 166.192 117.468 161.619 119.417C161.544 119.417 161.544 119.492 161.469 119.492C153.298 123.84 159.37 124.29 150.674 122.865C150.524 122.865 150.375 122.865 150.225 122.865C138.68 124.59 143.853 120.542 136.356 118.293C136.281 118.293 136.132 118.218 135.982 118.218C114.917 116.793 113.193 120.392 111.993 122.64C111.693 123.165 111.169 123.54 110.644 123.54C109.819 123.54 108.995 123.615 108.245 123.615C106.971 123.615 105.771 123.615 104.497 123.615C103.822 123.615 103.148 123.615 102.473 123.615C102.398 123.615 102.323 123.615 102.173 123.615C101.423 123.615 100.749 124.14 100.599 124.964C100.524 125.189 100.524 125.414 100.449 125.564V125.639C100.449 125.789 100.449 125.864 100.449 125.939C100.599 126.089 100.674 126.239 100.824 126.389C100.974 126.464 101.049 126.539 101.199 126.614C100.974 126.539 100.974 126.539 101.349 126.689C101.873 126.913 102.398 127.063 102.923 127.213C103.298 127.213 103.672 127.213 104.047 127.213C104.197 127.213 104.272 127.213 104.422 127.213C105.097 127.363 105.921 127.363 106.671 127.288C107.271 127.363 107.795 127.363 108.395 127.363C109.145 127.363 109.969 127.363 110.794 127.363C111.094 127.588 111.319 127.888 111.394 128.413C114.092 139.057 133.358 141.906 140.629 132.985C143.028 130.662 142.054 126.014 147.076 125.789C157.421 123.465 155.997 132.161 160.42 135.009C168.516 141.681 180.96 139.132 186.432 132.536C186.582 132.386 186.657 132.086 186.732 131.861C187.481 129.237 188.306 128.263 189.43 127.963C189.58 127.888 189.805 127.888 189.955 127.963C191.005 128.113 192.054 128.113 193.029 128.113C194.078 128.188 195.427 128.488 196.477 128.113C196.552 128.113 196.627 128.113 196.702 128.188C197.002 128.188 197.302 128.263 197.601 128.263C197.826 128.263 198.051 128.263 198.201 128.263C198.501 128.188 198.726 127.963 198.951 127.738C199.026 127.663 199.101 127.588 199.176 127.588C199.251 127.513 199.326 127.438 199.326 127.363C199.401 127.213 199.475 127.063 199.475 126.913C199.475 126.838 199.476 126.689 199.55 126.614C199.55 126.614 199.55 126.614 199.55 126.539V126.464C199.85 126.464 199.85 126.314 199.775 126.164ZM139.055 128.413C134.632 139.807 112.893 135.009 115.442 124.29C115.592 123.765 115.891 123.315 116.341 123.09C123.238 119.867 142.503 119.417 139.055 128.413ZM184.033 128.862C178.786 139.807 156.821 135.759 160.645 124.29C160.719 124.065 160.869 123.84 161.019 123.69C165.817 118.817 189.505 121.666 184.033 128.862Z" fill="#8E9EB2"/>
<path d="M188.306 185.833C185.532 182.835 183.883 181.71 181.784 182.46C181.034 180.211 180.285 177.887 179.685 175.563C178.411 176.838 176.986 177.962 175.487 178.862C176.012 181.261 176.687 183.585 177.511 185.758C173.538 189.732 169.715 193.855 164.917 196.778C159.07 200.301 155.772 205.249 153.823 211.546C152.848 214.694 151.949 217.918 150.15 220.916C148.8 219.867 148.725 218.443 148.2 217.318C146.551 213.12 144.977 208.997 143.403 204.799C142.653 202.85 141.454 201.426 139.73 200.301C133.733 196.253 128.185 191.606 123.088 186.433C123.912 184.109 124.662 181.636 125.262 179.012C123.687 178.262 122.263 177.288 120.914 176.238C120.314 178.487 119.564 180.736 118.815 182.985C118.44 182.835 117.99 182.685 117.54 182.535C116.191 182.235 114.917 182.16 113.867 183.285C109.969 187.408 106.071 191.606 102.248 195.804C101.348 196.778 101.049 197.978 102.023 199.027C103.073 200.226 104.422 200.076 105.546 199.102C107.046 197.828 108.47 196.478 109.744 194.979C112.293 192.13 114.692 189.207 117.316 186.208C123.088 193.63 129.909 199.477 137.481 204.649C138.905 205.624 139.355 206.973 139.88 208.472C141.904 214.17 143.103 220.092 146.251 225.264C147.151 226.763 147.826 228.638 149.925 228.712C152.174 228.787 152.923 226.688 153.823 225.189C156.896 220.017 158.096 214.245 160.045 208.697C160.494 207.348 160.794 205.924 162.069 205.024C169.715 199.702 176.836 193.78 182.684 186.208C186.207 190.556 189.43 194.679 193.253 198.277C194.528 199.477 196.027 200.976 197.751 199.252C199.55 197.528 197.901 196.103 196.702 194.829C193.853 191.681 191.005 188.832 188.306 185.833Z" fill="#4F4F4F"/>
<path d="M95.3514 200.751C84.4067 206.223 73.537 211.92 62.4424 217.018C57.4949 219.267 53.9716 222.49 52.1725 227.438C47.6747 239.807 44.7511 252.55 42.877 265.594C41.9775 271.516 41.6027 277.513 40.4033 283.435C39.5787 287.483 38.6791 291.531 37.8545 295.504C37.9295 297.004 38.3792 298.278 39.9535 298.428C41.5277 298.578 42.3523 297.528 42.6522 296.104C43.6267 291.981 44.7511 287.783 45.3508 283.585C47.5997 267.468 49.7737 251.351 54.3464 235.684C55.246 232.535 56.4454 229.462 57.9447 226.538C58.9192 224.739 60.2685 223.465 62.1426 222.49C72.0378 217.618 81.9329 212.67 91.8281 207.797C93.9271 206.748 95.951 205.698 97.5253 204.049C98.4998 203.075 99.9991 202.025 98.7247 200.526C97.9001 199.252 96.5508 200.151 95.3514 200.751Z" fill="#4F4F4F"/>
<path d="M259.221 281.262C257.422 265.52 254.573 249.928 250.376 234.635C249.476 231.337 248.277 228.188 246.777 225.115C245.053 221.516 242.205 219.193 238.606 217.468C228.336 212.596 218.366 207.124 207.871 202.626C206.372 201.951 205.023 200.977 203.598 200.152C202.624 199.627 201.649 199.627 200.975 200.602C200.375 201.426 200.75 202.251 201.35 203.001C202.624 204.5 204.198 205.774 205.922 206.674C215.967 211.771 226.012 216.869 236.207 221.741C239.281 223.241 241.605 225.04 242.804 228.188C243.779 230.587 244.828 233.061 245.503 235.535C248.951 248.728 252.25 261.997 253.299 275.64C253.824 282.537 255.698 289.208 257.197 295.88C257.572 297.379 258.397 298.579 260.196 298.279C261.62 298.054 261.995 296.855 262.145 295.505C261.17 290.858 259.821 286.135 259.221 281.262Z" fill="#4F4F4F"/>
<path d="M72.6375 294.381C70.6885 282.612 68.8893 270.917 67.6899 259.073C66.7154 249.928 65.591 240.857 64.4665 231.786C64.3166 230.362 64.0167 228.413 61.9178 228.638C60.0437 228.863 60.2686 230.587 60.1936 231.562C61.6929 250.527 63.2671 269.043 66.2657 287.334C66.7904 290.483 67.3151 293.556 67.8399 296.705C68.1397 298.354 68.8894 299.778 70.8384 299.478C72.9374 299.178 73.0873 297.454 72.8624 295.655C72.7875 295.205 72.7125 294.831 72.6375 294.381Z" fill="#4F4F4F"/>
<path d="M238.231 228.637C236.282 228.337 235.982 229.987 235.683 231.411C235.308 232.985 235.083 234.634 234.933 236.283C232.759 255.249 231.035 274.29 227.661 293.106C227.437 294.38 227.212 295.654 227.137 297.004C227.062 298.353 227.811 299.328 229.161 299.627C230.585 299.927 231.485 299.028 231.934 297.828C232.309 296.929 232.384 295.954 232.609 294.98C236.057 275.264 238.081 255.474 239.581 235.534C239.656 234.334 239.806 233.135 239.88 231.936C239.88 230.436 239.88 228.937 238.231 228.637Z" fill="#4F4F4F"/>
<path d="M190.48 198.952C189.205 198.502 188.381 199.402 187.931 200.451C187.106 202.25 186.357 204.049 185.532 205.848C183.208 210.871 180.81 215.818 178.186 221.216C176.462 218.892 175.262 217.168 173.913 215.444C171.814 212.67 169.715 209.821 166.342 208.397C165.142 207.872 163.943 207.722 163.118 208.922C162.219 210.271 163.043 211.171 164.093 211.92C169.19 215.519 172.039 220.841 175.112 225.939C175.862 227.213 176.312 228.562 178.036 228.637C179.685 228.712 180.51 227.513 181.184 226.163C184.558 219.792 187.856 213.42 190.255 206.598C190.78 205.024 191.304 203.524 191.679 201.95C191.979 200.676 191.904 199.476 190.48 198.952Z" fill="#4F4F4F"/>
<path d="M134.107 208.247C131.784 209.071 129.984 210.721 128.485 212.595C126.386 215.218 124.362 217.917 121.963 221.065C121.214 219.716 120.764 218.742 120.239 217.767C117.391 212.37 114.917 206.747 112.518 201.125C111.993 199.851 111.169 198.277 109.369 199.026C107.87 199.701 108.17 201.125 108.47 202.475C110.944 211.17 114.992 219.116 119.34 226.913C120.764 229.461 123.163 229.162 124.587 226.613C127.735 221.14 130.734 215.593 136.131 211.77C137.106 211.095 137.781 210.196 136.956 208.996C136.281 207.872 135.157 207.797 134.107 208.247Z" fill="#4F4F4F"/>
<path d="M150.149 244.305C149.1 244.305 148.125 244.754 147.526 245.579C147.001 246.254 146.926 247.153 147.226 248.053C147.601 249.252 148.65 250.002 150 250.002C150.974 250.002 151.949 249.552 152.473 248.877C152.923 248.278 153.073 247.453 152.848 246.629C152.548 245.129 151.574 244.305 150.149 244.305Z" fill="#4F4F4F"/>
<path d="M150.149 280.587C149.1 280.587 148.125 281.037 147.526 281.861C147.001 282.536 146.926 283.436 147.226 284.335C147.601 285.534 148.65 286.284 150 286.284C150.974 286.284 151.949 285.834 152.473 285.16C152.923 284.56 153.073 283.735 152.848 282.911C152.548 281.486 151.574 280.587 150.149 280.587Z" fill="#4F4F4F"/>
<path d="M215.668 131.186C215.293 126.988 212.969 123.84 209.82 122.415C211.62 116.793 212.819 111.021 213.119 105.174C213.644 95.5784 210.795 86.8077 207.347 78.1119C200.15 60.1207 176.162 47.8267 158.246 45.0531C147.526 43.4039 124.662 44.6783 120.314 57.497C119.34 57.572 118.44 57.6469 117.466 57.7969C102.323 60.2707 92.7277 73.7641 89.1295 88.0071C87.7801 93.2545 85.981 115.968 91.8281 121.965C87.1054 123.09 84.4817 127.213 84.3318 134.784C84.5567 138.757 86.8056 143.405 91.6032 146.628C94.152 148.353 97.0756 149.327 99.9991 150.002C101.648 150.377 102.323 151.126 102.773 152.7C104.047 157.048 105.546 161.246 108.095 165.069C115.442 176.164 125.487 183.81 137.931 188.008C143.553 189.882 149.175 191.681 155.397 190.032C162.219 188.233 168.591 185.609 174.588 182.011C184.708 175.864 192.354 167.243 196.177 155.774C197.376 152.251 198.501 149.477 202.699 149.102C203.973 149.027 205.248 148.278 206.372 147.678C212.894 144.679 216.342 138.457 215.668 131.186ZM205.398 143.255C202.999 144.754 200.375 145.429 197.676 146.104C195.952 146.553 194.978 147.528 194.303 149.252C192.729 153.45 191.304 157.798 188.831 161.621C181.934 172.491 172.339 179.837 160.345 183.885C156.521 185.16 152.548 186.809 148.425 185.984C129.46 182.386 115.067 172.491 107.645 153.9C105.771 149.102 103.672 145.729 98.2 144.679C93.6272 143.855 90.4788 140.556 89.2044 135.909C88.4548 133.06 88.4548 130.061 90.5537 127.738C92.4278 125.564 94.8267 125.564 97.3754 126.463C97.8252 126.613 98.275 126.838 98.7248 126.913C98.8747 127.363 98.9496 127.813 98.9496 128.412C99.0246 130.211 100.449 131.561 102.473 131.186C104.647 130.811 105.322 129.162 105.097 127.138C104.797 124.964 104.497 122.79 104.122 120.616C103.822 119.192 104.047 118.217 105.247 117.168C114.242 109.597 120.164 99.7014 125.562 89.5063C127.136 86.5828 128.485 83.5093 129.984 80.4358C131.859 80.8106 132.908 82.01 134.032 82.9845C143.103 90.5558 152.773 97.2276 163.043 103.075C164.543 103.899 165.967 104.874 167.766 103.225C166.567 98.352 162.668 94.4539 162.369 88.6818C163.118 89.2815 163.568 89.5813 163.868 89.8812C173.388 100.226 182.234 111.396 194.603 118.817C196.252 119.792 195.952 121.066 195.802 122.49C195.427 125.189 193.853 128.787 197.901 129.537C200.6 130.062 201.499 128.562 201.949 126.688C202.474 126.463 202.999 126.238 203.449 126.163C207.721 125.114 210.795 127.213 211.245 131.711C211.545 136.883 209.521 140.631 205.398 143.255Z" fill="#4F4F4F"/>
<path d="M157.871 157.048C152.548 159.522 147.226 159.072 141.904 157.123C140.854 156.748 139.655 155.549 138.83 157.048C137.93 158.622 139.355 159.522 140.554 160.271C143.553 162.07 147.001 162.07 150.299 162.595C153.523 162.295 156.746 162.145 159.595 160.421C160.794 159.672 162.219 158.847 161.244 157.198C160.344 155.624 158.995 156.448 157.871 157.048Z" fill="#4F4F4F"/>
<path d="M150.149 165.67C148.725 165.745 146.776 165.295 146.701 167.394C146.626 169.493 148.575 169.568 150.149 169.643C151.649 169.718 153.223 169.493 153.298 167.769C153.448 165.745 151.724 165.595 150.149 165.67Z" fill="#4F4F4F"/>
<path d="M147.751 145.653C148.275 145.728 148.875 145.803 149.4 145.803H149.55C149.7 145.803 149.85 145.803 150 145.803C150.674 145.803 151.199 145.728 151.649 145.578C152.398 145.278 152.773 144.829 152.698 144.379C152.623 144.154 152.323 143.929 152.024 143.704L151.949 143.629C151.649 143.404 151.349 143.254 151.049 143.179C150.824 143.105 150.674 143.03 150.449 142.955C150.15 142.88 149.925 142.805 149.7 142.655C149.25 142.43 148.95 142.055 148.65 141.68C148.425 141.38 148.35 141.08 148.35 140.781C148.35 140.331 148.575 139.806 148.8 139.356C149.025 138.907 149.25 138.382 149.475 137.857C150.075 136.658 150.224 135.533 149.925 134.859C149.7 134.334 149.175 133.959 148.65 133.959C148.051 133.959 147.826 134.409 147.601 134.709L146.701 136.208C146.476 136.583 146.176 137.032 145.952 137.482C145.727 137.857 145.577 138.157 145.427 138.532C145.277 138.832 145.127 139.131 144.977 139.431V139.506C144.677 140.106 144.302 140.706 144.227 141.38C144.077 142.43 144.377 143.404 145.127 144.229C145.727 145.129 146.926 145.503 147.751 145.653Z" fill="#4F4F4F"/>
<path d="M131.783 125.413C130.959 124.289 129.534 123.614 127.81 123.614C126.011 123.614 124.437 124.364 123.687 125.638C123.163 126.538 122.863 128.037 124.137 130.211L124.212 130.286L124.287 130.361C125.411 131.111 126.686 131.56 127.885 131.56C130.284 131.56 131.933 129.986 132.383 127.287V127.138L131.783 125.413Z" fill="#4F4F4F"/>
<path d="M172.713 123.54C171.064 123.54 169.565 124.215 168.74 125.339L168.665 125.414L168.066 127.063V127.213C168.515 129.912 170.24 131.486 172.563 131.486C173.763 131.486 175.037 131.036 176.162 130.287L176.237 130.212L176.312 130.137C177.586 127.963 177.211 126.464 176.761 125.564C176.162 124.365 174.587 123.54 172.713 123.54Z" fill="#4F4F4F"/>
<path d="M132.983 110.272C131.558 109.222 128.935 109.072 127.435 109.072C124.212 109.072 120.014 109.822 118.515 111.546C117.69 112.446 117.54 113.345 117.915 114.245C118.29 115.069 119.04 115.519 119.864 115.519C120.089 115.519 120.314 115.444 120.614 115.369C122.563 114.62 124.587 114.32 126.611 114.32C128.035 114.32 129.385 114.47 130.734 114.844H130.809H130.884C132.233 114.844 133.583 114.62 134.107 113.12C134.332 112.371 134.332 111.246 132.983 110.272Z" fill="#4F4F4F"/>
<path d="M180.285 110.721C178.036 109.522 175.562 109.147 172.489 109.072C172.264 109.072 171.964 109.147 171.664 109.147C170.839 109.222 169.79 109.372 168.74 109.597C167.391 109.897 166.491 110.347 166.042 111.021C165.667 111.546 165.592 112.221 165.742 112.97C166.042 114.245 166.866 114.844 168.291 114.844C168.665 114.844 169.115 114.769 169.715 114.695C171.214 114.395 172.489 114.32 173.688 114.32C175.412 114.32 176.911 114.62 178.336 115.144C178.935 115.369 179.46 115.519 179.985 115.519C180.959 115.519 181.634 114.994 182.009 114.095C182.833 112.071 180.884 111.021 180.285 110.721Z" fill="#4F4F4F"/>
<rect x="1.41956" y="1.41956" width="297.161" height="297.161" rx="148.58" stroke="#4F4F4F" stroke-width="2.83912"/>
</svg>
