<svg width="48" height="49" viewBox="0 0 48 49" fill="none" xmlns="http://www.w3.org/2000/svg">
<path d="M24 47.8246C36.8814 47.8246 47.3239 37.3822 47.3239 24.5007C47.3239 11.6192 36.8814 1.17676 24 1.17676C11.1185 1.17676 0.676025 11.6192 0.676025 24.5007C0.676025 37.3822 11.1185 47.8246 24 47.8246Z" fill="white"/>
<path d="M24 1.85114C36.4845 1.85114 46.6479 12.0145 46.6479 24.499C46.6479 36.9835 36.4845 47.1469 24 47.1469C11.5155 47.1469 1.35211 36.9835 1.35211 24.499C1.35211 12.0145 11.5155 1.85114 24 1.85114ZM24 0.499023C10.7493 0.499023 0 11.2483 0 24.499C0 37.7497 10.7493 48.499 24 48.499C37.2507 48.499 48 37.7497 48 24.499C48 11.2483 37.2507 0.499023 24 0.499023Z" fill="black"/>
<path d="M10.2536 34.9783C13.4272 34.9783 16 32.4055 16 29.2318C16 26.0581 13.4272 23.4854 10.2536 23.4854C7.07987 23.4854 4.50708 26.0581 4.50708 29.2318C4.50708 32.4055 7.07987 34.9783 10.2536 34.9783Z" fill="#FF8080"/>
<path d="M38.1972 34.9783C41.3709 34.9783 43.9437 32.4055 43.9437 29.2318C43.9437 26.0581 41.3709 23.4854 38.1972 23.4854C35.0235 23.4854 32.4507 26.0581 32.4507 29.2318C32.4507 32.4055 35.0235 34.9783 38.1972 34.9783Z" fill="#FF8080"/>
<path d="M15.8873 27.3164C17.443 27.3164 18.7042 26.0552 18.7042 24.4995C18.7042 22.9438 17.443 21.6826 15.8873 21.6826C14.3315 21.6826 13.0704 22.9438 13.0704 24.4995C13.0704 26.0552 14.3315 27.3164 15.8873 27.3164Z" fill="black"/>
<path d="M17.3071 20.0622C17.1268 20.0622 16.9691 19.9946 16.8339 19.8594C16.6085 19.634 16.293 19.4988 15.955 19.4988C15.617 19.4988 15.3015 19.634 15.0761 19.8594C14.8057 20.1298 14.3775 20.1298 14.1296 19.8594C13.8592 19.589 13.8592 19.1608 14.1296 18.9129C15.1437 17.8988 16.7888 17.8988 17.8029 18.9129C18.0733 19.1833 18.0733 19.6115 17.8029 19.8594C17.6451 19.9946 17.4648 20.0622 17.3071 20.0622Z" fill="black"/>
<path d="M33.7577 20.0622C33.5774 20.0622 33.4197 19.9946 33.2845 19.8594C33.0591 19.634 32.7436 19.4988 32.4056 19.4988C32.0676 19.4988 31.7521 19.634 31.5267 19.8594C31.2563 20.1298 30.8281 20.1298 30.5803 19.8594C30.3098 19.589 30.3098 19.1608 30.5803 18.9129C31.5943 17.8988 33.2394 17.8988 34.2535 18.9129C34.5239 19.1833 34.5239 19.6115 34.2535 19.8594C34.0958 19.9946 33.9155 20.0622 33.7577 20.0622Z" fill="black"/>
<path d="M27.1548 29.5709C27.1774 29.5709 27.1774 29.5709 27.1774 29.5934C27.1774 29.6159 27.1774 29.6159 27.1774 29.6159C26.6365 30.8103 25.4196 31.599 24.09 31.599C22.7605 31.599 21.5661 30.8103 21.0027 29.6159C21.0027 29.5934 21.0027 29.5934 21.0027 29.5934C21.0027 29.5709 21.0253 29.5709 21.0253 29.5709H27.1548ZM27.1548 28.2188H21.0703C20.0562 28.2188 19.4027 29.2554 19.8084 30.1793C20.552 31.8244 22.1971 32.9511 24.1126 32.9511C26.0281 32.9511 27.6731 31.8018 28.4168 30.1793C28.845 29.2554 28.1689 28.2188 27.1548 28.2188Z" fill="black"/>
<path d="M32.338 27.3164C33.8937 27.3164 35.1549 26.0552 35.1549 24.4995C35.1549 22.9438 33.8937 21.6826 32.338 21.6826C30.7823 21.6826 29.5211 22.9438 29.5211 24.4995C29.5211 26.0552 30.7823 27.3164 32.338 27.3164Z" fill="black"/>
</svg>
