<svg width="151" height="151" viewBox="0 0 151 151" fill="none" xmlns="http://www.w3.org/2000/svg">
<path d="M147.178 3.8864C146.125 2.83168 144.875 1.9949 143.498 1.42396C142.122 0.853029 140.647 0.559149 139.157 0.559149C137.666 0.559149 136.191 0.853029 134.815 1.42396C133.438 1.9949 132.188 2.83168 131.135 3.8864L75.5 59.4081L19.8646 3.77263C18.8112 2.71928 17.5607 1.88373 16.1845 1.31366C14.8082 0.7436 13.3331 0.450195 11.8435 0.450195C10.3538 0.450195 8.87878 0.7436 7.50252 1.31366C6.12627 1.88373 4.87577 2.71928 3.82243 3.77263C2.76909 4.82597 1.93353 6.07646 1.36347 7.45272C0.793405 8.82898 0.5 10.304 0.5 11.7937C0.5 13.2833 0.793405 14.7584 1.36347 16.1347C1.93353 17.5109 2.76909 18.7614 3.82243 19.8148L59.4579 75.4502L3.82243 131.086C2.76909 132.139 1.93353 133.389 1.36347 134.766C0.793405 136.142 0.5 137.617 0.5 139.107C0.5 140.596 0.793405 142.071 1.36347 143.448C1.93353 144.824 2.76909 146.074 3.82243 147.128C4.87577 148.181 6.12627 149.017 7.50252 149.587C8.87878 150.157 10.3538 150.45 11.8435 150.45C13.3331 150.45 14.8082 150.157 16.1845 149.587C17.5607 149.017 18.8112 148.181 19.8646 147.128L75.5 91.4923L131.135 147.128C132.189 148.181 133.439 149.017 134.816 149.587C136.192 150.157 137.667 150.45 139.157 150.45C140.646 150.45 142.121 150.157 143.497 149.587C144.874 149.017 146.124 148.181 147.178 147.128C148.231 146.074 149.066 144.824 149.637 143.448C150.207 142.071 150.5 140.596 150.5 139.107C150.5 137.617 150.207 136.142 149.637 134.766C149.066 133.389 148.231 132.139 147.178 131.086L91.5421 75.4502L147.178 19.8148C151.501 15.4913 151.501 8.20981 147.178 3.8864Z" fill="white"/>
</svg>
