<svg width="49" height="49" viewBox="0 0 49 49" fill="none" xmlns="http://www.w3.org/2000/svg">
<path d="M8.79989 40.5019C7.6999 40.5019 6.75856 40.1106 5.9759 39.3279C5.1919 38.5439 4.7999 37.6019 4.7999 36.5019V12.502C4.7999 11.402 5.1919 10.4606 5.9759 9.67795C6.75856 8.89395 7.6999 8.50195 8.79989 8.50195H40.7999C41.8999 8.50195 42.8419 8.89395 43.6259 9.67795C44.4086 10.4606 44.7999 11.402 44.7999 12.502V36.5019C44.7999 37.6019 44.4086 38.5439 43.6259 39.3279C42.8419 40.1106 41.8999 40.5019 40.7999 40.5019H8.79989ZM24.7999 26.1519C24.9666 26.1519 25.1412 26.1266 25.3239 26.0759C25.5079 26.0266 25.6832 25.9519 25.8499 25.8519L39.9999 17.002C40.2666 16.8353 40.4665 16.6273 40.5999 16.378C40.7332 16.1273 40.7999 15.852 40.7999 15.552C40.7999 14.8853 40.5166 14.3853 39.9499 14.052C39.3832 13.7186 38.7999 13.7353 38.1999 14.102L24.7999 22.5019L11.3999 14.102C10.7999 13.7353 10.2166 13.7266 9.64989 14.076C9.08323 14.4266 8.79989 14.9186 8.79989 15.552C8.79989 15.8853 8.86656 16.1766 8.99989 16.426C9.13323 16.6766 9.33323 16.8686 9.59989 17.002L23.7499 25.8519C23.9166 25.9519 24.0919 26.0266 24.2759 26.0759C24.4586 26.1266 24.6332 26.1519 24.7999 26.1519Z" fill="black"/>
</svg>
