<svg width="204" height="37" viewBox="0 0 204 37" fill="none" xmlns="http://www.w3.org/2000/svg">
<g clip-path="url(#clip0_205_1551)">
<path d="M39.1706 36.9983C49.3877 36.9983 57.6703 28.7158 57.6703 18.4987C57.6703 8.2816 49.3877 -0.000976562 39.1706 -0.000976562C28.9535 -0.000976562 20.671 8.2816 20.671 18.4987C20.671 28.7158 28.9535 36.9983 39.1706 36.9983Z" fill="black"/>
<path d="M18.4997 36.4776C28.4289 36.4776 36.4782 28.4283 36.4782 18.4991C36.4782 8.56978 28.4289 0.520508 18.4997 0.520508C8.57039 0.520508 0.521118 8.56978 0.521118 18.4991C0.521118 28.4283 8.57039 36.4776 18.4997 36.4776Z" fill="white"/>
<path d="M18.4997 1.04126C28.123 1.04126 35.9571 8.87539 35.9571 18.4987C35.9571 28.122 28.123 35.9561 18.4997 35.9561C8.87636 35.9561 1.04223 28.122 1.04223 18.4987C1.04223 8.87539 8.87636 1.04126 18.4997 1.04126ZM18.4997 -0.000976562C8.28576 -0.000976562 0 8.28479 0 18.4987C0 28.7126 8.28576 36.9983 18.4997 36.9983C28.7136 36.9983 36.9993 28.7126 36.9993 18.4987C36.9993 8.28479 28.7136 -0.000976562 18.4997 -0.000976562Z" fill="black"/>
<path d="M7.90362 26.5758C10.35 26.5758 12.3331 24.5926 12.3331 22.1463C12.3331 19.6999 10.35 17.7168 7.90362 17.7168C5.45727 17.7168 3.47412 19.6999 3.47412 22.1463C3.47412 24.5926 5.45727 26.5758 7.90362 26.5758Z" fill="#FF8080"/>
<path d="M29.4432 26.5758C31.8895 26.5758 33.8727 24.5926 33.8727 22.1463C33.8727 19.6999 31.8895 17.7168 29.4432 17.7168C26.9968 17.7168 25.0137 19.6999 25.0137 22.1463C25.0137 24.5926 26.9968 26.5758 29.4432 26.5758Z" fill="#FF8080"/>
<path d="M12.2462 20.6698C13.4454 20.6698 14.4175 19.6977 14.4175 18.4985C14.4175 17.2993 13.4454 16.3271 12.2462 16.3271C11.047 16.3271 10.0749 17.2993 10.0749 18.4985C10.0749 19.6977 11.047 20.6698 12.2462 20.6698Z" fill="black"/>
<path d="M13.3406 15.0786C13.2017 15.0786 13.0801 15.0265 12.9758 14.9223C12.8021 14.7486 12.559 14.6443 12.2984 14.6443C12.0378 14.6443 11.7947 14.7486 11.6209 14.9223C11.4125 15.1307 11.0825 15.1307 10.8914 14.9223C10.6829 14.7138 10.6829 14.3838 10.8914 14.1927C11.6731 13.411 12.9411 13.411 13.7228 14.1927C13.9312 14.4011 13.9312 14.7312 13.7228 14.9223C13.6012 15.0265 13.4622 15.0786 13.3406 15.0786Z" fill="black"/>
<path d="M26.0211 15.0786C25.8821 15.0786 25.7606 15.0265 25.6563 14.9223C25.4826 14.7486 25.2394 14.6443 24.9789 14.6443C24.7183 14.6443 24.4751 14.7486 24.3014 14.9223C24.093 15.1307 23.7629 15.1307 23.5719 14.9223C23.3634 14.7138 23.3634 14.3838 23.5719 14.1927C24.3535 13.411 25.6216 13.411 26.4033 14.1927C26.6117 14.4011 26.6117 14.7312 26.4033 14.9223C26.2817 15.0265 26.1427 15.0786 26.0211 15.0786Z" fill="black"/>
<path d="M20.9315 22.4065C20.9489 22.4065 20.9489 22.4065 20.9489 22.4239C20.9489 22.4412 20.9489 22.4412 20.9489 22.4412C20.532 23.3619 19.594 23.9698 18.5691 23.9698C17.5442 23.9698 16.6236 23.3619 16.1893 22.4412C16.1893 22.4239 16.1893 22.4239 16.1893 22.4239C16.1893 22.4065 16.2067 22.4065 16.2067 22.4065H20.9315ZM20.9315 21.3643H16.2414C15.4598 21.3643 14.956 22.1633 15.2687 22.8755C15.8419 24.1435 17.11 25.0121 18.5865 25.0121C20.063 25.0121 21.331 24.1262 21.9042 22.8755C22.2343 22.1633 21.7132 21.3643 20.9315 21.3643Z" fill="black"/>
<path d="M24.9268 20.6698C26.1259 20.6698 27.0981 19.6977 27.0981 18.4985C27.0981 17.2993 26.1259 16.3271 24.9268 16.3271C23.7276 16.3271 22.7554 17.2993 22.7554 18.4985C22.7554 19.6977 23.7276 20.6698 24.9268 20.6698Z" fill="black"/>
<path d="M75.4578 7.36328L78.1503 7.72806L80.2347 8.00599L79.8178 13.9641L80.8427 13.9294L88.6595 13.8599L88.8505 15.6143L88.5379 18.3067L84.3168 18.0462C83.1704 18.0462 82.0239 18.0462 80.8601 18.0462L81.607 19.21L83.5178 21.8851L86.6618 25.1507L91.0219 28.6249L89.1632 30.5183L87.5998 31.6647L84.9769 29.7018L81.2248 25.8803L78.2024 22.1283L77.5423 20.9644L76.6564 22.8752L72.9565 27.4958L68.6486 31.2999L66.5293 29.3371L65.6956 28.0516L69.6734 24.4038L72.3137 21.1555L73.825 18.0983C71.5842 18.1678 69.3434 18.2373 67.1199 18.2894L66.842 15.8401V14.1378L69.8471 14.0857C71.5494 14.0683 73.2518 14.051 74.9714 13.9988L75.232 12.3313L75.4578 7.36328Z" fill="black"/>
<path d="M94.4265 7.43391L96.0072 7.2602L97.2058 7.22546V7.19072L98.4217 7.15598L103.338 7.05176L112.666 7.06913L118.172 7.27758L119.006 7.79869L118.936 20.2881L118.902 27.688L118.815 31.1447L117.06 31.1969L115.306 31.1447H109.678L97.2405 31.11L96.042 31.1447L94.5133 31.0579L94.4091 23.797L94.4265 7.43391ZM99.3945 22.3726L102.712 22.3552L106.377 22.3031L106.325 21.6952C106.013 21.6952 105.7 21.6778 105.405 21.6604L102.156 21.7473H101.687L100.055 21.782L99.9677 21.1393L99.9503 19.1417V16.9704L101.931 16.953L103.129 16.9182V16.8835L108.531 16.8661L112.197 17.0398L113.169 17.3525L113.117 20.2534L113.013 21.8341L110.981 21.7994C110.929 21.7994 110.859 21.7994 110.79 21.7994L108.844 21.7646L110.46 21.9904V22.3726C111.519 22.39 112.579 22.4073 113.638 22.4247L113.69 23.8144L113.586 24.8219L110.407 24.735V25.4646L114.611 25.5862L114.646 26.5068L114.472 27.9312L110.442 27.8443V28.2091L110.477 28.8692L114.646 28.9039C114.698 27.6533 114.767 26.4199 114.837 25.1693L114.906 17.2135L114.802 10.0048L107.906 9.72683L102.226 9.77894C100.958 9.83105 99.7071 9.90053 98.4738 9.97001L98.4565 25.4646L98.5607 28.7997L106.482 28.8692C106.482 28.5218 106.499 28.157 106.516 27.8096L102.903 27.827L98.7344 27.8443L98.5433 27.1843L98.5781 25.6035L99.6377 25.5514L100.107 25.0998L100.332 24.735H99.6029L99.4118 23.797L99.3945 22.3726ZM98.4565 14L101.705 13.9826C102 13.9826 102.295 13.9826 102.573 13.9826C102.591 13.861 102.608 13.7221 102.625 13.6005C102.625 13.4962 102.643 13.392 102.66 13.2878C102.625 13.2878 102.573 13.2878 102.521 13.2878L100.524 13.3746L100.28 12.2282L100.246 10.8385L102.052 10.8038H102.782L102.747 9.79631L105.144 9.84842L106.707 10.0221C106.673 10.2827 106.638 10.5432 106.621 10.8212C107.176 10.8212 107.732 10.8212 108.253 10.8212L111.154 10.9428L111.884 11.1165L112.405 11.7071L112.231 13.4268C112.197 13.6352 112.162 13.8263 112.144 14.0347L114.42 14.0868L114.472 15.3896L114.368 16.5535L111.536 16.4145L106.829 16.345H102.209L98.6823 16.3971L98.5433 15.4244L98.4565 14ZM103.563 25.4646C103.737 25.4646 103.893 25.4646 104.067 25.4646H106.464V24.874V24.6829H104.762H103.199L103.946 24.9261L103.563 25.4646ZM109.139 19.8365C109.139 19.6107 109.122 19.4022 109.105 19.1938L107.576 19.0896C106.273 19.1069 104.988 19.1243 103.685 19.1417C103.685 19.2633 103.685 19.4022 103.685 19.5238L103.72 19.767L105.3 19.8539L109.139 19.8365ZM106.238 14.0174H108.271L108.306 13.7915L108.34 13.3225L106.621 13.2357C106.534 13.2357 106.43 13.2357 106.343 13.2357L106.238 14.0174Z" fill="black"/>
<path d="M125.728 7.10269L127.847 7.29376L129.48 7.6238L129.393 9.96883C129.393 10.82 129.376 11.6711 129.359 12.5223C130.175 12.5049 130.991 12.4876 131.808 12.4702V14.4678L131.686 16.2743C130.887 16.2917 130.106 16.3091 129.324 16.3265C129.324 16.587 129.307 16.8476 129.289 17.1081L131.599 19.0363L132.798 20.3217L131.982 21.6245L130.922 23.3963L129.359 22.0935C129.341 22.0761 129.324 22.0587 129.307 22.0587C129.324 23.7437 129.324 25.4286 129.324 27.0962V29.5107V31.352L127.517 31.213L125.537 30.8483V24.178C125.537 23.9521 125.555 23.7263 125.572 23.4831L125.103 24.0043L123.626 25.7587L122.619 24.7859L121.472 23.3442L123.557 20.2869L124.79 18.4283L125.746 17.0039C125.746 16.8302 125.763 16.6739 125.78 16.5349C125.52 16.5523 125.259 16.5696 124.999 16.587L122.793 16.8128L122.567 15.5274L122.237 13.1303L124.234 12.8002L125.763 12.6613V11.2369L125.728 7.10269ZM132.19 26.384L131.947 24.6296L131.86 23.2052C132.572 23.2052 133.284 23.2052 133.997 23.1878V16.587L133.979 14.5199L132.26 14.5547L132.173 12.7481V11.1848H133.979C133.979 10.5594 133.979 9.91672 133.962 9.29138L133.91 7.0332L136.081 7.20691L137.992 7.48484L137.957 10.8721V11.1848H140.406C140.893 11.2021 141.379 11.2195 141.848 11.2369C141.831 9.84724 141.831 8.45759 141.831 7.08531L144.454 7.13743L145.982 7.58906L145.843 11.3932C146.417 11.4106 146.99 11.428 147.546 11.4453V13.304L147.459 14.8847L145.791 14.7457L145.739 16.9518V23.2921L148.223 23.3268V25.1681L147.98 26.5577L140.389 26.3493L132.19 26.384ZM134.969 26.7835L137.002 27.1483L138.357 27.7389L137.471 29.4065L136.463 31.352L134.24 30.7093L132.711 30.0318L133.597 28.5032L134.969 26.7835ZM141.848 14.6241L137.905 14.5025C137.905 14.8673 137.888 15.2495 137.87 15.6143L139.156 15.649C140.042 15.649 140.945 15.649 141.848 15.649C141.848 15.6143 141.848 15.5795 141.848 15.5448V14.6241ZM141.831 18.5846C141.779 18.5846 141.727 18.5846 141.657 18.5846L137.87 18.5499C137.87 18.8452 137.87 19.1405 137.905 19.4358C138.617 19.4532 139.312 19.4705 140.024 19.4705C140.615 19.4705 141.223 19.4705 141.831 19.4705C141.831 19.1752 141.831 18.8799 141.831 18.5846ZM141.761 23.2226L141.796 22.2846C141.136 22.2672 140.458 22.2498 139.764 22.2325L137.957 22.2846C137.957 22.5799 137.957 22.8752 137.992 23.1705C138.079 23.1705 138.183 23.1705 138.27 23.1705L141.761 23.2226ZM144.905 26.7835L146.104 28.2948L147.459 30.4661L146.087 30.9872L143.603 31.6473L142.578 29.5281L141.692 27.7216L143.203 27.1136L144.905 26.7835Z" fill="black"/>
<path d="M155.05 6.68652L157.464 6.82549L158.819 7.20764L158.732 9.60478H161.685L161.633 11.2724L162.467 10.1085L163.666 11.2029L165.003 12.1235L166.011 7.39872L167.921 7.81561L169.485 8.26725L169.068 10.9423L168.825 11.8803L171.743 12.0019H176.52V14.4512V16.2403C175.391 16.2056 174.262 16.1709 173.132 16.1187L175.043 17.0741L173.515 22.0595L172.177 24.4219L174.262 26.819L177.232 29.5809L175.165 31.3006L173.237 31.8912L169.572 28.0523C169.537 28.0002 169.502 27.9481 169.467 27.9134L167.8 29.2683L164.395 31.5438L163.509 29.7025L162.345 28.0523L164.968 26.4369L167.14 24.3524L165.316 20.6525C165.212 20.8435 165.09 21.0172 164.951 21.2083L163.335 19.9055L162.172 19.176L162.484 18.4464C161.598 18.4117 160.713 18.3595 159.844 18.3074L159.045 19.0023L160.4 18.9501L161.616 20.1835L162.502 21.3299L161.442 22.8933L164.534 22.4764L164.586 24.1439L164.864 26.0721L160.99 26.489L161.598 28.6082L160.626 30.6058L158.489 31.5264L155.119 31.0748L154.251 30.7969L154.424 29.164V27.8612L156.04 28.0002L157.238 27.9655L157.551 27.3054C157.499 27.1491 157.447 27.0101 157.377 26.8538L156.161 26.9927L151.993 27.4444L151.801 25.8636L151.419 24.2829L156.353 23.5881C156.509 23.5707 156.648 23.5533 156.804 23.536C156.891 23.4318 156.995 23.3102 157.082 23.1712L157.777 22.3895L156.353 22.2853H154.772L152.739 23.536L151.437 22.3027L150.655 21.1388L153.052 19.4192L154.39 18.2727C153.921 18.2727 153.469 18.2901 153 18.3074H151.419L151.107 16.3793V15.0765L154.025 15.0591H155.084C155.102 14.3817 155.119 13.6869 155.137 12.992H152.878L152.687 11.0292L152.635 9.74374L154.268 9.63952H155.154V8.90996L155.05 6.68652ZM158.767 14.3469L160.052 13.0094H158.75V13.5305L158.767 14.3469ZM164.951 12.4536L163.335 14.5728L162.745 15.2155C162.971 15.2328 163.197 15.2502 163.44 15.2502L163.353 16.4488L163.683 15.6671L164.847 12.8531C164.899 12.7141 164.934 12.5925 164.951 12.4536ZM168.373 16.8483L169.207 19.8882C169.311 20.0966 169.433 20.3051 169.572 20.5309L170.249 18.7243L170.926 16.0319L170.336 15.9971L167.574 16.1014L167.07 17.3868L168.373 16.8483Z" fill="black"/>
<path d="M183.781 9.13574H188.54L189.93 9.08363C189.93 9.06625 189.93 9.04888 189.93 9.03151L189.652 6.35645L191.823 6.77334L194.099 6.82545L193.908 8.44091C193.925 8.59725 193.942 8.73621 193.96 8.89255C194.255 8.87518 194.55 8.85781 194.846 8.84044L200.682 8.92729L202.385 9.34418L204 10.2127L203.809 12.9746L203.253 15.5628L201.412 15.146C201.29 15.1286 201.169 15.0938 201.047 15.0591L200.769 16.2229L200.543 17.5084L198.876 17.4562L200.074 20.1834L200.873 22.3026L198.754 22.7543L196.774 23.1712L196.444 22.0942C195.245 22.1637 194.029 22.2331 192.831 22.2853L194.411 22.5979L194.359 23.5359L195.141 23.5012L201.464 23.6228V25.1861L201.516 26.8016H199.796L194.307 26.7321C194.342 27.0795 194.377 27.4443 194.394 27.7917L197.225 27.7744L203.983 27.9133L203.67 29.9109L203.479 31.3874L199.779 31.1269L193.074 31.04L186.734 31.0574L180.81 31.1269L180.584 30.0152L180.168 27.9828L186.907 27.7917C188.019 27.7917 189.131 27.7917 190.243 27.7744C190.277 27.4269 190.312 27.0622 190.347 26.7148L183.225 26.7669L183.138 25.4641L182.773 23.7096L189.009 23.6054L190.121 23.5707C190.086 23.1885 190.034 22.8064 189.982 22.4242L185.552 22.7195L184.632 21.1041L184.25 20.4092L184.632 19.4365L186.108 17.491L184.128 17.5084L183.676 15.8408L183.537 15.0938C182.982 15.0244 182.408 14.9375 181.835 14.868L180.063 14.4511L180.463 11.3939V9.04888L182.461 9.101L183.746 9.23996C183.781 9.20522 183.781 9.17048 183.781 9.13574ZM184.198 12.7488C184.18 12.9746 184.163 13.1831 184.145 13.3915L184.059 14.2601L192.292 14.1211C194.655 14.1385 197 14.1732 199.327 14.2079L199.692 12.6793L195.714 12.5404L190.208 12.6793L184.198 12.7488ZM195.106 18.1858L196.67 17.7689L197.868 17.4041C197.642 17.4041 197.417 17.3868 197.208 17.3694L190.555 17.4215L189.443 19.0891L195.367 18.8806C195.28 18.6374 195.193 18.4116 195.106 18.1858Z" fill="black"/>
</g>
<defs>
<clipPath id="clip0_205_1551">
<rect width="204" height="36.9993" fill="white"/>
</clipPath>
</defs>
</svg>
