<svg width="335" height="281" viewBox="0 0 335 281" fill="none" xmlns="http://www.w3.org/2000/svg">
<circle cx="167.5" cy="155.5" r="124.5" fill="#FFC656"/>
<g clip-path="url(#clip0_398_24399)">
<path d="M134.3 95.9661L114.048 118.865L114.728 144.102C114.728 144.102 109.85 141.578 106.763 142.686C103.737 143.794 101.206 143.671 99.7857 146.072C98.3656 148.473 96.3899 151.858 96.5751 153.951C96.7603 156.044 97.9952 162.322 99.7857 164.231C101.576 166.139 104.849 167.862 107.133 168.909C109.418 169.955 115.407 171.494 115.407 171.494C115.407 171.494 119.976 179.312 122.199 183.374C124.36 187.437 128.743 192.731 131.769 195.624C134.732 198.517 140.783 203.811 141.833 203.872C142.883 203.934 144.426 205.349 144.426 205.349C144.426 205.349 144.426 207.442 142.265 210.151C140.104 212.859 139.857 213.167 137.881 214.583C135.967 215.998 132.201 218.768 128.126 220.861C124.051 222.954 110.9 226.34 107.38 230.525C103.923 234.711 97.8717 239.82 96.5751 242.96C95.2785 246.099 92.0678 254.101 90.6477 260.934C89.2276 267.766 88.0545 280.262 88.0545 280.262H253.094C253.094 280.262 250.686 260.564 248.032 252.378C245.438 244.191 245.315 240.313 239.82 235.635C234.324 230.956 223.025 223.508 217.16 221.415C211.294 219.322 207.466 217.23 203.576 213.844C199.686 210.459 197.278 204.857 197.278 204.857C197.278 204.857 205.737 200.24 208.763 197.593C211.788 195.008 220.617 183.19 222.161 178.573C223.705 173.956 224.507 171.371 228.027 170.571C231.484 169.771 235.683 169.155 238.029 167.555C240.375 165.893 243.709 164.169 244.327 159.676C244.944 155.182 246.241 154.443 244.512 150.565C242.783 146.687 243.03 146.564 240.005 144.595C236.979 142.625 235.621 141.578 232.966 142.194C230.249 142.809 225.557 147.919 225.372 148.596C225.186 149.273 225.989 137.146 225.989 137.146L224.137 125.513L210.368 96.8894C210.368 96.8894 199.131 107.908 194.685 110.678C190.24 113.448 186.906 115.048 186.906 115.048L187.338 98.3052C187.338 98.3052 179.682 101.506 173.075 108.031C166.469 114.556 163.937 115.848 163.752 115.91C163.567 115.971 163.937 98.9823 163.937 98.9823C163.937 98.9823 156.343 103.907 151.835 108.277C147.328 112.648 144.797 115.664 140.598 117.51C136.4 119.357 136.893 118.372 136.708 118.126C136.523 117.88 141.895 108.031 142.265 102.737C142.636 97.4434 141.833 95.4736 141.833 95.4736L134.3 95.9661Z" fill="white"/>
<path d="M243.833 263.703C242.413 256.009 240.128 245.114 235.127 238.158C230.126 231.202 226.792 228.555 223.211 226.955C219.63 225.354 214.443 223.569 210.615 221.169C209.689 220.615 208.701 220.061 207.713 219.568C204.379 222.215 200.674 224.308 196.785 226.093C191.104 228.678 185.3 231.756 178.941 231.818C172.519 232.987 164.369 233.664 157.824 232.187C148.748 230.156 140.969 228.617 137.82 224.862C137.202 224.123 136.708 223.446 136.214 222.708C134.547 221.292 133.127 219.691 131.954 217.783C130.349 218.953 127.2 220.923 121.828 223.569C112.814 227.817 108.368 229.91 104.787 233.11C101.268 236.311 99.7857 236.127 96.5751 242.651C93.3644 249.176 89.2276 261.98 88.9189 266.412C88.6719 270.844 88.4867 280.2 88.4867 280.2H246.241C246.303 280.2 245.253 271.398 243.833 263.703Z" fill="#FFB3B3"/>
<path d="M247.785 242.282C240.437 228.309 227.162 222.215 213.208 217.229C212.22 216.86 211.109 216.921 210.43 217.968C209.627 219.199 210.183 220.245 211.047 221.046C211.973 221.907 213.023 222.646 214.134 223.2C216.789 224.554 219.568 225.724 222.285 226.955C234.571 232.618 243.154 241.482 246.426 254.839C248.217 262.103 250.007 269.305 250.193 276.814C250.254 278.723 250.933 281.123 253.403 280.939C255.811 280.754 256.058 278.476 256.058 275.522C254.762 264.75 253.403 252.993 247.785 242.282Z" fill="#4F4F4F"/>
<path d="M127.879 217.538C124.36 218.954 120.84 220.493 117.321 221.908C107.257 226.033 99.4152 232.742 94.1671 242.222C88.4867 252.501 87.3753 264.012 85.77 274.661C85.8934 277.554 85.3378 280.755 88.4249 281.001C91.5738 281.248 91.3886 277.985 91.5738 275.831C92.0678 268.937 93.6731 262.227 95.2167 255.518C98.4891 241.729 107.195 232.557 119.914 226.833C123.372 225.294 126.953 223.94 130.102 221.724C131.275 220.862 132.263 219.692 131.46 218.215C130.657 216.615 129.176 216.984 127.879 217.538Z" fill="#4F4F4F"/>
<path d="M203.329 220.307C200.798 222.462 197.772 223.508 194.747 224.616C175.113 231.941 156.157 230.71 138.005 219.938C136.955 219.322 135.906 218.892 134.918 220.061C133.992 221.108 134.238 222.216 134.918 223.2C136.708 225.663 139.116 227.509 141.956 228.556C151.28 232.064 160.726 235.019 170.235 234.465C180.978 234.465 190.425 232.557 199.501 228.74C202.218 227.571 204.626 226.093 206.478 223.816C207.343 222.708 208.145 221.477 206.972 220.123C205.676 218.522 204.379 219.446 203.329 220.307Z" fill="#4F4F4F"/>
<path d="M137.017 218.399C140.536 217.106 145.414 210.643 146.464 206.211C144.982 205.657 143.562 204.857 142.327 203.934C140.351 208.058 137.511 211.505 134.115 214.521C133.189 215.321 133.127 216.614 133.93 217.66C134.671 218.645 135.782 218.83 137.017 218.399Z" fill="#4F4F4F"/>
<path d="M199.995 204.796C198.699 205.842 197.278 206.704 195.735 207.32C197.093 211.875 200.366 215.383 204.626 218.215C205.799 219.015 207.096 218.769 207.96 217.538C208.824 216.307 208.516 215.014 207.528 214.152C204.441 211.444 201.724 208.489 199.995 204.796Z" fill="#4F4F4F"/>
<path d="M184.93 179.065C184.498 178.695 184.065 178.572 183.571 178.572C182.954 178.572 182.337 178.818 181.843 179.126C181.534 179.311 181.163 179.496 180.855 179.68L180.793 179.742C178.879 180.788 176.903 181.835 174.804 182.512C173.507 182.943 172.211 183.127 170.976 183.189C169.679 183.189 168.383 182.943 167.148 182.512C165.048 181.835 163.073 180.788 161.159 179.742C160.788 179.557 160.418 179.372 160.109 179.188C159.615 178.942 158.998 178.634 158.38 178.634C157.886 178.634 157.454 178.818 157.022 179.126C156.651 179.434 156.528 179.742 156.466 180.111C156.466 180.788 157.083 181.404 157.392 181.712C160.109 184.235 163.443 185.897 167.333 186.698C168.383 186.882 169.432 187.067 170.42 187.067H170.852H170.914H170.976H171.223H171.408C172.458 187.005 173.507 186.882 174.495 186.698C178.385 185.897 181.719 184.235 184.436 181.712C184.745 181.404 185.362 180.85 185.362 180.111C185.424 179.68 185.238 179.311 184.93 179.065Z" fill="#4F4F4F"/>
<path d="M171.161 189.775H170.914C170.729 189.775 170.544 189.775 170.358 189.775C169.556 189.775 168.691 189.775 168.197 190.268C167.889 190.576 167.765 190.945 167.765 191.499C167.827 193.038 169.37 193.038 170.05 193.038C170.173 193.038 170.235 193.038 170.358 193.038H170.667C170.791 193.038 170.976 193.038 171.099 193.038C171.285 193.038 171.408 193.038 171.593 193.038C172.272 193.038 173.816 193.038 173.939 191.622C174.001 191.13 173.878 190.76 173.631 190.453C173.075 189.775 172.087 189.775 171.161 189.775Z" fill="#4F4F4F"/>
<path d="M169.803 167.923C170.297 167.985 170.852 167.8 171.223 167.492C171.593 167.185 171.902 166.692 171.902 166.2C171.964 165.092 171.223 164.292 170.173 164.107C170.111 164.107 170.05 164.107 169.988 164.045C169.494 163.922 169.062 163.738 168.568 163.553L168.506 163.491C168.63 163.307 168.815 163.122 168.938 162.937C169.309 162.568 169.679 162.199 170.05 161.829C170.42 161.46 170.667 161.029 170.729 160.537C170.791 160.044 170.605 159.49 170.297 159.121C169.617 158.382 168.383 158.136 167.58 158.875C166.098 160.29 164.061 162.076 164.554 164.353C165.172 166.631 167.703 167.554 169.803 167.923Z" fill="#4F4F4F"/>
<path d="M198.081 147.549C196.105 147.549 194.376 148.349 193.45 149.703L193.389 149.765L192.709 151.735V151.858C193.265 154.997 195.241 156.905 198.019 156.905C199.439 156.905 200.921 156.413 202.218 155.489L202.341 155.428L202.403 155.305C203.885 152.719 203.514 150.996 202.897 149.949C202.033 148.472 200.18 147.549 198.081 147.549Z" fill="#4F4F4F"/>
<path d="M143.809 147.549C141.833 147.549 140.104 148.349 139.178 149.703L139.116 149.765L138.437 151.735V151.858C138.993 154.997 140.968 156.905 143.747 156.905C145.167 156.905 146.649 156.413 147.945 155.489L148.069 155.428L148.131 155.305C149.613 152.719 149.242 150.996 148.625 149.949C147.76 148.472 145.908 147.549 143.809 147.549Z" fill="#4F4F4F"/>
<path d="M146.711 131.975C145.908 131.667 144.92 131.606 144.735 131.544C141.648 131.483 139.548 132.098 137.82 133.822C136.832 134.807 136.461 136.038 137.326 137.207C138.067 138.315 139.24 138.315 140.351 137.761C141.956 136.961 143.562 136.469 145.291 137.146C147.143 137.823 149.119 138.315 149.86 135.976C150.662 133.576 148.501 132.714 146.711 131.975Z" fill="#4F4F4F"/>
<path d="M197.772 131.544C196.661 131.483 195.364 131.729 194.129 132.406C192.648 133.206 191.289 134.253 191.968 136.161C192.648 138.131 194.376 138.131 195.982 137.454C197.958 136.653 199.748 136.961 201.539 137.884C202.712 138.438 203.823 138.315 204.564 137.207C205.305 136.099 204.996 134.991 204.194 134.068C202.65 132.221 200.489 131.544 197.772 131.544Z" fill="#4F4F4F"/>
<path d="M239.881 141.64C240.128 141.27 240.314 140.901 240.499 140.47C240.869 139.793 241.054 139.054 240.993 138.254V138.192C240.993 138.069 241.054 137.885 241.054 137.762C241.548 129.883 242.598 122.127 241.795 114.186C240.314 99.7821 235.806 86.9171 225.989 76.0218C223.211 72.9441 220.309 70.5434 217.222 68.6352C209.133 62.5413 199.131 59.2173 188.82 59.8944C182.46 55.2162 174.557 52.9387 166.715 53.0002C158.998 53.0618 149.551 55.0316 142.203 59.2173C135.782 61.4333 129.608 64.8188 123.742 69.3739C120.902 71.5899 117.691 72.821 114.295 73.6827C113.061 73.9905 111.764 74.0521 110.529 74.2983C109.356 74.483 108.121 74.7907 107.998 76.2681C107.874 77.5607 108.985 77.8685 109.912 78.4225C111.517 79.3458 113.246 79.2843 115.654 79.5305C106.639 88.8868 101.329 99.1665 100.218 111.847C99.4152 120.403 100.094 128.713 100.588 137.146C100.588 137.7 100.712 138.192 100.835 138.685C100.897 139.116 101.021 139.547 101.268 139.916C101.453 140.532 101.823 141.086 102.255 141.578C97.069 143.794 93.6114 149.272 94.414 155.551C95.5872 165.092 102.935 172.294 112.752 173.34C114.728 173.525 115.469 174.264 116.086 175.987C118.679 183.497 122.631 190.268 127.941 196.177C135.226 204.241 144.92 208.488 154.861 212.059C173.013 218.645 169 218.337 187.338 212.12C206.108 205.78 220 194.515 226.298 175.249C226.915 173.464 228.088 173.648 229.447 173.34C239.387 171.432 247.908 165.277 247.784 153.766C247.723 148.349 244.327 143.732 239.881 141.64ZM226.915 168.047C224.507 167.8 223.519 168.724 222.717 170.57C221.605 173.094 220.617 175.618 219.444 178.08C215.493 186.39 210.553 194.023 202.403 199.009C193.574 204.487 183.818 207.75 174.063 211.135C171.902 211.874 169.803 211.874 167.703 211.074C161.591 208.796 155.355 206.826 149.427 204.18C141.092 200.486 133.436 195.931 128.188 188.052C124.607 182.697 122.013 176.911 119.482 171.063C118.803 169.462 118.123 167.8 115.592 167.924C107.504 168.416 100.65 162.753 99.5387 154.874C98.5508 148.226 104.231 143.302 110.529 145.025C111.826 146.564 112.752 148.349 112.814 149.826C112.875 151.858 113.061 153.827 115.53 153.827C118.123 153.827 118.617 151.796 118.679 149.642C118.803 141.27 119.05 132.96 118.988 124.589C118.988 122.742 119.42 121.511 120.778 120.403C126.459 115.971 130.843 110.431 135.041 104.707C136.029 103.352 136.708 101.69 138.746 100.521C137.82 106.184 136.214 111.17 133.806 115.971C133.004 117.572 132.016 119.172 133.374 120.834C134.856 122.619 136.77 121.942 138.561 121.265C146.772 118.372 152.947 112.893 158.133 106.122C158.812 105.199 159.245 103.906 160.726 103.475C161.406 107.23 160.479 110.616 159.8 114.001C159.43 115.786 158.874 117.818 160.665 119.172C162.517 120.588 164.431 119.664 166.222 118.741C166.962 118.372 167.642 117.941 168.383 117.572C174.001 114.494 178.817 110.37 183.448 105.322C183.633 106.368 183.757 106.922 183.757 107.476C183.571 109.692 183.448 111.847 183.139 114.063C182.645 117.818 184.621 119.603 188.264 118.556C192.03 117.51 195.179 115.356 198.205 112.955C202.094 109.816 205.614 106.368 208.701 102.367C210.059 108.154 211.973 113.694 214.381 119.172C216.295 123.481 218.765 127.543 222.161 130.744C222.717 136.038 222.902 141.332 222.778 146.687C222.717 148.411 222.531 150.196 223.211 151.858C223.766 153.15 224.754 153.889 226.174 153.827C226.298 153.827 226.421 153.827 226.483 153.766C226.545 153.704 226.607 153.643 226.668 153.643C226.854 153.458 227.039 153.212 227.224 153.027C227.841 150.319 229.076 147.672 230.682 145.518C230.867 145.271 231.052 145.087 231.299 144.902C236.485 143.548 241.981 146.995 242.475 152.165C243.401 160.229 235.065 168.847 226.915 168.047Z" fill="#4F4F4F"/>
<path d="M257.169 201.226C257.293 201.41 263.344 207.258 263.344 207.258L256.737 214.275L250.316 207.073L257.169 201.226Z" fill="#FDF6AB"/>
<path d="M242.475 207.258V207.381C242.536 207.935 242.907 209.228 244.821 209.228H245.006C245.809 209.228 246.673 209.351 247.538 209.536C247.908 209.597 248.278 209.659 248.587 209.721C250.933 210.09 252.477 211.506 253.65 214.337C254.391 216.122 254.576 218.154 254.762 220.123L254.823 220.554C254.823 220.616 254.823 220.739 254.823 220.8C254.823 221.047 254.823 221.293 254.885 221.539C255.194 222.955 256.12 223.14 256.676 223.14H256.737C257.725 223.14 258.466 222.462 258.59 221.354C258.651 220.677 258.775 220 258.837 219.323C258.898 218.708 258.96 218.092 259.022 217.476C259.392 214.583 260.318 212.552 261.924 211.013C262.726 210.275 263.529 209.844 264.332 209.721C264.764 209.659 265.134 209.536 265.567 209.474C266.431 209.29 267.295 209.105 268.16 209.105C268.283 209.105 268.345 209.105 268.469 209.105C268.53 209.105 268.53 209.105 268.592 209.105C269.024 209.105 269.395 208.982 269.703 208.859C270.506 208.613 271 207.874 270.938 207.012C270.877 206.273 270.444 205.658 269.703 205.35C269.148 205.165 268.654 205.104 268.16 205.104C268.036 205.104 267.913 205.104 267.851 205.104C263.9 204.858 261.677 203.688 260.257 201.164C259.454 199.749 259.207 198.087 258.96 196.671C258.837 195.932 258.775 195.194 258.713 194.455C258.651 194.024 258.651 193.655 258.59 193.224V193.101C258.528 192.608 258.404 191.069 256.737 191.069H256.676C254.947 191.131 254.885 192.67 254.823 193.224V193.347C254.638 195.501 254.515 197.717 253.774 199.687C252.662 202.642 250.995 204.181 248.525 204.611C248.155 204.673 247.846 204.735 247.476 204.796C246.673 204.919 245.932 205.104 245.191 205.104H244.883C243.092 205.104 242.598 206.212 242.536 206.889L242.475 207.258ZM256.737 202.765C257.725 204.611 258.96 206.089 260.689 207.258C259.763 207.935 258.96 208.674 258.219 209.536C257.663 210.213 257.169 210.952 256.737 211.752C255.749 209.905 254.453 208.428 252.786 207.258C254.453 206.089 255.749 204.611 256.737 202.765Z" fill="#4F4F4F"/>
<path d="M81.6949 179.436C81.8184 179.62 87.8693 185.468 87.8693 185.468L81.2627 192.424L74.8414 185.222L81.6949 179.436Z" fill="#FDF6AB"/>
<path d="M67 185.468V185.591C67.0617 186.145 67.4322 187.438 69.3462 187.438H69.5315C70.3341 187.438 71.1985 187.623 72.063 187.746C72.4334 187.807 72.8039 187.869 73.1126 187.93C75.4588 188.3 77.0024 189.716 78.1755 192.547C78.9165 194.332 79.1017 196.364 79.2869 198.333L79.3487 198.764C79.3487 198.826 79.3487 198.949 79.3487 199.01C79.3487 199.257 79.3487 199.503 79.4104 199.749C79.7191 201.165 80.6453 201.349 81.201 201.349H81.2627C82.2506 201.349 82.9915 200.672 83.115 199.564C83.1768 198.887 83.3002 198.21 83.362 197.533C83.4237 196.918 83.4855 196.302 83.5472 195.686C83.9177 192.793 84.8438 190.762 86.4492 189.223C87.2518 188.484 88.0545 188.054 88.8571 187.93C89.2893 187.869 89.6598 187.746 90.092 187.684C90.9564 187.5 91.8208 187.315 92.6852 187.315C92.8087 187.315 92.8705 187.315 92.9939 187.315C93.0557 187.315 93.0557 187.315 93.1174 187.315C93.5496 187.315 93.9201 187.192 94.2288 187.069C95.0315 186.822 95.5254 186.084 95.4637 185.222C95.4019 184.483 94.9697 183.868 94.2288 183.56C93.6731 183.375 93.1792 183.314 92.6852 183.314C92.5617 183.314 92.4383 183.314 92.3765 183.314C88.4249 183.068 86.2022 181.898 84.7821 179.374C83.9794 177.959 83.7324 176.297 83.4855 174.881C83.362 174.142 83.3002 173.403 83.2385 172.665C83.1768 172.234 83.1768 171.865 83.115 171.434V171.311C83.0533 170.818 82.9298 169.279 81.2627 169.279H81.201C79.4722 169.341 79.4104 170.88 79.3487 171.434V171.557C79.1634 173.711 79.04 175.927 78.299 177.897C77.1877 180.852 75.5206 182.391 73.0508 182.821C72.6804 182.883 72.3717 182.945 72.0012 183.006C71.1985 183.129 70.4576 183.314 69.7167 183.314H69.408C67.6174 183.314 67.1235 184.422 67.0617 185.099L67 185.468ZM81.2627 180.975C82.2506 182.821 83.4855 184.299 85.2143 185.468C84.2881 186.145 83.4855 186.884 82.7446 187.746C82.1889 188.423 81.6949 189.162 81.2627 189.962C80.2748 188.115 78.9782 186.638 77.3111 185.468C78.9782 184.299 80.2748 182.821 81.2627 180.975Z" fill="#4F4F4F"/>
</g>
<defs>
<clipPath id="clip0_398_24399">
<rect width="204" height="228" fill="white" transform="translate(67 53)"/>
</clipPath>
</defs>
</svg>
