<svg width="99" height="232" viewBox="0 0 99 232" fill="none" xmlns="http://www.w3.org/2000/svg">
<path d="M52.835 3.59961C52.835 3.59961 40.235 6.99961 35.935 9.69961C31.635 12.3996 28.435 12.1996 23.235 19.2996C18.035 26.3996 18.035 26.0996 15.135 34.6996C12.235 43.2996 9.035 45.1996 11.335 53.5996C13.635 61.9996 14.935 69.7996 19.735 78.0996C24.535 86.2996 26.135 88.2996 30.935 92.6996C35.735 97.1996 38.835 96.0996 39.335 100.7C39.835 105.3 37.335 106.3 39.735 108.2C42.135 110.1 42.235 110.7 45.835 111.2C49.435 111.7 52.535 113.2 52.935 109.2C53.335 105.3 50.635 103 53.135 101.5C55.635 100.1 57.435 101 63.135 96.6996C68.835 92.3996 76.335 89.3996 81.135 82.9996C85.935 76.5996 88.735 70.8996 91.035 64.5996C93.335 58.3996 94.735 53.4996 93.435 43.8996C92.235 34.2996 90.235 32.0996 86.835 24.0996C83.435 16.0996 79.835 12.0996 73.235 8.89961C66.635 5.69961 52.835 3.59961 52.835 3.59961Z" fill="white"/>
<path d="M4.335 76.1999C7.535 83.9999 12.135 91.0999 18.235 96.7999C21.235 99.6999 24.635 102 28.035 104.2C29.635 105.2 30.635 105.9 31.435 107.5C31.235 107 31.635 108.3 31.735 108.5C31.735 108.5 31.735 108.6 31.835 108.7C31.835 108.9 31.935 109.2 31.935 109.2C31.935 109.4 31.935 109.6 31.935 109.8C31.935 109.8 31.935 110 31.935 110.1C31.935 110.3 31.735 111 31.735 111.2C31.435 112.6 31.935 114.3 33.035 115.2C35.035 116.8 37.435 117 39.335 115.3C40.635 114.1 41.435 112.4 41.835 110.7C41.835 110.6 41.835 110.5 41.835 110.5C41.835 110.5 41.835 110.4 41.935 110.4C42.035 110.3 42.035 110.2 42.135 110.1C42.135 110.1 42.335 109.8 42.435 109.6C42.535 109.4 42.735 109.3 42.935 109.1C42.935 109 43.035 109 43.035 109C43.035 109 43.135 108.9 43.235 108.9C43.435 108.8 43.635 108.6 43.835 108.5C44.335 108.2 44.835 107.8 45.335 107.5C45.435 107.5 46.035 107.1 45.935 107.2C46.035 107.1 46.235 107.1 46.335 107C46.935 106.7 47.435 106.5 48.035 106.3C49.235 105.8 50.435 105.3 51.535 104.7C54.235 103.4 56.835 101.9 59.335 100.1C67.735 94.1999 74.735 85.6999 78.735 75.8999C83.235 64.8999 84.035 52.4999 80.835 40.7999C78.035 30.3999 71.735 21.0999 63.235 14.7999C59.035 11.6999 54.435 9.29993 49.435 7.89993C46.735 7.09993 43.935 6.79994 41.235 6.59994C39.735 6.49994 38.235 6.59993 36.835 6.79993C36.735 6.79993 36.735 6.79993 36.635 6.79993C35.735 6.49993 34.835 6.49994 33.935 6.69994C28.935 7.99994 24.035 10.2999 19.535 12.8999C15.335 15.3999 10.835 18.3999 7.935 22.4999C2.635 29.9999 0.735 40.0999 0.135 49.2999C-0.465 58.4999 0.935 67.7999 4.335 76.1999Z" fill="#FFC656"/>
<path d="M46.835 114.6C46.235 114.6 45.635 114.6 45.035 114.5C42.035 114.1 39.735 113 38.435 111.2C37.435 109.8 37.035 108 37.435 106.1C37.835 104 37.135 103 35.435 101.5C24.835 92 14.135 81.5 9.735 65.7C5.735 51.6 7.535 37.5 15.035 23.8C20.935 13 31.135 5.4 44.535 1.8C47.835 0.899999 51.835 0 55.735 0C58.135 0 60.335 0.3 62.435 1C68.435 2.8 73.935 5.6 79.035 9.5C88.635 16.8 94.735 26.5 97.135 38.1C98.235 43.6 98.335 49.6 97.435 57.7C96.335 68.6 90.735 78.9 80.435 89.2C74.135 95.5 66.035 99.8 57.535 104.1C55.635 105 54.635 105.9 54.435 108.1C54.235 112.2 51.335 114.6 46.835 114.6ZM54.335 6.9C48.935 6.9 43.535 8.3 38.135 11.1C24.435 18.2 17.035 29.2 15.435 45C14.235 52.7 16.035 59.6 18.135 66.5C21.735 78.3 30.035 85.9 38.835 94L41.435 96.4C44.835 99.5 44.935 100 43.535 105C43.235 106.2 43.135 106.9 43.835 107.4C44.535 107.9 45.335 108.2 46.235 108.2C46.735 108.2 47.235 108.1 47.635 108C48.535 107.7 48.635 106.8 48.535 105.6C48.335 100.1 48.735 99.8 53.635 97.4L53.835 97.3C60.935 93.9 69.035 89.7 75.035 83.7C85.635 73.1 90.735 61.7 90.935 48.8C91.035 39.5 89.435 32.8 85.835 26.9C78.035 14.2 66.535 6.9 54.335 6.9Z" fill="#4F4F4F"/>
<path d="M51.735 231.1C51.435 231.1 51.135 231.1 50.735 231C48.735 230.5 47.735 228.9 48.035 226.7V226.6C48.335 224.7 48.635 222.7 49.135 220.8C50.735 214.8 51.535 209.4 51.635 204.2C51.735 196 49.335 188.2 47.035 180.6C46.735 179.5 46.335 178.3 46.035 177.2L45.235 174.4C42.835 166.4 40.435 158.2 39.035 149.8C37.535 140.9 38.135 131.7 40.935 119.9C41.435 117.9 42.435 116.9 43.935 116.9C44.135 116.9 44.435 116.9 44.635 117C45.635 117.2 47.235 117.9 46.935 120.8C46.935 121.1 46.835 121.4 46.835 121.6C46.735 122.1 46.735 122.6 46.735 123C46.635 125.4 46.435 127.7 46.135 130C45.835 133.3 45.435 136.8 45.635 140.2C46.035 150.7 49.135 160.9 52.035 170.7C52.435 172 52.835 173.4 53.235 174.7C53.535 175.9 53.935 177.1 54.335 178.3L54.435 178.6C57.535 189 60.835 199.7 58.735 210.8C58.635 211.4 58.635 212 58.535 212.6V212.7C58.435 214 58.235 215.2 58.035 216.4C56.935 221.2 56.135 224.9 55.135 228.4C54.735 230.1 53.435 231.1 51.735 231.1Z" fill="#4F4F4F"/>
</svg>
