<svg width="335" height="281" viewBox="0 0 335 281" fill="none" xmlns="http://www.w3.org/2000/svg">
<circle cx="167.5" cy="156.5" r="124.5" fill="#FFC656"/>
<g clip-path="url(#clip0_398_24401)">
<path d="M270.082 279.726C270.082 279.726 267.711 260.496 265.097 252.427C262.483 244.359 262.422 240.538 257.012 235.927C251.601 231.317 240.477 223.976 234.702 221.914C228.926 219.851 225.157 217.789 221.328 214.452C217.498 211.116 215.127 205.595 215.127 205.595C215.127 205.595 223.455 201.046 226.434 198.437C229.413 195.889 238.106 184.242 239.626 179.692C241.145 175.143 241.936 172.595 245.401 171.806C248.805 171.017 252.939 170.411 255.249 168.834C257.559 167.196 260.842 165.497 261.45 161.069C262.058 156.64 263.334 155.912 261.632 152.09C259.93 148.269 260.173 148.147 257.194 146.206C254.216 144.265 252.878 143.234 250.264 143.84C247.589 144.447 242.969 149.482 242.787 150.149C242.604 150.817 243.395 138.866 243.395 138.866L241.571 127.401L228.015 99.1921C228.015 99.1921 216.951 110.051 212.574 112.781C208.197 115.511 204.914 117.088 204.914 117.088L205.339 100.587C205.339 100.587 197.801 103.742 191.297 110.172C184.792 116.602 182.3 117.876 182.117 117.937C181.935 117.998 182.3 101.255 182.3 101.255C182.3 101.255 174.822 106.108 170.385 110.415C165.947 114.722 163.454 117.694 159.321 119.514C155.187 121.334 155.673 120.364 155.491 120.121C155.308 119.878 160.597 110.172 160.962 104.955C161.327 99.7381 160.536 97.7969 160.536 97.7969L153.059 98.4642L133.12 121.031L133.788 145.903C133.788 145.903 128.986 143.416 125.946 144.508C122.968 145.6 120.475 145.478 119.077 147.844C117.679 150.21 115.733 153.546 115.916 155.609C116.098 157.671 117.314 163.859 119.077 165.74C120.84 167.62 124.062 169.319 126.311 170.35C128.56 171.381 134.457 172.898 134.457 172.898C134.457 172.898 138.956 180.602 141.144 184.606C143.272 188.61 147.588 193.827 150.567 196.678C153.485 199.529 159.442 204.746 160.476 204.807C161.509 204.868 163.029 206.263 163.029 206.263C163.029 206.263 163.029 208.325 160.901 210.994C158.774 213.664 158.53 213.967 156.585 215.362C154.701 216.758 150.992 219.487 146.98 221.55C142.968 223.612 130.019 226.949 126.554 231.074C123.15 235.199 117.192 240.234 115.916 243.328C114.639 246.422 111.478 254.308 110.08 261.042C109.654 263.226 109.229 266.016 108.803 268.746L99.9885 246.543L93.4839 249.334C93.4839 249.334 90.0796 246.786 91.6602 242.661C93.2407 238.536 92.6936 226.221 90.5659 218.395C88.3774 210.509 83.6965 193.22 82.3591 188.731C81.0217 184.181 77.9822 181.573 77.9822 181.573C77.9822 181.573 73.97 181.633 73.1189 183.575C72.2678 185.516 71.7207 188.124 72.2678 192.31C72.8149 196.557 73.7876 201.41 73.8484 203.715C73.9092 206.02 76.2192 208.447 72.8149 207.173C69.4106 205.899 67.2222 204.382 63.9394 205.717C60.6567 207.051 59.1977 207.233 57.07 210.024C54.8816 212.814 51.2949 217.667 48.924 222.217C46.5532 226.767 45.0942 226.1 45.8845 229.982C46.6748 233.865 48.4377 237.504 50.6262 239.506C52.8147 241.508 55.0639 243.207 56.4013 245.391C57.7387 247.635 62.0549 251.154 65.0337 252.791C68.0124 254.369 70.8696 255.764 71.1736 256.613C71.4775 257.463 64.7905 260.071 64.7905 260.071L68.0732 280.09H113.363L113.302 279.908H270.082V279.726Z" fill="white"/>
<path d="M66.0064 260.254C65.9456 260.375 64.9729 262.255 64.9729 262.255L68.1949 279.969H106.25L98.9552 256.978C98.9552 256.978 96.8883 249.88 95.2469 249.637C93.6055 249.395 93.2408 249.577 90.0189 251.579C86.8577 253.581 81.6297 255.825 76.584 257.645C71.5384 259.344 66.0064 260.254 66.0064 260.254Z" fill="#FFB3B3"/>
<path d="M114.031 277.057C114.518 278.027 115.004 278.937 115.49 279.908H263.03C263.03 279.908 261.997 271.233 260.599 263.65C259.2 256.067 256.951 245.33 252.027 238.475C247.103 231.62 243.82 229.012 240.294 227.434C236.769 225.857 231.662 224.098 227.893 221.732C226.981 221.186 226.008 220.64 225.036 220.155C221.753 222.763 218.106 224.826 214.276 226.585C208.683 229.133 202.969 232.166 196.707 232.227C190.385 233.379 182.361 234.047 175.917 232.591C166.98 230.589 159.321 229.072 156.22 225.372C155.612 224.644 155.126 223.977 154.64 223.249C152.998 221.853 151.6 220.276 150.445 218.396C148.865 219.548 145.764 221.489 140.475 224.098C131.722 228.405 127.345 230.467 123.819 233.622C120.354 236.776 118.895 236.594 115.733 243.025C113.059 248.545 109.654 258.555 108.56 264.075C110.627 268.2 111.964 272.75 114.031 277.057Z" fill="#FFB3B3"/>
<path d="M264.793 242.539C257.559 228.769 244.489 222.763 230.75 217.849C229.778 217.485 228.683 217.546 228.015 218.577C227.224 219.79 227.771 220.822 228.623 221.61C229.534 222.46 230.568 223.188 231.662 223.734C234.276 225.068 237.012 226.221 239.686 227.434C251.784 233.015 260.234 241.751 263.456 254.914C265.219 262.073 266.982 269.17 267.164 276.571C267.225 278.452 267.894 280.818 270.325 280.636C272.696 280.454 272.939 278.209 272.939 275.297C271.723 264.681 270.325 253.095 264.793 242.539Z" fill="#4F4F4F"/>
<path d="M146.737 218.153C143.272 219.549 139.807 221.065 136.342 222.46C126.433 226.525 118.712 233.137 113.545 242.479C112.147 244.966 109.776 252.671 108.439 257.099C107.101 253.702 105.642 250.305 103.94 247.029C102.663 244.602 101.083 243.329 99.3199 243.329C98.104 243.329 96.7058 243.935 95.1861 245.088C95.3684 244.42 95.5508 243.753 95.6116 243.025C96.0371 237.141 96.2195 230.225 94.335 223.613C91.5994 214.028 89.1677 204.201 86.8577 194.737L85.8242 190.612C85.1555 188.004 84.4868 185.274 83.0886 182.847C81.812 180.603 80.2923 178.479 77.3743 178.479H77.2527C77.1311 178.479 77.0095 178.479 76.8272 178.479C74.0308 178.722 71.5991 181.027 70.6873 184.364C70.0186 186.73 69.897 189.035 70.3833 191.461C70.9304 194.677 71.4168 197.892 71.9031 201.289C72.0855 202.441 72.207 203.594 72.3894 204.747L72.2678 204.686C71.8423 204.565 71.4775 204.443 71.1736 204.261C69.2283 203.351 67.3438 202.866 65.6416 202.866H65.4592C62.4805 202.927 59.8057 204.261 57.2524 206.931C52.5715 211.966 49.1672 217.607 45.8237 223.431C43.0881 228.223 43.3921 232.834 46.8572 237.505C47.8906 238.9 48.9848 240.235 50.0183 241.569C50.991 242.783 51.9636 243.996 52.8755 245.27C57.2524 251.093 62.2373 254.673 68.0125 256.25C67.8909 256.25 67.8301 256.31 67.7085 256.31C64.4258 256.796 62.8452 258.07 62.6628 260.193C62.2373 266.684 63.21 273.054 65.5808 279.18C66.0671 280.394 66.979 281.122 68.1948 281.122C68.5596 281.122 68.9243 281.061 69.2891 280.94C70.8696 280.394 71.5991 279.18 71.2952 277.361C71.1128 276.39 70.8696 275.48 70.6265 274.509C70.5049 274.085 70.3833 273.66 70.3225 273.175C70.2009 272.568 70.0186 271.962 69.897 271.355C69.1067 268.14 68.2556 264.803 68.4988 261.103V260.982H68.6204C80.657 260.254 90.5659 255.037 99.5022 249.516L99.6238 249.455C99.6238 249.455 100.414 251.761 100.779 252.853C101.569 255.219 102.299 257.402 103.089 259.647L104.366 263.226C106.068 268.2 107.891 273.296 109.776 278.271C110.384 279.908 111.478 280.818 112.815 280.818C113.302 280.818 113.788 280.697 114.274 280.454C115.977 279.726 116.402 278.271 115.551 275.965L115.49 275.783C114.822 273.781 114.092 271.719 113.302 269.717C112.755 268.382 112.268 267.048 111.782 265.713C112.633 262.68 114.335 257.342 114.7 255.582C117.922 241.994 126.493 232.955 139.016 227.313C142.421 225.797 145.947 224.462 149.047 222.278C150.202 221.429 151.175 220.276 150.384 218.821C149.533 217.243 148.014 217.607 146.737 218.153ZM71.356 251.639L71.1736 251.579C70.1401 251.215 69.0459 250.851 68.0125 250.608C63.5139 249.516 60.4744 246.362 57.7388 243.147C62.7844 241.327 67.0398 238.536 71.1736 234.35L71.2952 234.654C71.5383 235.382 71.7207 235.988 71.9639 236.595C73.1797 239.264 74.6387 242.601 78.3469 243.814C78.7117 243.935 79.0764 243.996 79.4412 243.996H79.502C80.353 243.996 81.0217 243.571 81.5081 242.783C81.812 242.237 81.9336 241.63 81.812 241.084C81.6904 240.538 81.3257 240.053 80.7786 239.749C77.1311 237.626 75.6721 234.35 75.9153 229.133C75.9761 228.223 75.6721 227.435 75.125 226.828C74.5171 226.221 73.6052 225.857 72.511 225.857H72.2678C71.5991 225.857 70.9912 226.039 70.3833 226.221C70.1401 226.282 69.897 226.343 69.6538 226.403C69.4106 226.464 69.1675 226.464 68.9243 226.525C68.3772 226.525 68.0125 226.282 67.7693 225.797C67.4045 225.19 67.5261 224.584 68.0732 224.038C68.3772 223.734 68.6204 223.431 68.9243 223.067C69.593 222.339 70.2617 221.55 70.9912 220.883C72.207 219.791 73.3013 219.245 74.3955 219.245H74.4563C75.3682 219.245 76.28 219.609 77.2527 220.398L77.3743 220.519C78.7725 221.611 80.2315 222.764 82.0552 223.431C82.4807 223.552 82.7847 223.674 83.1494 223.674C83.6966 223.674 84.1221 223.431 84.4868 223.006C85.034 222.339 85.034 221.49 84.4868 220.944C84.2437 220.701 84.0005 220.458 83.7573 220.216C81.2649 217.547 78.6509 214.817 74.6995 214.756H74.3955C71.9639 214.756 70.6265 214.392 69.6538 212.269C69.2891 211.48 68.5596 210.995 67.7693 210.995C67.4045 210.995 67.0398 211.116 66.675 211.298C65.9456 211.723 65.2161 212.572 65.824 214.21L65.8848 214.392C66.1279 214.999 66.3103 215.666 66.7358 216.212C67.4653 217.243 67.4045 217.85 66.4319 218.699C65.7024 219.367 65.0337 220.094 64.365 220.883C64.1826 221.065 64.061 221.247 63.8787 221.429L63.4531 220.701C62.906 219.731 62.3589 218.76 61.751 217.911L61.6294 217.729C61.2039 217.061 60.6567 216.273 59.6841 216.273C59.3801 216.273 59.137 216.333 58.833 216.515C57.1916 217.304 57.7996 219.003 58.1035 219.731C60.0488 225.19 62.602 229.194 66.1279 232.288C64.9729 233.562 63.7571 234.714 62.1765 235.321C61.3254 234.047 60.4136 232.894 59.5017 231.742C58.0427 229.861 56.5837 228.102 55.5503 225.979L55.4895 225.918C55.064 225.008 54.3953 223.795 53.1186 223.734C52.8755 223.734 52.5715 223.795 52.2676 223.916C50.4438 224.705 51.0517 226.403 51.4165 227.435C51.4773 227.617 51.5381 227.738 51.5989 227.92C52.5715 230.953 54.3345 233.319 56.2798 235.867C56.7661 236.474 57.2524 237.141 57.7388 237.808C57.1916 238.172 56.5837 238.415 55.915 238.415H55.8542C55.3679 238.415 54.8816 238.293 54.3953 238.111C52.5107 237.444 50.8694 235.685 49.8967 233.319C48.8633 230.832 48.8025 228.223 49.7751 226.282C52.0244 221.611 54.6384 217.486 57.5564 213.967C61.0823 209.721 62.8452 207.659 65.3376 207.659H65.4592C67.0398 207.659 68.9851 208.447 71.5991 209.66C72.5718 210.085 73.4229 210.328 74.2131 210.328H74.2739C75.3074 210.328 76.1585 209.964 76.7056 209.236C77.4959 208.326 77.7998 206.87 77.5567 205.111C76.8272 200.197 75.9761 195.283 75.125 190.248C74.7603 188.246 75.0034 186.426 75.7329 184.606C76.0977 183.757 76.5232 183.454 77.2527 183.393C77.9214 183.393 78.4077 183.757 78.6509 184.424L78.7725 184.849C79.3804 186.487 79.9883 188.186 80.353 189.884C80.7786 191.583 81.1433 193.281 81.5689 195.041V195.101C82.6631 199.833 83.8789 204.686 85.0947 209.539C85.5203 211.116 85.9458 212.694 86.3714 214.21C88.0735 220.398 89.8364 226.828 90.0796 233.501C90.0796 234.047 90.1404 234.593 90.1404 235.139V235.2C90.262 238.718 90.4444 242.055 89.4717 245.391C89.107 246.726 89.2893 247.818 90.0188 248.546C84.7908 251.518 79.198 253.702 73.4229 255.158C74.3955 252.731 72.1462 251.943 71.356 251.639Z" fill="#4F4F4F"/>
<path d="M221.084 220.883C218.592 223.006 215.613 224.037 212.634 225.129C193.303 232.348 174.64 231.135 156.767 220.519C155.734 219.912 154.701 219.488 153.728 220.64C152.816 221.671 153.059 222.763 153.728 223.734C155.491 226.16 157.862 227.98 160.658 229.012C169.838 232.469 179.139 235.381 188.5 234.835C199.078 234.835 208.379 232.955 217.315 229.194C219.99 228.041 222.361 226.585 224.185 224.341C225.036 223.249 225.826 222.035 224.671 220.701C223.334 219.124 222.057 220.033 221.084 220.883Z" fill="#4F4F4F"/>
<path d="M155.795 219.002C159.26 217.728 164.062 211.358 165.096 206.991C163.637 206.445 162.239 205.656 161.023 204.746C159.077 208.811 156.281 212.208 152.938 215.18C152.026 215.969 151.965 217.243 152.755 218.274C153.485 219.245 154.579 219.427 155.795 219.002Z" fill="#4F4F4F"/>
<path d="M217.802 205.596C216.525 206.627 215.127 207.476 213.607 208.083C214.944 212.572 218.166 216.03 222.361 218.82C223.516 219.609 224.793 219.366 225.644 218.153C226.495 216.94 226.191 215.666 225.218 214.817C222.118 212.147 219.504 209.235 217.802 205.596Z" fill="#4F4F4F"/>
<path d="M188.075 169.257C188.561 169.318 189.108 169.136 189.473 168.833C189.838 168.529 190.142 168.044 190.142 167.559C190.203 166.467 189.473 165.678 188.44 165.496C188.379 165.496 188.318 165.496 188.257 165.436C187.771 165.314 187.345 165.132 186.859 164.95L186.798 164.89C186.92 164.708 187.102 164.526 187.224 164.344C187.589 163.98 187.953 163.616 188.318 163.252C188.683 162.888 188.926 162.463 188.987 161.978C189.047 161.493 188.865 160.947 188.561 160.583C187.892 159.855 186.677 159.612 185.886 160.34C184.427 161.735 182.421 163.494 182.908 165.739C183.516 167.983 186.008 168.893 188.075 169.257Z" fill="#4F4F4F"/>
<path d="M215.856 149.178C213.911 149.178 212.209 149.966 211.297 151.301L211.236 151.362L210.568 153.303V153.424C211.115 156.518 213.06 158.399 215.796 158.399C217.194 158.399 218.653 157.913 219.929 157.003L220.051 156.943L220.112 156.821C221.571 154.273 221.206 152.575 220.598 151.544C219.808 150.088 217.984 149.178 215.856 149.178Z" fill="#4F4F4F"/>
<path d="M162.482 149.178C160.537 149.178 158.834 149.966 157.922 151.301L157.862 151.362L157.193 153.303V153.424C157.74 156.518 159.685 158.399 162.421 158.399C163.819 158.399 165.278 157.913 166.555 157.003L166.676 156.943L166.737 156.821C168.196 154.273 167.831 152.575 167.224 151.544C166.372 150.088 164.549 149.178 162.482 149.178Z" fill="#4F4F4F"/>
<path d="M165.278 132.799C164.488 132.496 163.515 132.435 163.333 132.374C160.293 132.314 158.226 132.92 156.524 134.619C155.552 135.589 155.187 136.803 156.038 137.955C156.767 139.047 157.922 139.047 159.017 138.501C160.597 137.713 162.178 137.227 163.88 137.895C165.704 138.562 167.649 139.047 168.379 136.742C169.169 134.376 167.102 133.527 165.278 132.799Z" fill="#4F4F4F"/>
<path d="M215.613 132.313C214.519 132.252 213.242 132.495 212.027 133.162C210.568 133.951 209.23 134.982 209.899 136.862C210.568 138.804 212.27 138.804 213.85 138.136C215.796 137.348 217.559 137.651 219.321 138.561C220.477 139.107 221.571 138.986 222.3 137.894C223.03 136.802 222.726 135.71 221.936 134.8C220.355 133.041 218.288 132.373 215.613 132.313Z" fill="#4F4F4F"/>
<path d="M201.753 179.51C196.95 178.903 192.087 178.964 187.224 178.964C184.002 178.964 180.719 179.085 177.497 179.51C175.977 179.692 175.066 180.177 174.64 180.965C174.214 181.693 174.397 182.725 175.066 184.059C178.105 190.004 183.029 193.887 189.351 195.221L189.595 195.282L189.838 195.221C196.16 193.887 201.145 190.004 204.124 184.059C204.792 182.725 204.914 181.693 204.549 180.965C204.184 180.177 203.273 179.692 201.753 179.51ZM189.655 190.004C185.765 189.762 182.36 187.456 179.929 183.392C183.394 183.028 186.555 182.846 189.655 182.785C192.756 182.785 195.917 183.028 199.382 183.392C196.95 187.396 193.546 189.762 189.655 190.004Z" fill="#4F4F4F"/>
<path d="M257.073 143.354C257.316 142.99 257.498 142.626 257.681 142.202C258.045 141.534 258.228 140.806 258.167 140.018V139.957C258.167 139.836 258.228 139.654 258.228 139.533C258.714 131.768 259.747 124.124 258.957 116.299C257.498 102.103 253.06 89.4247 243.395 78.6873C240.659 75.6541 237.802 73.2883 234.762 71.4077C226.799 65.402 216.951 62.1262 206.798 62.7935C200.537 58.1831 192.695 55.9386 185.035 55.9992C177.436 56.0599 168.135 58.0011 160.901 62.1262C154.579 64.3101 148.5 67.6466 142.725 72.1357C139.928 74.3195 136.767 75.5328 133.424 76.3821C132.208 76.6854 130.931 76.7461 129.715 76.9887C128.56 77.1707 127.345 77.474 127.223 78.93C127.101 80.2039 128.196 80.5072 129.107 81.0532C130.688 81.9631 132.39 81.9024 134.761 82.1451C125.825 91.3053 120.658 101.497 119.502 113.993C118.712 122.425 119.381 130.615 119.867 138.926C119.867 139.472 119.989 139.957 120.11 140.442C120.171 140.867 120.293 141.292 120.536 141.656C120.718 142.262 121.083 142.808 121.509 143.294C116.402 145.478 112.998 150.877 113.788 157.064C114.943 166.467 122.177 173.565 131.843 174.596C133.788 174.778 134.518 175.506 135.126 177.204C137.679 184.605 141.57 191.278 146.798 197.102C153.971 205.049 163.515 209.235 173.303 212.753C191.175 219.244 187.224 218.941 205.279 212.814C223.759 206.565 237.437 195.464 243.638 176.476C244.246 174.717 245.401 174.899 246.738 174.596C256.526 172.715 264.915 166.649 264.793 155.305C264.732 149.967 261.389 145.417 257.073 143.354ZM244.307 169.379C241.936 169.136 240.963 170.046 240.173 171.866C239.079 174.353 238.106 176.84 236.951 179.267C233.06 187.456 228.197 194.979 220.173 199.892C211.479 205.291 201.874 208.507 192.269 211.843C190.142 212.571 188.075 212.571 186.008 211.782C179.99 209.538 173.85 207.597 168.014 204.988C159.807 201.348 152.269 196.859 147.102 189.094C143.576 183.817 141.023 178.114 138.53 172.351C137.861 170.774 137.193 169.136 134.7 169.258C126.737 169.743 119.989 164.162 118.895 156.397C117.922 149.845 123.515 144.992 129.715 146.691C130.992 148.207 131.904 149.967 131.965 151.423C132.025 153.424 132.208 155.366 134.639 155.366C137.193 155.366 137.679 153.364 137.74 151.241C137.861 142.99 138.105 134.801 138.044 126.551C138.044 124.731 138.469 123.517 139.807 122.425C145.399 118.058 149.716 112.598 153.849 106.956C154.822 105.622 155.491 103.984 157.497 102.831C156.585 108.412 155.004 113.326 152.634 118.058C151.843 119.635 150.871 121.212 152.208 122.85C153.667 124.609 155.552 123.942 157.315 123.275C165.4 120.424 171.479 115.025 176.585 108.352C177.254 107.442 177.68 106.168 179.139 105.743C179.807 109.444 178.895 112.78 178.227 116.117C177.862 117.876 177.315 119.878 179.078 121.212C180.901 122.607 182.786 121.698 184.549 120.788C185.278 120.424 185.947 119.999 186.677 119.635C192.209 116.602 196.95 112.537 201.51 107.563C201.692 108.594 201.814 109.14 201.814 109.686C201.631 111.87 201.51 113.993 201.206 116.177C200.719 119.878 202.665 121.637 206.251 120.606C209.96 119.574 213.06 117.451 216.039 115.085C219.869 111.991 223.334 108.594 226.373 104.651C227.711 110.354 229.595 115.813 231.966 121.212C233.851 125.459 236.282 129.462 239.626 132.617C240.173 137.834 240.355 143.051 240.234 148.329C240.173 150.027 239.99 151.787 240.659 153.424C241.206 154.698 242.179 155.426 243.577 155.366C243.699 155.366 243.82 155.366 243.881 155.305C243.942 155.244 244.003 155.184 244.063 155.184C244.246 155.002 244.428 154.759 244.611 154.577C245.218 151.908 246.434 149.299 248.015 147.176C248.197 146.933 248.38 146.751 248.623 146.569C253.729 145.235 259.14 148.632 259.626 153.728C260.538 161.675 252.27 170.167 244.307 169.379Z" fill="#4F4F4F"/>
<path d="M54.0305 164.89C52.0244 163.374 49.836 162.161 47.5259 161.19C46.4924 160.765 45.3982 160.765 44.6079 161.797C43.8784 162.828 44.304 163.859 45.0335 164.648C46.8572 166.589 49.1673 167.924 51.5989 169.137C51.9636 169.319 52.5108 169.319 52.8147 169.319C53.9697 169.137 54.6992 168.591 55.0032 167.681C55.3679 166.589 54.9424 165.558 54.0305 164.89Z" fill="#4F4F4F"/>
<path d="M95.794 150.635C95.3685 148.572 93.5447 147.965 92.2681 149.361C90.3228 151.363 88.9854 153.728 87.952 156.276C87.4656 157.49 87.7696 158.703 89.0462 159.37C90.4444 160.098 91.6602 159.613 92.4505 158.4C93.7271 156.519 94.8214 154.517 95.5509 152.333C95.6724 151.666 95.7332 150.938 95.794 150.635Z" fill="#4F4F4F"/>
<path d="M61.6902 150.15C61.0215 149.361 60.1704 148.876 59.0762 149.422C58.1035 149.907 57.9212 150.878 58.1643 151.788C58.833 154.336 59.7449 156.823 61.2647 159.007C61.9942 160.099 63.21 160.523 64.4866 159.856C65.7632 159.189 65.9456 158.036 65.5808 156.58C64.4866 154.396 63.3924 152.031 61.6902 150.15Z" fill="#4F4F4F"/>
<path d="M78.2862 147.965C77.8607 146.327 77.4959 144.932 75.7938 145.053C74.2132 145.175 73.9092 146.509 73.8484 147.722C73.6661 149.724 73.6661 151.787 73.7269 153.789C73.7877 155.427 74.4564 156.883 76.4625 156.701C78.4078 156.519 78.8941 155.063 78.8333 153.425C78.7117 151.423 78.4686 149.482 78.2862 147.965Z" fill="#4F4F4F"/>
</g>
<defs>
<clipPath id="clip0_398_24401">
<rect width="229" height="225" fill="white" transform="translate(44 56)"/>
</clipPath>
</defs>
</svg>
