<svg width="173" height="138" viewBox="0 0 173 138" fill="none" xmlns="http://www.w3.org/2000/svg">
<g clip-path="url(#clip0_398_24323)">
<path d="M87.7161 48.3603L87.7921 49.7311C97.2174 49.8073 106.643 49.5788 116.144 49.655C122.985 49.655 130.054 49.4265 136.971 49.8073L137.123 48.4364L119.032 17.2113L114.472 9.82385C114.472 9.82385 117.208 9.21458 117.284 7.23445C117.436 5.25431 116.6 4.34041 115.84 3.35034C115.08 2.36027 112.268 1.90332 112.268 1.90332C112.268 1.90332 108.315 2.66491 108.011 4.41657C107.707 6.16822 106.947 7.6914 108.011 9.21458C109.075 10.7378 110.367 9.74769 109.151 12.1086C107.935 14.4695 87.7161 48.3603 87.7161 48.3603Z" fill="#535353"/>
<path d="M116.524 66.41C111.583 66.3339 106.643 66.3339 101.626 66.1816C97.3695 66.1054 92.5048 66.9432 88.3242 65.8008V66.5624C88.3242 66.5624 81.9393 66.1816 78.5189 68.8471C75.0984 71.5127 70.3097 78.9763 68.4855 81.8703C66.6612 84.7644 70.9178 80.0425 61.7965 90.4001C52.6753 100.682 38.4613 115.456 34.3567 117.36C30.2522 119.264 26.6037 117.284 21.5109 117.893C16.3422 118.503 9.88133 118.198 7.22097 121.473C4.5606 124.748 2.4323 125.966 3.04039 128.556C3.64847 131.221 4.18054 130.993 6.15682 131.297C8.13309 131.602 38.0052 131.297 38.0052 131.297L64.913 106.317C64.913 106.317 84.7517 85.069 86.4239 84.0028C88.1722 82.9365 116.22 84.4597 116.22 84.4597L135.375 83.165V66.2577C129.142 66.4862 122.833 66.4862 116.524 66.41Z" fill="#535353"/>
<path d="M83.0035 78.7486C82.8515 76.7685 82.7755 74.7122 82.6234 72.732C82.5474 71.5135 81.6353 70.4473 80.3431 70.4473C79.659 70.4473 78.9749 70.8281 78.5189 71.3612C76.3906 71.3612 74.3383 72.0466 72.514 73.189C70.9178 77.4539 68.7135 81.6426 65.9771 85.1459C62.9367 89.1062 58.9842 92.2287 55.4117 95.6559C54.8796 96.189 54.3475 96.3413 53.7394 96.3413C48.7987 101.444 43.9341 106.623 39.2214 111.878C38.0052 113.249 36.8651 114.543 35.6489 115.914C34.6608 117.057 33.7486 118.275 32.5325 118.656C31.7724 118.884 31.3923 118.884 30.5562 118.884C29.6441 118.961 28.6559 118.961 27.7438 118.961C25.8436 119.037 24.0193 119.037 22.119 119.113C18.2425 119.265 13.9859 118.961 10.2614 120.484C6.76491 121.855 3.87651 124.977 3.95252 128.937C3.95252 130.232 5.01666 131.146 6.23283 131.222C13.2258 131.603 20.2948 131.908 27.2878 132.288C28.96 132.364 30.7842 132.593 32.4565 132.517C34.3567 132.364 38.1573 132.517 39.4494 131.222C41.9578 128.785 43.9341 126.272 46.4424 123.835C56.5518 113.934 66.5852 104.11 76.7706 94.2089L81.3313 88.8777C82.6994 87.583 82.5474 87.7353 83.1555 85.9075C83.9156 84.1559 83.0795 80.6526 83.0035 78.7486Z" fill="#FFC656"/>
<path d="M109.531 11.4238L87.7161 49.0463H129.978L109.531 11.4238Z" fill="#9EE4FF"/>
<path d="M172.164 131.373C171.48 130.46 170.872 129.546 170.188 128.632C168.667 126.575 167.071 124.443 165.779 122.234C161.522 114.771 156.43 107.764 151.489 100.91C147.384 95.1218 143.052 89.1814 139.327 83.0887C138.567 81.8701 138.263 80.9562 138.263 79.8139C138.187 71.5125 138.035 63.2112 137.883 56.89V56.5854C137.883 55.443 137.883 53.3867 135.755 53.3105C135.679 53.3105 135.603 53.3105 135.527 53.3105C133.399 53.3105 133.323 55.2907 133.247 56.2807C133.247 56.5092 133.247 56.6615 133.247 56.8139C133.095 58.0324 133.095 59.2509 133.095 60.4695C133.095 61.0788 133.095 61.7642 133.095 62.3735C133.095 62.5258 133.095 62.6781 133.095 62.9066C133.095 63.2112 133.094 63.4397 133.018 63.6682H91.5167C91.5167 63.0589 91.4407 62.4496 91.4407 61.9165C91.3647 59.9364 91.2887 58.0324 91.1367 56.0523C91.0607 55.2907 90.9087 53.3105 88.9324 53.3105C88.8564 53.3105 88.7804 53.3105 88.7043 53.3105C86.7281 53.4629 86.6521 55.3668 86.5761 56.2807C86.5 57.6516 86.5 59.0225 86.5 60.3172C86.5 65.7245 86.5 71.2079 86.5 76.6152V81.4132C84.2197 81.7178 83.0036 83.0887 81.9394 84.1549C80.7993 85.3735 79.7351 86.6682 78.671 87.9629C76.4666 90.4761 74.2623 93.0655 71.906 95.5026C70.0058 97.4066 68.1815 99.3105 66.2812 101.215C57.692 109.973 48.7988 119.036 39.7536 127.566C39.6015 127.718 39.5255 127.794 39.3735 127.946C38.8414 128.479 38.3094 129.013 37.6253 129.013C36.4091 129.013 35.1929 129.089 34.0528 129.165C32.3805 129.241 30.5563 129.393 28.884 129.393C27.5919 129.393 26.5277 129.317 25.4636 129.241C23.3353 129.013 20.9789 128.936 18.1666 128.936C16.5703 128.936 14.9741 128.936 13.3779 129.013C11.8577 129.013 10.2615 129.089 8.74125 129.089C8.28519 129.089 7.82913 129.165 7.22104 129.393C6.84099 129.546 6.2329 129.698 5.77684 130.155C5.92886 127.718 6.99301 125.433 8.74125 123.681C10.7175 121.625 13.4539 120.559 16.3423 120.559C16.4943 120.559 16.5703 120.559 16.7224 120.559C17.6345 120.559 18.5466 120.635 19.6868 120.635C20.5229 120.635 21.359 120.635 22.1951 120.635C23.0312 120.635 23.8674 120.635 24.6275 120.635H25.3116C25.9956 120.635 26.6797 120.635 27.3638 120.635C28.276 120.635 29.1881 120.635 30.1002 120.635C31.5444 120.635 32.7606 120.635 33.8247 120.711C33.9007 120.711 34.0528 120.711 34.1288 120.711C35.877 120.711 36.9412 119.873 38.0813 118.731C40.1336 116.751 42.1099 114.542 44.0101 112.41C45.7584 110.43 47.5826 108.373 49.4829 106.546C53.8155 102.281 58.0721 97.8635 62.1767 93.5225C63.5449 92.0755 64.9891 90.6284 66.3572 89.1814L66.5853 88.9529C69.7777 85.6019 73.1222 82.1748 74.7944 77.4529C76.4667 72.7311 79.051 70.1417 82.9275 69.3039C84.0677 69.0754 84.8278 68.1615 84.7518 67.0192C84.6758 65.9529 83.9157 65.1913 82.6995 64.9629C82.1674 64.8867 81.6354 64.8105 81.1033 64.8105C79.8871 64.8105 78.823 65.1152 77.7588 65.6483C73.1982 68.2377 70.1578 72.4264 68.4855 78.5192L68.4095 78.8238C68.2575 79.3569 68.1815 79.8139 67.8014 80.1947C65.9012 82.0986 64.0009 84.0788 62.1767 85.9827C59.0602 89.2576 55.7918 92.6086 52.4473 95.8072C48.6468 99.4629 45.0743 103.347 41.5778 107.155C39.1455 109.744 36.7131 112.486 34.2048 115.075C33.9007 115.38 33.6727 115.456 33.1406 115.456H32.6846C31.0123 115.456 29.4161 115.456 27.7439 115.456C25.8436 115.456 24.0194 115.456 22.1191 115.456C19.7628 115.456 17.8625 115.456 15.9623 115.38C15.8102 115.38 15.6582 115.38 15.5062 115.38C12.1617 115.38 9.12131 116.446 6.46094 118.503C1.82429 122.082 -0.227992 126.499 0.304082 131.602C0.532114 133.734 1.44424 134.801 3.04046 134.801C3.11647 134.801 3.26849 134.801 3.42051 134.801C4.86471 134.648 5.4728 133.811 5.70083 132.897C6.00487 133.354 6.61296 133.811 7.60109 133.963C7.90514 133.963 8.13317 134.039 8.43721 134.115C9.12131 134.191 9.8054 134.344 10.4895 134.344C17.0264 134.496 23.6393 134.572 30.1762 134.724L37.8533 134.877C39.0695 134.877 39.9816 134.572 40.8177 133.887C46.9746 128.556 52.8274 122.691 58.4522 117.056C61.3406 114.238 64.305 111.268 67.1934 108.373C71.526 104.185 75.6305 99.6152 79.5831 95.2741C82.2434 92.3039 84.9798 89.2576 87.7922 86.3635C87.8682 86.2874 88.0203 86.1351 88.0963 86.0589C88.4003 85.7543 88.4763 85.6781 88.7043 85.6781C91.6688 85.6781 91.7448 82.9364 91.7448 82.0225C91.7448 80.4993 91.7448 78.9761 91.6688 77.4529C91.6688 76.4629 91.6688 75.4728 91.6688 74.5589C91.6688 73.0357 91.6688 71.5125 91.6688 70.0655V68.7708H99.4978C98.9658 69.1516 98.5857 69.837 98.5857 70.6748C98.5857 71.6649 98.5857 72.6549 98.5857 73.645C98.5857 73.7973 98.5857 74.0258 98.5857 74.1781H98.4337V74.8635C98.4337 75.2443 98.4337 75.6251 98.4337 76.0059C98.4337 76.9198 98.4337 77.8337 98.4337 78.8238C98.5097 80.347 99.3458 81.2609 100.638 81.2609C102.006 81.2609 102.918 80.347 102.918 78.8999C102.994 76.0059 102.994 73.2642 102.69 70.4463C102.538 69.5324 102.234 68.9993 101.778 68.6947H123.061C122.605 68.9993 122.301 69.6086 122.149 70.3702C121.769 73.0357 121.845 75.7774 121.845 78.443V78.8238C121.845 80.2708 122.757 81.1847 124.125 81.2609H124.201C125.493 81.2609 126.33 80.347 126.406 78.8999C126.482 77.986 126.406 77.1483 126.406 76.2344C126.406 75.8536 126.406 75.4728 126.406 75.092V74.4066H126.254C126.254 74.1781 126.254 73.9496 126.254 73.7211C126.254 72.6549 126.254 71.5125 126.254 70.4463C126.254 69.6847 125.873 69.0754 125.341 68.6947H133.095V71.8172C133.095 75.1682 133.095 78.3668 133.095 81.5655V81.9463C133.095 83.0887 133.095 84.688 134.615 85.2973C135.679 85.7543 136.135 86.5158 136.591 87.5059C136.667 87.6582 136.819 87.8867 136.895 88.039C137.275 88.6483 137.655 89.3337 137.959 90.0192C138.871 91.6947 139.783 93.3701 140.924 94.9695C149.513 107.079 156.278 117.208 162.207 126.652C162.511 127.109 162.815 127.642 163.119 128.099C164.639 130.612 166.235 133.201 168.515 135.334C169.276 136.019 170.036 136.4 170.72 136.4C171.404 136.4 171.936 136.095 172.544 135.562C173.836 133.658 172.62 131.983 172.164 131.373Z" fill="white"/>
<path d="M86.12 50.8738C86.576 51.1022 86.9561 51.2546 87.4122 51.2546C88.0202 51.2546 88.6283 51.0261 89.1604 50.493C89.6165 50.036 89.9965 49.4267 90.3006 48.8936L90.3766 48.7413C92.0488 45.9234 93.645 43.1055 95.3172 40.2115C98.2817 35.1089 101.322 29.7777 104.439 24.5989C107.327 19.6486 109.759 15.9168 112.192 12.5658C112.648 13.0228 113.028 13.5559 113.332 14.089C113.408 14.2413 113.56 14.4698 113.636 14.6221C118.957 22.6949 123.897 31.2247 128.61 39.5261C130.282 42.4963 132.03 45.4665 133.703 48.3605C133.779 48.5128 133.931 48.7413 134.007 48.8936C134.539 49.9598 135.299 51.2546 136.667 51.2546C137.123 51.2546 137.655 51.1022 138.187 50.7976C138.871 50.3406 139.327 49.8075 139.479 49.1983C139.783 48.0559 139.099 47.0658 138.491 46.0757C138.415 45.9234 138.339 45.7711 138.263 45.6188C134.539 39.2214 130.51 32.4433 125.645 24.2181C123.061 19.8009 120.097 15.1552 116.676 10.9665C116.828 10.8903 116.98 10.738 117.132 10.5857C118.196 9.67177 118.804 8.22475 118.881 6.85389C119.109 4.26448 117.512 1.75124 115.232 0.685013C112.724 -0.53353 109.683 -0.381213 107.555 1.52276C105.807 3.04594 105.123 5.63534 105.655 7.84395C105.959 9.0625 106.719 10.1287 107.631 10.8903C107.175 11.4234 106.795 11.9565 106.415 12.4896C100.258 21.0194 94.9372 30.1585 89.8445 39.0691C88.4003 41.5824 86.9561 44.0956 85.4359 46.6089C85.2078 47.0658 84.9798 47.5228 84.9038 48.0559C84.6758 49.1983 85.1318 50.2645 86.12 50.8738ZM109.911 6.24462C109.911 6.16846 109.911 6.0923 109.987 6.0923C109.987 5.93998 110.063 5.86382 110.139 5.7115C110.139 5.7115 110.139 5.7115 110.139 5.63534C110.215 5.48303 110.291 5.40687 110.367 5.25455C110.367 5.25455 110.443 5.17839 110.443 5.10223L110.519 5.02607V5.10223C110.595 5.02607 110.671 4.94991 110.747 4.87375C110.747 4.87375 110.671 4.94991 110.595 4.94991C110.671 4.94991 110.747 4.87375 110.747 4.7976C110.823 4.72144 110.899 4.72144 110.899 4.72144C110.975 4.64528 111.051 4.64528 111.127 4.56912C111.203 4.56912 111.431 4.49296 111.507 4.4168C111.584 4.4168 111.583 4.4168 111.66 4.4168C111.66 4.4168 111.66 4.4168 111.736 4.4168H111.812C111.888 4.4168 112.04 4.34064 111.812 4.4168C111.964 4.4168 112.192 4.4168 112.268 4.4168C112.344 4.4168 112.42 4.4168 112.42 4.4168C112.42 4.4168 112.42 4.4168 112.496 4.4168H112.572C112.724 4.4168 112.724 4.49296 112.648 4.49296C112.8 4.49296 112.952 4.56912 113.104 4.56912C113.18 4.56912 113.18 4.56912 113.256 4.64528C113.408 4.72144 113.484 4.7976 113.636 4.87375C113.712 4.87375 113.712 4.94991 113.788 4.94991C113.788 4.94991 113.788 4.94991 113.712 4.87375C113.712 4.87375 113.712 4.94991 113.788 4.94991C113.788 4.94991 113.864 4.94991 113.864 5.02607C113.94 5.10223 113.94 5.10223 113.94 5.10223C114.016 5.17839 114.092 5.25455 114.168 5.25455C114.244 5.33071 114.244 5.40687 114.32 5.48303C114.396 5.55918 114.396 5.63534 114.472 5.7115V5.63534C114.472 5.63534 114.472 5.7115 114.548 5.78766C114.624 5.86382 114.624 5.86382 114.624 5.86382C114.624 5.93998 114.7 6.01614 114.7 6.0923C114.7 6.16846 114.7 6.24462 114.7 6.32077C114.7 6.39693 114.7 6.54925 114.7 6.62541C114.7 6.70157 114.7 6.77773 114.624 6.85389C114.624 6.85389 114.624 6.93005 114.548 7.0062C114.548 7.0062 114.548 7.08236 114.472 7.08236L114.396 7.15852C114.396 7.08236 114.472 7.08236 114.472 7.08236L114.396 7.15852C114.396 7.15852 114.396 7.23468 114.32 7.23468C114.32 7.23468 114.32 7.15852 114.396 7.15852C114.396 7.23468 114.32 7.23468 114.32 7.23468C114.168 7.31084 114.092 7.387 113.94 7.46316H113.864C113.788 7.46316 113.636 7.46316 113.56 7.46316C112.952 7.387 112.42 7.69164 111.964 8.14859C111.812 8.14859 111.736 8.14859 111.584 8.22475C111.507 8.22475 111.431 8.22475 111.355 8.14859C111.355 8.14859 111.279 8.14859 111.203 8.07243C111.203 8.07243 111.203 8.07243 111.127 8.07243C111.127 8.07243 110.823 7.92011 110.671 7.84395C110.747 7.92011 110.823 7.99627 110.671 7.92011L110.595 7.84395H110.519L110.443 7.76779C110.443 7.76779 110.443 7.76779 110.367 7.69164C110.367 7.69164 110.367 7.69164 110.367 7.61548C110.367 7.53932 110.291 7.53932 110.291 7.53932C110.291 7.53932 110.291 7.53932 110.367 7.53932C110.291 7.46316 110.215 7.31084 110.139 7.23468C110.139 7.23468 110.139 7.15852 110.063 7.08236C110.063 7.08236 110.063 7.08236 110.063 7.0062C109.987 6.85389 109.987 6.77773 109.987 6.62541C109.987 6.54925 109.987 6.54925 109.987 6.54925C109.911 6.47309 109.911 6.39693 109.911 6.24462Z" fill="white"/>
<path d="M94.1771 90.553C94.1011 90.0961 94.1011 89.6391 94.0251 89.2583C93.9491 87.9636 93.265 87.1259 91.9728 86.8212C91.1367 86.5928 90.5286 86.5166 89.9965 86.5166C87.5642 86.5166 87.4882 89.0299 87.4882 90.0961C87.4121 95.4272 87.4122 100.758 87.4122 106.013C87.4122 107.917 87.4122 109.821 87.4122 111.649H87.2601V117.742C87.2601 123.149 87.2601 128.556 87.2601 133.887C87.2601 134.878 87.2601 136.629 89.0844 137.467C90.0725 137.924 90.9086 138.152 91.6687 138.152C92.4288 138.152 93.0369 137.924 93.493 137.467C94.1771 136.782 94.4811 135.639 94.4811 134.116C94.4811 120.864 94.4051 107.613 94.3291 94.9702C94.4051 93.3709 94.2531 91.9239 94.1771 90.553Z" fill="white"/>
<path d="M136.895 89.7152C136.819 88.649 136.743 86.3642 134.159 86.2881C134.083 86.2881 134.007 86.2881 133.931 86.2881C132.03 86.2881 130.814 87.4305 130.434 89.4868C130.13 91.1623 130.054 92.7616 129.978 94.4371C129.978 105.023 129.902 115.533 129.902 126.119V134.04C129.902 134.421 129.902 134.801 129.978 135.258C130.206 136.934 131.27 137.848 133.018 137.848H133.094C135.907 137.772 137.047 136.705 137.047 133.887C137.047 128.785 137.047 123.758 137.047 118.046V110.659C136.971 108.45 137.047 106.013 137.047 103.5C137.123 99.1589 137.123 94.3609 136.895 89.7152Z" fill="white"/>
<path d="M128.002 47.5986H126.634C123.441 47.5986 120.173 47.5225 116.98 47.5225H115.916C108.011 47.5225 101.474 47.5986 95.3172 47.6748H95.0892C93.873 47.6748 91.6687 47.6748 91.5927 50.0357C91.5927 50.7211 91.7447 51.3304 92.1248 51.7112C92.7329 52.3966 93.721 52.3966 94.6331 52.3966H95.1652C97.8256 52.3966 100.41 52.3966 103.07 52.3966H111.431V52.6251H112.116C113.104 52.6251 114.092 52.6251 115.08 52.6251C116.068 52.6251 117.056 52.6251 118.044 52.6251C119.337 52.6251 120.629 52.6251 121.921 52.6251C123.897 52.6251 125.873 52.549 127.774 52.4728C128.61 52.4728 129.446 52.3966 130.206 52.3966C131.802 52.3205 132.79 51.4827 132.79 50.0357C132.79 48.8172 131.954 47.9794 130.434 47.7509C129.598 47.6748 128.838 47.5986 128.002 47.5986Z" fill="white"/>
<path d="M131.346 84.3072C131.346 83.3171 130.662 82.4794 129.674 82.2509C128.838 82.0224 127.926 81.9463 127.166 81.9463C124.581 81.9463 122.073 81.9463 119.489 81.9463H112.952C112.952 81.9463 109.531 81.9463 108.239 81.9463C106.871 81.9463 105.427 81.9463 104.058 81.9463C101.854 81.9463 99.7258 81.9463 97.5215 81.9463H97.4455C97.2175 81.9463 97.0655 81.9463 96.8374 81.9463C96.6094 81.9463 96.3814 81.9463 96.0773 81.9463C95.3932 81.9463 93.2649 81.9463 93.1129 84.3072C93.1129 85.145 93.2649 85.7542 93.721 86.2112C94.4051 86.8966 95.3932 86.9728 96.2293 86.9728C96.4574 86.9728 96.6854 86.9728 96.8374 86.9728C96.9895 86.9728 97.2175 86.9728 97.3695 86.9728C101.474 86.9728 105.883 87.0489 110.899 87.0489C115.84 87.0489 120.857 87.0489 125.797 87.0489H126.938C127.698 87.0489 128.534 86.8966 129.446 86.6681C130.738 86.3635 131.346 85.4496 131.346 84.3072Z" fill="white"/>
<path d="M109.987 78.7483C110.139 79.8906 110.899 80.6522 112.116 80.7284H112.268C113.484 80.7284 114.396 79.9668 114.472 78.7483C114.776 76.0065 114.624 73.1886 114.092 70.2184C113.864 69.1522 113.256 68.4668 112.42 68.4668C112.344 68.4668 112.344 68.4668 112.268 68.4668C111.279 68.4668 110.595 69.1522 110.443 70.2946C110.215 71.5132 110.139 72.7317 109.987 73.8741C109.911 74.331 109.835 75.1688 109.835 75.1688V75.2449C109.835 75.6257 109.835 76.0827 109.911 76.3873C109.835 77.2251 109.911 77.9867 109.987 78.7483Z" fill="white"/>
<path d="M110.443 5.10254C110.367 5.1787 110.367 5.1787 110.367 5.25486C110.367 5.25486 110.367 5.25486 110.367 5.33102C110.291 5.33102 110.367 5.25486 110.443 5.10254Z" fill="white"/>
<path d="M110.291 7.69188C110.367 7.76804 110.367 7.76804 110.367 7.76804C110.367 7.76804 110.367 7.61573 110.291 7.69188C110.291 7.61573 110.291 7.61573 110.291 7.69188Z" fill="white"/>
<path d="M110.747 4.79784C110.823 4.79784 110.823 4.72168 110.823 4.72168C110.823 4.72168 110.823 4.72168 110.747 4.79784Z" fill="white"/>
<path d="M112.344 4.41699C112.42 4.49315 112.496 4.49315 112.496 4.49315C112.496 4.41699 112.42 4.41699 112.344 4.41699Z" fill="white"/>
<path d="M114.396 5.78807C114.396 5.78807 114.396 5.71191 114.32 5.71191C114.32 5.78807 114.396 5.94039 114.396 5.94039C114.472 5.86423 114.396 5.86423 114.396 5.78807Z" fill="white"/>
<path d="M113.788 5.10251C113.712 5.02635 113.712 5.02635 113.636 4.9502C113.712 5.02635 113.788 5.10251 113.788 5.10251Z" fill="white"/>
</g>
<defs>
<clipPath id="clip0_398_24323">
<rect width="173" height="138" fill="white"/>
</clipPath>
</defs>
</svg>
