<svg width="190" height="174" viewBox="0 0 190 174" fill="none" xmlns="http://www.w3.org/2000/svg">
<g clip-path="url(#clip0_261_3948)">
<path d="M109.236 105.175C109.236 105.175 107.717 122.5 109.236 128.842C110.754 135.185 114.456 145.315 117.398 149.859C120.34 154.403 126.603 160.84 130.495 163.775C134.386 166.71 140.934 169.55 140.744 169.076C140.554 168.603 137.043 153.645 134.67 145.504C132.298 137.362 124.231 123.162 122.807 118.997C121.289 114.831 112.557 104.323 112.557 104.323L109.236 105.175Z" fill="white"/>
<path d="M184.78 102.524C184.78 102.524 175.954 109.151 172.727 113.033C169.5 116.914 160.2 129.694 158.302 135.185C156.404 140.676 153.556 149.574 150.235 155.065C147.008 160.556 145.205 163.775 144.92 164.911C144.635 166.047 139.985 169.739 147.008 168.413C154.126 167.088 160.579 163.775 166.084 158.757C171.588 153.74 177.188 147.776 180.32 141.149C183.452 134.428 186.394 123.351 186.963 117.103C187.532 110.855 186.963 103.282 186.963 103.282L184.78 102.524Z" fill="white"/>
<path d="M131.823 33.8904C131.823 33.8904 124.421 48.8479 123.472 56.6107C122.617 64.2788 119.201 74.6923 123.472 82.3604C127.742 90.0286 131.064 92.0166 136.853 95.898C142.642 99.7794 144.256 102.714 150.994 99.874C157.637 97.034 164.85 92.2059 167.508 85.4845C170.165 78.8577 172.727 76.1123 172.727 66.3615C172.727 56.6107 166.938 35.121 166.938 35.121L162.288 40.6118L150.994 30.293L142.927 40.3278L139.795 43.7358L134.006 35.0264L131.823 33.8904Z" fill="white"/>
<path d="M146.439 100.916C146.913 101.011 147.293 101.106 147.767 101.2C155.36 97.6975 160.674 88.8934 162.667 81.1306C164.376 74.5038 164.376 67.4984 163.427 60.6823C162.952 57.3689 162.383 53.9609 161.528 50.6475C161.339 49.8901 158.586 44.0207 158.586 44.1154C158.397 44.7781 153.841 49.2275 153.651 48.9435L143.117 36.4473L137.612 48.5648L136.189 47.5234C134.67 45.3461 129.545 46.2928 127.363 44.8727C127.268 44.9674 127.268 45.0621 127.173 45.0621C125.654 50.1741 123.187 55.0969 121.858 60.3983C122.048 64.9424 122.428 69.5811 122.807 74.1252C122.902 76.1132 123.092 78.0066 123.282 79.9946C126.414 85.6747 130.02 90.9761 134.291 95.8988C138.087 98.0762 142.073 99.9696 146.439 100.916Z" fill="#FF8080"/>
<path d="M189.715 102.714C189.431 98.9277 187.532 97.7917 184.685 99.6851C178.422 103.85 172.158 108.111 167.887 114.643C162.383 122.973 156.973 131.494 153.556 140.96C152.892 142.664 152.133 144.274 151.374 145.978C150.519 140.487 150.425 135.186 149.096 130.074C147.388 123.352 147.008 116.631 147.103 109.72C147.198 105.933 147.103 102.525 152.323 102.809C152.892 102.809 153.462 102.43 153.936 102.146C166.653 95.2357 174.151 84.6329 175.48 70.1486C176.618 57.5578 174.151 45.5349 169.406 33.8907C168.172 30.956 166.748 31.3347 164.945 32.9441C163.711 34.0801 162.572 35.5001 161.339 36.8255C159.061 33.8907 156.973 31.24 154.411 28.968C151.658 26.5066 149.95 26.6013 147.577 29.4413C144.92 32.6601 142.263 35.9734 139.605 39.2868C137.802 37.4881 136.758 35.5001 135.619 33.6067C134.955 32.3761 134.196 31.0507 132.488 31.0507C130.589 31.0507 129.925 32.3761 129.166 33.7961C124.705 42.8842 121.289 52.351 120.15 62.2912C118.252 78.8581 121.763 93.3423 138.277 101.294C142.073 103.093 142.358 105.081 141.788 108.584C140.554 115.968 141.219 123.352 143.022 130.736C144.635 137.458 145.015 144.274 144.446 151.09C144.161 154.782 144.256 158.663 142.073 162.639C141.029 158.379 140.175 154.687 139.131 151.09C134.386 133.766 127.552 117.483 115.31 103.85C113.506 101.768 111.608 99.3064 108.571 100.442C106.104 101.389 106.294 104.324 106.199 106.691C105.819 112.939 105.534 119.187 106.199 125.435C108.382 144.842 117.303 159.705 134.67 169.171C135.714 169.739 136.853 170.118 137.423 171.254C139.131 174.284 141.598 174.568 144.635 173.621C156.309 169.929 165.704 163.113 173.866 153.93C186.773 139.067 191.234 121.932 189.715 102.714ZM111.419 107.448C125.749 123.163 131.254 142.57 136.094 162.829C118.916 154.687 108.192 131.872 111.419 107.448ZM141.124 95.8984C131.444 91.165 126.508 83.4022 125.844 72.61C125.085 60.9658 128.312 50.2683 132.488 38.7188C136.663 44.5882 139.89 49.795 141.409 55.9484C142.927 62.3858 145.395 68.5393 145.679 75.2607C145.869 79.0474 146.059 82.7395 145.205 86.5262C145.015 87.1889 145.015 87.9462 144.92 88.6089C144.825 90.2183 145.015 91.8276 146.913 92.301C149.001 92.869 150.045 91.449 150.614 89.7449C152.228 84.8222 152.133 79.7101 151.658 74.6927C150.614 63.8059 147.293 53.4871 142.547 43.4522C145.3 40.5175 147.388 36.8255 150.709 33.7961C153.462 35.8788 154.885 39.2868 158.112 40.6122C156.119 43.9256 154.221 47.0496 152.418 50.1737C151.943 51.1203 151.563 52.1617 151.279 53.1084C150.899 54.5284 150.899 56.0431 152.607 56.7058C154.411 57.3684 155.644 56.4218 156.309 54.9071C158.302 50.7417 160.769 46.8603 163.427 43.1682C164.091 42.3162 164.471 41.0855 166.084 40.6122C169.026 49.227 170.26 57.9364 169.785 66.9299C169.216 79.0474 163.711 88.4196 153.651 95.2357C149.381 98.3597 145.395 97.9811 141.124 95.8984ZM147.483 164.817C152.228 156.391 156.119 147.871 159.915 139.256C163.616 130.831 168.457 122.973 173.961 115.589C176.618 112.087 180.035 109.436 183.736 106.975C189.81 123.825 164.186 165.101 147.483 164.817Z" fill="#4B4B4B"/>
<path d="M54.8551 6.53175C54.95 5.30106 54.5704 3.97571 53.3367 2.83969C47.5474 -2.74573 41.2837 1.60901 37.4875 6.91042C32.6473 13.7265 27.0479 19.3119 25.3397 27.8321C23.7263 35.6895 25.0549 43.831 28.0919 51.2151C31.034 58.5992 36.7283 63.7113 43.0869 68.35C44.4156 69.2967 46.8831 69.2967 48.2118 68.35C58.5564 60.7766 66.3387 51.4991 67.6673 38.2456C68.9011 26.4121 64.0609 14.1052 54.8551 6.53175Z" fill="white"/>
<path d="M2.94205 74.5977C2.94205 74.5977 4.55543 93.0579 5.88411 98.6434C7.21278 104.229 11.2937 115.873 15.5644 120.985C19.8352 126.097 31.983 138.12 35.4945 140.865C39.006 143.611 44.1309 145.504 44.1309 145.504C44.1309 145.504 38.4366 125.624 37.6773 123.162C36.9181 120.701 30.1798 108.678 25.6244 100.537C21.0689 92.3006 10.5345 78.763 9.96502 78.195C9.39559 77.627 2.94205 74.5977 2.94205 74.5977Z" fill="white"/>
<path d="M90.6344 69.3916C90.1598 70.1489 84.4655 71.7583 76.4935 79.2371C68.6164 86.7159 63.1119 93.7213 58.9361 100.632C54.6653 107.448 50.8691 114.17 49.4455 120.512C48.022 126.76 48.7812 139.825 48.4965 140.961C48.1169 142.097 61.2138 133.198 64.2507 129.79C67.2877 126.382 77.7273 109.815 80.0999 105.649C82.4725 101.484 89.7802 87.5679 89.8751 84.5385C90.0649 81.5091 91.963 72.705 91.963 72.705L90.6344 69.3916Z" fill="white"/>
<path d="M39.2907 6.2485C39.2907 6.2485 35.3996 10.6032 33.1219 14.7686C30.9391 18.8394 28.3766 20.4487 26.6683 26.6021C24.96 32.8502 24.2008 31.4302 24.6753 38.909C25.1498 46.3878 24.011 45.7251 27.2378 51.4999C30.4645 57.2746 29.041 56.5173 33.2168 61.3453C37.3926 66.1734 38.8162 66.1734 40.999 67.9721C50.8691 76.2082 62.0679 45.4411 62.2577 39.0983C62.6374 29.0635 57.038 13.7273 49.2557 7.10051C46.2188 4.54447 42.992 5.39648 39.2907 6.2485Z" fill="#FF8080"/>
<path d="M89.2108 68.3504C87.4076 69.0131 85.7942 69.9597 84.1808 70.8118C70.7043 78.2905 62.4476 90.3134 55.2348 103.378C53.4316 106.786 51.9131 110.288 49.9201 114.454C49.0659 110.194 48.3067 106.786 47.7373 103.283C46.029 93.7214 45.0799 84.16 47.4525 74.5038C47.8322 73.0838 48.3067 72.0424 49.7303 71.2851C62.9221 64.469 74.2158 47.9021 69.7552 27.7378C67.0979 16.0936 60.2647 7.57345 51.6284 0C51.1538 0 50.6793 0 50.2048 0C49.1608 1.04135 49.3506 1.89336 50.2048 3.02938C52.6723 6.34276 54.95 9.75082 57.4176 13.0642C70.6094 30.9565 67.4775 54.8128 46.5984 66.9304C39.006 62.1969 32.9321 56.1382 29.99 47.5234C26.1938 36.3526 27.997 25.6551 34.1658 15.7149C36.8232 11.4548 39.955 7.38411 42.992 3.31338C43.8461 2.17737 44.5105 1.23069 43.1818 0C42.7073 0 42.2328 0 41.7582 0C37.013 3.88139 32.8372 8.33079 29.5155 13.5375C23.0619 23.8564 20.974 35.2165 24.1059 47.0501C26.953 57.7476 33.8811 65.605 43.4665 71.5691C42.4226 74.9771 41.2837 78.3852 40.9041 82.0773C40.1449 90.7867 41.1888 99.2122 42.8022 107.732C44.4156 116.158 44.985 124.583 44.036 133.198C42.7073 129.695 42.043 125.909 40.4296 122.595C34.0709 109.436 27.5225 96.3721 18.5065 84.728C15.0899 80.3732 11.3886 76.2078 6.64335 73.1785C2.75224 70.7171 -6.30319e-06 72.3264 -0.0949114 76.8705C-0.284722 84.444 1.51848 91.8281 3.22677 99.1175C7.21278 115.495 17.1778 128.275 28.3766 140.203C31.1289 143.044 34.1658 145.694 37.962 147.398C40.5245 148.534 43.3716 149.386 45.7443 147.777C50.3946 144.558 55.1399 141.339 59.031 137.363C74.026 121.838 85.6044 104.135 92.5325 83.4973C93.7662 79.8999 94.4306 76.2078 94.7153 72.4211C95.1898 68.3504 93.1019 66.8357 89.2108 68.3504ZM5.21977 76.8705C21.4485 95.6148 34.4505 116.063 39.1958 140.961C18.5065 124.583 6.45354 103.567 5.21977 76.8705ZM50.4895 136.701C48.1169 117.483 70.2298 81.3199 88.7363 74.5985C87.6923 91.3547 64.5355 127.329 50.4895 136.701Z" fill="#4B4B4B"/>
<path d="M43.0869 9.46633C41.5684 11.1704 42.7073 12.7797 43.4665 14.2944C45.6494 19.0278 47.9271 23.6665 48.8761 28.7786C50.5844 37.9614 49.8252 47.0496 46.6933 55.9484C46.1239 57.6524 45.5545 59.6404 47.8322 60.4925C50.2048 61.3445 50.8691 59.3564 51.4386 57.6524C56.8482 41.5588 54.9501 26.3173 46.3137 11.833C45.6494 10.697 44.985 9.277 43.0869 9.46633Z" fill="#4B4B4B"/>
</g>
<defs>
<clipPath id="clip0_261_3948">
<rect width="190" height="174" fill="white"/>
</clipPath>
</defs>
</svg>
