<svg width="120" height="244" viewBox="0 0 120 244" fill="none" xmlns="http://www.w3.org/2000/svg">
<path d="M114.428 46.3998C113.128 35.9998 111.028 33.6998 107.328 24.9998C103.628 16.2998 99.8282 12.0998 92.7282 8.5998C85.6282 5.0998 70.7282 2.7998 70.7282 2.7998C70.7282 2.7998 57.1282 6.4998 52.5282 9.2998C47.9282 12.1998 44.4282 11.9998 38.8282 19.6998C33.2282 27.3998 33.2282 26.9998 30.0282 36.1998C26.9282 45.3998 23.4282 47.5998 25.9282 56.5998C28.4282 65.5998 29.7282 74.0998 34.9282 82.9998C40.1282 91.8998 41.8282 93.9998 47.0282 98.7998C51.5282 102.9 54.5282 102.7 55.6282 105.7C56.6282 106.9 57.2282 108.4 57.2282 109.8C57.2282 111.8 56.9282 113.8 56.7282 115.8C59.0282 117.6 59.3282 118.3 63.0282 118.8C65.4282 119.2 67.6282 119.9 69.0282 119.4C69.1282 116.9 69.2282 114.3 69.5282 111.8C69.5282 111.5 69.6282 111.2 69.7282 111C69.5282 110 69.7282 109.1 70.8282 108.5C73.5282 107 75.4282 107.9 81.6282 103.3C87.8282 98.6998 95.8282 95.3998 101.028 88.4998C106.228 81.5998 109.228 75.3998 111.728 68.6998C114.228 61.9998 115.728 56.7998 114.428 46.3998Z" fill="white"/>
<path d="M19.7282 75.3998C22.5282 83.3998 27.0282 90.6998 32.9282 96.6998C35.9282 99.6998 39.2282 102.2 42.7282 104.6C44.3282 105.7 45.3282 106.4 46.1282 108.1C45.9282 107.6 46.3282 108.9 46.4282 109.1C46.4282 109.1 46.4282 109.2 46.4282 109.3C46.4282 109.5 46.4282 109.8 46.4282 109.8C46.4282 110 46.4282 110.2 46.4282 110.4C46.4282 110.4 46.4282 110.6 46.4282 110.7C46.3282 110.9 46.2282 111.6 46.1282 111.7C45.7282 113 46.1282 114.8 47.2282 115.8C49.1282 117.5 51.7282 117.8 53.8282 116.2C55.3282 115.1 56.1282 113.4 56.7282 111.7C56.7282 111.6 56.8282 111.5 56.8282 111.5C56.8282 111.5 56.8282 111.4 56.9282 111.4C57.0282 111.3 57.0282 111.2 57.1282 111.1C57.1282 111.1 57.3282 110.8 57.5282 110.6C57.7282 110.4 57.8282 110.3 58.0282 110.1C58.1282 110 58.1282 110 58.1282 110C58.1282 110 58.2282 110 58.3282 109.9C58.5282 109.8 58.7282 109.6 58.9282 109.5C59.4282 109.2 60.0282 108.9 60.6282 108.6C60.7282 108.6 61.4282 108.3 61.3282 108.3C61.4282 108.2 61.6282 108.2 61.7282 108.1C62.3282 107.9 62.9282 107.7 63.5282 107.4C64.8282 106.9 66.0282 106.5 67.3282 106C70.2282 104.8 73.0282 103.5 75.7282 101.8C84.8282 96.2998 92.6282 88.1998 97.4282 78.5998C102.728 67.7998 104.428 55.3998 101.828 43.6998C99.5282 33.1998 93.5282 23.4998 85.1282 16.7998C80.9282 13.4998 76.2282 10.8998 71.1282 9.19976C68.3282 8.29976 65.5282 7.79976 62.6282 7.49976C61.1282 7.39976 59.5282 7.29976 58.0282 7.39976C57.9282 7.39976 57.9282 7.39976 57.8282 7.39976C56.9282 7.09976 56.0282 6.99975 55.0282 7.19975C49.7282 8.29975 44.5282 10.2998 39.6282 12.6998C35.0282 14.9998 30.2282 17.6998 26.9282 21.6998C20.9282 28.8998 18.3282 38.8998 17.1282 48.0998C15.7282 57.4998 16.6282 66.8998 19.7282 75.3998Z" fill="#9EE4FF"/>
<path d="M3.22823 243.7C2.82823 243.7 2.32823 243.6 1.82823 243.4C0.228226 242.7 -0.371773 241.2 0.228227 239.2C0.628227 237.7 1.12823 236.5 1.72823 235.5L2.72823 234C4.42823 231.4 6.12823 228.7 8.02823 226.3C10.3282 223.5 12.4282 220.4 14.4282 217.5C17.9282 212.4 21.5282 207.1 26.4282 202.9C31.0282 199 34.9282 194.3 38.8282 189.8L40.4282 187.9C48.3282 178.7 53.0282 167.9 54.7282 154.8C55.1282 152.1 55.4282 149.4 55.7282 146.8C56.4282 140.6 57.1282 134.2 58.5282 128.1C58.5282 127.9 58.6282 127.7 58.6282 127.4C58.8282 126.3 59.1282 124.8 60.0282 124.1L61.5282 122.9L59.7282 122.3C57.9282 121.7 56.5282 120.8 55.6282 119.6C54.6282 118.2 54.2282 116.4 54.6282 114.4C55.1282 111.9 54.2282 110.6 52.3282 108.9C40.9282 98.7 29.4282 87.3 24.6282 70.4C20.3282 55.2 22.3282 40.1 30.3282 25.4C36.7282 13.8 47.6282 5.7 61.9282 1.9C65.5282 0.9 69.7282 0 73.9282 0C76.4282 0 78.8282 0.3 81.0282 1C87.5282 3 93.3282 6 98.8282 10.2C109.128 18.1 115.628 28.5 118.128 41C119.328 46.9 119.428 53.4 118.428 62.1C117.228 73.8 111.228 84.8 100.228 95.9C93.4282 102.7 84.7282 107.3 75.5282 111.9C73.2282 113 72.1282 114.1 71.9282 116.7C71.6282 120.7 68.9282 123 64.5282 123.1H62.5282L63.7282 124.7C64.5282 125.7 64.2282 127.4 64.1282 128.5C64.1282 128.8 64.0282 129 64.0282 129.3C63.6282 132.7 63.2282 136.1 62.8282 139.5L62.3282 143.5C61.9282 154.1 60.5282 162.8 57.8282 170.9C52.9282 185.6 42.5282 196.6 33.2282 205.9C29.1282 210 24.8282 214.4 21.3282 219.7C19.4282 222.7 17.2282 225.5 15.1282 228.3C11.9282 232.6 8.62823 237 6.02823 241.9C5.42823 243 4.32823 243.7 3.22823 243.7ZM72.3282 6.5C66.5282 6.5 60.5282 8 54.7282 11C39.6282 18.7 31.4282 30.9 29.7282 48.2C28.4282 56.7 30.4282 64.2 32.5282 71.2C36.7282 84.8 46.3282 93.6 56.4282 102.8L58.0282 104.3C61.6282 107.6 61.9282 107.8 60.2282 113C59.9282 113.9 59.4282 115.5 60.7282 116.4C61.6282 117 62.6282 117.3 63.5282 117.3C64.1282 117.3 64.7282 117.2 65.3282 117C66.7282 116.4 66.6282 114.9 66.6282 113.7C66.3282 108.4 66.4282 108.1 71.5282 105.6C79.4282 101.8 88.5282 97.2 95.2282 90.4C106.728 78.8 112.428 66.3 112.428 52.2C112.528 42 110.728 34.6 106.728 28.2C98.3282 14.4 85.7282 6.5 72.3282 6.5Z" fill="#4F4F4F"/>
</svg>
