<svg width="914" height="369" viewBox="0 0 914 369" fill="none" xmlns="http://www.w3.org/2000/svg">
<path d="M846.3 320.42C842.1 307.32 842 301.02 833.2 293.52C824.4 286.02 806.3 274.02 796.9 270.62C787.5 267.22 781.4 263.92 775.1 258.52C770.5 254.62 767.3 248.72 765.9 245.82C784.6 234.12 800.2 218.02 811 198.82C811.1 198.62 811.2 198.42 811.3 198.22C814.4 198.12 817.5 197.42 820.4 196.22C823.5 195.32 826.6 194.22 829.4 192.62C837.8 188.12 842 179.72 842.2 170.42C842.5 158.82 834.3 150.32 822.6 150.52C820.6 150.52 818.6 150.82 816.7 151.22C817.1 130.42 815.3 109.62 811.8 89.12C811 84.52 807.4 80.82 803 78.92C800.7 76.72 798.1 74.72 795.2 73.12C775.2 70.52 755 72.02 734.9 72.32C723.4 72.42 712.1 71.02 700.7 70.72C690.5 70.42 680.4 71.32 670.1 70.82C664.1 76.52 658.3 82.42 653 88.72C648.1 94.52 644 101.02 638.5 106.22C638.6 107.12 638.7 107.92 638.7 108.82C637.8 110.72 637.3 112.92 637.4 115.22C637.7 121.62 637.2 128.52 636.6 134.82C634.6 135.22 632.6 134.72 631.4 133.22C627.8 133.02 624 134.42 619.8 135.92C613.8 138.02 607.4 142.82 606.5 149.02C605.9 150.62 605.7 152.32 605.8 154.22C605.9 155.92 606.2 157.52 606.5 159.02C606.5 159.12 606.4 159.32 606.4 159.42C606.6 159.82 606.7 160.22 606.9 160.72C609.1 168.02 614.1 173.32 620.4 176.82C621.8 177.82 623.3 178.72 624.8 179.42C627.5 180.62 630.3 180.92 632.6 183.02C633.2 183.62 633.8 184.22 634.4 184.92C635.4 185.52 636.2 186.52 636.7 187.92C636.9 188.62 637.1 189.22 637.4 189.92C638.5 192.32 639.4 194.92 640.2 197.42C641.8 201.32 643.7 205.22 645.8 208.92C649.1 214.62 654.1 219.52 656.9 225.42C658 227.62 657.5 229.72 656.4 231.22C656.5 231.32 656.5 231.32 656.6 231.42C648.2 237.82 640 245.42 635.7 255.02C633.9 259.02 632.7 263.52 631.9 268.12C630.2 272.12 628.9 276.32 628 280.62C624.9 282.22 622.3 283.92 620.9 285.62C615.3 292.32 605.6 300.52 603.6 305.62C601.5 310.62 596.4 323.52 594.1 334.52C591.9 345.52 589.9 365.42 589.9 365.42H854.4C854.4 364.92 850.5 333.52 846.3 320.42ZM676.7 249.92C676.2 251.22 675.3 252.32 674.6 253.42C673.9 254.42 673.3 255.52 672.6 256.52C671.5 258.32 670 260.22 667.9 260.82C666 261.32 663.8 260.82 662 260.22C660.3 259.52 658.4 258.52 657.6 256.72C656 252.92 658.3 248.82 660.7 246.02C663.2 243.22 666.5 240.42 670.1 239.32C670.4 239.22 670.7 239.52 670.8 239.82C672.6 241.02 674.6 242.02 676 243.62C677.6 245.42 677.6 247.72 676.7 249.92Z" fill="white"/>
<path d="M841.6 338.019C839.3 325.519 835.6 307.819 827.5 296.519C819.4 285.219 814 280.919 808.2 278.319C802.4 275.719 794 272.819 787.8 268.919C786.3 268.019 784.7 267.119 783.1 266.319C777.7 270.619 771.7 274.019 765.4 276.919C756.2 281.119 746.8 286.119 736.5 286.219C726.1 288.119 712.9 289.219 702.3 286.819C695 285.119 688.2 283.719 682.6 281.919C683.4 284.619 684.3 287.319 684.4 290.119C684.8 297.919 678.9 301.119 672.9 304.119C669.1 306.019 669.9 308.219 669.8 312.019C669.8 315.819 669 319.419 667.6 322.919C665.2 328.819 661.2 336.319 656 340.119C649.9 344.519 643.1 341.519 636.9 339.119C631.4 337.019 625.1 334.819 623.7 328.319C623 325.119 623.9 322.019 624.3 318.919C624.9 314.519 625.2 310.119 625.8 305.819C626.9 297.419 628.1 289.119 628.5 280.619C623.4 283.319 619.8 285.619 616.6 288.519C610.9 293.719 608.5 293.419 603.3 304.019C598.1 314.619 591.4 335.419 590.9 342.619C590.5 349.819 590.2 365.019 590.2 365.019H845.7C845.6 364.819 844 350.519 841.6 338.019Z" fill="#CCCCCC"/>
<path d="M859.2 357.22C857.2 340.42 854.8 321.52 846 304.62C834 281.62 812.2 272.32 790.9 264.62C790.4 264.42 789.9 264.32 789.4 264.32C788.4 264.32 787.7 264.72 787.2 265.52C786.3 266.92 786.6 268.32 788.1 269.72C789.6 271.12 791.2 272.22 792.9 273.02C795.8 274.42 798.8 275.82 801.7 277.12C803.1 277.72 804.5 278.42 806 279.02C827.2 288.82 840 303.62 845 324.22C847.8 335.72 850.7 347.52 851.1 359.72C851.2 361.52 851.7 365.72 855.3 365.72C855.4 365.72 855.5 365.72 855.7 365.72C858.8 365.52 859.4 362.72 859.4 357.72L859.2 357.22Z" fill="#6F6F6F"/>
<path d="M775.2 268.92C771.1 272.42 766.3 274.02 761.4 275.82C735.1 285.72 709.6 285.92 684.9 275.62C684.2 272.42 683.2 269.32 681 266.42C679.3 264.12 677.6 262.32 675.5 260.82C679.4 256.62 682.9 250.82 683.9 246.22C681.5 245.32 679.3 244.02 677.3 242.62C674.6 248.22 670.9 253.12 666.5 257.42C664.9 257.12 663.3 256.92 661.7 256.62C661.4 250.52 662.9 245.82 670.1 243.42C673.4 242.32 676.1 240.12 677.9 237.22C680.2 233.52 678.5 230.12 676.3 227.22C674.3 224.62 671.3 222.92 667 224.02C652.8 227.92 643.8 237.12 636.6 247.22C630.9 255.22 628.9 264.72 627.1 273.92C626.9 274.92 626.6 276.02 626.4 277.12C615.6 283.52 606 292.02 599.3 304.72C590.5 321.62 588.1 340.62 586.1 357.32L586 357.82C586 362.92 586.6 365.72 589.7 365.92C589.8 365.92 589.9 365.92 590.1 365.92C593.7 365.92 594.2 361.72 594.3 359.92C594.7 347.72 597.6 335.92 600.4 324.42C604.2 309.02 612.3 296.82 625 287.62C625.1 294.52 622.6 301.02 621.8 307.72C621.3 311.92 621.8 316.52 620 320.82C619.8 322.92 619.5 325.02 619.4 327.02C619.3 326.92 619.3 326.92 619.2 326.82C618.6 326.32 617.9 326.02 617.1 326.02C616 326.02 614.9 326.52 614.3 327.42C613.9 328.02 613.7 328.62 613.8 329.32C610.5 334.22 607.9 339.72 605.3 344.92L605.2 345.02C603.9 347.72 602.6 350.52 601.2 353.62C600.9 354.32 600.5 355.12 600.2 355.92C599.1 358.22 598 360.62 597.4 363.12C597.1 364.22 597.3 365.22 598 366.12C598.7 367.02 599.8 367.62 601 367.62C602.3 367.62 603.3 366.92 604 365.82C605 364.02 605.8 362.02 606.5 360.12C606.9 359.12 607.3 358.02 607.7 357.02C608.9 354.22 610.2 351.32 611.7 348.22C612.9 345.62 614.2 343.12 615.5 340.62C616.5 338.72 617.5 336.72 618.4 334.82C619.8 335.92 621.5 336.82 623.4 337.72C627 339.32 630.9 340.72 635 341.82C642 343.72 649 344.82 656.7 345.92C656.6 347.32 656.6 348.82 656.6 350.22C656.6 351.22 656.6 352.32 656.5 353.32C656.4 356.82 656.2 360.42 655.9 363.92C655.8 364.82 656.2 365.72 656.8 366.42C657.5 367.22 658.6 367.62 659.6 367.62C661.6 367.62 663.1 366.12 663.3 364.02C663.6 360.32 663.7 356.72 663.7 353.32V352.72C663.7 349.92 663.6 347.02 663.2 344.22C663.3 344.02 663.3 343.92 663.4 343.72C663.7 342.72 663.5 341.52 662.9 340.62C662.8 340.42 662.6 340.22 662.4 340.02C662.6 339.82 662.8 339.62 663.1 339.32C663.2 338.62 663.5 337.82 664.1 337.12C671.4 328.32 674.9 318.52 674.1 307.82C686.7 303.22 692.1 297.22 687.8 286.12C699.2 289.92 710.8 292.52 722.4 291.82C739.6 291.82 754.7 288.82 769.3 282.62C773.6 280.82 777.5 278.42 780.4 274.62C781.8 272.82 783.1 270.92 781.2 268.62C779 266.02 776.9 267.52 775.2 268.92ZM678.5 298.02C676.8 299.12 675 300.12 672.9 301.42C671 299.82 669.4 298.72 672.2 297.12C673.6 296.32 674.8 295.22 673.9 293.62C673 292.22 671.4 292.02 669.7 292.12C668.4 292.22 667.2 292.22 665.9 292.42C662.3 292.92 660.9 294.32 662.6 297.52C669 309.82 667.4 321.32 657.2 331.72C656 332.92 655.1 334.22 653.9 335.42C653.4 335.92 652.9 336.32 652.4 336.52C652.2 336.82 652 337.22 651.8 337.52C647.3 336.82 642.7 335.92 638.3 334.82C634.9 333.92 631.4 333.02 628.1 331.62C628.2 330.72 628.3 329.82 628.4 328.92C627.8 327.72 627.5 326.32 627.7 324.32C628.6 314.82 629.8 305.32 631.5 295.92C633.9 282.62 634.7 268.92 640.1 256.02C644.4 245.62 652.7 237.82 662.9 231.52C665.5 229.92 666.2 230.02 670.7 229.92C673.7 233.82 670.5 236.22 667.1 237.62C659.1 241.02 654.7 246.22 653.9 253.82C653.7 256.42 652.5 257.82 649.2 257.72C646.2 257.72 643.7 259.22 641.5 260.82C640.2 261.72 639.1 263.02 640.3 264.42C641.3 265.72 642.9 265.32 644.2 264.72C648.5 262.62 653.3 263.22 657.8 262.42C662 261.72 665.5 262.82 670 265.52C663.7 264.92 659 266.72 654.1 267.32C653.1 267.42 651.9 267.32 651 267.82C648.5 269.02 643.6 269.32 644.5 272.32C645.7 276.12 649.6 273.12 652.3 272.82C661 271.92 669.7 269.82 678.5 273.92C679 276.32 677.4 276.82 674.9 276.12C668.8 274.62 662.9 276.82 656.8 276.72C656 276.72 655 277.12 654.3 277.52C652 278.52 648.3 279.02 649.4 282.12C650.6 285.42 654 283.72 656.3 283.22C661.6 282.02 667 282.42 672.3 282.22C675.2 282.12 679.1 283.52 679.6 286.12C680.6 290.22 683.6 294.62 678.5 298.02Z" fill="#6F6F6F"/>
<path d="M769.9 244.02C767.8 245.72 765.5 247.02 763 248.12C765.2 255.52 770.5 261.12 777.2 265.62C779.1 266.92 781.2 266.42 782.6 264.52C784 262.52 783.5 260.52 781.9 259.02C777 254.72 772.7 249.92 769.9 244.02Z" fill="#6F6F6F"/>
<path d="M722.9 174.92C723.5 174.42 724 173.82 724.2 172.92C724.3 172.12 724.2 171.22 723.7 170.52C722.7 169.22 720.8 168.72 719.4 169.72C716.8 171.72 713.3 174.42 713.8 178.12C714.3 181.92 718.2 183.72 721.5 184.62C722.2 184.82 723.2 184.52 723.9 184.12C724.5 183.72 725.1 182.92 725.2 182.12C725.5 180.32 724.4 178.92 722.8 178.52C722.7 178.52 722.6 178.42 722.5 178.42C721.7 178.12 721 177.82 720.3 177.42L720.2 177.32C720.4 177.02 720.7 176.72 721 176.42C721.6 176.02 722.3 175.42 722.9 174.92Z" fill="#6F6F6F"/>
<path d="M761.7 159.02L760.3 162.12V162.32C760.7 167.42 763.6 170.72 768 171.12C770.2 171.32 772.7 170.72 774.9 169.42L775.1 169.32L775.2 169.12C777.9 165.22 777.5 162.32 776.7 160.62C775.5 158.12 772.7 156.42 769.3 156.12C766.2 155.82 763.3 156.92 761.6 158.92L761.7 159.02Z" fill="#6F6F6F"/>
<path d="M682.9 148.52C679.8 148.22 676.9 149.32 675.2 151.32L675.1 151.42L673.7 154.52V154.72C674.1 159.82 677 163.12 681.4 163.52C683.6 163.72 686.1 163.12 688.3 161.82L688.5 161.72L688.6 161.52C691.3 157.62 690.9 154.72 690.1 153.02C689.1 150.52 686.3 148.82 682.9 148.52Z" fill="#6F6F6F"/>
<path d="M694.101 130.92C695.701 127.12 692.401 125.42 689.601 124.02C688.301 123.42 686.801 123.12 686.501 123.02C681.601 122.42 678.101 123.22 675.101 125.72C673.401 127.12 672.601 129.02 673.801 131.12C674.901 133.02 676.701 133.22 678.601 132.42C681.201 131.42 683.901 130.82 686.601 132.12C689.501 133.52 692.601 134.52 694.101 130.92Z" fill="#6F6F6F"/>
<path d="M710.4 214.02C710.3 214.92 710.2 215.82 710.2 216.72C712.1 222.72 717.8 226.12 724.1 224.82C727.4 224.12 729.6 222.02 730.8 218.92C732 215.92 730.4 213.72 728.6 211.72C724.8 207.42 718.4 206.72 713.5 209.82C711.7 210.82 711.1 212.42 710.4 214.02ZM716.1 216.12C716.4 213.62 718.6 213.42 720.7 213.42C721.2 213.42 721.8 213.62 722.2 213.82C723.8 214.62 725.4 215.72 725 217.62C724.5 219.52 722.6 219.72 720.3 219.42C720.4 219.42 720 219.42 719.7 219.32C718.2 218.62 715.8 218.62 716.1 216.12Z" fill="#6F6F6F"/>
<path d="M769.301 139.919C772.201 139.119 774.701 140.219 777.101 141.719C778.801 142.819 780.701 142.92 782.101 141.32C783.601 139.52 783.201 137.52 781.801 135.82C779.401 132.82 776.001 131.42 771.101 131.02C770.701 131.02 769.201 131.019 767.801 131.419C764.801 132.319 761.201 133.319 762.101 137.419C763.001 141.219 766.301 140.819 769.301 139.919Z" fill="#6F6F6F"/>
<path d="M837.2 152.32C837.7 151.82 838 151.22 838.3 150.52C839 149.42 839.3 148.32 839.4 147.02V146.92C839.5 146.72 839.5 146.42 839.6 146.22C841.5 133.72 844.2 121.42 844 108.52C843.7 85.3198 838.2 64.0197 824 45.2197C820 39.9197 815.7 35.6197 811 32.2197C799 21.4197 783.4 14.6197 766.9 14.2197C757.6 5.91973 745.2 1.11973 732.7 0.219729C720.4 -0.68027 705 1.11977 692.6 6.81977C682 9.51977 671.8 14.1198 661.7 20.5198C656.8 23.7198 651.6 25.2198 646 26.1198C644 26.5198 641.9 26.4198 639.9 26.5198C638 26.6198 636 26.9198 635.6 29.3198C635.2 31.4198 637 32.0198 638.4 33.0198C640.8 34.7198 643.6 34.8198 647.4 35.6198C631.6 49.3198 621.8 65.0197 618.2 85.2197C615.8 98.8197 615.6 112.22 615.2 125.82C615.2 126.72 615.2 127.52 615.4 128.32C615.5 129.02 615.6 129.72 615.9 130.32C616.1 131.32 616.6 132.32 617.3 133.12C608.7 135.92 602.4 144.22 602.8 154.32C603.4 169.72 614.1 182.32 629.6 185.32C632.7 185.92 633.8 187.12 634.5 190.02C637.6 202.42 643 213.82 650.6 224.02C652.7 226.82 654.9 229.32 657.3 231.72C658.9 230.62 660.6 229.62 662.3 228.72C663.2 228.22 664.2 227.72 665.3 227.32C660.2 222.82 655.7 217.52 652.2 211.12C647.2 202.02 643.9 192.42 640.6 182.72C639.7 180.02 638.9 177.32 634.8 177.12C621.8 176.82 611.7 166.82 611 153.92C610.4 143.12 620.1 136.02 630 139.72C631.9 142.32 633.1 145.32 633 147.72C632.9 150.92 632.9 154.12 636.8 154.52C640.9 154.92 642.1 151.72 642.4 148.32C643.8 134.92 645.3 121.62 646.4 108.22C646.6 105.32 647.5 103.42 649.9 101.82C659.5 95.5198 667.3 87.2197 674.9 78.7197C676.7 76.7197 678 74.1198 681.4 72.5198C679.2 81.4198 675.9 89.2198 671.4 96.5198C669.9 98.9198 668.1 101.42 670 104.22C672.1 107.22 675.2 106.42 678.2 105.62C691.7 102.12 702.4 94.2198 711.6 84.0198C712.9 82.6198 713.6 80.6198 716.1 80.1198C716.7 86.2197 714.7 91.5198 713.1 96.8198C712.3 99.6198 711.1 102.82 713.7 105.22C716.5 107.82 719.7 106.52 722.7 105.32C723.9 104.82 725.1 104.22 726.3 103.72C735.7 99.6197 744 93.6197 752 86.2197C752.1 87.9197 752.3 88.8197 752.2 89.6198C751.6 93.1198 751.1 96.6198 750.3 100.02C749 105.92 751.9 109.02 757.9 107.92C764.1 106.82 769.4 103.72 774.6 100.32C781.2 95.8198 787.3 90.8198 792.8 84.8198C794.2 94.2198 796.5 103.42 799.6 112.52C802.1 119.72 805.5 126.62 810.4 132.12C810.5 140.62 810.1 149.22 809.2 157.82C808.9 160.62 808.3 163.32 809.2 166.12C809.9 168.32 811.4 169.62 813.7 169.72C813.9 169.72 814.1 169.72 814.2 169.72C814.3 169.62 814.4 169.62 814.5 169.52C814.9 169.22 815.2 168.92 815.5 168.62C816.9 164.32 819.3 160.22 822.1 157.12C822.4 156.72 822.8 156.52 823.1 156.22C831.6 154.82 839.8 161.02 839.9 169.32C840.1 182.22 825.5 194.82 812.6 192.42C808.8 191.72 807.1 193.02 805.5 195.82C803.4 199.62 801.5 203.62 799.2 207.42C791.7 220.22 782.8 231.72 769.1 238.62C754.2 246.12 738.2 250.02 722.2 254.12C718.6 255.02 715.3 254.72 712 253.22C702.6 248.72 692.9 244.72 683.7 239.62C682.1 238.72 677.1 235.62 675.6 234.72C675.3 235.42 675.1 237.02 674.3 237.32C672.1 238.42 672.9 240.62 670.8 241.92C677.2 246.02 684.2 249.52 691.2 252.82C719.3 265.92 712.9 264.82 743 257.42C773.9 249.82 797.6 233.72 810.3 203.72C811.5 200.92 813.4 201.32 815.6 201.12C831.7 199.42 846.2 190.82 847.6 172.32C848.7 164.12 843.9 156.32 837.2 152.32Z" fill="#6F6F6F"/>
<path d="M912.6 107.42C912.6 107.32 912.6 107.22 912.6 107.12C912.6 106.92 912.6 106.82 912.6 106.62C914 100.32 912.2 94.9196 907.1 90.6196C904.4 88.3196 901.3 86.6196 897.8 85.5196C895.4 84.7196 892.7 84.2196 889.8 84.0196C882.3 83.4196 876.2 86.3196 871.5 92.6196C870.7 93.7196 870.4 94.8196 870.6 95.8196C870.8 96.8196 871.5 97.7196 872.6 98.5196C873.2 98.9196 873.8 99.2196 874.3 99.3196C876.1 99.9196 877.6 99.2196 879.1 97.3196C882.2 93.3196 886 91.5196 890.8 91.8196C892.1 91.9196 893.4 92.2196 894.8 92.6196C895.5 92.8196 896.3 93.1196 897.1 93.5196C899.5 94.6196 901.3 96.0196 902.7 97.8196C904.2 99.9196 904.6 102.72 903.9 105.52C903.1 108.32 901.3 110.42 898.7 111.62C896.7 112.52 894.5 113.22 892.5 113.82C891.1 114.22 889.6 114.72 888.2 115.22C884.2 116.72 881.4 118.82 879.6 121.72C878 124.32 877.1 127.22 876.4 129.62C875.8 131.72 876.9 133.42 879.4 134.22C881.7 134.92 883.5 134.22 884.3 132.12C884.6 131.32 884.9 130.52 885.1 129.72C886.1 125.92 888.5 123.32 892.5 122.02C893.6 121.62 894.7 121.32 895.7 120.92C897.1 120.42 898.5 120.02 899.9 119.52C903.9 118.12 908.4 116.02 910.9 111.32C911.1 111.02 911.2 110.72 911.3 110.42C911.5 109.92 911.7 109.52 912 109.12L912.1 109.02L912.6 107.42Z" fill="#6F6F6F"/>
<path d="M877.4 139.72C877 139.62 876.6 139.52 876.2 139.52C873.6 139.32 871.5 141.12 871.1 143.82C870.9 145.72 871.6 147.22 873.4 148.62L875.1 149.12H875.2C875.3 149.12 875.3 149.12 875.4 149.12C875.5 149.12 875.6 149.12 875.7 149.12C878.5 149.22 880.5 147.32 880.7 144.42C880.8 142.32 879.5 140.42 877.4 139.72Z" fill="#6F6F6F"/>
<path d="M162.114 243.728H135.817V289H90.8438V243.728H0.597656V211.604L93.3838 70.5566H135.817V207.868H162.114V243.728ZM90.8438 207.868V170.813C90.8438 169.519 90.8438 167.676 90.8438 165.285C90.9434 162.795 91.043 160.006 91.1426 156.918C91.2422 153.83 91.3418 150.643 91.4414 147.355C91.6406 144.068 91.79 140.931 91.8896 137.942C92.0889 134.954 92.2383 132.364 92.3379 130.173C92.5371 127.882 92.6865 126.238 92.7861 125.242H91.4414C89.6484 129.426 87.6064 133.858 85.3154 138.54C83.124 143.222 80.584 147.903 77.6953 152.585L41.2383 207.868H90.8438Z" fill="#909090"/>
<path d="M327.665 179.778C327.665 197.409 326.271 213.147 323.481 226.993C320.792 240.839 316.409 252.593 310.333 262.255C304.356 271.917 296.587 279.288 287.024 284.368C277.562 289.448 266.106 291.988 252.659 291.988C240.009 291.988 229.002 289.448 219.639 284.368C210.275 279.288 202.506 271.917 196.33 262.255C190.154 252.593 185.522 240.839 182.435 226.993C179.446 213.147 177.952 197.409 177.952 179.778C177.952 162.147 179.297 146.359 181.986 132.414C184.775 118.469 189.158 106.665 195.135 97.0029C201.111 87.3408 208.831 79.9697 218.294 74.8896C227.757 69.71 239.212 67.1201 252.659 67.1201C265.21 67.1201 276.167 69.6602 285.53 74.7402C294.894 79.8203 302.713 87.1914 308.988 96.8535C315.264 106.516 319.945 118.319 323.033 132.265C326.121 146.21 327.665 162.048 327.665 179.778ZM223.972 179.778C223.972 204.681 226.113 223.407 230.396 235.958C234.68 248.509 242.101 254.784 252.659 254.784C263.019 254.784 270.439 248.559 274.922 236.107C279.504 223.656 281.795 204.88 281.795 179.778C281.795 154.776 279.504 136 274.922 123.449C270.439 110.799 263.019 104.474 252.659 104.474C247.38 104.474 242.897 106.067 239.212 109.255C235.626 112.442 232.688 117.174 230.396 123.449C228.105 129.725 226.462 137.594 225.466 147.057C224.47 156.42 223.972 167.327 223.972 179.778Z" fill="#909090"/>
<path d="M499.192 243.728H472.896V289H427.922V243.728H337.676V211.604L430.462 70.5566H472.896V207.868H499.192V243.728ZM427.922 207.868V170.813C427.922 169.519 427.922 167.676 427.922 165.285C428.021 162.795 428.121 160.006 428.221 156.918C428.32 153.83 428.42 150.643 428.52 147.355C428.719 144.068 428.868 140.931 428.968 137.942C429.167 134.954 429.316 132.364 429.416 130.173C429.615 127.882 429.765 126.238 429.864 125.242H428.52C426.727 129.426 424.685 133.858 422.394 138.54C420.202 143.222 417.662 147.903 414.773 152.585L378.316 207.868H427.922Z" fill="#909090"/>
<path d="M22.815 327.302C28.135 327.302 32.011 328.385 34.443 330.551C36.875 332.679 38.091 335.662 38.091 339.5C38.091 341.21 37.806 342.844 37.236 344.402C36.704 345.96 35.811 347.366 34.557 348.62C33.303 349.836 31.631 350.805 29.541 351.527C27.489 352.211 24.962 352.553 21.96 352.553H17.571V368H11.415V327.302H22.815ZM22.359 332.489H17.571V347.366H21.276C23.594 347.366 25.532 347.119 27.09 346.625C28.648 346.093 29.807 345.276 30.567 344.174C31.365 343.034 31.764 341.552 31.764 339.728C31.764 337.296 31.004 335.491 29.484 334.313C28.002 333.097 25.627 332.489 22.359 332.489Z" fill="#909090"/>
<path d="M68.8425 368L64.5105 356.258H48.7785L44.4465 368H38.0625L53.5095 327.131H59.8935L75.2835 368H68.8425ZM58.6965 339.443C58.5825 339.025 58.3735 338.398 58.0695 337.562C57.8035 336.688 57.5375 335.814 57.2715 334.94C57.0055 334.028 56.7965 333.287 56.6445 332.717C56.4545 333.477 56.2265 334.313 55.9605 335.225C55.7325 336.099 55.5045 336.916 55.2765 337.676C55.0485 338.398 54.8585 338.987 54.7065 339.443L50.6025 350.9H62.8005L58.6965 339.443Z" fill="#909090"/>
<path d="M96.6451 346.112H111.351V366.404C109.185 367.126 106.962 367.658 104.682 368C102.44 368.38 99.8751 368.57 96.9871 368.57C92.8451 368.57 89.3301 367.734 86.4421 366.062C83.5921 364.39 81.4071 361.996 79.8871 358.88C78.4051 355.764 77.6641 352.021 77.6641 347.651C77.6641 343.395 78.5001 339.709 80.1721 336.593C81.8441 333.477 84.2381 331.064 87.3541 329.354C90.5081 327.606 94.3271 326.732 98.8111 326.732C101.053 326.732 103.2 326.96 105.252 327.416C107.304 327.834 109.204 328.423 110.952 329.183L108.729 334.313C107.323 333.667 105.746 333.135 103.998 332.717C102.288 332.261 100.483 332.033 98.5831 332.033C95.5811 332.033 92.9781 332.679 90.7741 333.971C88.6081 335.225 86.9361 337.03 85.7581 339.386C84.6181 341.704 84.0481 344.478 84.0481 347.708C84.0481 350.748 84.5231 353.446 85.4731 355.802C86.4231 358.158 87.9241 360.001 89.9761 361.331C92.0281 362.661 94.7071 363.326 98.0131 363.326C99.1151 363.326 100.084 363.288 100.92 363.212C101.756 363.098 102.516 362.984 103.2 362.87C103.922 362.718 104.606 362.585 105.252 362.471V351.413H96.6451V346.112Z" fill="#909090"/>
<path d="M143.987 368H121.073V327.302H143.987V332.546H127.229V344.174H142.961V349.361H127.229V362.699H143.987V368Z" fill="#909090"/>
<path d="M201.01 368H193.543L172.966 335.111H172.738C172.776 335.871 172.814 336.688 172.852 337.562C172.928 338.436 172.985 339.367 173.023 340.355C173.061 341.305 173.099 342.293 173.137 343.319C173.175 344.307 173.194 345.314 173.194 346.34V368H167.608V327.302H175.018L195.538 360.02H195.709C195.671 359.45 195.633 358.747 195.595 357.911C195.557 357.037 195.519 356.106 195.481 355.118C195.481 354.13 195.462 353.123 195.424 352.097C195.386 351.071 195.348 350.102 195.31 349.19V327.302H201.01V368Z" fill="#909090"/>
<path d="M247.771 347.594C247.771 350.748 247.372 353.617 246.574 356.201C245.814 358.747 244.636 360.951 243.04 362.813C241.482 364.675 239.506 366.1 237.112 367.088C234.756 368.076 232.001 368.57 228.847 368.57C225.617 368.57 222.805 368.076 220.411 367.088C218.055 366.062 216.079 364.637 214.483 362.813C212.925 360.951 211.766 358.728 211.006 356.144C210.246 353.56 209.866 350.691 209.866 347.537C209.866 343.357 210.55 339.709 211.918 336.593C213.286 333.477 215.376 331.045 218.188 329.297C221.038 327.549 224.61 326.675 228.904 326.675C233.084 326.675 236.561 327.549 239.335 329.297C242.147 331.007 244.256 333.439 245.662 336.593C247.068 339.709 247.771 343.376 247.771 347.594ZM216.364 347.594C216.364 350.862 216.801 353.674 217.675 356.03C218.549 358.348 219.917 360.153 221.779 361.445C223.641 362.699 225.997 363.326 228.847 363.326C231.735 363.326 234.091 362.699 235.915 361.445C237.739 360.153 239.088 358.348 239.962 356.03C240.836 353.674 241.273 350.862 241.273 347.594C241.273 342.692 240.285 338.873 238.309 336.137C236.371 333.363 233.236 331.976 228.904 331.976C226.016 331.976 223.641 332.603 221.779 333.857C219.917 335.111 218.549 336.897 217.675 339.215C216.801 341.533 216.364 344.326 216.364 347.594Z" fill="#909090"/>
<path d="M268.57 368H262.414V332.603H250.216V327.302H280.768V332.603H268.57V368Z" fill="#909090"/>
<path d="M307.913 368H301.814V327.302H324.728V332.546H307.913V345.827H323.645V351.071H307.913V368Z" fill="#909090"/>
<path d="M367.839 347.594C367.839 350.748 367.44 353.617 366.642 356.201C365.882 358.747 364.704 360.951 363.108 362.813C361.55 364.675 359.574 366.1 357.18 367.088C354.824 368.076 352.069 368.57 348.915 368.57C345.685 368.57 342.873 368.076 340.479 367.088C338.123 366.062 336.147 364.637 334.551 362.813C332.993 360.951 331.834 358.728 331.074 356.144C330.314 353.56 329.934 350.691 329.934 347.537C329.934 343.357 330.618 339.709 331.986 336.593C333.354 333.477 335.444 331.045 338.256 329.297C341.106 327.549 344.678 326.675 348.972 326.675C353.152 326.675 356.629 327.549 359.403 329.297C362.215 331.007 364.324 333.439 365.73 336.593C367.136 339.709 367.839 343.376 367.839 347.594ZM336.432 347.594C336.432 350.862 336.869 353.674 337.743 356.03C338.617 358.348 339.985 360.153 341.847 361.445C343.709 362.699 346.065 363.326 348.915 363.326C351.803 363.326 354.159 362.699 355.983 361.445C357.807 360.153 359.156 358.348 360.03 356.03C360.904 353.674 361.341 350.862 361.341 347.594C361.341 342.692 360.353 338.873 358.377 336.137C356.439 333.363 353.304 331.976 348.972 331.976C346.084 331.976 343.709 332.603 341.847 333.857C339.985 335.111 338.617 336.897 337.743 339.215C336.869 341.533 336.432 344.326 336.432 347.594Z" fill="#909090"/>
<path d="M408.261 353.636C408.261 356.448 407.672 358.994 406.494 361.274C405.354 363.516 403.587 365.302 401.193 366.632C398.799 367.924 395.778 368.57 392.13 368.57C386.962 368.57 383.029 367.202 380.331 364.466C377.671 361.692 376.341 358.044 376.341 353.522V327.302H382.497V353.237C382.497 356.581 383.314 359.108 384.948 360.818C386.582 362.49 389.071 363.326 392.415 363.326C394.695 363.326 396.557 362.908 398.001 362.072C399.445 361.236 400.49 360.077 401.136 358.595C401.82 357.075 402.162 355.27 402.162 353.18V327.302H408.261V353.636Z" fill="#909090"/>
<path d="M452.167 368H444.7L424.123 335.111H423.895C423.933 335.871 423.971 336.688 424.009 337.562C424.085 338.436 424.142 339.367 424.18 340.355C424.218 341.305 424.256 342.293 424.294 343.319C424.332 344.307 424.351 345.314 424.351 346.34V368H418.765V327.302H426.175L446.695 360.02H446.866C446.828 359.45 446.79 358.747 446.752 357.911C446.714 357.037 446.676 356.106 446.638 355.118C446.638 354.13 446.619 353.123 446.581 352.097C446.543 351.071 446.505 350.102 446.467 349.19V327.302H452.167V368Z" fill="#909090"/>
<path d="M495.964 347.252C495.964 351.812 495.109 355.631 493.399 358.709C491.689 361.787 489.219 364.105 485.989 365.663C482.797 367.221 478.94 368 474.418 368H463.018V327.302H475.615C479.757 327.302 483.348 328.062 486.388 329.582C489.428 331.102 491.784 333.344 493.456 336.308C495.128 339.234 495.964 342.882 495.964 347.252ZM489.523 347.423C489.523 344.003 488.972 341.191 487.87 338.987C486.768 336.783 485.134 335.149 482.968 334.085C480.84 333.021 478.256 332.489 475.216 332.489H469.174V362.813H474.133C479.263 362.813 483.101 361.521 485.647 358.937C488.231 356.353 489.523 352.515 489.523 347.423Z" fill="#909090"/>
</svg>
