<svg width="278" height="139" viewBox="0 0 278 139" fill="none" xmlns="http://www.w3.org/2000/svg">
<path d="M48.9788 3.51562C48.5788 3.51562 38.7788 5.17083 33.0788 10.5501C27.2788 15.9293 22.6788 17.1707 19.3788 24.1016C16.1788 31.0326 2.57877 64.7564 2.57877 64.7564L2.87878 82.032C2.87878 82.032 1.57877 109.342 2.57877 111.101C3.57877 112.963 4.37877 114.204 7.07877 115.756C9.77877 117.204 40.7788 115.756 40.7788 115.756C40.7788 115.756 47.3788 100.549 53.5788 96.3077C59.7788 92.0664 72.0788 91.3422 74.3788 92.3767C76.5788 93.4111 81.5788 97.2387 84.0788 100.135C86.5788 103.032 87.5788 110.066 88.5788 113.583C89.5788 117.101 89.2788 117.204 90.9788 117.825C92.6788 118.445 173.679 117.825 173.679 117.825C173.679 117.825 179.479 117.1 180.579 115.238C181.679 113.376 184.479 103.239 186.379 100.032C188.179 96.8249 191.079 96.1007 195.479 94.0318C199.879 91.9629 203.479 91.1353 207.879 91.4456C212.279 91.756 218.479 92.894 221.079 95.2732C223.579 97.6525 226.479 98.7904 228.579 103.135C230.679 107.48 230.979 109.239 231.379 112.963C231.779 116.583 231.679 117.825 234.779 118.342C237.879 118.963 239.879 118.652 244.979 118.549C250.079 118.342 272.179 117.928 272.179 117.928L275.279 107.583L271.579 68.7907L263.979 19.3431L256.679 9.3087C256.679 9.3087 249.379 3.82602 244.779 3.82602C240.179 3.82602 109.979 3.82602 109.979 3.82602H48.9788V3.51562Z" fill="white"/>
<path d="M65.3788 138.721C76.0931 138.721 84.7787 129.828 84.7787 118.859C84.7787 107.889 76.0931 98.9971 65.3788 98.9971C54.6644 98.9971 45.9788 107.889 45.9788 118.859C45.9788 129.828 54.6644 138.721 65.3788 138.721Z" fill="#4F4F4F"/>
<path d="M64.9786 128.479C70.1701 128.479 74.3786 124.172 74.3786 118.859C74.3786 113.545 70.1701 109.238 64.9786 109.238C59.7872 109.238 55.5786 113.545 55.5786 118.859C55.5786 124.172 59.7872 128.479 64.9786 128.479Z" fill="#DCE5EC"/>
<path d="M205.779 136.858C216.493 136.858 225.179 127.966 225.179 116.997C225.179 106.027 216.493 97.1348 205.779 97.1348C195.064 97.1348 186.379 106.027 186.379 116.997C186.379 127.966 195.064 136.858 205.779 136.858Z" fill="#4F4F4F"/>
<path d="M205.379 126.617C210.57 126.617 214.779 122.31 214.779 116.997C214.779 111.683 210.57 107.376 205.379 107.376C200.187 107.376 195.979 111.683 195.979 116.997C195.979 122.31 200.187 126.617 205.379 126.617Z" fill="#DCE5EC"/>
<path d="M252.579 104.79C251.979 104.79 251.579 104.066 251.479 103.549C251.179 95.6868 255.079 84.2041 264.379 84.3075C263.579 75.9283 262.679 67.5491 262.179 65.0664C261.179 60.3078 255.779 26.0669 255.779 26.0669C255.779 26.0669 251.879 16.3429 247.479 13.2394C243.079 10.136 239.779 9.41189 235.279 9.41189C230.879 9.41189 186.079 9.92913 186.079 9.92913L142.079 10.136L86.0788 9.10156L42.9788 10.3429C42.9788 10.3429 32.7788 12.3084 29.9788 15.3084C27.2788 18.3084 26.8788 17.8946 27.7788 21.2049C28.6788 24.5152 30.8788 23.9979 30.6788 27.5151C30.4788 31.0323 25.8788 43.9632 23.7788 47.9976C21.7788 52.0321 17.6788 60.9285 14.9788 65.4802C12.2788 70.0319 14.2788 70.5492 10.1788 71.4802C6.0788 72.4112 5.17881 73.6525 3.27881 73.9628C3.07881 73.9628 2.87881 74.0664 2.77881 74.0664C2.67881 78.1008 2.77881 82.0318 2.77881 86.0662C3.77881 86.2731 4.7788 86.5834 5.6788 87.1007C7.7788 88.342 9.57881 90.6178 10.2788 92.8937C10.9788 95.1695 10.6788 97.5488 9.6788 99.7212C8.5788 101.997 6.77882 103.756 4.47882 104.583C3.47882 104.997 2.37881 105.204 1.27881 105.307C1.37881 106.756 1.57881 108.204 1.77881 109.652C3.17881 112.549 5.17881 115.031 7.77881 116.893C8.07881 116.997 8.27882 116.997 8.47882 116.997C9.57882 116.997 11.0788 117.204 14.2788 117.204C17.1788 117.204 29.5788 117.721 32.6788 117.514C35.9788 118.342 39.3788 117.514 41.2788 114.1C41.8788 113.066 42.1788 111.928 42.3788 110.687C44.5788 107.273 46.3788 103.652 49.3788 100.859C53.0788 97.3419 57.3788 95.6867 61.6788 93.5143C61.9788 93.5143 62.3788 93.5143 62.6788 93.6178C68.2788 91.5488 76.8788 94.9626 81.1788 97.9626C87.5788 102.307 89.7788 109.549 90.7788 116.997C91.7788 116.997 93.1788 116.997 94.8788 116.997C103.579 116.997 150.679 117.411 150.679 117.411C150.679 117.411 168.579 117.721 168.779 117.514C168.879 117.307 172.779 118.549 174.179 115.859C175.479 113.066 176.379 106.342 178.579 103.032C180.779 99.7212 187.379 93.1005 193.079 92.066C193.179 92.066 193.279 91.9626 193.379 91.9626C202.179 88.5489 212.679 88.7558 220.679 94.342C224.879 97.3419 227.979 101.583 229.779 106.445C231.279 110.376 231.679 114.204 231.879 118.135C241.979 118.549 261.379 118.135 261.379 118.135C261.379 118.135 264.879 110.376 265.779 105.1C261.279 104.997 256.879 104.894 252.579 104.79ZM194.779 53.2734C194.779 58.7561 194.279 65.7905 194.179 71.3766C185.879 71.7904 177.579 70.9629 169.179 71.1698C150.879 71.5836 132.579 71.3766 114.379 71.8939C113.979 71.8939 113.679 71.5836 113.479 71.1698C108.379 71.0663 103.379 70.1353 98.3788 70.0319C92.6788 69.825 87.0788 69.9284 81.3788 69.6181C71.2788 69.1009 61.1788 69.1008 50.9788 68.7905C45.9788 68.5836 40.8788 68.4802 35.7788 68.4802C33.3788 68.4802 29.3788 69.6181 27.6788 67.3423C26.2788 65.3768 27.4788 62.4803 28.3788 60.6182C29.5788 58.0321 30.9788 55.6527 32.2788 53.17C34.4788 48.9287 36.5788 44.4805 38.4788 40.1357C39.2788 38.2736 39.6788 34.4461 42.0788 33.9289H42.1788C44.3788 32.2737 47.1788 31.9634 49.8788 31.8599C53.8788 31.653 57.7788 31.3427 61.7788 31.2393C69.4788 31.1358 77.1788 31.4461 84.7788 31.653C92.5788 31.7565 100.279 31.8599 108.079 31.9633C123.579 32.0668 139.179 31.3427 154.679 31.5496C154.879 31.5496 155.179 31.653 155.279 31.8599C157.279 31.8599 159.379 31.8599 161.379 31.8599C170.479 31.8599 179.379 31.653 188.579 31.3427C190.779 31.2392 193.079 31.1358 195.279 30.9289C195.079 38.3771 194.879 45.8252 194.779 53.2734ZM247.379 69.4112C246.379 70.4457 244.879 70.4456 243.479 70.3422C241.379 70.1353 239.379 69.9284 237.379 69.7215C232.779 69.3077 228.179 69.2043 223.579 69.2043C217.579 69.2043 211.579 69.3078 205.579 69.6181C205.679 64.5492 205.579 59.4803 205.579 54.4114C205.579 46.3426 205.779 39.515 205.779 30.2048C209.779 29.8944 212.179 29.8944 216.079 29.8944C220.579 29.8944 224.979 30.4116 229.379 30.9289C231.479 31.1358 233.679 31.3427 235.779 31.5496C237.079 31.653 238.379 32.0668 239.379 32.8944C241.479 34.4461 242.279 37.1357 242.679 39.6184C243.479 43.7563 244.279 47.8942 245.279 51.9287C245.679 53.7907 245.979 55.7562 246.579 57.5148C247.079 58.8596 247.579 60.3079 247.979 61.6527C248.679 64.032 249.379 67.4458 247.379 69.4112Z" fill="#FFDFA0"/>
<path d="M276.979 92.9976C276.879 91.6527 276.779 90.3079 276.779 88.9631C276.379 80.5839 275.279 72.1013 274.079 64.2394C272.579 54.3084 270.879 44.274 269.279 34.6535C268.579 30.619 267.879 26.5846 267.279 22.5501C267.179 22.1364 267.179 21.7226 267.179 21.3088C267.079 20.2743 266.979 19.2398 266.579 18.2054C262.279 7.65376 252.379 0.929688 241.379 0.929688C218.479 1.03313 195.579 1.13663 176.379 1.24008C169.979 1.24008 163.679 1.24008 157.379 1.24008C148.479 1.24008 139.679 1.24008 130.779 1.24008C121.879 1.24008 113.079 1.24008 104.179 1.24008C82.6787 1.24008 66.2787 1.44697 50.8787 1.75731C40.6787 1.96421 32.3787 5.68826 25.7787 13.033C23.1787 15.8261 21.5787 19.1364 19.8787 22.3432C19.3787 23.3777 18.8787 24.3088 18.2787 25.3432C15.6787 30.1018 13.3787 35.1707 11.1787 40.0327C8.97867 44.7913 6.77867 49.7568 4.27867 54.4119C3.07867 56.6877 2.27868 59.1704 1.47868 61.6532C1.17868 62.5842 0.87866 63.5152 0.57866 64.3428C-0.0213401 66.1014 0.578666 67.653 2.17867 68.2737C2.57867 68.3771 2.87867 68.4807 3.27867 68.4807C4.27867 68.4807 5.07867 67.86 5.77867 66.8255C6.07867 66.4117 6.37866 65.791 6.57866 65.0669C7.77866 60.929 9.77867 56.8946 11.6787 53.067C12.1787 52.0326 12.6787 50.9981 13.1787 49.9636C14.5787 46.9636 15.9787 44.0672 17.2787 41.0672C20.6787 33.619 24.2787 25.9639 28.1787 18.6192C28.5787 17.9985 28.8787 17.4812 29.2787 17.1709C30.8787 19.2398 31.2787 21.2053 30.4787 23.3777C26.0787 36.5155 20.6787 49.0325 15.4787 60.5152L15.0787 61.4462C14.1787 63.4117 13.2787 65.4807 11.7787 67.0324C10.4787 68.3772 8.87867 68.8945 6.67867 68.8945C6.37867 68.8945 5.97867 68.8945 5.67867 68.8945C5.07867 68.8945 4.47866 68.7909 4.07866 68.7909C0.67866 68.7909 0.478678 70.653 0.378678 73.7564C-0.0213218 85.6528 -0.221322 97.2389 0.378678 108.928C0.578678 113.273 4.57868 118.756 8.37868 119.894C8.97868 120.101 9.47868 120.204 9.97868 120.204C11.2787 120.204 12.2787 119.48 12.7787 118.239C13.1787 119.48 14.3787 120.101 16.2787 120.101H24.1787V120.204H30.7787C32.1787 120.204 33.5787 120.204 34.9787 120.204C36.8787 120.204 38.1787 119.066 38.2787 117.204C38.2787 116.377 38.0787 115.653 37.5787 115.032C37.0787 114.411 36.2787 114.101 35.2787 114.101H34.8787C28.6787 114.101 22.3787 114.101 16.0787 114.204C15.1787 114.204 13.9787 114.308 13.1787 115.239C13.0787 115.446 12.8787 115.653 12.7787 115.963C12.3787 115.032 11.2787 114.411 10.6787 114.101C7.47867 112.446 5.77867 109.963 5.67867 106.653C5.67867 106.032 5.67867 105.515 5.77867 104.791C6.57867 106.032 8.07868 106.032 8.97868 106.032C17.1787 106.135 25.2787 106.239 33.4787 106.342H34.2787C34.6787 106.342 35.1787 106.342 35.6787 106.239C37.5787 105.928 38.5787 104.791 38.4787 103.135C38.3787 101.377 37.1787 100.342 35.3787 100.342C35.3787 100.342 29.7787 100.342 27.6787 100.342H15.6787C16.6787 97.7561 16.4787 95.17 16.3787 92.8941V92.5837C16.0787 87.8252 13.5787 84.6184 9.27867 83.0667H9.17867C8.57867 82.8598 7.87867 82.6529 7.27867 82.6529C6.77867 82.6529 6.27868 82.7563 5.97868 83.0667C5.97868 80.4805 5.97868 77.8943 5.97868 75.3081C5.97868 75.1012 5.97868 74.9978 5.97868 74.7909C5.97868 74.6875 5.97868 74.6875 5.97868 74.5841C5.97868 74.5841 6.37866 74.5841 6.57866 74.5841C6.77866 74.5841 6.97867 74.5841 7.17867 74.5841C12.5787 74.5841 16.7787 71.7909 19.3787 66.5151C24.9787 55.4463 29.9787 43.0327 35.1787 27.4122C37.0787 21.7226 36.3787 17.3778 32.8787 13.5502C36.6787 10.033 41.3787 8.58477 45.4787 7.65375C48.8787 6.92962 52.2787 6.72276 56.4787 6.72276C57.1787 6.72276 60.9787 6.72276 60.9787 6.72276C85.8787 6.72276 112.779 6.61928 145.579 6.61928C165.779 6.61928 186.079 6.61928 206.279 6.61928H207.579C218.979 6.61928 230.479 6.72273 241.679 6.82618C242.179 6.82618 242.579 6.82621 243.079 6.72276C243.479 6.72276 243.879 6.61928 244.279 6.61928C244.679 6.61928 244.979 6.61931 245.379 6.72276C252.179 8.58481 257.179 12.7227 260.279 19.0329C260.479 19.5502 260.779 19.964 261.079 20.4812C261.779 21.6191 262.379 22.757 262.479 24.1019C263.579 33.7224 264.979 43.4465 266.379 52.8602L267.279 58.6532C268.479 66.8255 269.779 75.2047 270.479 83.5839C270.379 83.2736 270.279 83.0666 270.179 82.7563C269.679 81.9287 268.879 81.4115 267.979 81.4115C267.579 81.4115 267.179 81.5149 266.679 81.6184C264.679 82.3425 262.979 83.6874 261.779 85.5494C258.479 90.5149 257.079 95.3769 257.479 100.446H257.379C257.179 100.446 257.079 100.446 256.879 100.446C256.679 100.446 256.479 100.446 256.179 100.446C251.979 100.446 247.779 100.446 243.679 100.549H237.579C236.379 100.549 233.879 100.549 233.779 103.239C233.779 104.066 233.979 104.687 234.379 105.204C235.079 106.032 236.179 106.032 236.979 106.135C237.079 106.135 237.279 106.135 237.379 106.135C242.379 106.446 247.279 106.549 251.379 106.549C253.179 106.549 254.979 106.549 256.779 106.549C258.579 106.549 260.379 106.549 262.179 106.549C263.579 106.549 264.979 106.549 266.379 106.549H266.579C266.879 106.549 267.179 106.549 267.479 106.446C270.179 105.928 270.479 104.17 270.379 103.135C270.279 102.308 269.879 100.446 267.179 100.446C266.479 100.446 265.779 100.446 264.979 100.446H262.979C263.079 99.9286 263.079 99.5148 263.079 98.9975C263.579 92.6873 265.379 88.8596 269.079 86.3769C270.079 85.7562 270.479 84.9287 270.479 84.2046C270.979 90.4114 271.279 96.7217 271.079 103.032C270.979 106.549 270.179 109.756 268.679 113.377C268.279 114.411 267.779 114.721 266.579 114.721C264.779 114.721 262.879 114.721 261.079 114.721C258.979 114.721 256.979 114.721 254.879 114.721C250.879 114.721 245.579 114.721 240.279 115.032C239.579 115.032 238.879 115.032 238.179 115.032C237.579 115.032 236.979 115.032 236.379 115.032C236.079 115.032 235.879 115.032 235.579 115.032C234.379 107.273 231.579 100.963 226.979 95.8941C221.979 90.308 215.679 87.7218 207.279 87.7218C205.279 87.7218 202.979 87.8253 200.579 88.1356C193.579 88.9632 187.679 93.2045 182.579 101.066C179.779 105.411 178.279 109.859 178.179 114.308C178.079 117.204 179.879 117.721 180.679 117.721C180.779 117.721 180.779 117.721 180.879 117.721C182.879 117.721 183.279 115.756 183.479 114.825V114.618C185.379 104.894 192.479 93.5148 206.179 93.5148C207.079 93.5148 207.979 93.5148 208.879 93.6182C215.779 94.3423 220.179 96.4114 223.279 100.446C226.479 104.584 228.579 109.342 229.379 114.411C229.979 117.928 232.779 120.618 235.879 120.618C241.779 120.618 247.779 120.618 253.679 120.721C259.279 120.721 264.979 120.721 270.579 120.721C272.479 120.721 273.779 119.79 274.279 117.928C274.679 116.687 275.079 115.549 275.479 114.308C276.179 112.342 276.979 110.273 277.379 107.997C277.579 103.549 277.279 98.1699 276.979 92.9976ZM6.57866 88.4459C8.87866 89.7907 10.2787 91.8597 10.2787 94.3424C10.3787 96.6183 9.17868 98.7906 6.97868 100.239C6.57868 100.446 5.97866 100.86 5.57866 101.48C5.57866 96.9286 5.57868 92.3769 5.47868 87.8252C5.87868 88.0321 6.27866 88.239 6.57866 88.4459Z" fill="#4F4F4F"/>
<path d="M176.612 115.137C175.712 114.723 174.813 114.62 174.013 114.62H159.612H152.713V113.171C152.713 105.309 152.713 97.4474 152.713 89.5855C152.713 82.758 152.713 75.8269 152.713 68.7925C152.813 69.4132 153.013 69.9304 153.413 70.3442C154.213 71.1718 155.413 71.2753 156.513 71.2753H157.612C169.212 71.2753 180.913 71.2752 192.513 71.3787H200.112C202.212 71.3787 203.513 71.2752 204.413 70.3442C205.313 69.4132 205.413 67.965 205.312 65.8961C205.212 53.1721 205.113 40.6549 204.913 30.1033C204.913 26.2758 203.613 25.0345 199.913 25.0345H158.713C157.213 25.0345 155.812 25.0345 154.312 25.0345C153.212 25.0345 152.312 25.5517 151.812 26.2758C151.112 24.4137 149.413 24.1034 145.713 24C143.413 24 141.113 24 138.713 24C125.013 24 113.813 24.1034 103.713 24.4138C101.313 24.5172 100.113 25.1379 99.6125 26.793C99.3125 25.862 98.6125 25.1379 97.6125 24.7241C96.8125 24.5172 96.0125 24.4138 95.3125 24.4138H95.0125C93.0125 24.4138 90.9125 24.4138 88.9125 24.5172C86.3125 24.5172 83.6125 24.6207 81.0125 24.6207C77.4125 24.6207 73.8125 24.6207 70.2125 24.6207C63.6125 24.6207 56.8125 24.6206 50.1125 24.7241C46.0125 24.8275 42.5125 26.793 40.3125 30.4137C38.5125 33.2067 37.1125 36.3102 36.3125 39.6205C34.8125 45.2066 33.0125 50.2756 30.9125 55.0341C29.5125 58.1375 28.5125 61.4478 27.6125 64.6546L27.3125 65.5857C26.8125 67.1374 26.9125 68.3787 27.6125 69.2063C28.2125 70.0339 29.2125 70.4478 30.6125 70.4478C30.9125 70.4478 31.1125 70.4478 31.4125 70.4478C32.3125 70.3443 33.3125 70.3442 34.3125 70.3442H34.5125C46.2125 70.4477 93.9125 70.758 93.9125 70.758C94.4125 70.758 95.0125 70.758 95.6125 70.6546C97.5125 70.3443 98.6125 69.1028 98.5125 67.2408C98.4125 65.5856 97.3125 64.4478 95.5125 64.3444C95.1125 64.3444 94.7125 64.2409 94.2125 64.2409L40.7125 64.3444H34.2125C34.3125 63.8271 34.5125 63.4133 34.6125 62.8961C35.2125 60.8271 35.8125 58.9651 36.6125 57.1031C38.8125 52.4479 40.2125 48.517 41.1125 44.6894C42.1125 40.5515 43.2125 37.4481 44.7125 34.655C46.2125 31.862 48.5125 30.4137 51.5125 30.4137H51.6125C54.6125 30.4137 57.6125 30.5172 60.6125 30.5172C63.2125 30.5172 65.8125 30.5172 68.4125 30.5172C71.0125 30.5172 73.6125 30.5172 76.2125 30.5172C81.0125 30.5172 87.3125 30.5172 93.6125 30.7241C93.8125 30.7241 93.9125 30.7241 94.1125 30.7241C95.2125 30.7241 96.3125 30.6206 97.2125 30.5172C98.1125 30.4137 98.7125 29.8965 99.2125 29.2758C99.2125 30.5171 99.1125 31.862 99.1125 33.1033C99.0125 36.1033 98.9125 39.3101 98.9125 42.4135C98.9125 54.8271 98.9125 67.2409 98.8125 79.758C98.8125 90.8268 98.8125 101.999 98.7125 113.068C98.7125 113.378 98.7125 113.689 98.8125 114.102C98.8125 114.309 98.9125 114.516 98.9125 114.723H92.7125C92.7125 114.62 92.7125 114.516 92.7125 114.413C92.6125 113.585 92.4125 112.758 92.3125 112.033C91.2125 101.378 81.1125 89.8957 67.8125 89.8957C67.5125 89.8957 67.1125 89.8957 66.8125 89.8957C53.7125 90.6199 41.3125 101.585 39.1125 114.413C38.7125 116.999 39.4125 118.551 41.2125 119.068C41.5125 119.171 41.8125 119.171 42.0125 119.171C44.0125 119.171 44.5125 117.206 44.7125 116.068L44.8125 115.757C46.7125 108.102 51.2125 102.516 58.5125 98.7921C61.9125 97.0335 64.9125 96.206 67.7125 96.206C69.0125 96.206 70.2125 96.4129 71.3125 96.7232C79.9125 99.3094 84.7125 104.482 85.9125 112.551C86.7125 117.826 90.0125 120.723 95.4125 120.723C120.212 120.723 145.113 120.723 170.013 120.826H174.112C174.712 120.826 175.212 120.826 175.812 120.723C177.212 120.516 178.113 119.482 178.213 117.93C178.413 116.895 177.812 115.758 176.612 115.137ZM146.413 114.516H105.213C105.213 107.896 105.213 101.275 105.213 94.6543C105.213 73.6545 105.213 51.9307 104.713 30.3102C108.313 30.3102 111.812 30.4137 115.412 30.5172C123.312 30.6206 131.512 30.7241 139.612 30.7241C141.912 30.7241 144.113 30.7241 146.413 30.7241V114.516ZM152.312 31.0344C152.312 30.8275 152.312 30.5171 152.312 30.3102C152.712 30.6206 153.313 30.9309 154.013 30.9309C155.713 31.1378 157.313 31.2413 158.913 31.2413C166.013 31.2413 173.012 31.2413 180.112 31.2413C186.012 31.2413 191.913 31.2413 197.913 31.2413C198.113 31.2413 198.412 31.2413 198.612 31.2413C198.712 31.2413 198.813 31.2413 199.013 31.2413V65.1719C198.913 65.1719 198.712 65.1719 198.612 65.1719C198.612 65.1719 165.512 65.2754 157.612 65.2754C157.412 65.2754 157.113 65.2754 156.913 65.2754C156.613 65.2754 156.313 65.2754 156.013 65.2754C153.613 65.2754 152.813 66.5167 152.713 67.758C152.613 55.6547 152.512 43.2411 152.312 31.0344Z" fill="#4F4F4F"/>
<path d="M232.779 70.3423H245.979H253.579C255.779 70.3423 257.279 69.825 258.179 68.6871C259.079 67.5492 259.379 65.894 258.979 63.6182C256.779 51.4114 254.679 39.2047 252.679 27.5152C252.279 25.1359 251.079 23.998 248.779 23.998C241.879 23.998 234.979 23.998 227.979 24.1015C223.079 24.1015 218.079 24.1015 213.179 24.1015C209.879 24.1015 208.579 25.4463 208.279 28.86C207.979 32.8944 207.979 36.9289 207.979 40.8599C207.979 41.7909 207.979 42.722 207.979 43.653C207.979 47.4805 207.979 51.2046 207.979 55.0322C207.979 58.5494 207.979 62.0665 207.979 65.6871C207.979 68.4802 209.179 69.9285 211.679 70.032C218.879 70.3423 226.379 70.3423 232.779 70.3423ZM214.179 30.1014C214.279 30.1014 214.379 30.1014 214.379 30.1014C214.679 30.1014 214.879 30.1014 215.179 30.1014C215.479 30.1014 215.779 30.1014 216.079 30.1014C219.379 30.1014 222.679 30.1014 225.879 30.2049C231.079 30.2049 236.379 30.3083 241.579 30.3083C242.879 30.3083 244.179 30.3083 245.479 30.3083C246.979 30.3083 247.279 30.4117 247.379 31.9634C248.579 43.3426 250.479 54.4115 252.079 63.7217H213.979V30.1014H214.179Z" fill="#4F4F4F"/>
<path d="M168.779 105.307H171.479C172.479 105.307 173.679 105.307 174.879 105.204C176.679 105.101 177.879 103.963 177.879 102.204C177.879 101.066 177.379 99.6178 175.079 99.204C174.679 99.1006 174.279 99.1006 173.679 99.1006L165.379 99.204C162.079 99.3075 158.879 99.3075 155.579 99.411C152.779 99.411 152.179 100.963 152.179 102.101C152.179 103.032 152.579 103.652 152.879 103.963C153.479 104.583 154.379 104.894 155.579 104.894H163.479V105.204L168.779 105.307Z" fill="#4F4F4F"/>
<path d="M126.079 64.1356V63.9287H118.379C116.879 63.9287 115.379 63.9287 113.779 63.9287C112.279 63.9287 110.779 64.0321 109.279 64.1356L107.879 64.2391C106.179 64.3425 105.079 65.377 104.979 67.0321C104.879 68.5838 105.879 69.7218 107.579 70.0321C108.579 70.239 109.579 70.239 110.479 70.239C113.579 70.239 116.679 70.239 119.779 70.239H139.679C140.979 70.239 141.979 70.0321 142.979 69.7217C144.179 69.3079 144.879 68.2735 144.779 67.0321C144.779 65.7908 143.979 64.7563 142.779 64.4459C141.979 64.2391 141.079 64.1356 140.279 64.1356C137.679 64.1356 134.979 64.1356 132.379 64.1356H126.079Z" fill="#4F4F4F"/>
</svg>
