<svg width="215" height="255" viewBox="0 0 215 255" fill="none" xmlns="http://www.w3.org/2000/svg">
<path d="M91.1131 30.7686C91.1131 30.7686 78.1422 53.676 71.9223 58.5306C65.7024 63.3852 62.6683 71.0463 62.6683 71.0463L64.4129 81.8174C64.4129 81.8174 59.4066 78.6315 55.3865 79.9969C51.3663 81.3622 50.6078 83.1827 50.0009 85.6858C49.3941 88.189 49.8492 92.7401 51.3663 95.8501C52.8833 98.96 52.9592 100.781 56.5242 102.525C60.0135 104.27 65.5507 105.408 65.5507 105.408C65.5507 105.408 67.2953 108.897 69.6467 114.434C71.9982 119.971 76.9286 125.281 79.28 128.618C81.6315 131.956 85.6517 134.838 85.6517 134.838L82.7693 142.348C82.7693 142.348 81.5556 140.755 79.5835 141.893C77.6113 143.03 79.3559 140.831 74.0462 146.823C68.7365 152.891 66.5368 155.015 58.8757 159.642C51.2146 164.269 36.2716 172.689 29.9 176.178C23.6042 179.667 20.9494 182.398 19.2048 185.887C17.4602 189.376 15.1846 204.395 15.5639 214.635C16.019 224.875 18.9014 242.928 19.6599 248.162C20.4184 253.396 20.9494 256.658 20.9494 256.658H207.092L210.202 233.447C210.202 233.447 212.098 217.063 212.325 209.857C212.553 202.651 212.25 192.031 209.595 187.101C206.94 182.17 207.85 181.564 203.071 178.302C198.369 175.04 181.529 167 176.902 164.269C172.275 161.538 159.001 153.195 159.001 153.195L147.168 140.679L143.679 142.424L141.252 134.004C141.252 134.004 152.554 125.281 155.36 119.668C158.167 114.055 158.47 105.559 161.959 104.649C165.449 103.739 168.938 103.208 171.062 101.918C173.186 100.629 177.737 94.7123 177.357 91.5265C176.978 88.3407 178.192 85.9892 175.916 83.7895C173.641 81.5898 175.309 79.8452 171.213 80.6037C167.117 81.3622 162.035 82.6517 162.263 82.4242C162.49 82.1966 162.414 71.8807 162.339 71.9565C162.263 72.1082 125.55 39.795 125.55 39.8709C125.55 39.9467 91.1131 30.7686 91.1131 30.7686Z" fill="white"/>
<path d="M163.931 82.6535V82.5776C163.856 82.4259 163.856 82.3501 163.78 82.1984C163.78 82.1225 163.704 82.0467 163.628 81.9708C163.552 81.6674 163.4 81.364 163.097 81.2123C162.869 81.0606 162.718 80.9847 162.414 80.9847C162.339 80.9847 162.263 80.9847 162.187 80.9847C162.035 80.9847 161.959 80.9847 161.808 80.9847C161.732 80.9847 161.58 80.9847 161.504 80.9847C161.428 80.9847 161.428 80.9089 161.428 80.9089C161.201 80.833 160.897 80.7572 160.67 80.7572C158.622 80.7572 156.574 80.6813 154.526 80.6055C153.995 80.6055 153.464 80.5296 152.857 80.5296C152.326 80.5296 151.795 80.2262 151.492 79.6952C148.457 73.7029 129.949 73.8546 125.322 75.8267C125.247 75.8267 125.247 75.9026 125.171 75.9026C116.903 80.3021 123.047 80.7572 114.248 79.316C114.096 79.316 113.945 79.316 113.793 79.316C102.112 81.0606 107.345 76.9645 99.7601 74.689C99.6843 74.689 99.5326 74.6131 99.3809 74.6131C78.0663 73.1719 76.3217 76.8128 75.108 79.0884C74.8046 79.6194 74.2737 79.9986 73.7427 79.9986C72.9083 79.9986 72.0739 80.0745 71.3154 80.0745C70.0259 80.0745 68.8123 80.0745 67.5228 80.0745C66.8401 80.0745 66.1574 80.0745 65.4747 80.0745C65.3989 80.0745 65.3231 80.0745 65.1714 80.0745C64.4128 80.0745 63.7301 80.6055 63.5784 81.4398C63.5026 81.6674 63.5026 81.895 63.4268 82.0467V82.1225C63.4268 82.2742 63.4268 82.3501 63.4268 82.4259C63.5785 82.5776 63.6543 82.7293 63.806 82.881C63.9577 82.9569 64.0336 83.0327 64.1853 83.1086C63.9577 83.0327 63.9577 83.0327 64.337 83.1844C64.8679 83.412 65.3989 83.5637 65.9299 83.7154C66.3091 83.7154 66.6884 83.7154 67.0677 83.7154C67.2194 83.7154 67.2952 83.7154 67.4469 83.7154C68.1296 83.8671 68.964 83.8671 69.7225 83.7913C70.3293 83.8671 70.8603 83.8671 71.4671 83.8671C72.2256 83.8671 73.06 83.8671 73.8944 83.8671C74.1978 84.0947 74.4254 84.3981 74.5012 84.9291C77.2319 95.7001 96.726 98.5825 104.084 89.5561C106.511 87.2046 105.525 82.5018 110.607 82.2742C121.075 79.9228 119.634 88.7217 124.109 91.6041C132.301 98.355 144.892 95.776 150.43 89.101C150.581 88.9492 150.657 88.6458 150.733 88.4183C151.492 85.7634 152.326 84.7774 153.464 84.4739C153.615 84.3981 153.843 84.3981 153.995 84.4739C155.057 84.6257 156.119 84.6256 157.105 84.6256C158.167 84.7015 159.532 85.0049 160.594 84.6256C160.67 84.6256 160.746 84.6256 160.821 84.7015C161.125 84.7015 161.428 84.7774 161.732 84.7774C161.959 84.7774 162.187 84.7774 162.339 84.7774C162.642 84.7015 162.869 84.4739 163.097 84.2464C163.173 84.1705 163.249 84.0947 163.325 84.0947C163.4 84.0188 163.476 83.943 163.476 83.8671C163.552 83.7154 163.628 83.5637 163.628 83.412C163.628 83.3362 163.628 83.1844 163.704 83.1086C163.704 83.1086 163.704 83.1086 163.704 83.0327V82.9569C164.007 82.9569 163.931 82.8052 163.931 82.6535ZM102.491 84.9291C98.0155 96.4587 76.0183 91.6041 78.5973 80.7572C78.749 80.2262 79.0524 79.7711 79.5075 79.5435C86.4859 76.2819 105.98 75.8267 102.491 84.9291ZM148.002 85.3842C142.693 96.4587 120.468 92.3626 124.336 80.7572C124.412 80.5296 124.564 80.302 124.716 80.1503C129.57 75.2199 153.54 78.1023 148.002 85.3842Z" fill="#8E9EB2"/>
<path d="M68.6608 156.381C70.1779 155.091 71.6191 153.726 72.9086 152.209C75.4876 149.327 77.9148 146.368 80.5697 143.334C83.1487 146.672 86.0311 149.706 89.0652 152.512C88.3067 153.954 87.8515 155.547 88.0032 157.367C88.3825 163.283 87.9274 169.276 87.9274 174.965C87.0172 176.103 86.1069 177.316 85.1208 178.606C84.3623 177.24 83.9072 176.254 83.3762 175.268C80.4938 169.807 77.9907 164.118 75.5634 158.429C75.0325 157.139 74.1981 155.547 72.3776 156.305C70.8606 156.988 71.164 158.429 71.4674 159.794C73.9705 168.593 78.0665 176.634 82.466 184.522C83.9072 187.101 86.3345 186.798 87.7757 184.219C87.7757 184.219 87.7757 184.219 87.7757 184.143C87.7757 189.453 87.8515 194.686 88.3067 199.844C88.3067 199.92 88.3067 200.072 88.3067 200.148C87.7757 199.844 87.2447 199.541 86.6379 199.541C86.0311 199.541 85.5759 199.844 85.1967 200.451C84.8174 201.058 84.6657 201.665 84.8174 202.196C85.045 203.258 86.1069 204.016 86.9413 204.547C93.1612 208.416 100.215 210.388 109.242 210.691C109.242 210.691 110 210.615 110.38 210.54C111.518 210.388 112.883 210.236 114.248 210.009C116.069 209.705 116.979 208.947 116.979 207.657C121.909 204.016 124.792 199.162 125.702 193.018C126.005 191.046 126.385 189.453 128.736 188.467C132.832 186.722 135.715 184.219 137.383 181.109C137.838 181.867 138.293 182.702 138.824 183.46C139.583 184.75 140.038 186.115 141.783 186.191C143.451 186.267 144.286 185.053 144.969 183.688C148.382 177.24 151.719 170.793 154.147 163.89C154.678 162.297 155.209 160.78 155.588 159.187C155.967 157.898 155.891 156.684 154.374 156.153C153.085 155.698 152.25 156.608 151.795 157.67C150.961 159.491 150.202 161.311 149.368 163.132C147.017 168.214 144.589 173.22 141.934 178.682C140.797 177.164 139.886 175.875 138.976 174.661C138.976 171.779 138.066 168.745 136.321 165.711C139.28 162.828 138.749 159.112 135.032 155.622C135.184 155.319 135.259 155.016 135.335 154.712C139.355 151.223 143.148 147.43 146.486 143.107C150.051 147.506 153.312 151.678 157.181 155.319C158.47 156.533 159.987 158.05 161.732 156.305C163.552 154.56 161.884 153.119 160.67 151.83C157.863 148.871 154.981 145.989 152.175 142.955C149.368 139.921 147.699 138.783 145.575 139.542C144.817 137.266 144.058 134.915 143.451 132.563C142.162 133.853 140.721 134.99 139.204 135.901C139.735 138.328 140.417 140.679 141.252 142.879C139.128 145.003 137.08 147.127 134.88 149.175C133.742 147.885 131.694 147.279 128.888 147.582C128.053 147.658 127.219 147.658 126.385 147.961C124.109 148.72 122.516 148.492 120.772 146.368C118.041 143.107 115.158 142.5 113.186 144.169C110.607 146.368 108.635 149.023 107.194 152.057C106.056 154.56 107.27 156.153 110 155.926C111.442 155.774 112.883 155.471 114.248 155.016C118.648 153.802 123.047 152.512 127.598 151.754C131.543 151.147 131.77 151.375 132.301 155.622C126.385 156.381 120.62 157.746 115.007 159.643C113.869 160.022 112.428 160.704 112.883 162.222C113.414 163.814 114.931 163.283 116.145 163.056C120.013 162.222 123.882 161.311 127.75 160.553C133.287 159.415 133.287 159.491 134.425 164.725C134.425 164.801 134.349 164.876 134.197 165.18C133.818 165.256 133.287 165.256 132.832 165.331C127.978 166.014 123.426 167.835 118.724 169.352C117.737 169.655 116.676 170.262 117.131 171.627C117.51 172.765 118.572 172.689 119.558 172.537C120.165 172.462 120.772 172.31 121.378 172.158C124.564 171.248 127.826 170.338 131.012 169.503C132.605 169.124 134.197 168.897 134.653 171.172C135.942 177.468 132.377 183.005 126.005 184.522C124.261 182.398 125.93 181.792 127.522 181.109C128.509 180.654 129.419 179.971 128.964 178.682C128.509 177.468 127.447 177.544 126.309 177.771C122.061 178.682 121.227 180.35 121.606 184.522C122.364 192.335 120.772 199.389 113.869 204.32C113.338 204.699 112.807 205.002 112.352 205.382C112.276 205.458 112.2 205.533 112.124 205.609C110.759 205.761 109.394 205.837 108.028 205.837C103.022 205.837 97.9399 204.699 92.6303 202.348C93.1612 201.665 93.0854 200.527 93.0854 199.541C92.9337 194.459 92.7061 189.377 92.5544 184.295C92.3268 175.041 92.8578 165.862 92.0234 156.608C91.8717 155.091 92.1751 153.726 93.3129 152.588C99.2294 146.444 105.601 140.755 112.504 135.673C115.841 133.17 117.131 133.473 120.165 136.356C122.971 139.011 126.005 141.438 128.357 144.472C129.343 145.762 130.708 147.354 132.529 145.837C134.273 144.32 132.908 142.879 131.846 141.59C129.495 138.783 126.764 136.432 124.033 133.929C118.268 128.619 114.931 128.24 108.711 133.018C103.022 137.418 97.6365 142.196 92.7061 147.43C92.3268 147.81 92.0234 148.189 91.6441 148.568C89.8237 146.899 88.0032 145.231 86.2586 143.41C87.093 141.059 87.8515 138.556 88.4584 135.901C86.8655 135.142 85.4242 134.156 84.0589 133.094C83.4521 135.37 82.6935 137.645 81.935 139.921C81.5558 139.769 81.1006 139.617 80.6455 139.466C79.2802 139.162 77.9907 139.086 76.9288 140.224C72.9844 144.396 69.0401 148.644 65.1716 152.892C64.2614 153.878 63.958 155.091 64.9441 156.153C66.2336 157.519 67.523 157.367 68.6608 156.381ZM112.428 151.678C114.552 147.506 115.31 147.279 118.041 150.009C115.993 150.616 114.4 151.147 112.428 151.678Z" fill="#4F4F4F"/>
<path d="M197.079 182.246C196.776 182.019 196.473 181.867 196.093 181.867C195.411 181.867 194.804 182.398 194.349 182.853C194.273 182.929 194.197 183.005 194.121 183.081C190.708 186.115 187.37 189.377 184.26 192.942C175.613 202.727 169.545 214.711 164.615 224.345C162.036 229.351 159.836 234.585 157.712 239.591C156.65 242.094 155.588 244.673 154.45 247.176C153.843 248.466 153.388 248.921 152.478 248.921C152.175 248.921 151.72 248.845 151.264 248.693L150.809 248.542C142.162 246.038 133.212 243.384 124.564 240.425L124.413 240.35C122.971 239.819 121.454 239.363 119.786 239.363C119.482 239.363 119.179 239.363 118.951 239.439C118.951 238.984 118.951 238.529 118.951 238.074C118.951 236.86 118.875 235.723 119.027 234.661C119.558 227.075 119.71 220.173 119.331 213.422C119.255 212.208 119.179 210.312 117.131 210.312H117.055C115.159 210.388 115.007 212.208 114.931 213.27V213.346C114.855 213.877 114.855 214.332 114.855 214.863C114.704 219.945 114.4 225.103 114.097 230.109C113.642 238.074 113.111 246.266 113.186 254.382C113.186 254.61 113.186 254.762 113.186 254.989C113.186 255.672 113.186 256.279 113.262 256.961C113.49 258.175 114.324 258.933 115.538 259.085C115.614 259.085 115.69 259.085 115.765 259.085C116.903 259.085 117.738 258.402 118.117 257.265C118.42 256.051 118.648 254.837 118.648 253.775C118.724 251.196 118.724 248.617 118.648 245.963C118.648 245.052 118.648 244.142 118.648 243.156C129.04 247.1 138.445 250.59 148.306 253.017C148.837 253.169 149.368 253.169 149.975 253.169C150.354 253.169 150.734 253.169 151.037 253.093C151.265 253.093 151.492 253.093 151.644 253.093C151.947 253.093 152.023 253.169 152.023 253.169C152.023 253.169 152.099 253.396 151.644 254.382C151.264 255.292 151.189 256.203 151.568 256.885C151.871 257.568 152.402 258.023 153.161 258.327C153.54 258.478 153.919 258.554 154.223 258.554C155.512 258.554 156.498 257.568 156.878 255.975C157.939 251.576 159.381 248.845 160.974 245.583C161.808 243.915 162.642 242.246 163.553 240.122C169.848 225.558 176.296 211.526 185.777 199.086C187.75 196.507 189.873 193.928 191.921 191.5C193.514 189.604 195.183 187.556 196.776 185.584L196.928 185.356C197.383 184.825 197.914 184.143 197.838 183.46C197.686 183.005 197.459 182.626 197.079 182.246Z" fill="#4F4F4F"/>
<path d="M63.8062 156.684C63.0476 155.243 61.6064 155.774 60.3928 156.305C56.5243 158.05 52.6558 159.642 49.1666 162.221C43.7052 166.242 37.8646 169.655 31.5688 172.31C20.7219 176.937 14.5778 184.901 13.8951 196.734C13.6676 201.285 13.8193 205.761 13.8193 210.312C13.1366 225.407 15.9432 240.122 18.5222 254.837C18.8256 256.506 19.3565 258.099 21.4804 257.796C23.6043 257.492 23.5284 255.748 23.3767 254.079C23.3009 253.548 23.225 253.017 23.0733 252.486C19.5082 235.04 17.7636 217.518 18.2187 199.693C18.3704 191.956 21.0253 184.446 27.3969 179.668C31.2654 176.785 36.2717 174.889 40.5194 172.613C43.0225 171.4 65.7025 160.173 63.8062 156.684Z" fill="#4F4F4F"/>
<path d="M214.146 210.54C213.994 205.306 214.449 199.996 213.691 194.762C212.477 186.343 209.064 179.364 201.175 174.965C197.383 172.841 193.438 171.02 189.646 169.048C182.212 165.18 176.068 159.263 168.028 156.532C166.662 156.077 164.994 154.94 164.159 156.76C162.49 160.173 190.632 174.737 194.349 176.33C203.83 180.35 209.216 187.329 209.443 197.645C209.747 209.857 209.898 222.069 207.774 234.205C206.637 240.881 205.499 247.48 204.437 254.155C204.133 255.824 204.285 257.492 206.409 257.796C208.305 258.023 208.988 256.582 209.216 255.065C211.719 240.35 214.525 225.634 214.146 210.54Z" fill="#4F4F4F"/>
<path d="M85.5758 204.395C85.424 203.94 85.1207 203.637 84.6656 203.409C84.2863 203.258 83.907 203.106 83.6036 203.106C82.2383 203.106 81.7073 204.547 81.2522 205.685C81.1005 206.064 80.9488 206.443 80.797 206.747C78.0664 211.601 75.8666 216.684 73.9703 221.766C72.8325 220.855 71.6948 219.945 70.6328 219.035C68.7365 217.518 66.7643 215.925 64.9439 214.256C62.82 212.284 60.3927 211.146 58.0413 210.54C53.4143 201.21 47.9529 191.652 39.9125 183.536L39.5333 183.157C39.154 182.777 38.7747 182.322 38.3196 181.943C37.8645 181.564 37.4094 181.412 36.9543 181.412C36.575 181.412 36.1957 181.564 35.8165 181.791C35.2097 182.246 34.6787 183.157 35.5889 184.522C35.9682 185.129 36.4233 185.812 36.9543 186.343C43.7051 193.549 48.408 201.968 52.1248 209.629C51.7455 209.629 51.3663 209.629 50.987 209.629H50.5319C48.939 209.629 47.2702 209.705 45.6773 209.705C44.1603 209.781 42.4915 209.781 40.9744 209.781C39.6849 209.781 38.6989 210.236 37.7886 211.298C35.8165 213.574 35.2855 215.697 36.1957 217.897C37.3335 220.552 39.5333 222.145 42.5674 222.448C43.25 222.524 43.8568 222.6 44.5395 222.676C45.9807 222.828 47.4978 222.979 48.939 222.979C49.5458 222.979 50.1526 222.979 50.6836 222.903C50.987 222.903 51.2904 222.828 51.5938 222.828C54.8555 222.828 56.6001 224.952 58.3447 227.227C58.5723 227.53 58.8757 227.834 59.1032 228.137C58.6481 228.517 58.193 228.517 57.662 228.592C57.5103 228.592 57.3586 228.592 57.131 228.668C46.8909 229.882 39.6091 234.509 34.8304 242.701C33.6168 244.749 33.3892 247.025 34.2994 248.845C35.0579 250.362 36.4233 251.424 38.3196 251.727C38.9264 251.803 39.4574 251.803 40.0642 251.803C40.2159 251.803 40.3676 251.803 40.5193 251.803C41.5813 255.899 44.0085 256.734 45.9049 256.734C47.1185 256.734 48.5597 256.354 50.0767 255.672C51.4421 257.492 53.2626 258.403 55.7657 258.403C56.5242 258.403 57.2828 258.327 58.3447 258.175C58.9515 258.099 59.5583 258.023 60.1651 257.872C60.8478 257.796 61.5305 257.644 62.2132 257.568L62.5166 257.492C63.0476 257.416 63.7302 257.341 64.2612 257.113C64.4888 257.265 64.6405 257.341 64.9439 257.492C65.2473 257.568 65.5507 257.644 65.8541 257.644C66.7643 257.644 67.5229 257.113 68.0538 256.127C68.4331 255.368 68.6607 254.61 68.9641 253.851L69.1158 253.472C70.557 249.073 71.9982 244.521 73.3635 240.122C76.6252 229.579 80.0386 218.656 84.6656 208.34C84.7414 208.112 84.8931 207.809 85.0448 207.581C85.3482 206.595 85.955 205.382 85.5758 204.395ZM61.6064 253.093C60.4686 253.169 59.2549 253.396 58.193 253.548C57.3586 253.7 56.4484 253.851 55.5381 253.927C55.3864 253.927 55.2348 253.927 55.083 253.927C54.4762 253.927 54.1728 253.775 54.0211 253.396C53.7935 252.941 54.0211 252.714 54.5521 252.258C54.6279 252.183 54.7796 252.107 54.8555 252.031C56.1449 250.817 57.5103 250.135 59.0273 249.983C60.4685 249.831 62.0615 249.604 63.7302 249.3C64.1853 249.224 64.6405 249.073 64.9439 248.845C64.6405 249.604 64.4129 250.438 64.1095 251.197C63.8819 251.879 63.6544 252.562 63.5027 253.169C63.1993 253.093 62.82 253.017 62.4407 253.017C62.2132 253.093 61.9098 253.093 61.6064 253.093ZM68.3573 238.377C67.5229 240.956 66.6885 243.687 65.7782 246.342C65.4748 245.432 64.7163 244.901 63.4268 244.901C63.2751 244.901 63.1234 244.901 62.9717 244.901C62.7441 244.901 62.4407 244.977 62.2132 244.977C61.9098 245.052 61.6064 245.052 61.3788 245.052C56.2967 245.128 52.4282 247.935 48.7114 250.666L47.5736 251.5C47.0427 251.879 46.5117 252.258 46.0566 252.258C45.829 252.258 45.5256 252.183 45.298 251.955C44.5395 251.272 44.9946 250.135 45.3739 249.604C45.9048 248.997 46.36 248.39 46.8151 247.707C48.408 245.508 49.9251 243.384 52.8075 242.853C56.2967 242.094 59.4825 241.487 62.6683 240.729C64.9439 240.198 65.0197 238.757 64.868 237.998C64.6404 236.784 63.8061 236.178 62.5924 236.178C62.3649 236.178 62.1373 236.178 61.8339 236.254C61.0754 236.405 60.3168 236.557 59.5583 236.709C58.9515 236.86 58.3447 237.012 57.7379 237.088C51.8972 238.226 46.36 239.743 42.9466 245.432C42.3398 246.494 41.3537 246.949 40.0642 246.949C39.4574 246.949 38.7747 246.797 38.0162 246.569C38.5472 245.811 39.0023 245.052 39.5333 244.37C41.8088 240.956 43.9327 237.695 47.8012 236.178C53.4901 233.902 58.2688 232.613 62.82 232.309C62.9717 232.309 63.1234 232.309 63.2751 232.309C64.2612 232.233 65.5507 232.233 66.0817 230.868C66.5368 229.73 66.1575 228.592 65.0197 227.455C62.82 225.255 60.4686 222.979 58.193 220.855L56.5242 219.263C55.8415 218.656 55.0072 218.58 54.3245 218.58H54.1728C51.2146 218.504 47.7253 218.352 44.0844 218.125C43.3259 218.049 42.4915 218.049 41.8088 217.746C40.4435 217.139 39.9125 216.304 40.1401 215.091C40.2918 214.256 40.7469 214.105 41.5054 214.105C41.6571 214.105 41.8088 214.105 41.9605 214.105C42.1122 214.105 42.2639 214.105 42.4915 214.105C42.9466 214.105 43.4017 214.105 43.9327 214.105C44.6912 214.105 45.4497 214.105 46.1324 214.105C46.8909 214.105 47.6495 214.105 48.3321 214.105C50.1526 214.105 52.2765 214.105 54.4762 213.953C54.7037 213.953 54.8555 213.953 55.083 213.953C56.2208 213.953 57.131 214.256 58.0413 214.939C63.5027 219.111 67.6746 222.297 71.6189 225.255L71.7706 225.407C71.9982 225.634 72.3016 225.786 72.605 226.013C70.9362 230.185 69.6467 234.281 68.3573 238.377Z" fill="#4F4F4F"/>
<path d="M108.635 219.491C107.194 219.415 105.677 219.415 104.236 219.263C98.7743 218.732 93.6921 217.291 89.0651 214.409C88.0032 213.726 86.7895 212.209 85.5759 213.878C84.5898 215.319 85.8793 216.457 86.8654 217.291C88.1549 218.429 89.5961 219.187 91.189 219.87C95.6643 221.766 100.367 223.056 105.298 223.208C106.359 223.284 107.421 223.435 108.483 223.359C109.773 223.359 111.214 223.208 111.29 221.539C111.366 219.87 110 219.567 108.635 219.491Z" fill="#4F4F4F"/>
<path d="M180.012 87.734C179.633 83.4863 177.282 80.3005 174.096 78.8593C175.916 73.1704 177.13 67.3297 177.433 61.4132C177.964 51.7041 175.082 42.8293 171.593 34.0304C164.311 15.8258 140.038 3.38597 121.909 0.579427C111.062 -1.08933 87.9273 0.200163 83.5279 13.171C82.5418 13.2468 81.6315 13.3227 80.6455 13.4744C65.3232 15.9775 55.6141 29.631 51.9732 44.043C50.6078 49.3526 48.7874 72.336 54.7039 78.4042C49.9252 79.542 47.2704 83.7139 47.1187 91.375C47.3462 95.3952 49.6218 100.098 54.4763 103.36C57.0553 105.104 60.0136 106.09 62.9718 106.773C64.6406 107.152 65.3233 107.911 65.7784 109.504C67.0679 113.903 68.5849 118.151 71.1639 122.019C78.1423 132.563 87.4722 139.996 98.926 144.396C99.7603 143.031 100.822 141.741 102.112 140.603C87.7756 135.673 76.8529 126.191 70.7088 110.717C68.8125 105.863 66.6886 102.449 61.1514 101.388C56.5244 100.553 53.3386 97.2156 52.0491 92.5128C51.2905 89.6304 51.2905 86.5963 53.4144 84.2448C55.3107 82.0451 57.738 82.0451 60.317 82.9553C60.7721 83.107 61.2272 83.3346 61.6823 83.4105C61.834 83.8656 61.9099 84.3207 61.9099 84.9275C61.9858 86.748 63.4269 88.1133 65.4749 87.734C67.6747 87.3548 68.3573 85.686 68.1298 83.638C67.8264 81.4383 67.523 79.2386 67.1437 77.0388C66.8403 75.5976 67.0679 74.6116 68.2815 73.5496C77.3838 65.8885 83.3762 55.876 88.8376 45.56C90.4305 42.6018 91.7958 39.4918 93.3129 36.3819C95.2092 36.7611 96.2711 37.9748 97.4089 38.9608C106.587 46.622 116.372 53.3728 126.764 59.2893C128.281 60.1237 129.722 61.1098 131.543 59.441C130.329 54.5106 126.385 50.5663 126.081 44.7256C126.84 45.3325 127.295 45.6359 127.598 45.9393C137.232 56.4069 146.182 67.709 158.698 75.2184C160.367 76.2045 160.063 77.494 159.911 78.9351C159.532 81.6658 157.939 85.3068 162.035 86.0653C164.766 86.5963 165.676 85.0792 166.131 83.1829C166.662 82.9553 167.193 82.7278 167.648 82.6519C171.972 81.59 175.082 83.7139 175.537 88.265C175.992 93.3471 173.944 97.1398 169.772 99.7946C167.345 101.312 164.69 101.994 161.959 102.677C160.215 103.132 159.229 104.118 158.546 105.863C156.953 110.111 155.512 114.51 153.009 118.379C146.561 128.467 137.838 135.597 126.991 139.921C128.053 141.058 128.964 142.348 129.798 143.637C132.832 142.348 135.714 140.907 138.521 139.162C148.761 132.942 156.498 124.219 160.367 112.614C161.58 109.049 162.718 106.242 166.966 105.863C168.255 105.787 169.545 105.028 170.683 104.422C177.206 101.388 180.695 95.0918 180.012 87.734Z" fill="#4F4F4F"/>
<path d="M112.958 94.4853C113.565 93.2717 113.717 92.1339 113.414 91.4512C113.186 90.9203 112.655 90.541 112.124 90.541C111.517 90.541 111.29 90.9961 111.062 91.2995L110.152 92.8166C109.924 93.1959 109.621 93.651 109.393 94.1061C109.166 94.4853 109.014 94.7888 108.862 95.168C108.711 95.4714 108.559 95.7748 108.407 96.0783V96.1541C108.104 96.7609 107.725 97.3677 107.649 98.0504C107.497 99.1124 107.8 100.098 108.559 100.933C109.393 101.843 110.531 102.222 111.366 102.374C111.896 102.45 112.503 102.526 113.034 102.526H113.186C113.338 102.526 113.489 102.526 113.641 102.526C114.324 102.526 114.855 102.45 115.31 102.298C116.068 101.995 116.448 101.54 116.372 101.085C116.296 100.857 115.993 100.629 115.689 100.402L115.613 100.326C115.31 100.098 115.006 99.9467 114.703 99.8709C114.475 99.795 114.324 99.7192 114.096 99.6433C113.793 99.5675 113.565 99.4916 113.338 99.3399C112.883 99.1124 112.579 98.7331 112.276 98.3538C112.048 98.0504 111.972 97.747 111.972 97.4436C111.972 96.9885 112.2 96.4575 112.427 96.0024C112.503 95.5473 112.731 95.0922 112.958 94.4853Z" fill="#4F4F4F"/>
<path d="M91.1131 79.9971C89.2926 79.9971 87.6997 80.7556 86.9412 82.0451C86.4102 82.9553 86.1068 84.4724 87.3963 86.6721L87.4721 86.748L87.548 86.8238C88.6858 87.5823 89.9753 88.0374 91.1889 88.0374C93.6162 88.0374 95.285 86.4445 95.7401 83.7138V83.5621L95.1333 81.8934L95.0574 81.8175C94.2988 80.6797 92.8577 79.9971 91.1131 79.9971Z" fill="#4F4F4F"/>
<path d="M136.548 79.9971C134.88 79.9971 133.363 80.6797 132.528 81.8175V81.8934L131.921 83.5621V83.7138C132.377 86.4445 134.121 88.0374 136.473 88.0374C137.686 88.0374 138.976 87.5823 140.113 86.8238L140.189 86.748L140.265 86.6721C141.555 84.4724 141.175 82.9553 140.72 82.0451C140.038 80.8314 138.445 79.9971 136.548 79.9971Z" fill="#4F4F4F"/>
<path d="M97.4089 69.4538C97.6364 68.6953 97.6364 67.5575 96.3469 66.6472C94.9057 65.5853 92.2509 65.4336 90.7338 65.4336C87.4722 65.4336 83.2244 66.1921 81.7074 67.9367C80.873 68.847 80.7213 69.7572 81.1006 70.6674C81.4798 71.5018 82.2383 71.9569 83.0727 71.9569C83.3003 71.9569 83.5278 71.8811 83.8312 71.8052C85.8034 71.0467 87.8514 70.7433 89.8994 70.7433C91.3406 70.7433 92.706 70.895 94.0713 71.2742H94.1472H94.223C95.5125 71.1225 96.9537 70.9708 97.4089 69.4538Z" fill="#4F4F4F"/>
<path d="M143.907 71.8049C144.893 71.8049 145.575 71.2739 145.955 70.3637C146.789 68.3915 144.817 67.3296 144.21 67.0262C141.934 65.8125 139.431 65.4333 136.321 65.3574C136.094 65.3574 135.79 65.4333 135.487 65.4333C134.653 65.5091 133.591 65.6608 132.529 65.8884C131.163 66.1918 130.253 66.6469 129.798 67.3296C129.419 67.8606 129.343 68.5432 129.495 69.3018C129.798 70.5913 130.632 71.1981 132.074 71.1981C132.453 71.1981 132.908 71.1222 133.515 71.0464C135.032 70.743 136.321 70.6671 137.535 70.6671C139.28 70.6671 140.797 70.9705 142.238 71.5015C142.921 71.6532 143.452 71.8049 143.907 71.8049Z" fill="#4F4F4F"/>
<path d="M118.42 118.227C117.207 117.165 115.462 116.634 113.414 116.634H113.187C111.29 116.634 109.621 117.316 108.484 118.53C107.422 119.668 106.891 121.109 106.967 122.854C107.118 126.191 109.925 128.694 113.566 128.694H113.718C117.434 128.618 120.241 126.04 120.241 122.626C120.317 120.73 119.634 119.289 118.42 118.227ZM113.642 124.447C112.807 124.447 112.2 124.219 111.745 123.916C111.214 123.536 110.987 123.005 111.063 122.247C111.139 120.351 112.883 120.123 113.642 120.123H113.793C114.476 120.123 116.145 120.351 116.221 122.247C116.296 123.688 115.462 124.371 113.642 124.447Z" fill="#4F4F4F"/>
<path d="M32.1757 18.3295C32.1757 18.2537 32.0999 18.1778 32.0999 18.1778C32.024 18.102 31.9482 17.9503 31.9482 17.8744C30.3553 13.2474 27.0177 10.5926 22.0873 9.83404C19.4325 9.45477 16.7776 9.60648 14.047 10.2892C12.1506 10.7443 10.2543 11.5028 8.28217 12.4889C3.2759 15.0679 0.469337 19.3915 0.0142216 25.308C-0.061631 26.2941 0.165945 27.2043 0.696913 27.7352C1.22788 28.3421 2.06224 28.6455 3.04833 28.6455C3.57929 28.6455 4.03443 28.5696 4.48954 28.4938C5.85489 28.1145 6.61342 27.1284 6.76512 25.308C7.14438 21.5153 8.88899 18.7846 12.0748 17.1159C12.985 16.6608 13.8953 16.2815 14.9572 16.0539C15.4882 15.9022 16.095 15.8264 16.7776 15.6747C18.7498 15.3713 20.4944 15.5988 22.0873 16.2057C23.9078 16.9642 25.2731 18.6329 25.88 20.681C26.4868 22.8048 26.1834 24.8529 24.9697 26.6733C23.9837 28.0387 22.9217 29.3282 21.8598 30.6176C21.1013 31.452 20.4186 32.3623 19.6601 33.2725C17.6879 35.7756 16.7776 38.2788 16.7776 40.9336C16.7776 43.285 17.3845 45.4089 17.9154 47.3052C18.3706 48.8981 19.8117 49.5049 21.6322 49.0498C23.4527 48.5947 24.2871 47.3811 23.9836 45.7123C23.9078 45.1055 23.7561 44.4987 23.5285 43.8919C22.6183 41.0095 23.1493 38.4305 25.1973 36.0032C25.7283 35.3205 26.3351 34.6378 26.8661 34.031C27.5487 33.1966 28.3072 32.2864 28.9899 31.452C30.9621 28.9489 33.0101 25.8389 32.7826 21.8187C32.7826 21.5912 32.7067 21.2878 32.7067 21.0602C32.6308 20.681 32.555 20.3017 32.6308 19.9224V19.8466L32.1757 18.3295Z" fill="#4F4F4F"/>
<path d="M22.6184 53.1466C22.3149 53.2224 22.0115 53.2983 21.7081 53.45C19.9635 54.3602 19.2808 56.3324 20.1911 58.2287C20.7979 59.5182 21.8598 60.2009 23.6044 60.3526H23.6803L24.9698 60.0492L25.0456 59.9733C25.1215 59.8974 25.1973 59.8974 25.1973 59.8216C27.0178 58.7597 27.5488 56.7116 26.4868 54.8153C25.8042 53.3741 24.2113 52.6915 22.6184 53.1466Z" fill="#4F4F4F"/>
</svg>
