<svg width="164" height="284" viewBox="0 0 164 284" fill="none" xmlns="http://www.w3.org/2000/svg">
<path d="M124.734 138.776C122.915 133.102 122.872 130.374 119.061 127.125C115.25 123.877 107.41 118.68 103.339 117.207C99.2681 115.735 96.6262 114.306 93.8977 111.967C91.9054 110.278 90.5195 107.723 89.9132 106.467C98.0122 101.399 104.769 94.4264 109.446 86.1109C109.489 86.0243 109.533 85.9376 109.576 85.851C110.919 85.8077 112.261 85.5045 113.517 84.9848C114.86 84.595 116.202 84.1186 117.415 83.4257C121.053 81.4767 122.872 77.8387 122.959 73.8108C123.089 68.7869 119.537 65.1055 114.47 65.1921C113.604 65.1921 112.738 65.322 111.915 65.4953C112.088 56.4868 111.308 47.4783 109.792 38.5998C109.446 36.6075 107.887 35.005 105.981 34.1821C104.985 33.2293 103.859 32.3631 102.603 31.6702C93.941 30.5441 85.1924 31.1937 76.4871 31.3237C71.5064 31.367 66.6124 30.7606 61.675 30.6307C57.2574 30.5008 52.8831 30.8906 48.4222 30.674C45.8236 33.1427 43.3116 35.698 41.0161 38.4265C38.8939 40.9385 37.1182 43.7536 34.7362 46.0058C34.7795 46.3956 34.8228 46.7421 34.8228 47.1318C34.433 47.9547 34.2165 48.9075 34.2598 49.9037C34.3897 52.6755 34.1732 55.6639 33.9133 58.3925C33.0471 58.5657 32.1809 58.3491 31.6612 57.6995C30.102 57.6129 28.4562 58.2192 26.6372 58.8689C24.0386 59.7784 21.2668 61.8573 20.877 64.5425C20.6171 65.2354 20.5305 65.9717 20.5738 66.7946C20.6171 67.5309 20.747 68.2238 20.877 68.8735C20.877 68.9168 20.8337 69.0034 20.8337 69.0467C20.9203 69.22 20.9636 69.3932 21.0502 69.6097C22.003 72.7714 24.1685 75.0668 26.8971 76.5827C27.5034 77.0158 28.1531 77.4056 28.8027 77.7087C29.9721 78.2284 31.1848 78.3584 32.1809 79.2679C32.4407 79.5278 32.7006 79.7876 32.9605 80.0908C33.3936 80.3506 33.74 80.7837 33.9566 81.3901C34.0432 81.6932 34.1298 81.9531 34.2598 82.2563C34.7362 83.2957 35.126 84.4218 35.4725 85.5045C36.1654 87.1936 36.9883 88.8827 37.8978 90.4852C39.327 92.9539 41.4925 95.076 42.7052 97.6313C43.1816 98.5842 42.9651 99.4937 42.4887 100.143C42.532 100.187 42.532 100.187 42.5753 100.23C38.9373 103.002 35.3858 106.293 33.5235 110.451C32.7439 112.184 32.2242 114.132 31.8777 116.125C31.1414 117.857 30.5784 119.676 30.1886 121.538C28.846 122.231 27.72 122.968 27.1136 123.704C24.6882 126.606 20.4872 130.157 19.621 132.366C18.7115 134.532 16.5027 140.119 15.5065 144.883C14.5537 149.647 13.6875 158.265 13.6875 158.265H128.243C128.243 158.049 126.553 144.449 124.734 138.776ZM51.2806 108.242C51.0641 108.805 50.6743 109.282 50.3711 109.758C50.0679 110.191 49.8081 110.668 49.5049 111.101C49.0285 111.88 48.3788 112.703 47.4693 112.963C46.6464 113.18 45.6936 112.963 44.914 112.703C44.1778 112.4 43.3549 111.967 43.0084 111.187C42.3154 109.542 43.3116 107.766 44.351 106.553C45.4338 105.341 46.863 104.128 48.4222 103.651C48.5521 103.608 48.682 103.738 48.7253 103.868C49.5049 104.388 50.3711 104.821 50.9775 105.514C51.6704 106.293 51.6704 107.289 51.2806 108.242Z" fill="white"/>
<path d="M122.699 146.397C121.703 140.983 120.1 133.317 116.592 128.423C113.084 123.529 110.745 121.667 108.233 120.541C105.721 119.415 102.083 118.159 99.398 116.47C98.7484 116.08 98.0554 115.69 97.3624 115.344C95.0237 117.206 92.4251 118.679 89.6966 119.935C85.712 121.754 81.6409 123.919 77.18 123.962C72.6757 124.785 66.9588 125.262 62.3679 124.222C59.2063 123.486 56.2612 122.88 53.8359 122.1C54.1823 123.269 54.5721 124.439 54.6154 125.652C54.7887 129.03 52.2334 130.416 49.6348 131.715C47.989 132.538 48.3355 133.491 48.2922 135.136C48.2922 136.782 47.9457 138.341 47.3394 139.857C46.2999 142.413 44.5675 145.661 42.3154 147.307C39.6735 149.212 36.7284 147.913 34.0432 146.873C31.6611 145.964 28.9326 145.011 28.3262 142.196C28.0231 140.81 28.4129 139.467 28.5861 138.125C28.846 136.219 28.9759 134.314 29.2358 132.451C29.7122 128.813 30.2319 125.218 30.4051 121.537C28.1963 122.706 26.6372 123.703 25.2512 124.959C22.7826 127.211 21.7431 127.081 19.491 131.672C17.2389 136.263 14.3371 145.271 14.1206 148.389C13.9473 151.508 13.8174 158.091 13.8174 158.091H124.475C124.431 158.004 123.738 151.811 122.699 146.397Z" fill="#CCCCCC"/>
<path d="M130.322 154.713C129.456 147.436 128.417 139.251 124.605 131.931C119.408 121.97 109.967 117.942 100.742 114.607C100.525 114.521 100.309 114.478 100.092 114.478C99.6589 114.478 99.3557 114.651 99.1392 114.997C98.7494 115.604 98.8793 116.21 99.529 116.816C100.179 117.423 100.872 117.899 101.608 118.246C102.864 118.852 104.163 119.458 105.419 120.021C106.025 120.281 106.632 120.584 107.281 120.844C116.463 125.089 122.007 131.498 124.172 140.42C125.385 145.401 126.641 150.511 126.814 155.795C126.858 156.575 127.074 158.394 128.633 158.394C128.677 158.394 128.72 158.394 128.807 158.394C130.149 158.307 130.409 157.095 130.409 154.929L130.322 154.713Z" fill="#6F6F6F"/>
<path d="M93.9426 116.47C92.1669 117.985 90.088 118.678 87.9658 119.458C76.5753 123.746 65.5312 123.832 54.8336 119.371C54.5305 117.985 54.0974 116.643 53.1445 115.387C52.4083 114.391 51.672 113.611 50.7625 112.961C52.4516 111.142 53.9674 108.63 54.4005 106.638C53.3611 106.248 52.4083 105.685 51.5421 105.079C50.3727 107.504 48.7702 109.627 46.8646 111.489C46.1716 111.359 45.4787 111.272 44.7857 111.142C44.6558 108.5 45.3054 106.465 48.4237 105.425C49.853 104.949 51.0223 103.996 51.8019 102.74C52.7981 101.138 52.0618 99.6652 51.109 98.4092C50.2428 97.2831 48.9435 96.5469 47.0811 97.0233C40.9311 98.7124 37.0332 102.697 33.9149 107.071C31.4462 110.536 30.58 114.65 29.8004 118.635C29.7138 119.068 29.5839 119.545 29.4973 120.021C24.8198 122.793 20.662 126.474 17.7602 131.974C13.949 139.294 12.9095 147.523 12.0433 154.756L12 154.972C12 157.181 12.2599 158.394 13.6025 158.48C13.6458 158.48 13.6891 158.48 13.7757 158.48C15.3349 158.48 15.5514 156.661 15.5947 155.882C15.768 150.598 17.024 145.487 18.2366 140.507C19.8824 133.837 23.3905 128.553 28.8909 124.568C28.9342 127.557 27.8515 130.372 27.505 133.274C27.2884 135.093 27.505 137.085 26.7254 138.947C26.6388 139.857 26.5089 140.766 26.4656 141.633C26.4222 141.589 26.4222 141.589 26.3789 141.546C26.1191 141.329 25.8159 141.2 25.4694 141.2C24.993 141.2 24.5166 141.416 24.2567 141.806C24.0835 142.066 23.9969 142.326 24.0402 142.629C22.611 144.751 21.4849 147.133 20.3588 149.385L20.3155 149.428C19.7525 150.598 19.1895 151.811 18.5831 153.153C18.4532 153.456 18.28 153.803 18.15 154.149C17.6736 155.145 17.1972 156.185 16.9373 157.268C16.8074 157.744 16.894 158.177 17.1972 158.567C17.5004 158.957 17.9768 159.217 18.4965 159.217C19.0595 159.217 19.4926 158.913 19.7958 158.437C20.2289 157.657 20.5754 156.791 20.8786 155.968C21.0518 155.535 21.225 155.059 21.3983 154.626C21.918 153.413 22.481 152.157 23.1307 150.814C23.6504 149.688 24.2134 148.606 24.7765 147.523C25.2096 146.7 25.6427 145.834 26.0325 145.011C26.6388 145.487 27.3751 145.877 28.198 146.267C29.7571 146.96 31.4462 147.566 33.2219 148.043C36.2536 148.865 39.2853 149.342 42.6202 149.818C42.5769 150.425 42.5769 151.074 42.5769 151.681C42.5769 152.114 42.5769 152.59 42.5336 153.023C42.4903 154.539 42.4036 156.098 42.2737 157.614C42.2304 158.004 42.4036 158.394 42.6635 158.697C42.9667 159.043 43.4431 159.217 43.8762 159.217C44.7424 159.217 45.392 158.567 45.4787 157.657C45.6086 156.055 45.6519 154.496 45.6519 153.023V152.763C45.6519 151.551 45.6086 150.295 45.4353 149.082C45.4787 148.995 45.4787 148.952 45.522 148.865C45.6519 148.432 45.5653 147.913 45.3054 147.523C45.2621 147.436 45.1755 147.35 45.0889 147.263C45.1755 147.176 45.2621 147.09 45.392 146.96C45.4354 146.657 45.5653 146.31 45.8251 146.007C48.9868 142.196 50.5026 137.951 50.1561 133.317C55.6132 131.325 57.952 128.726 56.0896 123.919C61.027 125.565 66.0509 126.691 71.0749 126.388C78.5242 126.388 85.064 125.088 91.3873 122.403C93.2496 121.623 94.9387 120.584 96.1947 118.938C96.801 118.159 97.3641 117.336 96.5412 116.34C95.5884 115.214 94.6789 115.863 93.9426 116.47ZM52.0618 129.073C51.3255 129.549 50.5459 129.982 49.6364 130.545C48.8135 129.852 48.1206 129.376 49.3333 128.683C49.9396 128.336 50.4593 127.86 50.0695 127.167C49.6797 126.561 48.9868 126.474 48.2505 126.517C47.6875 126.561 47.1677 126.561 46.6047 126.647C45.0456 126.864 44.4392 127.47 45.1755 128.856C47.9473 134.183 47.2544 139.164 42.8367 143.668C42.317 144.188 41.9272 144.751 41.4075 145.271C41.191 145.487 40.9744 145.66 40.7579 145.747C40.6712 145.877 40.5846 146.05 40.498 146.18C38.5491 145.877 36.5568 145.487 34.6511 145.011C33.1786 144.621 31.6628 144.231 30.2335 143.625C30.2768 143.235 30.3201 142.845 30.3635 142.456C30.1036 141.936 29.9737 141.329 30.0603 140.463C30.4501 136.349 30.9698 132.234 31.7061 128.163C32.7455 122.403 33.092 116.47 35.4307 110.883C37.2931 106.378 40.8878 103 45.3054 100.272C46.4315 99.5786 46.7346 99.6219 48.6836 99.5786C49.9829 101.268 48.597 102.307 47.1244 102.913C43.6596 104.386 41.754 106.638 41.4075 109.93C41.3209 111.056 40.8012 111.662 39.3719 111.619C38.0726 111.619 36.9899 112.268 36.0371 112.961C35.474 113.351 34.9976 113.914 35.5173 114.521C35.9505 115.084 36.6434 114.91 37.2064 114.65C39.0688 113.741 41.1477 114.001 43.0966 113.654C44.9156 113.351 46.4315 113.828 48.3804 114.997C45.6519 114.737 43.6163 115.517 41.4941 115.777C41.061 115.82 40.5413 115.777 40.1515 115.993C39.0688 116.513 36.9466 116.643 37.3364 117.942C37.8561 119.588 39.5452 118.289 40.7146 118.159C44.4825 117.769 48.2505 116.859 52.0618 118.635C52.2783 119.674 51.5854 119.891 50.5026 119.588C47.8607 118.938 45.3054 119.891 42.6635 119.848C42.317 119.848 41.8839 120.021 41.5808 120.194C40.5846 120.627 38.9822 120.844 39.4586 122.186C39.9783 123.616 41.4508 122.879 42.447 122.663C44.7424 122.143 47.0811 122.316 49.3766 122.23C50.6326 122.186 52.3216 122.793 52.5382 123.919C52.9713 125.695 54.2706 127.6 52.0618 129.073Z" fill="#6F6F6F"/>
<path d="M91.6466 105.686C90.7371 106.422 89.741 106.985 88.6582 107.461C89.611 110.666 91.9065 113.092 94.8082 115.041C95.6311 115.604 96.5406 115.387 97.147 114.564C97.7533 113.698 97.5368 112.832 96.8438 112.182C94.7216 110.32 92.8593 108.241 91.6466 105.686Z" fill="#6F6F6F"/>
<path d="M71.2882 75.7578C71.5481 75.5413 71.7646 75.2814 71.8513 74.8916C71.8946 74.5451 71.8513 74.1554 71.6347 73.8522C71.2016 73.2892 70.3787 73.0726 69.7724 73.5057C68.6463 74.3719 67.1305 75.5413 67.347 77.1438C67.5636 78.7895 69.2527 79.5691 70.6819 79.9589C70.9851 80.0455 71.4182 79.9156 71.7213 79.7424C71.9812 79.5691 72.2411 79.2226 72.2844 78.8762C72.4143 78.0966 71.9379 77.4902 71.2449 77.317C71.2016 77.317 71.1583 77.2737 71.115 77.2737C70.7685 77.1437 70.4653 77.0138 70.1622 76.8406L70.1189 76.7973C70.2055 76.6673 70.3354 76.5374 70.4653 76.4075C70.7252 76.2342 71.0284 75.9744 71.2882 75.7578Z" fill="#6F6F6F"/>
<path d="M88.0917 68.8729L87.4854 70.2155V70.3021C87.6586 72.5109 88.9146 73.9401 90.8202 74.1134C91.773 74.2 92.8558 73.9401 93.8086 73.3771L93.8952 73.3338L93.9385 73.2472C95.1079 71.5581 94.9347 70.3021 94.5882 69.5658C94.0685 68.4831 92.8558 67.7468 91.3833 67.6169C90.0406 67.4869 88.7846 67.9633 88.0484 68.8295L88.0917 68.8729Z" fill="#6F6F6F"/>
<path d="M53.965 64.3239C52.6224 64.194 51.3664 64.6704 50.6301 65.5366L50.5868 65.5799L49.9805 66.9225V67.0091C50.1537 69.2179 51.4097 70.6472 53.3153 70.8204C54.2682 70.907 55.3509 70.6472 56.3037 70.0841L56.3904 70.0408L56.4337 69.9542C57.603 68.2651 57.4298 67.0091 57.0833 66.2728C56.6502 65.1901 55.4375 64.4538 53.965 64.3239Z" fill="#6F6F6F"/>
<path d="M58.816 56.701C59.5089 55.0553 58.0797 54.319 56.867 53.7127C56.304 53.4528 55.6544 53.3229 55.5244 53.2796C53.4022 53.0197 51.8864 53.3662 50.5871 54.4489C49.8508 55.0552 49.5043 55.8782 50.024 56.7877C50.5005 57.6106 51.28 57.6972 52.1029 57.3507C53.229 56.9176 54.3984 56.6577 55.5677 57.2208C56.8237 57.8271 58.1663 58.2602 58.816 56.701Z" fill="#6F6F6F"/>
<path d="M65.8757 92.6924C65.8324 93.0822 65.7891 93.4719 65.7891 93.8617C66.612 96.4603 69.0806 97.9329 71.8092 97.3699C73.2384 97.0667 74.1912 96.1572 74.7109 94.8145C75.2307 93.5152 74.5377 92.5624 73.7581 91.6962C72.1123 89.8339 69.3405 89.5307 67.2183 90.8733C66.4387 91.3064 66.1789 91.9994 65.8757 92.6924ZM68.3444 93.6019C68.4743 92.5191 69.4271 92.4325 70.3366 92.4325C70.5532 92.4325 70.813 92.5191 70.9863 92.6057C71.6792 92.9522 72.3722 93.4286 72.199 94.2515C71.9824 95.0744 71.1595 95.161 70.1634 95.0311C70.2067 95.0311 70.0334 95.0311 69.9035 94.9878C69.2539 94.6846 68.2144 94.6846 68.3444 93.6019Z" fill="#6F6F6F"/>
<path d="M91.3853 60.5987C92.6413 60.2522 93.724 60.7286 94.7635 61.3783C95.4997 61.8547 96.3226 61.898 96.929 61.2051C97.5786 60.4255 97.4054 59.5593 96.799 58.823C95.7596 57.5237 94.287 56.9174 92.1648 56.7441C91.9916 56.7441 91.342 56.7441 90.7356 56.9174C89.4363 57.3072 87.8772 57.7403 88.2669 59.516C88.6567 61.1617 90.086 60.9885 91.3853 60.5987Z" fill="#6F6F6F"/>
<path d="M120.792 65.9697C121.009 65.7532 121.139 65.4933 121.269 65.1902C121.572 64.7138 121.702 64.2374 121.745 63.6743V63.631C121.788 63.5444 121.788 63.4144 121.832 63.3278C122.655 57.9141 123.824 52.587 123.737 47C123.607 36.952 121.225 27.727 115.075 19.5847C113.343 17.2893 111.481 15.4269 109.445 13.9544C104.248 9.27689 97.4914 6.33181 90.3452 6.15857C86.3174 2.56384 80.9469 0.484955 75.5332 0.0951649C70.206 -0.294625 63.5363 0.484971 58.1659 2.95364C53.575 4.12301 49.1574 6.11528 44.783 8.88713C42.6609 10.273 40.4087 10.9227 37.9834 11.3125C37.1172 11.4857 36.2077 11.4424 35.3415 11.4857C34.5186 11.529 33.6524 11.659 33.4791 12.6984C33.3059 13.6079 34.0855 13.8678 34.6918 14.3009C35.7312 15.0372 36.9439 15.0805 38.5897 15.4269C31.7467 21.3604 27.5023 28.1601 25.9432 36.9087C24.9037 42.7989 24.8171 48.6024 24.6439 54.4926C24.6439 54.8824 24.6439 55.2289 24.7305 55.5753C24.7738 55.8785 24.8171 56.1817 24.9471 56.4415C25.0337 56.8746 25.2502 57.3077 25.5534 57.6542C21.8287 58.8669 19.1002 62.4616 19.2734 66.836C19.5333 73.5057 24.1675 78.9628 30.8805 80.2621C32.2231 80.5219 32.6995 81.0416 33.0027 82.2976C34.3453 87.6681 36.6841 92.6054 39.9756 97.0231C40.8851 98.2357 41.838 99.3185 42.8774 100.358C43.5704 99.8815 44.3066 99.4484 45.0429 99.0586C45.4327 98.8421 45.8658 98.6255 46.3422 98.4523C44.1334 96.5033 42.1844 94.2079 40.6686 91.4361C38.5031 87.4948 37.0739 83.3371 35.6446 79.136C35.2548 77.9666 34.9084 76.7973 33.1326 76.7106C27.5023 76.5807 23.128 72.2497 22.8249 66.6627C22.565 61.9852 26.7661 58.9102 31.0538 60.5127C31.8767 61.6387 32.3964 62.938 32.3531 63.9775C32.3098 65.3634 32.3098 66.7493 33.9988 66.9226C35.7746 67.0958 36.2943 65.7099 36.4242 64.2374C37.0306 58.4338 37.6802 52.6736 38.1566 46.87C38.2432 45.614 38.633 44.7911 39.6725 44.0982C43.8302 41.3696 47.2084 37.7749 50.5 34.0935C51.2796 33.2273 51.8426 32.1013 53.3151 31.4083C52.3623 35.2629 50.9331 38.6411 48.9841 41.8028C48.3345 42.8422 47.5549 43.9249 48.3778 45.1376C49.2873 46.4369 50.6299 46.0904 51.9292 45.744C57.7761 44.2281 62.4102 40.8066 66.3948 36.389C66.9578 35.7827 67.261 34.9164 68.3437 34.6999C68.6036 37.3418 67.7374 39.6372 67.0444 41.9327C66.6979 43.1454 66.1782 44.5313 67.3043 45.5707C68.517 46.6968 69.9029 46.1338 71.2022 45.614C71.7219 45.3975 72.2416 45.1376 72.7613 44.9211C76.8325 43.1453 80.4272 40.5467 83.892 37.3418C83.9353 38.0781 84.0219 38.4679 83.9786 38.8144C83.7188 40.3302 83.5022 41.8461 83.1558 43.3186C82.5927 45.8739 83.8487 47.2165 86.4473 46.7401C89.1325 46.2637 91.428 44.9211 93.6801 43.4485C96.5386 41.4996 99.1805 39.3341 101.563 36.7355C102.169 40.8066 103.165 44.7911 104.508 48.7324C105.59 51.8507 107.063 54.8391 109.185 57.2211C109.228 60.9025 109.055 64.6271 108.665 68.3518C108.535 69.5645 108.276 70.7338 108.665 71.9465C108.969 72.8994 109.618 73.4624 110.614 73.5057C110.701 73.5057 110.788 73.5057 110.831 73.5057C110.874 73.4624 110.917 73.4624 110.961 73.4191C111.134 73.2892 111.264 73.1592 111.394 73.0293C112 71.1669 113.04 69.3912 114.252 68.0486C114.382 67.8754 114.556 67.7888 114.685 67.6588C118.367 67.0525 121.918 69.7377 121.962 73.3325C122.048 78.9194 115.725 84.3765 110.138 83.3371C108.492 83.0339 107.756 83.5969 107.063 84.8096C106.153 86.4554 105.33 88.1878 104.334 89.8336C101.086 95.3773 97.2315 100.358 91.298 103.346C84.8448 106.595 77.9152 108.284 70.9856 110.059C69.4265 110.449 67.9972 110.319 66.568 109.67C62.4969 107.721 58.2958 105.988 54.3113 103.779C53.6183 103.39 51.4528 102.047 50.8031 101.657C50.6732 101.96 50.5866 102.653 50.2401 102.783C49.2873 103.26 49.6338 104.213 48.7243 104.776C51.4961 106.551 54.5278 108.067 57.5595 109.496C69.7296 115.17 66.9578 114.694 79.9941 111.489C93.3769 108.197 103.641 101.224 109.142 88.2311C109.661 87.0184 110.484 87.1917 111.437 87.105C118.41 86.3688 124.69 82.6441 125.296 74.6318C125.773 71.0803 123.694 67.7022 120.792 65.9697Z" fill="#6F6F6F"/>
<path d="M153.449 46.5215C153.449 46.4782 153.449 46.4349 153.449 46.3916C153.449 46.3049 153.449 46.2616 153.449 46.175C154.055 43.4465 153.275 41.1077 151.067 39.2454C149.897 38.2493 148.555 37.513 147.039 37.0366C145.999 36.6901 144.83 36.4736 143.574 36.387C140.326 36.1271 137.684 37.3831 135.648 40.1116C135.302 40.588 135.172 41.0644 135.258 41.4975C135.345 41.9306 135.648 42.3204 136.125 42.6669C136.384 42.8401 136.644 42.9701 136.861 43.0134C137.64 43.2732 138.29 42.9701 138.94 42.1472C140.282 40.4148 141.928 39.6352 144.007 39.7651C144.57 39.8084 145.133 39.9384 145.739 40.1116C146.043 40.1982 146.389 40.3282 146.736 40.5014C147.775 40.9778 148.555 41.5842 149.161 42.3637C149.811 43.2732 149.984 44.4859 149.681 45.6986C149.334 46.9113 148.555 47.8208 147.429 48.3405C146.562 48.7303 145.61 49.0335 144.743 49.2933C144.137 49.4666 143.487 49.6831 142.881 49.8997C141.149 50.5493 139.936 51.4588 139.156 52.7148C138.463 53.8409 138.074 55.0969 137.77 56.1363C137.511 57.0458 137.987 57.7821 139.07 58.1286C140.066 58.4317 140.845 58.1286 141.192 57.2191C141.322 56.8726 141.452 56.5261 141.538 56.1796C141.971 54.5338 143.011 53.4078 144.743 52.8448C145.22 52.6715 145.696 52.5416 146.129 52.3683C146.736 52.1518 147.342 51.9786 147.948 51.762C149.681 51.1557 151.63 50.2462 152.712 48.2106C152.799 48.0807 152.842 47.9507 152.886 47.8208C152.972 47.6042 153.059 47.431 153.189 47.2578L153.232 47.2145L153.449 46.5215Z" fill="#6F6F6F"/>
<path d="M138.203 60.5101C138.03 60.4668 137.856 60.4235 137.683 60.4235C136.557 60.3369 135.648 61.1165 135.474 62.2859C135.388 63.1088 135.691 63.7584 136.47 64.3648L137.207 64.5813H137.25C137.293 64.5813 137.293 64.5813 137.337 64.5813C137.38 64.5813 137.423 64.5813 137.467 64.5813C138.679 64.6246 139.545 63.8017 139.632 62.5457C139.675 61.6362 139.112 60.8133 138.203 60.5101Z" fill="#6F6F6F"/>
<path d="M53.0134 243.195H44.414V258H29.707V243.195H0.195312V232.69L30.5376 186.566H44.414V231.469H53.0134V243.195ZM29.707 231.469V219.351C29.707 218.928 29.707 218.325 29.707 217.544C29.7396 216.729 29.7721 215.817 29.8047 214.807C29.8373 213.798 29.8698 212.755 29.9024 211.68C29.9676 210.605 30.0164 209.579 30.049 208.602C30.1141 207.625 30.163 206.778 30.1956 206.061C30.2607 205.312 30.3096 204.775 30.3422 204.449H29.9024C29.3161 205.817 28.6483 207.267 27.8991 208.798C27.1825 210.329 26.3519 211.86 25.4073 213.391L13.4853 231.469H29.707Z" fill="#909090"/>
<path d="M107.151 222.283C107.151 228.049 106.695 233.195 105.783 237.723C104.903 242.251 103.47 246.094 101.483 249.254C99.5285 252.414 96.9877 254.824 93.8606 256.485C90.7662 258.147 87.0202 258.977 82.6228 258.977C78.4859 258.977 74.8865 258.147 71.8246 256.485C68.7627 254.824 66.222 252.414 64.2024 249.254C62.1828 246.094 60.6682 242.251 59.6584 237.723C58.6812 233.195 58.1926 228.049 58.1926 222.283C58.1926 216.518 58.6323 211.355 59.5118 206.794C60.4239 202.234 61.8571 198.374 63.8115 195.214C65.7659 192.055 68.2904 189.644 71.3849 187.983C74.4794 186.289 78.2253 185.442 82.6228 185.442C86.727 185.442 90.3101 186.273 93.372 187.934C96.434 189.596 98.991 192.006 101.043 195.166C103.095 198.325 104.626 202.185 105.636 206.746C106.646 211.306 107.151 216.485 107.151 222.283ZM73.2416 222.283C73.2416 230.426 73.9419 236.55 75.3426 240.655C76.7432 244.759 79.17 246.811 82.6228 246.811C86.0104 246.811 88.4372 244.775 89.903 240.703C91.4013 236.632 92.1505 230.492 92.1505 222.283C92.1505 214.107 91.4013 207.967 89.903 203.863C88.4372 199.726 86.0104 197.657 82.6228 197.657C80.8964 197.657 79.4305 198.179 78.2253 199.221C77.0527 200.263 76.0918 201.811 75.3426 203.863C74.5934 205.915 74.0559 208.488 73.7302 211.583C73.4044 214.645 73.2416 218.211 73.2416 222.283Z" fill="#909090"/>
<path d="M163.242 243.195H154.643V258H139.936V243.195H110.424V232.69L140.767 186.566H154.643V231.469H163.242V243.195ZM139.936 231.469V219.351C139.936 218.928 139.936 218.325 139.936 217.544C139.969 216.729 140.001 215.817 140.034 214.807C140.066 213.798 140.099 212.755 140.131 211.68C140.197 210.605 140.245 209.579 140.278 208.602C140.343 207.625 140.392 206.778 140.425 206.061C140.49 205.312 140.539 204.775 140.571 204.449H140.131C139.545 205.817 138.877 207.267 138.128 208.798C137.412 210.329 136.581 211.86 135.636 213.391L123.714 231.469H139.936Z" fill="#909090"/>
<path d="M6.4986 270.146C8.23831 270.146 9.50581 270.5 10.3011 271.209C11.0964 271.905 11.4941 272.88 11.4941 274.135C11.4941 274.694 11.4009 275.229 11.2145 275.738C11.0405 276.248 10.7485 276.708 10.3384 277.118C9.92831 277.515 9.38155 277.832 8.69809 278.068C8.02706 278.292 7.2007 278.404 6.219 278.404H4.78374V283.455H2.77065V270.146H6.4986ZM6.34948 271.843H4.78374V276.708H5.99533C6.75334 276.708 7.38709 276.627 7.89658 276.465C8.40607 276.291 8.78508 276.024 9.03361 275.664C9.29456 275.291 9.42504 274.806 9.42504 274.21C9.42504 273.415 9.17651 272.824 8.67945 272.439C8.19482 272.041 7.41816 271.843 6.34948 271.843Z" fill="#909090"/>
<path d="M21.5502 283.455L20.1336 279.615H14.989L13.5724 283.455H11.4847L16.5361 270.09H18.6238L23.6565 283.455H21.5502ZM18.2323 274.117C18.195 273.98 18.1267 273.775 18.0273 273.501C17.9403 273.216 17.8533 272.93 17.7663 272.644C17.6793 272.346 17.611 272.104 17.5613 271.917C17.4992 272.166 17.4246 272.439 17.3376 272.737C17.2631 273.023 17.1885 273.29 17.1139 273.539C17.0394 273.775 16.9772 273.967 16.9275 274.117L15.5855 277.863H19.5744L18.2323 274.117Z" fill="#909090"/>
<path d="M30.642 276.297H35.4511V282.933C34.7428 283.169 34.0158 283.343 33.2702 283.455C32.5371 283.579 31.6983 283.642 30.7539 283.642C29.3994 283.642 28.2499 283.368 27.3055 282.821C26.3735 282.275 25.659 281.492 25.1619 280.473C24.6773 279.454 24.435 278.23 24.435 276.801C24.435 275.409 24.7084 274.204 25.2551 273.185C25.8019 272.166 26.5848 271.377 27.6038 270.817C28.6352 270.246 29.884 269.96 31.3503 269.96C32.0835 269.96 32.7856 270.034 33.4566 270.184C34.1277 270.32 34.749 270.513 35.3206 270.761L34.5937 272.439C34.1339 272.228 33.6182 272.054 33.0466 271.917C32.4874 271.768 31.8971 271.693 31.2758 271.693C30.2941 271.693 29.4429 271.905 28.7221 272.327C28.0138 272.737 27.4671 273.328 27.0818 274.098C26.709 274.856 26.5226 275.763 26.5226 276.819C26.5226 277.813 26.678 278.696 26.9886 279.466C27.2993 280.237 27.7901 280.839 28.4612 281.274C29.1322 281.709 30.0083 281.927 31.0894 281.927C31.4498 281.927 31.7666 281.914 32.04 281.889C32.3134 281.852 32.5619 281.815 32.7856 281.778C33.0217 281.728 33.2454 281.684 33.4566 281.647V278.031H30.642V276.297Z" fill="#909090"/>
<path d="M46.1235 283.455H38.6303V270.146H46.1235V271.861H40.6434V275.664H45.788V277.36H40.6434V281.722H46.1235V283.455Z" fill="#909090"/>
<path d="M64.7708 283.455H62.329L55.6001 272.7H55.5255C55.5379 272.949 55.5504 273.216 55.5628 273.501C55.5877 273.787 55.6063 274.092 55.6187 274.415C55.6311 274.726 55.6436 275.049 55.656 275.384C55.6684 275.707 55.6746 276.036 55.6746 276.372V283.455H53.8479V270.146H56.2711L62.9814 280.846H63.0373C63.0249 280.659 63.0125 280.429 63.0001 280.156C62.9876 279.87 62.9752 279.566 62.9628 279.243C62.9628 278.919 62.9566 278.59 62.9441 278.255C62.9317 277.919 62.9193 277.602 62.9069 277.304V270.146H64.7708V283.455Z" fill="#909090"/>
<path d="M80.0623 276.782C80.0623 277.813 79.9318 278.752 79.6708 279.597C79.4223 280.429 79.0371 281.15 78.5152 281.759C78.0057 282.368 77.3595 282.834 76.5766 283.157C75.8062 283.48 74.9053 283.642 73.8739 283.642C72.8176 283.642 71.8981 283.48 71.1152 283.157C70.3448 282.821 69.6986 282.355 69.1767 281.759C68.6672 281.15 68.2882 280.423 68.0396 279.578C67.7911 278.733 67.6668 277.795 67.6668 276.763C67.6668 275.397 67.8905 274.204 68.3379 273.185C68.7852 272.166 69.4687 271.37 70.3882 270.799C71.3202 270.227 72.4883 269.941 73.8925 269.941C75.2594 269.941 76.3965 270.227 77.3036 270.799C78.2232 271.358 78.9128 272.153 79.3726 273.185C79.8324 274.204 80.0623 275.403 80.0623 276.782ZM69.7918 276.782C69.7918 277.851 69.9347 278.77 70.2205 279.541C70.5063 280.299 70.9536 280.889 71.5625 281.312C72.1714 281.722 72.9419 281.927 73.8739 281.927C74.8183 281.927 75.5887 281.722 76.1852 281.312C76.7817 280.889 77.2228 280.299 77.5086 279.541C77.7944 278.77 77.9373 277.851 77.9373 276.782C77.9373 275.179 77.6143 273.93 76.9681 273.035C76.3343 272.128 75.3091 271.675 73.8925 271.675C72.9481 271.675 72.1714 271.88 71.5625 272.29C70.9536 272.7 70.5063 273.284 70.2205 274.042C69.9347 274.8 69.7918 275.713 69.7918 276.782Z" fill="#909090"/>
<path d="M86.8636 283.455H84.8505V271.88H80.8616V270.146H90.8525V271.88H86.8636V283.455Z" fill="#909090"/>
<path d="M99.7295 283.455H97.7351V270.146H105.228V271.861H99.7295V276.204H104.874V277.919H99.7295V283.455Z" fill="#909090"/>
<path d="M119.326 276.782C119.326 277.813 119.195 278.752 118.934 279.597C118.686 280.429 118.301 281.15 117.779 281.759C117.269 282.368 116.623 282.834 115.84 283.157C115.07 283.48 114.169 283.642 113.138 283.642C112.081 283.642 111.162 283.48 110.379 283.157C109.608 282.821 108.962 282.355 108.44 281.759C107.931 281.15 107.552 280.423 107.303 279.578C107.055 278.733 106.93 277.795 106.93 276.763C106.93 275.397 107.154 274.204 107.601 273.185C108.049 272.166 108.732 271.37 109.652 270.799C110.584 270.227 111.752 269.941 113.156 269.941C114.523 269.941 115.66 270.227 116.567 270.799C117.487 271.358 118.176 272.153 118.636 273.185C119.096 274.204 119.326 275.403 119.326 276.782ZM109.055 276.782C109.055 277.851 109.198 278.77 109.484 279.541C109.77 280.299 110.217 280.889 110.826 281.312C111.435 281.722 112.206 281.927 113.138 281.927C114.082 281.927 114.852 281.722 115.449 281.312C116.045 280.889 116.486 280.299 116.772 279.541C117.058 278.77 117.201 277.851 117.201 276.782C117.201 275.179 116.878 273.93 116.232 273.035C115.598 272.128 114.573 271.675 113.156 271.675C112.212 271.675 111.435 271.88 110.826 272.29C110.217 272.7 109.77 273.284 109.484 274.042C109.198 274.8 109.055 275.713 109.055 276.782Z" fill="#909090"/>
<path d="M132.544 278.758C132.544 279.677 132.352 280.51 131.967 281.256C131.594 281.989 131.016 282.573 130.233 283.008C129.45 283.43 128.462 283.642 127.269 283.642C125.579 283.642 124.293 283.194 123.411 282.299C122.541 281.392 122.106 280.199 122.106 278.721V270.146H124.119V278.627C124.119 279.721 124.386 280.547 124.921 281.107C125.455 281.653 126.269 281.927 127.363 281.927C128.108 281.927 128.717 281.79 129.189 281.517C129.661 281.243 130.003 280.864 130.214 280.38C130.438 279.882 130.55 279.292 130.55 278.609V270.146H132.544V278.758Z" fill="#909090"/>
<path d="M146.902 283.455H144.46L137.731 272.7H137.657C137.669 272.949 137.682 273.216 137.694 273.501C137.719 273.787 137.738 274.092 137.75 274.415C137.763 274.726 137.775 275.049 137.787 275.384C137.8 275.707 137.806 276.036 137.806 276.372V283.455H135.979V270.146H138.403L145.113 280.846H145.169C145.156 280.659 145.144 280.429 145.131 280.156C145.119 279.87 145.107 279.566 145.094 279.243C145.094 278.919 145.088 278.59 145.076 278.255C145.063 277.919 145.051 277.602 145.038 277.304V270.146H146.902V283.455Z" fill="#909090"/>
<path d="M161.224 276.67C161.224 278.161 160.945 279.41 160.386 280.417C159.826 281.423 159.019 282.181 157.962 282.691C156.919 283.2 155.657 283.455 154.179 283.455H150.451V270.146H154.57C155.925 270.146 157.099 270.395 158.093 270.892C159.087 271.389 159.858 272.122 160.404 273.091C160.951 274.048 161.224 275.241 161.224 276.67ZM159.118 276.726C159.118 275.608 158.938 274.688 158.578 273.967C158.217 273.247 157.683 272.712 156.975 272.364C156.279 272.017 155.434 271.843 154.44 271.843H152.464V281.759H154.085C155.763 281.759 157.018 281.336 157.851 280.491C158.696 279.646 159.118 278.391 159.118 276.726Z" fill="#909090"/>
</svg>
