<svg width="651" height="560" viewBox="0 0 651 560" fill="none" xmlns="http://www.w3.org/2000/svg">
<path d="M437.58 59.893L398.28 92.093L398.98 108.893C398.98 108.893 392.28 108.593 390.88 108.993C389.48 109.493 385.78 111.893 384.98 112.793C384.18 113.793 383.58 119.693 383.78 121.693C383.98 123.693 385.68 128.693 387.78 130.293C389.88 131.893 401.28 135.993 402.58 135.693C403.88 135.393 409.28 148.793 412.58 152.793C415.88 156.793 421.08 159.593 422.68 160.993C424.28 162.393 425.88 164.193 424.38 165.293C422.88 166.393 418.88 165.793 418.88 165.793L324.28 126.193C324.28 126.193 324.18 125.293 322.88 120.693C321.58 116.193 318.98 110.093 316.78 104.293C314.48 98.593 313.48 95.293 311.78 94.693C310.08 94.093 309.38 93.393 308.18 97.193C307.08 101.093 309.48 105.993 306.68 104.893C303.88 103.793 300.98 102.493 299.88 99.993C298.88 97.593 287.78 88.693 286.98 88.293C286.18 87.893 283.98 87.693 283.58 89.793C283.18 91.893 283.58 91.893 285.98 95.793C288.38 99.793 290.88 102.093 291.58 104.293C292.38 106.493 289.98 106.193 289.98 106.193L274.18 93.993C274.18 93.993 271.78 93.093 271.08 94.793C270.28 96.593 269.08 95.693 271.28 99.193C273.48 102.693 275.58 104.493 278.38 108.393C281.08 112.393 282.68 114.893 282.68 114.893C282.68 114.893 273.68 114.093 269.28 111.793C264.98 109.493 266.08 108.393 264.68 110.293C263.28 112.193 262.28 113.793 263.88 116.393C265.38 118.993 268.48 120.993 271.78 122.493C275.08 123.993 279.48 125.393 280.48 127.593C281.38 129.793 281.98 130.393 280.18 131.093C278.38 131.793 274.08 131.093 272.28 133.293C270.48 135.493 269.38 136.993 271.68 138.293C274.08 139.593 279.48 140.693 279.48 140.693C279.48 140.693 284.88 138.893 287.68 139.893C290.48 140.893 290.28 140.993 294.68 142.293C298.98 143.593 312.48 145.493 312.48 145.493C312.48 145.493 310.18 151.393 310.78 152.493C311.38 153.493 311.18 155.193 314.78 158.393C318.38 161.593 382.38 205.093 382.38 205.093C382.38 205.093 394.28 211.493 395.88 214.493C397.48 217.493 397.48 221.693 395.78 229.493C394.08 237.293 378.18 328.393 378.18 328.393C378.18 328.393 373.48 343.393 374.68 345.593C375.88 347.793 377.38 349.893 379.78 351.593C382.18 353.293 383.98 353.993 384.28 355.493C384.58 356.893 385.78 356.893 384.38 361.193C382.98 365.493 376.38 384.193 376.38 384.193C376.38 384.193 374.68 383.093 370.88 380.793C367.08 378.493 363.28 377.193 359.98 376.993C356.68 376.793 355.58 381.193 353.48 376.993C351.38 372.793 350.28 371.593 348.58 370.793C346.88 369.993 338.78 366.893 336.38 368.393C333.98 369.893 329.28 376.893 329.28 376.893C329.28 376.893 327.38 382.293 324.18 388.393C320.98 394.493 319.98 397.793 316.58 403.393C313.18 408.893 310.58 413.093 311.38 417.193C312.18 421.293 313.28 424.593 315.88 427.193C318.48 429.693 320.08 430.393 323.98 431.193C327.88 431.993 333.78 433.493 337.28 431.193C340.78 428.893 342.18 430.393 344.38 426.393C346.68 422.393 345.18 418.093 349.28 420.293C353.28 422.493 362.58 428.693 363.48 430.293C364.38 431.893 378.38 446.493 384.68 449.893C390.98 453.293 397.48 454.493 402.88 453.193C408.38 451.893 417.38 446.693 421.38 442.593C425.38 438.493 432.28 431.393 436.48 420.193C440.68 408.993 441.58 402.093 443.88 396.993C446.28 391.793 448.18 383.293 449.88 382.593C451.58 381.893 455.08 381.693 457.28 381.893C459.58 382.193 460.08 382.193 461.58 385.493C463.08 388.793 466.38 392.393 468.48 400.493C470.58 408.693 475.78 426.493 480.08 432.193C484.28 437.893 488.08 442.693 495.38 447.193C502.68 451.593 511.78 454.793 517.68 453.093C523.58 451.393 530.28 447.093 537.88 439.593C545.48 432.193 563.98 419.793 563.78 419.693C563.48 419.593 567.28 428.093 570.58 429.993C573.88 431.893 579.68 434.393 584.88 433.093C590.08 431.793 594.38 430.393 596.58 424.393C598.78 418.493 599.38 417.393 597.18 409.193C594.88 400.893 582.78 378.393 580.08 373.893C577.38 369.393 575.58 365.893 569.78 367.893C564.08 369.893 562.58 369.893 560.28 372.993C557.98 376.093 558.68 377.093 555.68 376.793C552.68 376.393 552.88 375.293 547.58 378.493C542.28 381.693 535.48 385.093 535.48 385.093L524.18 355.893C524.18 355.893 532.28 351.893 533.98 349.493C535.68 347.093 536.58 343.393 536.58 343.393L528.08 303.493L519.18 258.093C519.18 258.093 513.28 223.293 513.68 219.093C514.08 214.893 515.38 213.493 520.38 210.093C525.38 206.693 576.18 173.793 576.18 173.793C576.18 173.793 596.18 159.293 597.88 156.893C599.58 154.493 601.08 153.893 600.88 152.093C600.68 150.293 597.78 144.393 597.78 144.393C597.78 144.393 608.18 146.193 610.98 145.693C613.68 145.193 620.28 140.593 625.68 140.693C631.08 140.793 636.68 140.393 638.68 138.493C640.68 136.593 642.08 136.093 640.68 134.293C639.28 132.493 634.08 130.693 634.08 130.693C634.08 130.693 629.58 127.793 632.58 125.593C635.58 123.393 638.78 123.493 642.78 120.893C646.78 118.293 649.28 114.293 647.88 112.293C646.48 110.293 645.98 109.293 642.58 110.893C639.18 112.493 634.58 114.293 631.98 115.193C629.38 116.093 627.78 115.493 628.18 113.193C628.68 110.893 631.38 108.293 634.88 104.793C638.38 101.293 643.38 97.193 641.98 95.593C640.58 93.993 639.28 94.793 636.48 95.993C633.78 97.193 620.18 106.293 620.68 105.993C621.18 105.693 619.58 104.393 619.58 104.393L629.78 90.193L627.68 86.993C627.68 86.993 619.88 92.193 618.18 93.793C616.48 95.393 610.08 102.993 608.98 103.993C607.88 104.893 606.28 103.693 606.28 103.693C606.28 103.693 604.28 95.293 602.98 94.693C601.68 93.993 600.08 94.193 598.98 96.093C597.98 97.993 596.58 101.593 594.98 106.793C593.38 111.993 589.18 118.393 589.18 121.293C589.18 124.193 589.48 125.493 589.48 125.493L565.78 135.793L485.58 168.193C485.58 168.193 482.98 164.393 482.88 164.193C482.78 163.893 484.18 163.393 490.08 159.293C495.98 155.293 496.08 152.193 498.48 147.793C500.88 143.493 507.08 135.493 507.38 131.093C507.78 126.693 507.38 121.193 507.08 118.493C506.78 115.793 504.58 103.593 498.38 92.793C492.28 81.993 477.68 54.293 477.68 54.293L437.98 59.993L437.58 59.893Z" fill="white"/>
<path d="M561.98 399.093C560.38 392.293 555.08 384.193 547.78 378.593C543.18 381.293 535.08 386.393 532.18 381.793L527.38 384.993L521.38 373.393L517.18 358.893C498.48 366.193 475.18 367.193 455.38 368.393C430.88 369.393 406.18 362.893 385.68 356.293C383.58 364.593 379.58 372.293 378.08 380.693C378.08 382.593 376.58 384.493 374.58 384.393L374.48 384.793C370.18 382.993 358.98 375.193 355.38 376.793C352.68 378.093 351.08 378.093 347.88 382.493C342.48 390.293 338.98 395.993 339.38 405.593C339.88 411.293 339.08 412.393 341.38 414.693C343.78 416.993 341.68 415.193 348.88 421.293C356.08 427.393 376.18 441.693 378.68 444.893C393.48 461.293 411.68 444.993 421.18 430.493C430.48 416.293 438.48 399.493 443.18 383.093C443.98 380.393 446.88 380.093 448.68 381.393C449.98 381.093 451.48 380.993 452.98 381.493C456.08 381.293 461.98 379.793 462.08 384.593C467.78 405.593 474.18 430.093 491.98 444.393C498.88 448.593 507.48 456.893 515.58 450.993C522.78 446.393 530.08 440.493 540.08 430.993C558.08 412.893 564.28 419.393 561.98 399.093Z" fill="#FFEBC4"/>
<path d="M324.48 125.793C321.38 128.593 311.58 145.693 310.88 150.593C310.68 151.993 308.98 154.593 313.28 157.793C317.48 160.993 362.58 192.793 363.78 194.093C364.88 195.493 385.98 208.093 386.78 208.693C389.38 210.293 399.48 214.793 397.28 220.993C392.28 251.993 381.68 318.193 374.38 344.793C374.38 344.793 374.48 347.793 378.48 350.493C388.38 360.093 414.38 363.793 428.68 366.393C448.48 369.993 481.78 368.393 501.58 362.093C519.88 356.693 527.28 356.893 537.88 344.593C528.68 309.493 520.08 255.193 513.48 218.993C513.48 215.493 511.08 215.993 515.48 213.293C533.48 203.993 585.78 168.193 598.58 157.793C598.58 157.793 601.98 156.193 601.38 151.793C598.58 140.193 593.48 134.493 588.28 126.593C588.28 126.593 586.48 125.793 584.08 127.493C581.68 129.193 567.38 135.893 566.88 136.193C557.88 140.593 498.18 165.693 484.68 167.193C479.88 177.093 466.18 184.493 453.28 184.193C443.08 185.193 430.48 173.293 426.98 168.893C400.88 160.593 349.18 138.093 324.48 125.793Z" fill="#FFDADA"/>
<path d="M523.28 329.293C479.38 344.593 430.08 344.393 386.28 328.693C385.08 328.193 383.68 327.793 382.78 329.193C381.18 331.793 384.68 333.493 386.58 334.493C429.18 350.693 480.88 351.193 524.88 334.293C530.88 332.593 529.38 325.593 523.28 329.293Z" fill="white"/>
<path d="M421.88 305.293C411.38 304.193 400.88 302.993 390.78 299.793C389.48 299.393 388.08 299.293 387.38 300.793C386.28 304.293 391.58 305.593 394.08 306.393C433.98 314.793 475.88 314.993 515.78 306.693C518.58 305.793 524.58 304.793 523.68 300.893C522.98 299.193 521.38 299.493 519.98 299.893C487.98 307.993 454.68 308.293 421.88 305.293Z" fill="white"/>
<path d="M398.28 279.693C436.98 287.093 476.68 287.193 514.88 279.293C520.98 278.693 520.48 271.793 514.18 274.493C476.18 281.393 436.98 281.293 398.88 274.793C396.78 274.393 392.98 271.893 392.28 275.593C391.58 279.093 395.78 279.093 398.28 279.693Z" fill="white"/>
<path d="M397.78 250.593C436.48 256.293 475.98 256.793 514.48 250.293C518.58 249.393 517.88 244.693 513.48 245.893C475.18 250.593 436.78 250.093 398.48 245.993C392.98 244.293 392.48 250.193 397.78 250.593Z" fill="white"/>
<path d="M403.28 222.593C410.38 226.393 514.58 229.593 510.18 219.293C509.68 217.793 508.28 217.693 506.88 217.893C473.08 221.893 438.48 221.493 404.48 217.893C400.78 216.793 399.38 221.593 403.28 222.593Z" fill="white"/>
<path d="M391.38 158.693C384.38 156.993 373.58 191.693 372.18 198.293C371.98 202.793 377.58 202.593 377.98 198.393C381.18 186.793 385.18 175.593 390.88 164.993C391.88 163.093 394.68 160.293 391.38 158.693Z" fill="white"/>
<path d="M522.78 158.593C520.48 159.793 521.78 161.793 522.58 163.293C528.78 174.493 533.08 186.493 536.48 198.793C537.28 202.993 542.88 202.193 542.08 197.493C539.88 190.793 530.58 158.193 522.78 158.593Z" fill="white"/>
<path d="M368.98 146.093C362.78 143.693 348.98 173.993 349.38 179.993C348.58 184.093 354.78 184.693 354.88 180.293C356.58 168.893 363.58 159.593 368.78 149.493C369.38 148.393 370.38 147.093 368.98 146.093Z" fill="white"/>
<path d="M564.58 177.993C564.58 172.493 551.28 143.693 545.28 146.093C543.88 147.093 544.78 148.393 545.38 149.593C550.68 159.793 557.68 169.293 559.48 181.093C561.28 186.193 566.58 182.493 564.58 177.993Z" fill="white"/>
<path d="M349.18 137.193C344.98 132.493 323.88 168.293 331.58 168.893C333.28 169.193 334.28 168.193 334.88 166.793C338.28 157.393 343.28 148.993 348.68 140.693C349.38 139.593 350.48 138.393 349.18 137.193Z" fill="white"/>
<path d="M583.68 162.393C580.98 157.093 571.58 134.893 564.98 137.193C564.08 138.193 564.68 139.193 565.28 139.993C570.88 148.593 576.18 157.393 579.68 167.093C582.78 172.093 586.18 166.593 583.68 162.393Z" fill="white"/>
<path d="M582.78 373.393C576.98 362.693 561.98 362.593 556.88 374.193C549.08 372.493 543.38 377.893 536.68 380.893C533.48 372.693 530.88 364.693 528.48 356.493C531.98 354.693 533.98 351.393 536.78 349.293C539.78 346.993 540.08 344.793 539.28 341.993C533.38 322.393 532.08 301.793 527.38 281.893C522.58 261.493 521.28 240.393 516.08 220.093C515.68 218.693 516.58 218.093 517.48 217.293C521.98 213.193 527.68 211.093 532.58 207.693C551.18 195.093 568.68 180.793 587.78 168.793C591.78 166.293 595.18 162.693 598.88 159.493C599.68 158.793 600.48 157.993 599.78 156.793C599.08 155.693 598.08 155.693 596.98 155.993C595.18 156.493 593.68 157.593 592.28 158.693C589.58 160.693 587.08 163.093 584.18 164.793C560.68 178.593 539.98 196.593 516.48 210.293C512.38 212.693 511.08 216.493 511.88 220.993C516.08 247.293 518.68 273.893 524.78 299.993C527.88 312.993 528.18 326.593 532.08 339.493C534.48 347.393 533.98 347.993 526.28 351.393C526.08 351.493 525.78 351.593 525.58 351.693C512.68 357.793 498.98 360.793 485.08 362.693C454.58 366.893 424.28 365.093 394.88 355.093C389.98 353.393 385.08 351.493 380.78 348.593C378.78 347.193 377.88 345.793 378.68 343.493C382.78 330.493 383.58 316.893 386.48 303.693C392.38 277.393 395.28 250.593 399.78 223.993C400.98 216.993 399.18 212.193 392.78 208.393C367.58 193.193 344.38 175.093 319.78 158.893C318.28 157.893 316.88 156.693 315.08 156.193C313.88 155.793 312.68 155.693 311.98 156.993C311.38 158.193 312.18 158.993 312.98 159.593C317.38 163.193 321.38 167.393 326.28 170.493C337.48 177.393 347.98 185.293 358.58 193.093C367.98 199.993 377.28 207.193 387.68 212.693C396.18 217.193 395.98 217.593 393.98 226.693C393.88 227.293 393.68 227.993 393.58 228.593C390.18 244.893 388.88 261.593 385.08 277.793C380.08 299.193 378.28 321.293 372.28 342.493C371.78 344.393 371.18 346.793 373.08 347.893C376.48 349.993 377.88 354.093 381.68 355.593C382.78 356.093 383.18 356.893 382.78 358.093C380.28 365.593 377.78 373.093 375.08 381.193C368.08 377.393 362.18 372.593 354.38 374.093C350.58 366.193 343.28 363.393 335.78 366.893C332.88 368.293 330.38 370.393 328.88 373.093C322.88 384.193 317.18 395.393 311.38 406.693C310.58 408.293 310.08 410.093 309.68 411.893C307.68 420.693 312.08 430.593 319.68 433.993C326.38 436.893 333.18 437.293 339.98 433.693C343.88 431.593 346.88 428.793 348.48 424.293C349.58 425.093 350.18 425.493 350.78 425.993C360.28 434.493 370.78 441.793 380.78 449.793C389.68 456.893 399.58 458.293 409.68 453.393C422.98 446.993 432.78 436.793 438.68 422.993C443.68 411.393 447.18 399.193 451.58 387.393C452.28 385.493 452.78 383.493 455.68 383.493C458.68 383.393 459.38 385.393 460.18 387.493C464.48 398.693 467.78 410.193 472.28 421.293C477.78 434.893 486.98 445.193 499.68 452.193C510.08 457.993 520.38 457.693 530.08 450.393C535.58 446.193 540.88 441.793 546.48 437.793C552.08 433.693 557.28 428.993 562.68 424.493C564.78 426.293 565.08 428.893 566.88 430.493C574.18 437.093 586.08 438.093 594.48 432.693C601.38 428.193 604.48 417.693 600.98 408.493C596.08 396.193 588.98 384.993 582.78 373.393ZM320.28 427.393C316.28 424.693 314.18 417.493 315.78 412.193C316.78 408.693 318.08 405.293 320.08 402.193C324.58 394.893 328.38 387.093 331.88 379.293C333.78 374.993 336.38 371.393 341.78 371.093C346.38 370.893 349.08 373.193 350.78 377.393C346.18 381.793 342.28 387.093 339.18 392.993C335.58 399.793 336.88 406.993 337.48 413.993C337.58 415.293 338.68 416.193 339.88 416.893C341.38 417.893 342.78 418.993 344.38 420.193C339.78 429.993 328.48 433.093 320.28 427.393ZM526.98 444.893C518.88 450.993 511.08 451.693 502.28 446.693C491.18 440.393 483.08 431.493 478.08 419.593C473.38 408.393 469.98 396.793 465.18 385.693C464.98 385.193 464.58 384.593 464.78 384.193C466.28 378.893 463.08 378.993 459.38 379.193C456.18 379.293 452.88 379.093 449.68 379.093C447.28 379.093 445.48 379.893 446.28 382.893C446.58 383.993 446.38 384.893 445.98 385.893C441.18 397.393 437.58 409.393 432.58 420.893C427.18 433.093 418.48 442.093 406.68 447.893C398.68 451.793 391.18 450.293 384.08 444.793C371.38 434.993 359.08 424.793 346.58 414.793C341.08 410.393 340.68 405.593 342.18 400.093C344.48 391.893 349.68 385.293 356.28 379.993C357.48 378.993 358.68 378.793 360.18 379.693C364.08 381.993 368.08 384.193 372.18 386.593C370.88 390.993 369.68 394.893 369.88 398.993C369.98 400.693 370.78 402.093 372.58 402.293C374.48 402.493 375.48 400.993 375.58 399.393C376.28 389.193 381.78 380.393 383.98 370.693C384.88 366.893 386.08 363.193 387.18 359.193C432.58 374.993 477.88 375.093 523.58 359.193C524.78 363.393 526.18 367.693 527.38 371.993C529.08 377.993 531.08 383.893 533.48 389.693C534.68 392.593 535.18 395.693 535.28 398.793C535.38 400.593 536.08 402.293 538.18 402.293C540.48 402.193 541.18 400.393 541.08 398.393C540.98 395.293 540.58 392.193 539.48 389.193C538.78 387.393 539.18 386.393 540.88 385.393C544.08 383.693 547.28 381.893 550.38 379.993C552.08 378.993 553.48 378.993 554.98 380.293C563.18 387.593 569.78 395.693 569.58 407.493C569.58 409.493 568.98 410.793 567.48 412.093C554.38 423.293 540.98 434.393 526.98 444.893ZM595.78 418.893C593.88 427.593 585.58 432.493 577.08 429.593C572.68 428.093 568.98 425.493 567.18 420.893C567.48 420.493 567.68 420.193 567.88 419.893C569.68 417.593 573.68 417.293 574.08 413.793C574.58 407.893 575.68 401.793 573.38 395.993C570.58 388.793 566.18 382.793 560.48 377.393C566.58 368.593 574.98 369.293 579.28 378.793C583.28 387.593 587.78 396.093 592.48 404.493C594.98 408.793 596.88 413.493 595.78 418.893Z" fill="#4F4F4F"/>
<path d="M431.28 177.293C437.98 184.393 446.98 185.293 454.48 186.593C464.38 186.493 475.48 182.293 480.08 177.293C481.28 175.993 483.18 174.593 481.38 172.693C479.88 171.093 478.18 172.393 476.88 173.393C464.38 183.293 446.58 182.893 434.48 173.393C433.18 172.293 431.48 171.093 429.98 172.593C428.18 174.593 430.08 175.993 431.28 177.293Z" fill="#4F4F4F"/>
<path d="M593.88 132.093C593.08 130.993 592.18 129.293 590.48 130.193C588.58 131.193 589.98 132.693 590.48 133.893C592.48 139.093 594.48 144.293 596.58 149.493C597.18 150.893 597.98 152.293 598.88 153.493C599.68 154.493 600.88 154.693 602.08 154.093C603.18 153.593 603.48 152.593 603.48 151.093C602.98 149.893 602.28 148.393 601.58 146.893C599.28 141.793 597.38 136.493 593.88 132.093Z" fill="#4F4F4F"/>
<path d="M314.08 151.093C316.58 145.093 318.88 139.093 321.28 132.993C321.68 131.993 321.98 130.993 320.98 130.093C318.68 129.593 317.88 131.493 316.88 132.893C313.28 137.693 311.48 143.493 308.78 148.793C307.88 150.693 306.78 152.893 309.48 154.093C312.18 155.293 313.28 152.993 314.08 151.093Z" fill="#4F4F4F"/>
<path d="M649.68 109.693C647.88 107.293 645.08 107.793 642.28 108.893C639.58 109.993 636.98 111.693 633.68 111.893C636.38 108.793 638.98 106.093 641.18 103.093C644.68 98.4931 645.18 95.2931 643.08 92.9931C640.98 90.7931 637.88 91.3931 633.38 94.9931C630.98 96.8931 628.78 98.9931 624.98 100.693C627.18 97.4931 628.88 95.2931 630.28 92.8931C631.78 90.3931 631.48 88.1931 629.58 86.3931C627.78 84.6931 625.78 84.7931 623.58 86.3931C620.48 88.5931 617.68 91.2931 614.88 93.8931C612.68 95.8931 610.98 98.4931 608.18 99.8931C607.98 99.1931 607.88 98.7931 607.68 98.2931C606.58 93.5931 603.88 91.0931 600.68 91.5931C597.88 92.0931 595.18 95.5931 594.28 100.293C593.48 104.393 591.98 108.393 590.38 112.293C590.28 112.393 590.18 112.493 590.18 112.693C588.18 116.793 586.58 120.693 586.28 125.193C583.58 125.193 581.48 126.693 579.28 127.593C548.98 140.793 518.98 154.693 487.38 164.493C485.08 165.193 480.78 165.493 481.88 169.093C483.08 173.093 486.68 170.593 489.18 169.893C509.88 163.893 529.58 155.393 549.28 146.893C561.08 141.693 572.78 136.293 583.88 129.793C584.78 129.193 585.98 128.793 586.78 127.893C588.08 129.493 591.48 128.993 591.48 126.293C591.58 122.293 593.08 118.793 594.88 115.293C594.98 115.193 594.98 115.093 594.98 114.993C597.98 109.693 599.58 103.893 600.88 97.1931C602.78 99.7931 602.58 101.993 601.98 104.293C601.68 105.693 601.28 107.093 601.68 108.193C601.78 108.993 601.88 109.893 601.88 110.593C601.88 111.993 601.28 113.093 601.38 114.393C601.58 116.593 604.28 116.793 605.68 115.093C606.68 113.693 606.78 111.593 606.68 109.993C606.68 109.493 606.58 108.993 606.58 108.393C606.88 108.193 607.18 107.893 607.48 107.693C611.28 104.993 614.28 101.393 617.58 98.0931C620.28 95.3931 622.78 92.2931 626.28 90.6931C623.58 94.7931 620.58 98.6931 617.58 102.593C615.98 104.593 615.28 106.193 616.78 108.393C618.38 110.693 620.18 110.593 622.38 108.993C626.58 105.993 630.68 102.993 634.78 99.9931C636.08 98.9931 637.18 97.4931 638.88 97.2931C638.98 98.3931 638.28 98.9931 637.78 99.4931C634.38 102.993 630.98 106.493 627.48 109.993C624.78 112.593 624.88 115.193 626.28 117.993C627.58 120.793 629.78 120.293 632.18 119.193C636.48 117.193 640.78 115.193 645.08 113.193C645.48 115.293 643.98 116.193 642.78 116.993C639.58 119.193 636.28 121.493 632.88 123.293C629.58 125.093 628.08 128.393 627.88 131.193C627.58 134.293 631.18 133.893 633.48 134.393C635.28 134.793 637.28 134.893 639.08 135.193C639.08 135.593 639.08 135.993 639.18 136.393C636.18 138.193 632.88 138.893 629.88 138.193C626.38 137.393 622.88 138.493 619.58 139.693C615.88 140.993 612.48 141.993 608.48 141.893C606.68 141.793 604.68 142.093 604.68 144.493C604.68 146.393 606.38 146.993 607.98 147.093C611.78 147.393 615.58 146.993 619.18 145.793C622.68 144.593 625.68 142.993 629.58 143.793C632.68 144.493 636.18 143.293 639.38 142.093C642.28 140.993 644.18 138.693 644.18 135.493C644.18 132.293 642.48 130.493 639.48 130.093C638.28 129.893 636.98 129.893 635.98 128.693C638.38 126.993 640.48 125.493 642.58 124.093C645.08 122.393 647.68 120.893 649.28 118.093C650.58 115.193 651.68 112.193 649.68 109.693Z" fill="#4F4F4F"/>
<path d="M304.48 141.793C300.58 141.893 297.08 140.893 293.38 139.593C290.08 138.493 286.58 137.293 283.08 138.093C280.08 138.793 276.68 138.093 273.78 136.293C273.78 135.893 273.78 135.493 273.88 135.093C275.78 134.793 277.68 134.693 279.48 134.293C281.68 133.793 285.38 134.193 285.08 131.093C284.78 128.293 283.28 124.993 280.08 123.193C276.68 121.293 273.48 119.093 270.18 116.893C268.98 116.093 267.48 115.093 267.88 113.093C272.18 115.093 276.48 117.093 280.78 119.093C283.18 120.193 285.38 120.693 286.68 117.893C288.08 115.093 288.08 112.493 285.48 109.893C281.98 106.493 278.58 102.893 275.18 99.3926C274.68 98.8926 273.98 98.2926 274.08 97.1926C275.78 97.3926 276.88 98.8926 278.18 99.8926C282.28 102.893 286.48 105.893 290.58 108.893C292.78 110.493 294.58 110.493 296.18 108.293C297.68 106.093 296.98 104.493 295.38 102.493C292.28 98.6926 289.38 94.7926 286.68 90.5926C290.28 92.1926 292.68 95.2926 295.38 97.9926C298.68 101.293 301.68 104.893 305.48 107.593C305.78 107.793 306.08 108.093 306.38 108.293C306.28 108.793 306.28 109.293 306.28 109.893C306.28 111.493 306.28 113.593 307.28 114.993C308.58 116.793 311.38 116.493 311.58 114.293C311.68 112.993 311.08 111.893 311.08 110.493C311.08 109.693 311.18 108.893 311.28 108.093C311.78 106.993 311.38 105.493 310.98 104.193C310.38 101.893 310.18 99.6926 312.08 97.0926C313.28 103.793 314.98 109.593 317.98 114.893C317.98 114.993 318.08 115.093 318.08 115.193C319.88 118.793 321.38 122.193 321.48 126.193C321.48 128.493 324.08 129.293 325.58 128.393C326.18 128.993 327.28 129.493 329.08 130.493C359.18 146.593 390.58 159.793 423.08 170.093C425.38 170.793 428.68 172.693 429.68 169.093C430.68 165.693 426.88 165.793 424.88 164.693C424.58 164.493 424.18 164.393 423.78 164.293C410.98 159.793 397.98 156.093 385.58 150.693C366.98 142.493 348.38 134.593 329.68 126.593C328.68 126.193 327.68 125.593 326.48 125.293C326.18 120.793 324.58 116.793 322.58 112.693C322.48 112.593 322.38 112.393 322.38 112.293C320.78 108.393 319.28 104.393 318.48 100.293C317.58 95.5926 314.88 92.0926 312.08 91.5926C308.78 91.0926 306.18 93.5926 305.08 98.2926C304.98 98.7926 304.78 99.1926 304.58 99.8926C301.78 98.4926 299.98 95.8926 297.88 93.8926C295.08 91.2926 292.28 88.5926 289.18 86.3926C286.98 84.8926 284.98 84.6926 283.18 86.3926C281.38 88.1926 280.98 90.4926 282.48 92.8926C283.88 95.2926 285.58 97.4926 287.78 100.693C284.08 98.9926 281.78 96.8926 279.38 94.9926C274.88 91.3926 271.78 90.7926 269.68 92.9926C267.58 95.1926 267.98 98.3926 271.58 103.093C273.78 106.093 276.38 108.693 279.08 111.893C275.88 111.593 273.18 109.993 270.48 108.893C267.68 107.793 264.98 107.293 263.08 109.693C261.08 112.193 262.18 115.193 263.78 117.993C265.38 120.793 268.08 122.293 270.48 123.993C272.58 125.493 274.78 126.993 277.08 128.593C276.08 129.793 274.78 129.793 273.58 129.993C270.58 130.393 268.88 132.193 268.88 135.393C268.88 138.593 270.78 140.893 273.68 141.993C276.88 143.193 280.38 144.393 283.48 143.693C287.28 142.893 290.38 144.493 293.88 145.693C297.48 146.893 301.28 147.293 305.08 146.993C306.68 146.893 308.38 146.293 308.38 144.393C308.28 141.993 306.28 141.793 304.48 141.793Z" fill="#4F4F4F"/>
<path d="M470.18 136.593C465.78 136.193 461.18 136.393 457.28 136.593L452.98 136.793C448.38 136.993 444.88 137.393 441.68 137.993C439.98 138.293 438.98 138.893 438.58 139.693C438.18 140.493 438.38 141.593 439.28 143.093C443.18 149.893 449.18 154.093 456.58 155.293H456.78L456.98 155.193C464.28 153.293 469.78 148.493 472.98 141.293C473.68 139.693 473.78 138.693 473.28 137.893C472.88 137.193 471.78 136.793 470.18 136.593ZM467.88 141.193C465.28 146.193 461.18 149.193 456.58 149.693C451.88 149.593 447.58 146.993 444.48 142.393L444.28 141.993L444.68 141.893C448.78 141.193 452.48 140.793 456.18 140.593C459.88 140.393 463.58 140.493 467.68 140.693H468.08L467.88 141.193Z" fill="#4F4F4F"/>
<path d="M453.98 127.792C454.48 127.892 454.98 127.592 455.38 127.292C455.68 126.992 455.98 126.492 455.98 125.992C455.98 124.892 455.28 124.192 454.28 123.992C454.18 123.992 454.18 123.992 454.08 123.992C453.58 123.892 453.18 123.792 452.68 123.592C452.68 123.592 452.68 123.592 452.58 123.592C452.68 123.392 452.88 123.192 452.98 122.992C453.28 122.592 453.68 122.192 453.98 121.892C454.28 121.592 454.58 121.092 454.58 120.592C454.58 120.092 454.38 119.592 454.08 119.192C453.38 118.492 452.18 118.292 451.48 119.092C450.08 120.492 448.28 122.392 448.88 124.492C449.48 126.792 451.98 127.592 453.98 127.792Z" fill="#4F4F4F"/>
<path d="M480.08 106.893C478.18 106.993 476.58 107.893 475.78 109.193V109.293L475.18 111.193V111.293C475.88 114.293 477.78 115.993 480.48 115.893C481.78 115.793 483.28 115.293 484.48 114.393L484.58 114.293L484.68 114.193C485.98 111.693 485.48 109.993 484.88 108.993C483.98 107.593 482.08 106.793 480.08 106.893Z" fill="#4F4F4F"/>
<path d="M428.08 109.493C426.18 109.593 424.58 110.493 423.78 111.793V111.893L423.18 113.793V113.893C423.88 116.893 425.78 118.593 428.48 118.493C429.78 118.393 431.28 117.893 432.48 116.993L432.58 116.893L432.68 116.793C433.98 114.293 433.48 112.593 432.88 111.593C431.98 110.193 430.18 109.393 428.08 109.493Z" fill="#4F4F4F"/>
<path d="M528.68 103.893C526.48 92.9928 522.18 82.6928 518.08 72.3928C515.18 65.0928 511.88 58.0928 507.28 51.7928C497.18 37.9928 483.58 29.4928 466.98 25.7928C459.78 24.1928 452.58 25.4928 445.38 25.5928C429.98 25.6928 417.38 32.6928 406.98 42.6928C389.38 59.5928 383.88 80.9928 387.58 104.893C387.78 105.893 387.98 106.893 388.48 107.693C383.38 109.993 380.18 115.493 381.28 121.593C382.48 128.693 387.28 134.193 393.78 136.593C393.78 137.293 393.88 138.093 394.18 138.993C396.78 148.293 402.98 154.293 411.48 158.293C412.28 158.693 413.18 158.793 413.68 158.993C414.18 158.893 414.68 158.793 415.08 158.693C415.18 158.793 415.28 158.893 415.38 158.993C422.78 166.393 432.18 169.993 441.88 172.993C459.58 178.493 455.68 178.393 472.98 171.493C483.08 167.493 491.58 161.993 497.98 154.493C498.58 154.593 499.28 154.593 500.08 154.493C507.08 153.293 512.38 149.493 516.78 144.093C526.48 132.393 531.78 119.393 528.68 103.893ZM486.88 158.193C478.68 163.893 469.48 167.493 460.28 171.193C458.28 171.993 456.28 172.093 454.18 171.493C448.18 169.593 442.18 167.993 436.28 165.793C428.08 162.693 420.58 158.693 415.18 151.293C411.48 146.293 408.68 140.893 405.98 135.393C405.28 133.893 404.48 132.293 402.08 132.593C394.38 133.493 387.58 128.393 386.08 120.793C384.88 114.893 389.28 110.193 394.88 110.593C396.88 111.893 398.28 113.793 399.38 116.293C399.98 117.693 400.98 118.593 402.58 118.093C404.18 117.693 404.58 116.293 404.28 114.893C403.38 110.593 403.98 106.393 404.18 102.093C404.28 99.6928 404.68 97.5928 407.48 96.6928C409.58 95.9928 411.28 94.3928 412.98 92.8928C422.08 84.7928 430.98 76.4928 439.08 67.3928C439.48 66.8928 439.78 65.9928 440.88 66.1928C440.08 72.2928 438.08 77.9928 435.88 83.5928C434.78 86.3928 435.48 87.5928 438.48 87.7928C440.38 87.9928 442.28 87.6928 443.88 86.9928C453.08 82.8928 461.58 77.9928 467.48 69.4928C469.88 65.9928 471.58 62.1928 473.28 58.0928C477.58 69.1928 485.68 77.9928 490.28 88.7928C491.88 92.5928 493.78 96.1928 495.98 99.6928C498.48 103.693 500.38 107.993 501.58 112.493C503.38 119.493 504.38 126.393 503.48 133.093C502.98 134.493 502.48 135.893 501.88 137.293C498.78 145.393 494.38 152.993 486.88 158.193Z" fill="#4F4F4F"/>
<path d="M109.517 52.8996L85.6169 70.4996L85.2169 96.2996C85.2169 96.2996 78.0169 95.4996 75.3169 95.8996C72.6169 96.2996 71.7169 96.9996 69.8169 98.5996C67.9169 100.2 67.8169 100.9 67.8169 100.9L42.8169 47.7996C42.8169 47.7996 45.9169 44.1996 47.5169 40.3996C49.1169 36.5996 51.9169 26.3996 50.7169 18.3996C49.5169 10.3996 47.6169 6.39964 45.2169 4.09964C42.7169 1.79964 42.3169 2.29964 36.6169 2.39964C30.9169 2.59964 23.1169 1.19964 18.4169 2.59964C13.8169 3.99964 9.81688 5.09964 6.61688 8.39964C3.41688 11.6996 1.11688 12.8996 1.51688 17.4996C1.91688 22.0996 2.61688 23.6996 3.51688 29.1996C4.41688 34.6996 5.01688 37.6996 7.21688 41.6996C9.41688 45.6996 12.0169 49.6996 14.6169 50.8996C17.2169 52.0996 20.8169 53.6996 20.8169 53.6996L42.8169 132.6L45.7169 138.1L42.9169 141.3C42.9169 141.3 50.9169 163.1 52.7169 167.5C54.5169 171.8 59.3169 187.7 62.2169 194.7C65.1169 201.8 67.4169 216.2 68.8169 222.7C70.2169 229.2 71.0169 231.9 70.8169 242.5C70.6169 253.1 71.3169 266.5 70.6169 275C70.0169 283.5 66.6169 312.5 66.6169 312.5L59.4169 358.5L54.6169 414.7C54.6169 414.7 54.3169 419.9 56.1169 427.3C57.9169 434.7 56.1169 439.9 59.5169 446.4C62.9169 452.9 65.8169 458.9 70.0169 463C74.2169 467.2 82.9169 475 84.2169 476.4C85.4169 477.8 117.317 504.9 117.317 504.9C117.317 504.9 117.917 509.5 117.817 512.3C117.617 515.1 117.217 517.8 115.317 526.6C113.517 535.4 112.217 539.7 113.917 544.6C115.617 549.5 116.117 552.1 118.717 554C121.317 555.9 125.217 556.6 128.417 555.2C131.617 553.8 133.517 554.4 135.617 550C137.817 545.5 139.117 542.2 140.817 536.2C142.517 530.2 144.817 526.2 147.717 519.9C150.617 513.6 154.017 511.9 153.417 504.1C152.817 496.3 154.617 494.4 150.317 491.6C146.017 488.8 140.817 486.8 139.517 483.8C138.317 480.7 123.517 458.3 123.517 458.3L101.317 430.5L104.517 419.7L124.517 423.9L125.917 422.2L129.317 400.8L135.517 370L138.117 370.6L151.017 412.3C151.017 412.3 153.317 415.2 153.917 415.4C154.517 415.6 162.817 413.2 162.817 413.2L167.317 414.3L167.617 419.2C167.617 419.2 164.717 420.4 162.117 422.9C159.517 425.4 158.017 430.8 158.117 433.4C158.217 436 160.417 444.3 161.817 447.5C163.217 450.7 163.417 453.8 164.017 458.5C164.617 463.2 164.617 466.1 165.017 468.2C165.417 470.3 170.617 475.6 173.817 477.3C177.017 479 181.117 479.5 184.917 479.6C188.717 479.7 196.317 474.1 196.317 474.1C196.317 474.1 199.417 469.9 199.817 466.2C200.217 462.5 201.117 461.2 200.217 456.1C199.317 451 195.617 442.1 195.617 442.1C195.617 442.1 205.617 442 207.917 440.6C210.217 439.2 215.517 435 216.717 431.3C218.017 427.6 220.217 423.2 220.217 419C220.217 414.8 218.717 405.6 218.717 405.6L222.217 403.3L209.817 331L204.817 312.7L198.317 253.4L201.817 250.5C201.817 250.5 207.217 255.5 208.517 257.4C209.817 259.3 218.117 259.7 221.417 259.2C224.717 258.7 229.717 256.6 233.217 252.9C236.717 249.2 239.017 245.1 238.617 240.4C238.217 235.7 236.317 229.4 234.517 222.6C232.717 215.8 217.617 181 217.617 181C217.617 181 217.117 177.3 220.417 172.5C223.717 167.7 227.817 158.4 227.217 155.6C226.617 152.8 222.417 149.1 218.917 146.4C215.417 143.7 210.417 141.6 205.117 141.4C199.817 141.3 196.017 142.3 192.717 144.1C189.417 145.9 187.117 148.2 186.017 150.7C184.817 153.2 185.117 155.7 184.517 157.6C183.817 159.5 183.817 159.3 182.217 158.8C180.617 158.3 174.917 152.4 174.917 152.4L181.317 143.7C181.317 143.7 185.917 135 187.517 134.1C189.217 133.2 195.217 133 198.317 131.6C201.417 130.2 205.917 126.1 206.817 121.6C207.717 117.1 208.217 116 206.317 112.5C204.317 109 203.217 108 199.217 107.1C195.217 106.2 189.717 109.3 189.717 109.3C189.717 109.3 191.517 92.4996 191.317 92.4996C191.117 92.3996 180.217 63.4996 180.217 63.4996L125.117 54.4996L109.517 52.8996Z" fill="white"/>
<path d="M143.317 492.9C143.217 492.8 143.117 492.6 143.117 492.5C137.317 502.8 128.317 513.5 117.017 517.2C112.217 524.6 110.617 543.8 116.317 550.8C121.617 558.2 130.517 555.6 133.517 545.5C137.117 536.1 136.417 525.5 141.217 516.7C144.917 510.2 146.117 498.9 143.317 492.9Z" fill="#FFEBC4"/>
<path d="M191.217 448C180.617 441.8 166.117 434.4 165.117 420.4C154.817 424.5 159.217 438.8 162.317 446.6C165.617 457.3 162.317 472 175.517 476.6C186.117 481.5 190.617 476.3 193.617 466.6C196.617 461.7 193.917 454.2 191.217 448Z" fill="#FFEBC4"/>
<path d="M201.617 326.5L197.917 312.7C177.417 321.8 138.017 323.1 114.517 323C105.117 323.2 88.8167 322 84.1167 319.9C79.4167 317.8 71.0167 315.8 71.0167 315.8L67.6167 312.7C63.2167 311.9 58.1167 376.1 56.3167 384.6C55.5167 391.2 54.1167 409 54.3167 411.3C62.3167 419 84.1167 415.2 96.9167 417.9C102.617 418.9 118.517 422.3 118.517 422.3L120.217 420.3L129.217 361.3C128.417 357.2 134.817 355.5 136.017 359.7C140.417 373.6 147.017 409.8 155.517 415.5C229.217 388.7 217.917 440 201.617 326.5Z" fill="#FFDADA"/>
<path d="M189.817 254.5L193.017 250C183.317 240 190.017 205.6 186.517 195.9C183.317 190 178.017 186 177.917 179.5C176.417 160.2 187.717 170.4 167.517 156.5C167.517 156.5 162.417 159.7 159.217 162.4C159.017 162.6 158.917 164.4 158.817 164.9C151.917 182.5 124.817 180.6 113.017 169.1C110.717 167.6 110.317 164.2 107.917 163C107.117 162.9 106.417 163.2 105.617 163.2C94.7167 157.6 87.0167 146.2 83.5167 134.6C83.1167 133 82.7167 127.2 80.5167 127.2C70.7167 132.3 61.8167 141.8 49.9167 141.8C48.4167 141.8 45.2167 140.6 44.0167 141.8C41.2167 144 45.5167 148.8 46.3167 151.4C50.6167 162 56.1167 171.9 60.1167 182.6C76.4167 224.3 72.3167 270.5 65.7167 313.8C93.7167 327.4 138.317 324.8 170.217 319.4C182.017 318.2 195.717 316.9 196.317 313.5C196.717 298.4 191.017 268.8 189.817 254.5Z" fill="#FFEBC4"/>
<path d="M148.117 485.2C145.517 483.3 143.717 481.5 142.517 479.3C135.717 467.2 126.817 456.4 117.517 445.5C114.817 442.4 111.817 439.4 108.917 436.6C108.117 435.8 107.317 435 106.417 434.2C105.517 433.3 104.717 432.9 103.917 432.9C103.517 432.9 103.017 433 102.617 433.3C102.017 433.7 101.717 434.1 101.617 434.7C101.517 435.4 101.717 436.2 102.417 437.2C103.217 438.4 104.117 439.6 105.417 441.1C117.917 456.1 128.217 468.8 136.417 483.4C137.717 485.8 139.617 487.8 142.117 489.5C142.217 489.5 142.217 489.6 142.317 489.6C137.917 499.5 130.517 507.8 121.217 513.1C121.217 512.8 121.217 512.4 121.217 512.1C121.217 510.6 120.717 508.7 118.517 508.5C118.417 508.5 118.317 508.5 118.317 508.5C116.617 508.5 116.017 510 115.617 511.5L114.517 515.4C113.117 520.2 111.717 525.2 110.417 530.1C109.317 534.4 108.917 538.9 109.317 543.5C109.817 550.6 115.817 557.8 122.417 559.2C123.317 559.4 124.217 559.5 125.217 559.5C131.017 559.5 136.917 556 140.417 550.4C141.717 548.3 142.717 545.9 143.217 543.1C144.917 534.7 148.017 526.1 153.417 515.3C155.917 510.2 156.917 506.1 156.617 501.8C157.517 495.4 154.817 490 148.117 485.2ZM148.917 506.9C148.317 509.1 147.317 511.3 146.317 513.5C142.217 522 138.217 531.3 136.217 541.1C135.717 543.4 135.017 545.4 134.017 547C132.517 549.5 129.917 552.8 125.317 552.8C125.017 552.8 124.717 552.8 124.417 552.8C121.017 552.5 117.217 548.1 116.717 543.8C116.517 542.1 116.517 540.3 116.617 538.5C116.817 533 118.117 527.8 119.517 522.9C119.917 521.7 120.217 520.3 120.517 518.8C131.617 513.4 140.817 503.9 146.017 492.7C150.017 496.4 150.617 500.3 148.917 506.9Z" fill="#4F4F4F"/>
<path d="M112.617 504.9C113.817 506.1 115.217 507.4 116.717 507.4C117.517 507.4 118.217 507.1 119.017 506.4C119.817 505.6 120.217 504.9 120.217 504C120.217 502.5 118.717 501 117.517 500C106.917 490.9 95.6167 481.3 83.2167 470.8C67.9167 457.9 60.2167 443.1 59.5167 425.5C59.4167 423.7 59.2167 421.8 58.8167 419.9C58.6167 418.8 57.8167 418.2 56.7167 418.2C56.6167 418.2 56.5167 418.2 56.4167 418.2C55.3167 418.3 54.6167 418.9 54.5167 419.9C54.2167 421.7 54.0167 423.6 53.8167 425.4C53.7167 426.1 53.6167 426.7 53.6167 427.3H53.8167V428.7C53.8167 429.6 53.8167 430.6 53.8167 431.5C53.8167 432.1 53.9167 432.6 54.0167 433.2C57.0167 449.6 65.2167 463.4 79.2167 475.4C82.8167 478.5 86.5167 481.5 90.0167 484.5C97.6167 491 105.617 497.6 112.617 504.9Z" fill="#4F4F4F"/>
<path d="M135.617 182.2C142.317 181.9 148.716 180.1 154.316 176.5C159.716 173.1 162.317 167.9 163.617 162C163.917 160.6 164.416 158.7 162.416 158.1C160.616 157.6 160.016 159.3 159.316 160.5C158.716 161.6 158.216 162.8 157.516 163.9C156.016 166.4 154.716 169.1 152.216 170.9C140.116 179.7 119.216 177.7 112.916 163.1C112.016 161.1 111.316 157.2 108.516 158.4C105.616 159.6 107.516 163.2 108.316 165.6C112.216 177.2 123.717 181.4 135.617 182.2Z" fill="#4F4F4F"/>
<path d="M240.117 233.2V233C238.117 224.3 234.817 215.8 231.917 208.7C230.017 204.1 228.217 199.5 226.517 194.9C225.017 191.1 223.517 187.1 221.917 183.3C220.917 180.9 220.917 178.6 221.817 176C222.917 172.9 224.617 170 226.217 167.1C226.517 166.6 226.817 166.1 227.017 165.6C231.517 157.8 230.317 151.3 223.417 146C217.717 141.6 211.417 139.1 204.717 138.8C202.617 138.7 200.517 138.8 198.417 139.1C189.217 140.4 183.517 145.8 181.717 154.8C181.417 154.5 181.017 154.3 180.717 154.1C179.817 153.4 178.917 152.8 178.017 152.2C177.417 151.8 176.817 151.6 176.217 151.6C175.417 151.6 174.717 151.9 174.117 152.7C173.317 153.9 173.617 155.2 175.117 156.2C175.917 156.8 176.617 157.5 177.317 158.2C178.817 159.7 180.417 161.3 183.117 161.5C183.517 161.5 183.817 161.8 184.117 162.2C184.417 162.8 184.417 163.6 184.017 164.4C179.417 172.7 183.217 187.2 191.217 192.1C192.417 192.8 192.417 193.7 192.317 194.7C192.317 194.9 192.317 195.1 192.317 195.3C192.117 209.1 192.117 221.6 194.417 234.2C194.517 234.7 194.617 235.2 194.717 235.7C195.117 238.3 195.617 240.9 196.517 243.4C197.317 245.5 198.217 247.8 199.417 250C199.317 250 199.117 249.9 198.917 249.9C196.817 249.9 196.817 251.9 196.717 253.4C196.417 257.2 196.617 261 196.917 264.8C198.017 279 200.617 293.2 201.417 307.4C201.617 310.7 200.517 312 197.317 312.9C175.217 318.7 152.517 320.5 129.717 320.7C126.317 320.7 122.817 320.7 119.417 320.7C104.017 320.9 89.2168 317.4 74.3167 314.5C72.5168 314.2 70.2167 314 70.4167 311.2C71.0168 302.7 70.8167 294.2 72.1167 285.8C75.1167 266.5 75.0168 247.1 73.3167 227.9C71.8167 210 65.8167 192.7 59.8167 175.7C55.8167 164.5 50.6167 153.6 45.9167 142.6C45.2167 141 44.4167 138.8 42.0167 139.6C39.7167 140.4 40.9167 142.4 41.4167 143.9C43.3167 149.4 44.9167 155.1 47.4167 160.4C56.6167 180.1 61.3167 200.9 66.6167 221.7C68.2167 228 68.7167 234.3 68.2167 240.8C67.3167 251.9 68.9167 263.1 67.0167 274.1C65.0167 286.1 64.6168 298.3 63.9167 310.4C63.8167 312.2 63.6167 314.1 65.1167 315.3C64.5167 315.7 64.2167 316.5 63.9167 317.5C63.8167 317.7 63.8167 317.9 63.7167 318C63.1167 320 62.4167 322.1 62.0167 324.2C59.0167 341.1 56.9167 358 55.5167 370.9C54.5167 380.2 53.7167 389.6 52.9167 398.7C52.5167 403.6 52.1167 408.5 51.6167 413.4C51.4167 415.4 51.7167 416.8 53.5167 417.3C53.8167 417.4 54.2167 417.4 54.5167 417.4C55.8167 417.4 56.8167 416.5 57.4167 414.6C58.3167 411.9 58.8167 408.9 58.8167 405.5C58.8167 391.6 60.5167 377.6 62.1167 364.1L62.7167 359.3C63.0167 356.4 63.4167 353.5 63.7167 350.6C64.3167 345.2 64.9167 339.6 65.7167 334.1C66.3167 334.4 67.0167 334.5 67.7167 334.4C75.3167 333 82.0167 328.5 86.4167 322.2C102.817 325.5 119.417 326.5 136.217 326.1C151.517 325.7 166.717 324.6 181.717 321.9C181.717 322.4 182.017 322.9 182.417 323.4C188.617 329.9 197.617 333.5 206.617 333.2C207.017 333.2 207.317 333.1 207.617 333C210.717 348 213.017 363.2 215.217 378.1L216.217 385.1C216.417 386.5 216.717 388 216.917 389.4C217.617 393.4 218.417 397.4 218.117 401.7V401.9H217.917C214.317 402.3 210.817 402.6 207.217 403C190.117 404.7 172.417 406.4 156.117 412.8L155.917 412.9L155.817 412.8C154.717 411.8 154.417 410.7 154.117 409.6C154.017 409.3 154.017 409.1 153.917 408.8C152.617 404.6 151.317 400.4 150.017 396.2C146.917 386.3 143.717 376.1 140.517 366.1C140.317 365.5 140.217 364.9 140.017 364.2C139.517 361.9 139.017 359.6 136.717 359.6C136.617 359.6 136.517 359.6 136.317 359.6C133.817 359.8 133.417 362.6 133.017 365.3C132.917 365.8 132.917 366.3 132.817 366.8C132.017 371.6 131.017 376.5 130.117 381.2C127.717 393.8 125.217 406.7 124.317 420V420.4L123.917 420.3C119.917 419 115.817 418.3 111.817 417.6C110.117 417.3 108.417 417 106.717 416.7C96.6167 414.7 86.1167 413.7 75.6167 413.7C72.2167 413.7 68.6167 413.8 65.1167 414H65.0167C62.9167 414.1 61.5168 414.4 61.4167 416.3C61.4167 418.5 63.0167 418.7 65.2167 418.8C66.7167 418.8 68.2167 418.9 69.7167 418.9C72.2167 418.9 74.8167 419 77.4167 419.1C78.9167 419.2 80.4167 419.2 81.9167 419.3C86.5167 419.5 91.3167 419.7 95.9167 420.8C96.0167 420.8 96.1167 420.8 96.2167 420.8C97.1167 420.8 98.0168 421 98.8167 421.3C99.3167 421.4 99.9167 421.6 100.417 421.7C100.517 421.7 100.617 421.7 100.717 421.7L100.617 421.9C100.117 423.7 99.6167 425.3 99.1167 427C98.4167 429.5 99.1167 431.1 101.217 431.7C101.617 431.8 102.017 431.9 102.317 431.9C104.117 431.9 104.917 430.2 105.417 428.7C106.017 426.9 106.417 425 106.817 423.1C106.817 423 106.817 422.9 106.917 422.7C111.717 423.6 116.317 424.7 120.617 425.8C121.717 426.1 122.917 426.4 124.117 426.4C125.917 426.4 127.017 425.7 127.417 424.2C127.817 422.9 128.317 421.7 128.817 420.5C129.617 418.6 130.517 416.7 130.717 414.5C131.017 410.2 131.717 405.9 132.517 401.7L132.917 399.2C133.817 394 134.717 388.7 135.717 383.6C136.117 381.4 136.517 379.1 136.917 376.9L137.117 375.9L137.517 376.9C139.917 383 141.617 389.3 143.317 395.4C144.817 401 146.417 406.8 148.517 412.3C150.117 416.4 152.017 418.1 155.217 418.1C155.917 418.1 156.717 418 157.617 417.8C158.317 417.6 159.017 417.4 159.817 417.2C161.117 416.8 162.417 416.3 163.917 416.3C164.117 416.3 164.317 416.3 164.617 416.3H164.817L164.917 416.5C165.117 417 165.317 417.4 165.617 417.9C165.517 417.9 165.417 417.9 165.317 418C161.217 419.1 157.917 422.5 156.517 427.1C154.817 432.5 156.417 438.4 157.817 442.3C158.117 443.1 158.417 444 158.717 444.8C160.117 448.6 161.417 452.1 161.817 456.1C161.917 456.9 161.917 457.7 162.017 458.5C162.317 462.5 162.617 466.7 164.417 470.6C167.817 477.8 175.717 482.8 183.817 482.8H184.217C192.317 482.6 200.017 477.2 203.317 469.2C205.217 464.6 205.317 459.4 203.617 453.5C202.717 450.6 201.617 447.6 200.117 444.5C210.917 443.5 219.717 435.8 222.317 424.7C223.317 420.5 222.917 416.2 222.517 412.1C222.417 411.5 222.417 410.9 222.317 410.2C222.317 410 222.217 409.7 222.217 409.5C222.017 408.6 221.817 407.5 223.017 406.6C225.417 404.9 225.217 402.3 224.717 399.9C223.017 391 221.617 381.9 220.217 373.1C217.717 356.9 215.117 340.1 210.617 324C210.417 323.1 210.117 322.2 209.917 321.3C209.717 320.2 209.417 319.1 209.117 318.1C208.817 317.2 208.117 316.7 207.317 316.7C207.217 316.7 207.117 316.7 206.917 316.7C205.817 316.9 205.217 317.6 205.217 318.7V319.6C205.217 321.2 205.317 322.8 205.617 324.3C205.917 325.7 206.217 327 206.517 328.4C199.317 328.7 192.217 326.1 186.917 321.2C192.317 320.1 197.817 318.8 203.117 317.2C206.817 316.1 208.217 314.4 207.917 310.6C207.317 304.4 206.817 298.3 206.017 292.1C204.317 279.2 202.817 266.2 201.317 253.3C201.317 253.1 201.317 253 201.217 252.8C201.317 252.9 201.417 253.1 201.517 253.2C201.717 253.6 202.017 254.1 202.217 254.5C202.317 254.7 202.417 254.9 202.617 255.1C202.617 255.2 202.717 255.2 202.717 255.3C203.417 256.2 204.117 257.1 204.817 257.9C207.917 260.1 211.417 261.3 215.417 261.6C217.317 261.7 219.417 261.6 221.517 261.2C230.117 259.8 236.417 255.2 240.217 247.5C242.317 242.8 241.217 237.9 240.117 233.2ZM80.5167 321.3C80.0167 321.9 79.4167 322.5 78.8167 323.1C77.5168 324.3 76.5167 325.1 75.1167 326C72.2167 327.8 69.5167 328.9 66.1167 329.6C66.6167 325.9 67.2167 322.3 67.9167 318.7C67.8167 318.3 67.8168 317.9 67.8168 317.5C67.8168 317.2 67.8168 316.9 67.8168 316.6C70.5168 317.9 73.2167 319.2 76.2167 320C77.7167 320.4 79.3167 320.8 80.9167 321.1C80.7167 321.2 80.6167 321.2 80.5167 321.3ZM197.817 464C196.517 469.9 191.617 474.9 185.717 476C185.017 476.1 184.217 476.2 183.417 476.2C178.517 476.2 173.317 473.3 170.617 469.1C168.617 466 168.217 462.5 168.017 458.6C167.617 453.3 166.817 449.2 165.417 445.3C165.117 444.5 164.817 443.7 164.517 442.9C163.117 439.2 161.617 435.4 161.717 431.4C161.817 428.3 163.417 424.8 166.617 423.8C167.117 423.6 167.617 423.4 168.017 423C171.317 428.7 175.317 433.6 180.017 437.7C183.717 440.9 187.917 443 192.417 443.9C193.917 446.8 195.217 449.6 196.217 452.4C197.417 455.7 198.717 460 197.817 464ZM214.317 428.1C211.117 434.5 205.417 438 198.417 438C196.117 438 193.617 437.6 191.117 436.8C180.517 433.5 175.717 424.7 170.717 415.4L170.117 414.3L170.517 414.2C182.017 411.4 193.517 410.3 204.617 409.3C208.517 408.9 212.517 408.6 216.517 408.1H216.817V408.4C217.317 415.3 217.417 421.9 214.317 428.1ZM235.017 245.4C232.117 252 223.817 256.6 215.817 256.1C214.017 256 212.317 255.6 210.817 255L210.717 254.9C210.017 254.6 209.317 254.3 208.817 253.7C205.317 248.7 201.617 242.6 200.317 235.1C198.017 221.3 197.717 207.4 197.717 193.2C197.717 190.1 196.717 188.2 194.317 187C191.517 185.5 189.717 182.9 188.817 179.3C187.717 174.3 186.917 168.9 190.517 164C191.617 162.6 192.117 161.7 191.917 160.9C191.717 160.1 190.717 159.6 188.817 158.8C187.117 158 187.317 156.3 187.417 154.7V154.6C187.517 153.3 188.217 153.1 189.417 153.2H189.917C193.817 153.5 196.817 154.2 199.417 155.6C200.017 155.9 200.617 156.1 201.117 156.1C202.017 156.2 202.717 155.7 203.217 154.8C203.917 153.4 203.417 152.2 201.717 151.2C199.417 149.8 196.917 148.9 193.917 148.5C193.817 148.5 193.717 148.5 193.617 148.5H193.017C192.517 148.5 192.017 148.4 191.617 147.8C193.317 146.4 194.817 145.4 196.717 145.5C197.417 145.5 198.117 145.7 198.817 146C202.917 147.6 206.917 149.3 210.517 151.7C211.117 152.1 211.817 152.4 212.317 152.4C213.017 152.4 213.617 152.1 214.117 151.5C215.417 149.8 213.817 148.4 213.317 148C212.617 147.4 211.917 146.8 211.217 146.3C211.117 146.3 211.117 146.2 211.017 146.2C214.717 146.9 217.417 148.1 219.617 149.9C224.717 154.1 225.317 157.5 222.217 163.2C221.917 163.7 221.617 164.2 221.417 164.7C219.917 167.4 218.317 170.2 217.217 173.1C215.717 177.1 215.617 180.6 216.817 184.1L217.917 187.3C220.417 194.5 223.017 202 226.117 209.2C228.917 215.9 232.517 224.9 234.717 234.4V234.6C235.717 238.1 236.517 241.9 235.017 245.4Z" fill="#4F4F4F"/>
<path d="M43.0167 138.1C43.5167 138.7 44.1167 139.2 44.6167 139.6C44.9167 139.8 45.1167 140 45.4167 140.1C45.7167 140 45.9167 140 46.1167 140C46.3167 140 46.5167 140 46.7167 140C46.9167 140 47.1167 140 47.3167 140C47.4167 140 47.5167 140 47.6167 140C56.7167 139.3 65.1167 136 72.5167 130.3C73.4167 129.6 74.9167 128.5 73.7167 126.7C73.2167 126 72.6167 125.7 71.9167 125.7C71.2167 125.7 70.4167 126.1 69.8167 126.4C68.5167 127.1 67.2167 127.9 65.9167 128.7C65.3167 129.1 64.6167 129.5 64.0167 129.8C59.7167 132.3 54.6167 133.9 48.6167 134.7C48.4167 134.7 48.1167 134.7 47.9167 134.7C46.9167 134.7 46.3167 134.3 45.8167 133.2C44.9167 131.1 44.1167 128.8 43.2167 125.8C35.5167 100.2 29.5167 79.2 24.4167 59.9C24.0167 58.3 23.7167 56.7 23.3167 55.2C23.1167 54.3 22.9167 53.4 22.7167 52.5C22.3167 50.8 21.3167 49.6 19.5167 49C15.1167 47.3 11.9167 44.2 10.1167 39.8C9.81671 39 9.31671 38.1 8.91671 37.3C8.11671 35.9 7.41671 34.5 7.01671 32.8C7.51671 32.9 8.01671 33.1 8.51671 33.2C9.91671 33.6 11.2167 34 12.5167 34.3L12.8167 34.4C13.4167 34.6 14.1167 34.7 14.8167 34.7C15.4167 34.7 15.9167 34.5 16.3167 34.2C18.2167 32.5 20.4167 32.4 22.7167 32.4H23.4167C23.7167 32.4 24.6167 32.3 25.1167 31.9C26.2167 30.9 27.4167 30.5 28.5167 30.5C30.2167 30.5 31.8167 31.4 33.3167 32.3C33.7167 32.5 34.1167 32.8 34.6167 33L34.9167 33.1C35.6167 33.5 36.3167 33.9 37.0167 33.9C37.6167 33.9 38.1167 33.6 38.6167 33C40.2167 31 38.3167 29.3 37.7167 28.8C36.6167 27.8 35.2167 27.1 33.4167 26.6C32.0167 26.2 30.6167 25.8 29.4167 24.8C28.0167 23.6 27.6167 22.6 28.1167 21.4C28.4167 20.6 28.9167 20.5 29.3167 20.5C29.6167 20.5 29.9167 20.6 30.2167 20.6C30.5167 20.7 30.7167 20.7 31.0167 20.7C32.1167 20.8 33.2167 20.8 34.2167 20.8C36.5167 20.8 39.0167 20.8 41.3167 21.4C45.1167 22.3 46.8167 24.3 46.7167 28C46.6167 33.8 46.0167 40.5 41.4167 46.1C40.0167 47.8 40.8167 49.5 41.5167 51L41.7167 51.4C46.3167 62 50.9167 71.7 55.7167 81.2C56.4167 82.6 57.2167 84.1 57.9167 85.5C61.0167 91.4 64.1167 97.5 66.6167 103.9C67.1167 102.4 67.9167 101 69.1167 99.9C69.5167 99.5 69.9167 99.2 70.4167 98.9C68.4167 94.2 66.0167 89.6 63.7167 85.1C63.1167 84 62.5167 82.9 62.0167 81.8C57.5167 73 53.1167 64 48.9167 55.3L46.5167 50.3C46.0167 49.2 45.9167 48.6 46.7167 47.9C47.0167 47.6 47.4167 47.2 47.6167 46.7C52.5167 35.4 56.5167 22.1 50.2167 8.1C46.6167 -1.90735e-06 42.6167 0 34.6167 0C33.7167 0 32.8167 0.0999969 32.0167 0.199997C31.1167 0.299997 30.3167 0.399998 29.4167 0.399998C29.2167 0.399998 29.0167 0.399998 28.8167 0.399998C28.3167 0.399998 27.7167 0.399998 27.2167 0.399998C21.6167 0.399998 15.9167 1.8 9.41671 4.8C2.31671 7.8 -1.28329 15.1 0.416708 22.7C0.716708 23.9 0.916708 25.1 1.01671 26.3C1.41671 34.9 4.81671 42.7 10.9167 49.5C12.5167 51.3 14.5167 52.6 16.6167 53.2C18.2167 53.7 18.7167 54.7 19.1167 56.2C23.6167 76.3 28.2167 95.9 35.0167 115.3C35.9167 117.9 36.6167 120.6 37.3167 123.3C37.7167 124.8 38.1167 126.3 38.5167 127.8L38.6167 128.2C39.4167 131.5 40.4167 135.1 43.0167 138.1C43.1167 138.1 43.1167 138.1 43.0167 138.1ZM6.81671 13.2C9.31671 9.5 13.2167 8.3 17.3167 7.1L17.6167 7C21.9167 5.7 26.5167 5.5 30.9167 5.3C32.9167 5.2 35.0167 5.1 37.1167 4.9C37.5167 4.9 37.9167 4.8 38.2167 4.8C40.6167 4.8 42.5167 5.6 43.7167 7.2C45.8167 10 47.2167 13.3 47.9167 17.5C45.5167 16.7 43.2167 16.4 41.0167 16.1C40.3167 16 39.7167 15.9 39.0167 15.8C37.5167 15.6 36.9167 14.9 36.8167 13.5V13C36.8167 12.2 36.7167 11.3 36.8167 10.4C36.8167 10.2 36.8167 10 36.9167 9.8C37.0167 9.2 37.0167 8.6 36.8167 8.1C36.6167 7.5 36.1167 7.2 35.2167 7.1C35.1167 7.1 35.0167 7.1 34.9167 7.1C33.9167 7.1 32.7167 7.6 32.4167 10.1C32.2167 11.3 32.2167 12.5 32.1167 13.8C32.1167 14.3 32.0167 14.8 32.0167 15.4C31.4167 15.2 30.8167 15.2 30.2167 15.2C27.8167 15.2 25.9167 16.5 24.4167 17.7C24.2167 16.4 24.2167 15.2 24.2167 14C24.2167 13.4 24.2167 12.8 24.1167 12.3C24.0167 11.1 23.9167 9.2 22.0167 9.1H21.9167C19.8167 9.1 19.6167 11.2 19.5167 12.3C19.0167 17.3 19.1167 22.6 23.0167 26.9C22.3167 27.1 21.6167 27.2 21.1167 27.2C19.2167 27.2 18.0167 26.1 16.8167 23.6C15.3167 20.2 14.4167 16.6 13.7167 13.5C13.4167 12.1 12.7167 11.4 11.6167 11.4C11.5167 11.4 11.5167 11.4 11.4167 11.4C10.1167 11.5 9.31671 12.4 9.21671 14C9.21671 14.7 9.21671 15.4 9.31671 16.3C10.1167 21.5 11.6167 25.6 13.9167 29.5C13.5167 29.4 13.1167 29.3 12.7167 29.2C10.1167 28.6 7.91671 28.1 6.71671 25.5C4.91671 21 4.11671 17.1 6.81671 13.2Z" fill="#4F4F4F"/>
<path d="M148.017 135.5C144.017 134.6 139.917 134.2 136.317 133.9L132.417 133.6C128.217 133.2 125.017 133.1 121.917 133.2C120.317 133.3 119.317 133.7 118.817 134.4C118.317 135.1 118.417 136.2 119.017 137.6C121.717 144.3 126.617 148.9 133.217 150.9L133.417 151H133.617C140.517 150.2 146.217 146.5 150.017 140.4C150.817 139.1 151.117 138.1 150.717 137.2C150.517 136.4 149.517 135.8 148.017 135.5ZM145.217 139.4C142.217 143.6 138.217 145.8 133.917 145.7C129.717 145.1 126.217 142.2 123.917 137.5L123.817 137.3H124.117C127.917 137.2 131.317 137.3 134.617 137.6C137.917 137.9 141.317 138.4 145.017 139.2H145.217V139.4Z" fill="#4F4F4F"/>
<path d="M134.917 124.9C135.317 125 135.917 124.9 136.317 124.6C136.717 124.3 137.017 123.9 137.117 123.4C137.317 122.4 136.617 121.5 135.717 121.2C135.617 121.2 135.617 121.2 135.517 121.2C135.117 121 134.617 120.8 134.217 120.6C134.217 120.6 134.217 120.6 134.117 120.5C134.217 120.3 134.417 120.1 134.617 120C135.017 119.7 135.417 119.3 135.817 119C136.217 118.7 136.517 118.3 136.617 117.8C136.717 117.4 136.617 116.8 136.317 116.4C135.717 115.6 134.617 115.3 133.817 115.9C132.317 117.1 130.217 118.6 130.517 120.9C130.617 123.3 132.917 124.4 134.917 124.9Z" fill="#4F4F4F"/>
<path d="M109.617 93.8999C111.217 93.2999 112.717 92.9999 114.317 93.6999C116.017 94.4999 117.817 95.0998 118.717 92.9998C119.717 90.6998 117.717 89.6999 116.117 88.8999C115.317 88.4999 114.517 88.3998 114.217 88.2998C111.317 87.9998 109.217 88.3999 107.517 89.8999C106.517 90.6999 106.017 91.8998 106.717 93.0998C107.417 94.1998 108.417 94.2999 109.617 93.8999Z" fill="#4F4F4F"/>
<path d="M164.417 92.8005C163.417 92.7005 162.117 92.8005 160.917 93.3005C159.417 93.9005 158.117 94.8005 158.617 96.7005C159.117 98.6005 160.717 98.8005 162.317 98.3005C164.317 97.7005 165.917 98.2005 167.517 99.2005C168.517 99.9005 169.617 99.8005 170.417 98.8005C171.217 97.8005 171.017 96.8005 170.317 95.8005C168.917 93.9005 167.017 93.1005 164.417 92.8005Z" fill="#4F4F4F"/>
<path d="M162.217 109.1C160.417 108.7 158.617 109.5 156.917 110.7C155.817 111.5 155.017 112.6 155.917 114C156.617 115.2 157.917 115.5 159.017 114.8C161.817 113.1 164.017 113.8 166.117 116.1C166.917 117 168.217 117.5 169.317 116.4C170.317 115.4 169.917 114.2 169.217 113.1C167.517 110.9 165.417 109.4 162.217 109.1Z" fill="#4F4F4F"/>
<path d="M117.817 107.101C116.417 105.601 114.717 104.601 112.917 104.601C109.717 104.301 107.417 105.501 105.317 107.401C104.417 108.301 103.817 109.401 104.617 110.601C105.517 111.801 106.817 111.601 107.817 110.801C110.217 108.901 112.517 108.501 115.017 110.801C116.017 111.701 117.317 111.601 118.217 110.601C119.317 109.401 118.817 108.201 117.817 107.101Z" fill="#4F4F4F"/>
<path d="M203.417 106C203.717 105.7 203.917 105.3 204.117 104.9C204.517 104.3 204.717 103.6 204.817 102.8C204.817 102.8 204.817 102.8 204.817 102.7C204.817 102.6 204.917 102.4 204.917 102.3C206.017 94.9001 207.717 87.6001 207.617 80.0001C207.417 66.2001 204.317 53.7001 195.917 42.5001C193.517 39.4001 191.017 36.8001 188.217 34.8001C181.017 28.4001 171.817 24.4001 162.017 24.1001C156.517 19.2001 149.217 16.3001 141.817 15.7001C134.517 15.1001 125.417 16.2001 118.117 19.5001C111.817 21.1001 105.717 23.8001 99.8167 27.6001C96.9167 29.5001 93.8167 30.3001 90.5167 30.9001C89.3167 31.1001 88.1167 31.1001 86.9167 31.2001C85.8167 31.3001 84.6167 31.4001 84.4167 32.8001C84.2167 34.0001 85.2167 34.4001 86.0167 35.0001C87.4167 36.0001 89.1167 36.1001 91.3167 36.5001C81.9167 44.6001 76.1167 53.9001 73.9167 65.8001C72.4167 73.8001 72.3167 81.8001 72.1167 89.8001C72.1167 90.3001 72.1167 90.8001 72.2167 91.3001C72.2167 91.7001 72.3167 92.1001 72.5167 92.5001C72.6167 93.1001 72.9167 93.7001 73.3167 94.2001C68.2167 95.8001 64.5167 100.7 64.7167 106.7C65.0167 115.8 71.3167 123.3 80.5167 125.1C82.3167 125.5 83.0167 126.2 83.4167 127.9C85.2167 135.2 88.4167 142 92.9167 148.1C99.1167 156.4 107.917 161.2 117.017 165.4C133.617 173.2 129.817 172.6 147.717 168.2C166.017 163.8 180.117 154.3 187.617 136.6C188.317 134.9 189.417 135.2 190.717 135.1C200.317 134.2 208.817 129 209.717 118.1C210.217 113 207.317 108.3 203.417 106ZM188.817 129.9C186.517 129.5 185.517 130.3 184.617 131.9C183.317 134.2 182.217 136.5 180.917 138.7C176.417 146.3 171.117 153 163.017 157.1C154.217 161.5 144.717 163.8 135.217 166.2C133.117 166.7 131.117 166.6 129.217 165.6C123.617 162.9 117.917 160.5 112.517 157.5C104.917 153.3 98.1167 148.3 93.8167 140.4C90.9167 135 88.9167 129.3 87.0167 123.6C86.5167 122 86.0167 120.4 83.6167 120.3C75.9167 120.1 69.9167 114.2 69.5167 106.6C69.2167 100.2 74.9167 96.0001 80.7167 98.2001C81.8167 99.8001 82.5167 101.5 82.4167 103C82.3167 104.9 82.3167 106.8 84.7167 107C87.1167 107.2 87.8167 105.3 88.0167 103.3C88.9167 95.4001 89.8167 87.5001 90.4167 79.6001C90.6167 77.9001 91.0167 76.7001 92.5167 75.8001C98.2167 72.1001 102.817 67.2001 107.317 62.1001C108.417 60.9001 109.117 59.4001 111.217 58.5001C109.917 63.8001 107.917 68.4001 105.217 72.7001C104.317 74.1001 103.217 75.6001 104.417 77.3001C105.617 79.1001 107.517 78.6001 109.217 78.2001C117.217 76.1001 123.517 71.5001 129.017 65.5001C129.717 64.7001 130.217 63.5001 131.717 63.2001C132.017 66.8001 130.817 69.9001 129.917 73.1001C129.417 74.8001 128.717 76.6001 130.317 78.1001C131.917 79.6001 133.817 78.9001 135.617 78.2001C136.317 77.9001 137.017 77.6001 137.717 77.3001C143.317 74.9001 148.217 71.4001 153.017 67.0001C153.117 68.0001 153.217 68.5001 153.117 69.0001C152.817 71.1001 152.417 73.1001 152.017 75.2001C151.217 78.7001 152.917 80.6001 156.517 79.9001C160.217 79.2001 163.317 77.5001 166.417 75.4001C170.317 72.8001 174.017 69.8001 177.217 66.2001C178.017 71.8001 179.317 77.2001 181.217 82.6001C182.617 86.8001 184.617 90.9001 187.617 94.2001C187.717 99.2001 187.417 104.3 186.817 109.4C186.617 111 186.217 112.7 186.817 114.3C187.217 115.6 188.117 116.4 189.417 116.4C189.517 116.4 189.617 116.4 189.717 116.4C189.817 116.4 189.817 116.3 189.917 116.3C190.117 116.1 190.317 115.9 190.517 115.8C191.317 113.3 192.717 110.9 194.417 109C194.617 108.8 194.817 108.6 195.017 108.5C200.017 107.7 204.917 111.4 204.917 116.3C205.117 123.9 196.517 131.3 188.817 129.9Z" fill="#4F4F4F"/>
</svg>
