<svg width="48" height="48" viewBox="0 0 48 48" fill="none" xmlns="http://www.w3.org/2000/svg">
<path d="M32.4171 39.7227C40.8726 39.7227 47.7271 32.8681 47.7271 24.4126C47.7271 15.9571 40.8726 9.10254 32.4171 9.10254C23.9615 9.10254 17.107 15.9571 17.107 24.4126C17.107 32.8681 23.9615 39.7227 32.4171 39.7227Z" fill="black"/>
<path d="M15.31 39.2927C23.5273 39.2927 30.1888 32.6313 30.1888 24.4139C30.1888 16.1966 23.5273 9.53516 15.31 9.53516C7.09268 9.53516 0.431213 16.1966 0.431213 24.4139C0.431213 32.6313 7.09268 39.2927 15.31 39.2927Z" fill="white"/>
<path d="M15.3101 9.96508C23.2742 9.96508 29.7576 16.4485 29.7576 24.4126C29.7576 32.3767 23.2742 38.8601 15.3101 38.8601C7.34595 38.8601 0.862539 32.3767 0.862539 24.4126C0.862539 16.4485 7.34595 9.96508 15.3101 9.96508ZM15.3101 9.10254C6.85718 9.10254 0 15.9597 0 24.4126C0 32.8655 6.85718 39.7227 15.3101 39.7227C23.7629 39.7227 30.6201 32.8655 30.6201 24.4126C30.6201 15.9597 23.7629 9.10254 15.3101 9.10254Z" fill="black"/>
<path d="M6.54091 31.0982C8.56547 31.0982 10.2067 29.457 10.2067 27.4324C10.2067 25.4078 8.56547 23.7666 6.54091 23.7666C4.51635 23.7666 2.87512 25.4078 2.87512 27.4324C2.87512 29.457 4.51635 31.0982 6.54091 31.0982Z" fill="#FF8080"/>
<path d="M24.3668 31.0982C26.3913 31.0982 28.0326 29.457 28.0326 27.4324C28.0326 25.4078 26.3913 23.7666 24.3668 23.7666C22.3422 23.7666 20.701 25.4078 20.701 27.4324C20.701 29.457 22.3422 31.0982 24.3668 31.0982Z" fill="#FF8080"/>
<path d="M10.1348 26.2101C11.1272 26.2101 11.9317 25.4056 11.9317 24.4132C11.9317 23.4207 11.1272 22.6162 10.1348 22.6162C9.14235 22.6162 8.33783 23.4207 8.33783 24.4132C8.33783 25.4056 9.14235 26.2101 10.1348 26.2101Z" fill="black"/>
<path d="M11.0406 21.5836C10.9256 21.5836 10.8249 21.5404 10.7387 21.4542C10.5949 21.3104 10.3937 21.2242 10.178 21.2242C9.96239 21.2242 9.76113 21.3104 9.61737 21.4542C9.44487 21.6267 9.17173 21.6267 9.0136 21.4542C8.84109 21.2817 8.84109 21.0085 9.0136 20.8504C9.6605 20.2035 10.7099 20.2035 11.3568 20.8504C11.5293 21.0229 11.5293 21.2961 11.3568 21.4542C11.2562 21.5404 11.1412 21.5836 11.0406 21.5836Z" fill="black"/>
<path d="M21.5347 21.5836C21.4197 21.5836 21.3191 21.5404 21.2328 21.4542C21.0891 21.3104 20.8878 21.2242 20.6722 21.2242C20.4565 21.2242 20.2553 21.3104 20.1115 21.4542C19.939 21.6267 19.6659 21.6267 19.5077 21.4542C19.3352 21.2817 19.3352 21.0085 19.5077 20.8504C20.1546 20.2035 21.2041 20.2035 21.851 20.8504C22.0235 21.0229 22.0235 21.2961 21.851 21.4542C21.7503 21.5404 21.6353 21.5836 21.5347 21.5836Z" fill="black"/>
<path d="M17.3225 27.6487C17.3369 27.6487 17.3369 27.6487 17.3369 27.663C17.3369 27.6774 17.3369 27.6774 17.3369 27.6774C16.9919 28.4393 16.2156 28.9425 15.3675 28.9425C14.5193 28.9425 13.7574 28.4393 13.398 27.6774C13.398 27.663 13.398 27.663 13.398 27.663C13.398 27.6487 13.4124 27.6487 13.4124 27.6487H17.3225ZM17.3225 26.7861H13.4411C12.7942 26.7861 12.3773 27.4474 12.6361 28.0368C13.1105 29.0862 14.1599 29.805 15.3818 29.805C16.6038 29.805 17.6532 29.0719 18.1276 28.0368C18.4007 27.4474 17.9694 26.7861 17.3225 26.7861Z" fill="black"/>
<path d="M20.629 26.2101C21.6215 26.2101 22.426 25.4056 22.426 24.4132C22.426 23.4207 21.6215 22.6162 20.629 22.6162C19.6366 22.6162 18.8321 23.4207 18.8321 24.4132C18.8321 25.4056 19.6366 26.2101 20.629 26.2101Z" fill="black"/>
</svg>
